<svg xmlns="http://www.w3.org/2000/svg" viewBox="0 0 130.04 201.27"><defs><style>.cls-1{fill:#88468d;}.cls-2,.cls-3{fill:#eac47e;}.cls-3{fill-rule:evenodd;}</style></defs><g id="Layer_2" data-name="Layer 2"><g id="Layer_1-2" data-name="Layer 1"><rect class="cls-1" width="130.04" height="201.27" rx="6.37"/><path class="cls-2" d="M119.65,195.37H10.38a4.5,4.5,0,0,1-4.49-4.49V10.38a4.5,4.5,0,0,1,4.49-4.49H119.65a4.5,4.5,0,0,1,4.49,4.49v180.5A4.49,4.49,0,0,1,119.65,195.37ZM10.38,6.73a3.66,3.66,0,0,0-3.65,3.65v180.5a3.65,3.65,0,0,0,3.65,3.65H119.65a3.64,3.64,0,0,0,3.65-3.65V10.38a3.65,3.65,0,0,0-3.65-3.65Z"/><path class="cls-2" d="M109.92,10.7H20.12a.43.43,0,0,1,0-.85h89.8a.43.43,0,0,1,0,.85Z"/><rect class="cls-2" x="20.12" y="190.32" width="89.8" height="0.84"/><path class="cls-2" d="M10.37,180.38A.42.42,0,0,1,10,180V21.3a.42.42,0,1,1,.84,0V180A.42.42,0,0,1,10.37,180.38Z"/><path class="cls-2" d="M119.81,180.38a.42.42,0,0,1-.42-.42V21.3a.42.42,0,0,1,.42-.42.42.42,0,0,1,.42.42V180A.42.42,0,0,1,119.81,180.38Z"/><path class="cls-2" d="M11.05,13.21A2.25,2.25,0,1,1,13.3,11,2.25,2.25,0,0,1,11.05,13.21Zm0-4.25a2,2,0,1,0,2,2A2,2,0,0,0,11.05,9Z"/><path class="cls-3" d="M10.45,11a1.37,1.37,0,0,1,1.36-1.37h0A1.53,1.53,0,0,0,11,9.37a1.59,1.59,0,1,0,.81,3h0A1.36,1.36,0,0,1,10.45,11Z"/><polygon class="cls-3" points="10.49 13.82 10.84 14.41 11.5 14.24 11.33 14.9 11.92 15.25 11.33 15.6 11.5 16.26 10.84 16.1 10.49 16.68 10.14 16.1 9.47 16.26 9.64 15.6 9.05 15.25 9.64 14.9 9.47 14.24 10.14 14.41 10.49 13.82"/><polygon class="cls-3" points="13.86 10.4 14.45 10.05 14.28 9.39 14.94 9.55 15.29 8.97 15.64 9.55 16.3 9.39 16.14 10.05 16.72 10.4 16.14 10.75 16.3 11.41 15.64 11.24 15.29 11.83 14.94 11.24 14.28 11.41 14.45 10.75 13.86 10.4"/><polygon class="cls-3" points="10.49 17.36 10.72 17.74 11.15 17.63 11.04 18.07 11.43 18.3 11.04 18.53 11.15 18.97 10.72 18.86 10.49 19.25 10.26 18.86 9.82 18.97 9.93 18.53 9.54 18.3 9.93 18.07 9.82 17.63 10.26 17.74 10.49 17.36"/><polygon class="cls-3" points="17.39 10.4 17.78 10.17 17.67 9.73 18.11 9.84 18.34 9.45 18.57 9.84 19.01 9.73 18.9 10.17 19.29 10.4 18.9 10.63 19.01 11.07 18.57 10.96 18.34 11.34 18.11 10.96 17.67 11.07 17.78 10.63 17.39 10.4"/><path class="cls-3" d="M12.58,14.09a.26.26,0,0,1,.23.29.27.27,0,0,1-.29.23.27.27,0,0,1-.23-.29A.27.27,0,0,1,12.58,14.09Z"/><path class="cls-3" d="M14.5,12a.24.24,0,0,1,.23.28.26.26,0,0,1-.28.24.27.27,0,0,1-.24-.29A.26.26,0,0,1,14.5,12Z"/><path class="cls-3" d="M13.84,12.92a.55.55,0,1,1-.6.48A.53.53,0,0,1,13.84,12.92Z"/><path class="cls-2" d="M11.05,192.3a2.25,2.25,0,1,1,2.25-2.25A2.25,2.25,0,0,1,11.05,192.3Zm0-4.25a2,2,0,1,0,2,2A2,2,0,0,0,11.05,188.05Z"/><path class="cls-3" d="M10.45,190.05a1.37,1.37,0,0,0,1.36,1.37h0a1.59,1.59,0,1,1,0-2.74h0A1.36,1.36,0,0,0,10.45,190.05Z"/><polygon class="cls-3" points="10.49 187.19 10.84 186.6 11.5 186.77 11.33 186.11 11.92 185.76 11.33 185.41 11.5 184.75 10.84 184.92 10.49 184.33 10.14 184.92 9.47 184.75 9.64 185.41 9.05 185.76 9.64 186.11 9.47 186.77 10.14 186.6 10.49 187.19"/><polygon class="cls-3" points="13.86 190.62 14.45 190.97 14.28 191.63 14.94 191.46 15.29 192.04 15.64 191.46 16.3 191.63 16.14 190.97 16.72 190.62 16.14 190.26 16.3 189.6 15.64 189.77 15.29 189.18 14.94 189.77 14.28 189.6 14.45 190.26 13.86 190.62"/><polygon class="cls-3" points="10.49 183.66 10.72 183.27 11.15 183.38 11.04 182.94 11.43 182.71 11.04 182.48 11.15 182.04 10.72 182.15 10.49 181.77 10.26 182.15 9.82 182.04 9.93 182.48 9.54 182.71 9.93 182.94 9.82 183.38 10.26 183.27 10.49 183.66"/><polygon class="cls-3" points="17.39 190.62 17.78 190.84 17.67 191.28 18.11 191.17 18.34 191.56 18.57 191.17 19.01 191.28 18.9 190.84 19.29 190.62 18.9 190.38 19.01 189.94 18.57 190.06 18.34 189.67 18.11 190.06 17.67 189.94 17.78 190.38 17.39 190.62"/><path class="cls-3" d="M12.58,186.92a.25.25,0,0,0,.23-.29.27.27,0,0,0-.29-.23.27.27,0,0,0-.23.29A.26.26,0,0,0,12.58,186.92Z"/><path class="cls-3" d="M14.5,189a.24.24,0,0,0,.23-.28.25.25,0,0,0-.28-.23.26.26,0,1,0,.05.51Z"/><path class="cls-3" d="M13.84,188.09a.54.54,0,0,0,.49-.6.55.55,0,1,0-1.09.12A.53.53,0,0,0,13.84,188.09Z"/><path class="cls-2" d="M119,13.34a2.25,2.25,0,1,1,2.25-2.25A2.25,2.25,0,0,1,119,13.34Zm0-4.25a2,2,0,1,0,2,2A2,2,0,0,0,119,9.09Z"/><path class="cls-3" d="M119.59,11.09a1.37,1.37,0,0,0-1.37-1.37h0A1.62,1.62,0,0,1,119,9.5a1.59,1.59,0,0,1,0,3.18,1.62,1.62,0,0,1-.82-.22h0A1.37,1.37,0,0,0,119.59,11.09Z"/><polygon class="cls-3" points="119.55 13.95 119.2 14.53 118.54 14.37 118.7 15.03 118.12 15.38 118.7 15.73 118.54 16.39 119.2 16.22 119.55 16.81 119.9 16.22 120.56 16.39 120.39 15.73 120.98 15.38 120.39 15.03 120.56 14.37 119.9 14.53 119.55 13.95"/><polygon class="cls-3" points="116.18 10.53 115.59 10.18 115.76 9.51 115.09 9.68 114.74 9.09 114.39 9.68 113.73 9.51 113.9 10.18 113.31 10.53 113.9 10.88 113.73 11.54 114.39 11.37 114.74 11.96 115.09 11.37 115.76 11.54 115.59 10.88 116.18 10.53"/><polygon class="cls-3" points="119.55 17.48 119.32 17.87 118.88 17.76 118.99 18.2 118.6 18.43 118.99 18.66 118.88 19.1 119.32 18.98 119.55 19.37 119.78 18.98 120.22 19.1 120.11 18.66 120.49 18.43 120.11 18.2 120.22 17.76 119.78 17.87 119.55 17.48"/><polygon class="cls-3" points="112.64 10.53 112.25 10.29 112.36 9.86 111.92 9.97 111.69 9.58 111.46 9.97 111.03 9.86 111.14 10.29 110.75 10.53 111.14 10.76 111.03 11.19 111.46 11.08 111.69 11.47 111.92 11.08 112.36 11.19 112.25 10.76 112.64 10.53"/><path class="cls-3" d="M117.46,14.22a.26.26,0,1,0,.05.51.26.26,0,1,0-.05-.51Z"/><path class="cls-3" d="M115.53,12.09a.27.27,0,0,0-.23.29.27.27,0,0,0,.29.23.25.25,0,0,0,.23-.29A.27.27,0,0,0,115.53,12.09Z"/><path class="cls-3" d="M116.19,13a.55.55,0,0,0,.12,1.1.55.55,0,0,0-.12-1.1Z"/><path class="cls-2" d="M119,192.17a2.25,2.25,0,1,1,2.25-2.25A2.25,2.25,0,0,1,119,192.17Zm0-4.24a2,2,0,1,0,2,2A2,2,0,0,0,119,187.93Z"/><path class="cls-3" d="M119.59,189.92a1.37,1.37,0,0,1-1.37,1.37h0a1.63,1.63,0,0,0,.82.23,1.6,1.6,0,0,0,0-3.19,1.53,1.53,0,0,0-.82.23h0A1.36,1.36,0,0,1,119.59,189.92Z"/><polygon class="cls-3" points="119.55 187.07 119.2 186.48 118.54 186.65 118.7 185.98 118.12 185.63 118.7 185.28 118.54 184.62 119.2 184.79 119.55 184.2 119.9 184.79 120.56 184.62 120.39 185.28 120.98 185.63 120.39 185.98 120.56 186.65 119.9 186.48 119.55 187.07"/><polygon class="cls-3" points="116.18 190.49 115.59 190.84 115.76 191.5 115.09 191.33 114.74 191.92 114.39 191.33 113.73 191.5 113.9 190.84 113.31 190.49 113.9 190.14 113.73 189.47 114.39 189.64 114.74 189.06 115.09 189.64 115.76 189.47 115.59 190.14 116.18 190.49"/><polygon class="cls-3" points="119.55 183.53 119.32 183.14 118.88 183.25 118.99 182.81 118.6 182.58 118.99 182.35 118.88 181.92 119.32 182.03 119.55 181.64 119.78 182.03 120.22 181.92 120.11 182.35 120.49 182.58 120.11 182.81 120.22 183.25 119.78 183.14 119.55 183.53"/><polygon class="cls-3" points="112.64 190.49 112.25 190.72 112.36 191.15 111.92 191.04 111.69 191.43 111.46 191.04 111.03 191.15 111.14 190.72 110.75 190.49 111.14 190.26 111.03 189.82 111.46 189.93 111.69 189.54 111.92 189.93 112.36 189.82 112.25 190.26 112.64 190.49"/><path class="cls-3" d="M117.46,186.8a.27.27,0,0,1-.24-.29.27.27,0,0,1,.29-.23.24.24,0,0,1,.23.28A.26.26,0,0,1,117.46,186.8Z"/><path class="cls-3" d="M115.53,188.92a.26.26,0,0,1,.06-.52.26.26,0,0,1,.23.29A.27.27,0,0,1,115.53,188.92Z"/><path class="cls-3" d="M116.19,188a.55.55,0,0,1,.12-1.1.55.55,0,1,1-.12,1.1Z"/><path class="cls-3" d="M65.18,41.54l.21.66a.68.68,0,0,0,.8.46l.68-.15L66.4,43a.68.68,0,0,0,0,.92l.47.51-.68-.15a.68.68,0,0,0-.8.46l-.21.67L65,44.77a.67.67,0,0,0-.79-.46l-.69.15L64,44A.68.68,0,0,0,64,43l-.47-.52.69.15A.67.67,0,0,0,65,42.2Z"/><path class="cls-3" d="M17,65.18l.21.67a.69.69,0,0,0,.8.46l.68-.15-.47.51a.68.68,0,0,0,0,.92l.47.52L18,68a.7.7,0,0,0-.8.46l-.21.67-.21-.67A.68.68,0,0,0,16,68l-.69.16.47-.52a.66.66,0,0,0,0-.92l-.47-.51.69.15a.68.68,0,0,0,.79-.46Z"/><path class="cls-3" d="M111.9,61.3l.21.67a.7.7,0,0,0,.8.46l.68-.16-.47.52a.68.68,0,0,0,0,.92l.47.51-.68-.15a.68.68,0,0,0-.8.46l-.21.67-.21-.67a.67.67,0,0,0-.79-.46l-.69.15.48-.51a.68.68,0,0,0,0-.92l-.48-.52.69.16a.68.68,0,0,0,.79-.46Z"/><path class="cls-3" d="M17.38,55.66a.57.57,0,0,0,.57-.57.57.57,0,0,0-1.14,0A.57.57,0,0,0,17.38,55.66Z"/><path class="cls-3" d="M101.57,55.78a.57.57,0,0,0,.57-.57.56.56,0,0,0-.57-.57.57.57,0,0,0-.57.57A.58.58,0,0,0,101.57,55.78Z"/><path class="cls-3" d="M76.1,37.5a.57.57,0,0,0,0-1.14.57.57,0,0,0,0,1.14Z"/><path class="cls-3" d="M116.31,77a.58.58,0,0,0,0-1.15.58.58,0,0,0,0,1.15Z"/><path class="cls-3" d="M34.75,54.86a.57.57,0,0,0,.57-.57.58.58,0,1,0-.57.57Z"/><path class="cls-3" d="M13.72,82.62a.57.57,0,0,0,.58-.57.58.58,0,0,0-.58-.57.57.57,0,0,0-.56.57A.56.56,0,0,0,13.72,82.62Z"/><path class="cls-3" d="M53.59,39.79a.58.58,0,1,0-.57-.58A.58.58,0,0,0,53.59,39.79Z"/><path class="cls-3" d="M48.74,48.92a1.09,1.09,0,1,0-1.09-1.08A1.08,1.08,0,0,0,48.74,48.92Z"/><path class="cls-3" d="M88.61,51.21a1.09,1.09,0,1,0-1.09-1.09A1.09,1.09,0,0,0,88.61,51.21Z"/><path class="cls-3" d="M25.43,61.72a1.09,1.09,0,1,0-1.08-1.09A1.09,1.09,0,0,0,25.43,61.72Z"/><path class="cls-3" d="M113.85,53A1.09,1.09,0,1,0,112.77,52,1.09,1.09,0,0,0,113.85,53Z"/><path class="cls-3" d="M65.18,159.73l.21-.67a.69.69,0,0,1,.8-.46l.68.16-.47-.52a.68.68,0,0,1,0-.92l.47-.52-.68.15a.68.68,0,0,1-.8-.45l-.21-.67-.21.67a.67.67,0,0,1-.79.45l-.69-.15.47.52a.68.68,0,0,1,0,.92l-.47.52.69-.16a.68.68,0,0,1,.79.46Z"/><path class="cls-3" d="M17,136.08l.21-.66A.69.69,0,0,1,18,135l.68.16-.47-.52a.68.68,0,0,1,0-.92l.47-.51-.68.15a.68.68,0,0,1-.8-.46l-.21-.67-.21.67a.67.67,0,0,1-.79.46l-.69-.15.47.51a.66.66,0,0,1,0,.92l-.47.52L16,135a.68.68,0,0,1,.79.47Z"/><path class="cls-3" d="M111.9,140l.21-.67a.68.68,0,0,1,.8-.46l.68.15-.47-.51a.68.68,0,0,1,0-.92l.47-.52-.68.15a.68.68,0,0,1-.8-.46l-.21-.66-.21.66a.67.67,0,0,1-.79.46l-.69-.15.48.52a.68.68,0,0,1,0,.92l-.48.51.69-.15a.67.67,0,0,1,.79.46Z"/><path class="cls-3" d="M17.38,146.74a.57.57,0,0,0,.57-.57.57.57,0,0,0-1.14,0A.57.57,0,0,0,17.38,146.74Z"/><path class="cls-3" d="M101.57,146.63a.57.57,0,0,0,.57-.57.56.56,0,0,0-.57-.57.57.57,0,0,0-.57.57A.58.58,0,0,0,101.57,146.63Z"/><path class="cls-3" d="M76.1,164.91a.58.58,0,0,0,0-1.15.58.58,0,0,0,0,1.15Z"/><path class="cls-3" d="M116.31,125.38a.57.57,0,1,0,0-1.14.57.57,0,1,0,0,1.14Z"/><path class="cls-3" d="M34.75,147.54a.57.57,0,0,0,.57-.57.58.58,0,1,0-.57.57Z"/><path class="cls-3" d="M13.72,119.78a.57.57,0,0,0,.58-.57.58.58,0,0,0-.58-.57.57.57,0,0,0-.56.57A.56.56,0,0,0,13.72,119.78Z"/><path class="cls-3" d="M53.59,162.62a.56.56,0,0,0,.57-.57.57.57,0,0,0-.57-.57.58.58,0,0,0-.57.57A.57.57,0,0,0,53.59,162.62Z"/><path class="cls-3" d="M48.74,154.51a1.09,1.09,0,1,0-1.09-1.09A1.09,1.09,0,0,0,48.74,154.51Z"/><path class="cls-3" d="M88.61,152.23a1.09,1.09,0,1,0-1.09-1.09A1.09,1.09,0,0,0,88.61,152.23Z"/><path class="cls-3" d="M25.43,141.72a1.09,1.09,0,1,0-1.08-1.09A1.09,1.09,0,0,0,25.43,141.72Z"/><path class="cls-3" d="M113.85,150.4a1.09,1.09,0,1,0-1.08-1.09A1.09,1.09,0,0,0,113.85,150.4Z"/><path class="cls-2" d="M65,34.5a.42.42,0,0,1-.29-.12,12.84,12.84,0,0,1-3.48-9.21A12.86,12.86,0,0,1,64.75,16a.41.41,0,0,1,.58,0,12.86,12.86,0,0,1,3.48,9.21,12.84,12.84,0,0,1-3.48,9.21A.4.4,0,0,1,65,34.5Zm0-17.64a12.24,12.24,0,0,0-2.92,8.31A12.24,12.24,0,0,0,65,33.48,12.24,12.24,0,0,0,68,25.17,12.24,12.24,0,0,0,65,16.86Z"/><path class="cls-2" d="M64.82,34.67h0a10.27,10.27,0,0,1-7.09-4.4,10.21,10.21,0,0,1-1.91-8.11.42.42,0,0,1,.44-.33,10.28,10.28,0,0,1,7.09,4.4,10.26,10.26,0,0,1,1.92,8.11A.42.42,0,0,1,64.82,34.67Zm-8.3-12a9.54,9.54,0,0,0,1.86,7.06,9.53,9.53,0,0,0,6.11,4,9.54,9.54,0,0,0-1.86-7.06A9.58,9.58,0,0,0,56.52,22.72Z"/><path class="cls-2" d="M65.21,34.67a.42.42,0,0,1-.41-.33,10.23,10.23,0,0,1,1.93-8.11,10.26,10.26,0,0,1,7.08-4.4.42.42,0,0,1,.45.33,10.26,10.26,0,0,1-1.92,8.11,10.25,10.25,0,0,1-7.09,4.4Zm8.31-12a9.53,9.53,0,0,0-6.11,4,9.54,9.54,0,0,0-1.86,7.06,9.58,9.58,0,0,0,6.11-4A9.62,9.62,0,0,0,73.52,22.72Z"/><path class="cls-2" d="M60.91,35.79h0a10.31,10.31,0,0,1-3.6-.66A9.33,9.33,0,0,1,51.71,30a.41.41,0,0,1,.19-.52A10,10,0,0,1,65.11,34.3a.43.43,0,0,1-.19.52A8.37,8.37,0,0,1,60.91,35.79ZM52.64,30a9.21,9.21,0,0,0,11.54,4.21A9.24,9.24,0,0,0,52.64,30Z"/><path class="cls-2" d="M69.13,35.79a8.37,8.37,0,0,1-4-1,.41.41,0,0,1-.19-.52,9.94,9.94,0,0,1,13.21-4.83.43.43,0,0,1,.19.52,9.35,9.35,0,0,1-5.61,5.14A10.26,10.26,0,0,1,69.13,35.79Zm-3.27-1.54A9.2,9.2,0,0,0,77.39,30a9.22,9.22,0,0,0-11.53,4.21Z"/><path class="cls-2" d="M40.33,43.92a.42.42,0,0,1-.38-.25l-1.47-3.41L35,41.63a.42.42,0,0,1-.55-.55l1.37-3.45-3.41-1.47a.43.43,0,0,1-.25-.38.42.42,0,0,1,.25-.39l3.41-1.47-1.37-3.45a.42.42,0,0,1,.55-.55l3.45,1.37L40,27.88a.43.43,0,0,1,.38-.26h0a.46.46,0,0,1,.39.26l1.47,3.41,3.45-1.37a.42.42,0,0,1,.55.55l-1.37,3.45,3.41,1.47a.42.42,0,0,1,.25.39.43.43,0,0,1-.25.38l-3.41,1.47,1.37,3.45a.42.42,0,0,1-.55.55l-3.45-1.37-1.47,3.41A.43.43,0,0,1,40.33,43.92ZM38.7,39.3a.42.42,0,0,1,.39.25l1.24,2.89,1.25-2.89a.41.41,0,0,1,.54-.22l2.93,1.16-1.16-2.93a.41.41,0,0,1,.22-.54L47,35.78l-2.89-1.25a.41.41,0,0,1-.22-.54l1.16-2.93-2.93,1.16a.42.42,0,0,1-.54-.22l-1.25-2.89L39.09,32a.42.42,0,0,1-.54.22l-2.93-1.16L36.78,34a.41.41,0,0,1-.22.54l-2.89,1.25L36.56,37a.41.41,0,0,1,.22.54l-1.16,2.93,2.93-1.16Z"/><path class="cls-2" d="M89.7,43.92a.43.43,0,0,1-.39-.25l-1.47-3.41-3.45,1.37a.42.42,0,0,1-.45-.09.44.44,0,0,1-.1-.46l1.37-3.45-3.4-1.47a.42.42,0,0,1-.26-.38.41.41,0,0,1,.26-.39l3.4-1.47-1.37-3.45a.44.44,0,0,1,.1-.46.42.42,0,0,1,.45-.09l3.45,1.37,1.47-3.41a.44.44,0,0,1,.78,0l1.47,3.41L95,29.92a.41.41,0,0,1,.45.09.44.44,0,0,1,.1.46l-1.37,3.45,3.41,1.47a.42.42,0,0,1,.25.39.43.43,0,0,1-.25.38l-3.41,1.47L95.51,41a.45.45,0,0,1,.1.27.44.44,0,0,1-.43.42.74.74,0,0,1-.17,0l-3.45-1.37-1.47,3.41A.43.43,0,0,1,89.7,43.92ZM88.07,39.3a.4.4,0,0,1,.38.25l1.25,2.89L91,39.55a.41.41,0,0,1,.54-.22l2.92,1.16-1.16-2.93a.42.42,0,0,1,.23-.54l2.89-1.24-2.89-1.25a.42.42,0,0,1-.23-.54l1.16-2.93-2.92,1.16A.42.42,0,0,1,91,32L89.7,29.11,88.46,32a.44.44,0,0,1-.55.22L85,31.06,86.15,34a.42.42,0,0,1-.23.54L83,35.78,85.92,37a.42.42,0,0,1,.23.54L85,40.49l2.92-1.16A.41.41,0,0,1,88.07,39.3Z"/><path class="cls-2" d="M65,185.42a.46.46,0,0,1-.29-.11,13.94,13.94,0,0,1,0-18.43.43.43,0,0,1,.58,0,13.94,13.94,0,0,1,0,18.43A.44.44,0,0,1,65,185.42Zm0-17.63a13.27,13.27,0,0,0,0,16.61,13.24,13.24,0,0,0,0-16.61Z"/><path class="cls-2" d="M56.19,179.43a.41.41,0,0,1-.41-.32,10.9,10.9,0,0,1,9-12.51.42.42,0,0,1,.45.32,10.91,10.91,0,0,1-9,12.51Zm8.3-12a10.18,10.18,0,0,0-8,11.07,10.18,10.18,0,0,0,8-11.07Z"/><path class="cls-2" d="M73.85,179.43h0a10.91,10.91,0,0,1-9-12.51.43.43,0,0,1,.45-.32,10.91,10.91,0,0,1,9,12.51A.41.41,0,0,1,73.85,179.43Zm-8.3-12a10.18,10.18,0,0,0,8,11.07,10.18,10.18,0,0,0-8-11.07Z"/><path class="cls-2" d="M55.91,172.76a8.26,8.26,0,0,1-4-1,.4.4,0,0,1-.19-.51,9.94,9.94,0,0,1,13.21-4.83.42.42,0,0,1,.19.51,9.36,9.36,0,0,1-5.61,5.15A10.48,10.48,0,0,1,55.91,172.76Zm-3.27-1.53a8.74,8.74,0,0,0,6.57.09,8.64,8.64,0,0,0,5-4.31,9.23,9.23,0,0,0-11.54,4.22Z"/><path class="cls-2" d="M74.13,172.76h0a10.53,10.53,0,0,1-3.6-.65,9.34,9.34,0,0,1-5.6-5.15.4.4,0,0,1,.19-.51,10,10,0,0,1,13.21,4.83.42.42,0,0,1-.19.51A8.26,8.26,0,0,1,74.13,172.76ZM65.86,167a9.22,9.22,0,0,0,11.53,4.22,8.63,8.63,0,0,0-5-4.31A8.74,8.74,0,0,0,65.86,167Z"/><path class="cls-2" d="M40.33,173.64a.41.41,0,0,1-.38-.26L38.48,170,35,171.35a.44.44,0,0,1-.46-.1.42.42,0,0,1-.09-.45l1.37-3.45-3.41-1.48a.41.41,0,0,1,0-.76l3.41-1.48-1.37-3.45a.42.42,0,0,1,.09-.45.44.44,0,0,1,.46-.1L38.48,161,40,157.6a.44.44,0,0,1,.77,0l1.47,3.4,3.45-1.37a.44.44,0,0,1,.46.1.42.42,0,0,1,.09.45l-1.37,3.45,3.41,1.48a.41.41,0,0,1,0,.76l-3.41,1.48,1.33,3.34a.39.39,0,0,1,.09.26.42.42,0,0,1-.43.42.52.52,0,0,1-.17,0L42.19,170l-1.47,3.4A.42.42,0,0,1,40.33,173.64ZM38.7,169a.43.43,0,0,1,.39.26l1.24,2.89,1.25-2.89a.42.42,0,0,1,.54-.23l2.93,1.16-1.16-2.92a.41.41,0,0,1,.22-.54L47,165.49l-2.89-1.25a.41.41,0,0,1-.22-.54l1.16-2.92-2.93,1.16a.42.42,0,0,1-.54-.23l-1.25-2.89-1.24,2.89a.43.43,0,0,1-.54.23l-2.93-1.16,1.16,2.92a.41.41,0,0,1-.22.54l-2.89,1.25,2.89,1.25a.41.41,0,0,1,.22.54l-1.16,2.92L38.55,169Z"/><path class="cls-2" d="M89.7,173.64h0a.42.42,0,0,1-.39-.26L87.84,170l-3.45,1.37a.43.43,0,0,1-.55-.55l1.37-3.45-3.4-1.48a.41.41,0,0,1,0-.76l3.4-1.48-1.37-3.45a.43.43,0,0,1,.55-.55L87.84,161l1.47-3.4a.44.44,0,0,1,.78,0l1.47,3.4L95,159.63a.43.43,0,0,1,.55.55l-1.37,3.45,3.41,1.48a.41.41,0,0,1,0,.76l-3.41,1.48,1.37,3.45a.42.42,0,0,1-.1.45.41.41,0,0,1-.45.1L91.56,170l-1.47,3.4A.42.42,0,0,1,89.7,173.64ZM88.07,169a.43.43,0,0,1,.39.26l1.24,2.89L91,169.27a.42.42,0,0,1,.54-.23l2.92,1.16-1.16-2.92a.42.42,0,0,1,.23-.54l2.89-1.25-2.89-1.25a.42.42,0,0,1-.23-.54l1.16-2.92-2.92,1.16a.42.42,0,0,1-.54-.23l-1.25-2.89-1.25,2.89a.42.42,0,0,1-.54.23L85,160.78l1.16,2.92a.42.42,0,0,1-.23.54L83,165.49l2.88,1.25a.42.42,0,0,1,.23.54L85,170.2,87.91,169A.45.45,0,0,1,88.07,169Z"/><path class="cls-3" d="M65,51.37A49.92,49.92,0,1,1,29.71,66,49.78,49.78,0,0,1,65,51.37ZM99.58,66.73a48.9,48.9,0,1,0,14.31,34.56A48.76,48.76,0,0,0,99.58,66.73Z"/><path class="cls-3" d="M65,56.1a45.2,45.2,0,1,1-32,13.24A45,45,0,0,1,65,56.1ZM96.56,69.75a44.6,44.6,0,1,0,13.07,31.54A44.48,44.48,0,0,0,96.56,69.75Z"/><path class="cls-3" d="M65,57.81A43.5,43.5,0,1,1,34.27,70.55,43.35,43.35,0,0,1,65,57.81Zm30.5,13a43.15,43.15,0,1,0,12.63,30.5A43,43,0,0,0,95.52,70.79Z"/><path class="cls-3" d="M65,53.16a1.08,1.08,0,1,1-1.08,1.07A1.07,1.07,0,0,1,65,53.16Z"/><path class="cls-3" d="M65,147.28a1.08,1.08,0,1,1-1.08,1.08A1.07,1.07,0,0,1,65,147.28Z"/><path class="cls-3" d="M77.48,54.8a1.08,1.08,0,0,1-.56,2.08,1.08,1.08,0,0,1,.56-2.08Z"/><path class="cls-3" d="M53.12,145.72a1.07,1.07,0,1,1-1.32.75A1.07,1.07,0,0,1,53.12,145.72Z"/><path class="cls-3" d="M89.08,59.61a1.07,1.07,0,1,1-1.46.39A1.06,1.06,0,0,1,89.08,59.61Z"/><path class="cls-3" d="M42,141.12A1.07,1.07,0,1,1,41,143,1.07,1.07,0,0,1,42,141.12Z"/><path class="cls-3" d="M99.05,67.26a1.07,1.07,0,0,1,0,1.52,1.07,1.07,0,1,1,0-1.52Z"/><path class="cls-3" d="M32.5,133.81a1.07,1.07,0,1,1-1.52,0A1.07,1.07,0,0,1,32.5,133.81Z"/><path class="cls-3" d="M106.7,77.23a1.07,1.07,0,1,1-1.46-.4A1.07,1.07,0,0,1,106.7,77.23Z"/><path class="cls-3" d="M25.19,124.29a1.08,1.08,0,1,1-1.47-.39A1.08,1.08,0,0,1,25.19,124.29Z"/><path class="cls-3" d="M111.51,88.84a1.07,1.07,0,1,1-1.31-.76A1.06,1.06,0,0,1,111.51,88.84Z"/><path class="cls-3" d="M20.6,113.2a1.08,1.08,0,1,1-1.32-.76A1.07,1.07,0,0,1,20.6,113.2Z"/><path class="cls-3" d="M113.15,101.29a1.08,1.08,0,1,1-1.07-1.07A1.07,1.07,0,0,1,113.15,101.29Z"/><path class="cls-3" d="M19,101.29A1.08,1.08,0,1,1,18,100.22,1.07,1.07,0,0,1,19,101.29Z"/><path class="cls-3" d="M111.51,113.75a1.07,1.07,0,1,1-.76-1.31A1.06,1.06,0,0,1,111.51,113.75Z"/><path class="cls-3" d="M20.6,89.39a1.08,1.08,0,1,1-.76-1.31A1.07,1.07,0,0,1,20.6,89.39Z"/><path class="cls-3" d="M106.7,125.37a1.08,1.08,0,1,1-.39-1.47A1.07,1.07,0,0,1,106.7,125.37Z"/><path class="cls-3" d="M25.19,78.3a1.07,1.07,0,1,1-.39-1.47A1.08,1.08,0,0,1,25.19,78.3Z"/><path class="cls-3" d="M99.05,135.33a1.07,1.07,0,1,1,0-1.52A1.07,1.07,0,0,1,99.05,135.33Z"/><circle class="cls-2" cx="31.74" cy="68.02" r="1.07"/><path class="cls-3" d="M89.08,143a1.06,1.06,0,0,1-1.46-.39,1.07,1.07,0,1,1,1.86-1.07A1.07,1.07,0,0,1,89.08,143Z"/><path class="cls-3" d="M42,61.47a1.06,1.06,0,0,1-1.46-.39,1.08,1.08,0,1,1,1.46.39Z"/><path class="cls-3" d="M77.48,147.79a1.07,1.07,0,1,1,.75-1.32A1.06,1.06,0,0,1,77.48,147.79Z"/><path class="cls-3" d="M53.12,56.88a1.08,1.08,0,1,1,.76-1.32A1.08,1.08,0,0,1,53.12,56.88Z"/><path class="cls-3" d="M46.6,56.82a1.08,1.08,0,0,1,1.4.59,1.08,1.08,0,0,1-2,.82,1.09,1.09,0,0,1,.59-1.41Zm.13.33a.72.72,0,0,0-.39,1,.73.73,0,0,0,.94.39.74.74,0,0,0,.4-1A.72.72,0,0,0,46.73,57.15Z"/><path class="cls-3" d="M82.61,143.78a1.09,1.09,0,0,1,1.41.59,1.07,1.07,0,0,1-.58,1.4,1.08,1.08,0,0,1-.83-2Zm.14.33a.72.72,0,0,0-.4.94.73.73,0,1,0,1.35-.55A.72.72,0,0,0,82.75,144.11Z"/><path class="cls-3" d="M58.73,53.57A1.07,1.07,0,1,1,59,55.7a1.07,1.07,0,0,1-1.2-.92,1.08,1.08,0,0,1,.92-1.21Zm.05.35a.73.73,0,0,0-.63.81.74.74,0,0,0,.82.63.73.73,0,0,0-.19-1.44Z"/><path class="cls-3" d="M71,146.89a1.07,1.07,0,1,1-.93,1.21,1.08,1.08,0,0,1,.93-1.21Zm0,.34a.74.74,0,0,0-.62.82.71.71,0,0,0,.81.62.72.72,0,0,0,.63-.81A.73.73,0,0,0,71.06,147.23Z"/><path class="cls-3" d="M71.3,53.57a1.09,1.09,0,0,1,.93,1.21,1.08,1.08,0,1,1-.93-1.21Zm0,.35a.73.73,0,0,0-.81.62.73.73,0,1,0,1.44.19A.73.73,0,0,0,71.25,53.92Z"/><path class="cls-3" d="M59,146.89a1.07,1.07,0,1,1-1.2.92,1.08,1.08,0,0,1,1.2-.92Zm0,.34a.74.74,0,0,0-.82.63.72.72,0,0,0,.63.81.71.71,0,0,0,.81-.62A.72.72,0,0,0,59,147.23Z"/><path class="cls-3" d="M83.44,56.82a1.08,1.08,0,1,1-1.41.59,1.09,1.09,0,0,1,1.41-.59Zm-.14.33a.73.73,0,0,0-1,.39.73.73,0,1,0,1-.39Z"/><path class="cls-3" d="M47.42,143.78a1.08,1.08,0,1,1-1.41.59,1.09,1.09,0,0,1,1.41-.59Zm-.14.33a.71.71,0,0,0-.94.39.72.72,0,0,0,.39.95.73.73,0,0,0,1-.4A.72.72,0,0,0,47.28,144.11Z"/><path class="cls-3" d="M94.32,63.11a1.07,1.07,0,1,1-1.51.19,1.08,1.08,0,0,1,1.51-.19Zm-.21.27a.73.73,0,0,0-1,.14.74.74,0,0,0,.13,1,.73.73,0,0,0,.89-1.16Z"/><path class="cls-3" d="M37,137.78a1.08,1.08,0,0,1,.2,1.51,1.07,1.07,0,0,1-1.51.19,1.07,1.07,0,0,1,1.31-1.7Zm-.21.28a.72.72,0,0,0-1,.13.73.73,0,0,0,.14,1,.72.72,0,0,0,1-.14A.71.71,0,0,0,36.81,138.06Z"/><path class="cls-3" d="M103.21,72a1.08,1.08,0,1,1-1.51-.2,1.08,1.08,0,0,1,1.51.2Zm-.28.21a.74.74,0,0,0-1-.13.73.73,0,0,0,.89,1.15A.74.74,0,0,0,102.93,72.2Z"/><path class="cls-3" d="M28.53,129.29a1.07,1.07,0,1,1-1.5-.2,1.07,1.07,0,0,1,1.5.2Zm-.27.21a.74.74,0,0,0-1-.13.72.72,0,1,0,1,.13Z"/><path class="cls-3" d="M109.49,82.87a1.08,1.08,0,1,1-1.41-.58,1.09,1.09,0,0,1,1.41.58Zm-.32.14a.72.72,0,0,0-1-.39.71.71,0,0,0-.39.94.73.73,0,0,0,.94.4A.74.74,0,0,0,109.17,83Z"/><path class="cls-3" d="M22.53,118.89A1.08,1.08,0,0,1,22,120.3a1.06,1.06,0,0,1-1.4-.58,1.07,1.07,0,1,1,2-.83Zm-.32.14a.73.73,0,0,0-.95-.4.72.72,0,0,0-.39,1,.73.73,0,0,0,.95.4A.74.74,0,0,0,22.21,119Z"/><path class="cls-3" d="M112.74,95a1.07,1.07,0,1,1-1.2-.92,1.07,1.07,0,0,1,1.2.92Zm-.34,0a.74.74,0,0,0-.82-.63.73.73,0,1,0,.82.63Z"/><path class="cls-3" d="M19.42,107.3a1.06,1.06,0,0,1-.92,1.2,1.07,1.07,0,0,1-1.21-.92,1.09,1.09,0,0,1,.93-1.21,1.06,1.06,0,0,1,1.2.93Zm-.34,0a.74.74,0,0,0-.82-.63.73.73,0,1,0,.82.63Z"/><path class="cls-3" d="M112.74,107.58a1.07,1.07,0,0,1-2.13-.28,1.07,1.07,0,1,1,2.13.28Zm-.34,0a.73.73,0,1,0-1.44-.18.71.71,0,0,0,.62.81A.74.74,0,0,0,112.4,107.53Z"/><path class="cls-3" d="M19.42,95.29a1.06,1.06,0,0,1-1.2.93A1.09,1.09,0,0,1,17.29,95a1.07,1.07,0,0,1,2.13.28Zm-.34,0a.74.74,0,0,0-.63-.82.73.73,0,0,0-.19,1.44A.74.74,0,0,0,19.08,95.25Z"/><path class="cls-3" d="M109.49,119.72a1.08,1.08,0,0,1-1.41.58,1.08,1.08,0,1,1,1.41-.58Zm-.32-.14a.74.74,0,0,0-.4-1,.73.73,0,0,0-.55,1.35A.74.74,0,0,0,109.17,119.58Z"/><path class="cls-3" d="M22.53,83.7a1.07,1.07,0,0,1-1.4.58,1.08,1.08,0,1,1,1.4-.58Zm-.32-.14a.73.73,0,0,0-.39-.94A.73.73,0,1,0,21.26,84,.73.73,0,0,0,22.21,83.56Z"/><path class="cls-3" d="M103.21,130.6a1.08,1.08,0,1,1-.2-1.51,1.08,1.08,0,0,1,.2,1.51Zm-.28-.21a.73.73,0,0,0-1.15-.89.72.72,0,0,0,.13,1A.73.73,0,0,0,102.93,130.39Z"/><path class="cls-3" d="M28.53,73.3a1.07,1.07,0,0,1-1.5.2,1.08,1.08,0,0,1-.2-1.51,1.07,1.07,0,1,1,1.7,1.31Zm-.27-.21a.73.73,0,0,0-.14-1,.74.74,0,0,0-1,.13.73.73,0,0,0,.14,1A.72.72,0,0,0,28.26,73.09Z"/><path class="cls-3" d="M94.32,139.48a1.07,1.07,0,1,1,.2-1.5,1.07,1.07,0,0,1-.2,1.5Zm-.21-.27a.73.73,0,0,0,.13-1,.72.72,0,0,0-1.15.88A.73.73,0,0,0,94.11,139.21Z"/><path class="cls-3" d="M37,64.81a1.07,1.07,0,1,1,.2-1.51,1.08,1.08,0,0,1-.2,1.51Zm-.21-.27a.73.73,0,0,0-.88-1.16.73.73,0,1,0,.88,1.16Z"/><path class="cls-2" d="M65,139.83a.2.2,0,0,1-.2-.2V129.47a.2.2,0,0,1,.4,0v10.16A.2.2,0,0,1,65,139.83Zm0-66.52a.19.19,0,0,1-.2-.19V63a.2.2,0,0,1,.4,0V73.12A.19.19,0,0,1,65,73.31Z"/><path class="cls-2" d="M74.94,138.52a.2.2,0,0,1-.19-.14l-2.63-9.81a.19.19,0,0,1,.14-.24.19.19,0,0,1,.24.14l2.63,9.8a.2.2,0,0,1-.14.25ZM57.72,74.27a.2.2,0,0,1-.19-.15l-2.63-9.8a.2.2,0,0,1,.39-.11L57.91,74a.19.19,0,0,1-.14.24Z"/><path class="cls-2" d="M84.18,134.7a.22.22,0,0,1-.17-.1l-5.07-8.8a.19.19,0,0,1,.07-.27.21.21,0,0,1,.27.07l5.08,8.8a.2.2,0,0,1-.08.27A.17.17,0,0,1,84.18,134.7ZM50.93,77.09a.22.22,0,0,1-.18-.1L45.68,68.2a.21.21,0,0,1,.07-.28A.2.2,0,0,1,46,68l5.08,8.79a.21.21,0,0,1-.07.27Z"/><path class="cls-2" d="M92.13,128.6a.2.2,0,0,1-.15-.06l-7.18-7.18a.2.2,0,0,1,.28-.28l7.19,7.18a.21.21,0,0,1,0,.28A.22.22,0,0,1,92.13,128.6Zm-47-47a.2.2,0,0,1-.14-.06l-7.18-7.18a.2.2,0,1,1,.28-.28l7.18,7.18a.19.19,0,0,1,0,.28A.2.2,0,0,1,45.09,81.57Z"/><path class="cls-2" d="M98.22,120.66a.17.17,0,0,1-.1,0l-8.8-5.07a.21.21,0,0,1-.07-.27.19.19,0,0,1,.27-.07l8.8,5.07a.21.21,0,0,1,.07.27A.19.19,0,0,1,98.22,120.66ZM40.61,87.4l-.1,0L31.72,82.3a.2.2,0,0,1-.08-.27.21.21,0,0,1,.28-.08L40.71,87a.2.2,0,0,1,.07.27A.19.19,0,0,1,40.61,87.4Z"/><path class="cls-2" d="M102.05,111.42h0l-9.81-2.63a.2.2,0,0,1,.1-.38L102.1,111a.19.19,0,0,1,.14.24A.21.21,0,0,1,102.05,111.42ZM37.79,94.2h0l-9.8-2.63a.19.19,0,0,1-.14-.24.2.2,0,0,1,.24-.14l9.8,2.63a.2.2,0,0,1-.05.39Z"/><path class="cls-2" d="M103.35,101.49H93.19a.19.19,0,0,1-.19-.2.2.2,0,0,1,.19-.19h10.16a.2.2,0,0,1,.2.19A.19.19,0,0,1,103.35,101.49Zm-66.51,0H26.68a.19.19,0,0,1-.2-.2.2.2,0,0,1,.2-.19H36.84a.2.2,0,0,1,.2.19A.19.19,0,0,1,36.84,101.49Z"/><path class="cls-2" d="M28,111.42a.19.19,0,0,1-.19-.15.19.19,0,0,1,.14-.24l9.8-2.63a.19.19,0,0,1,.24.14.19.19,0,0,1-.14.24L28,111.41ZM92.24,94.2a.2.2,0,0,1,0-.39L102,91.18a.21.21,0,0,1,.24.14.19.19,0,0,1-.14.24l-9.81,2.63Z"/><path class="cls-2" d="M31.82,120.66a.2.2,0,0,1-.1-.37l8.79-5.07a.19.19,0,0,1,.27.07.2.2,0,0,1-.07.27l-8.79,5.07A.19.19,0,0,1,31.82,120.66ZM89.42,87.4a.2.2,0,0,1-.17-.1.21.21,0,0,1,.07-.27L98.12,82a.2.2,0,0,1,.27.08.21.21,0,0,1-.07.27l-8.8,5.08Z"/><path class="cls-2" d="M37.91,128.6a.2.2,0,0,1-.14-.06.19.19,0,0,1,0-.28L45,121.08a.2.2,0,1,1,.28.28l-7.18,7.18A.2.2,0,0,1,37.91,128.6Zm47-47a.2.2,0,0,1-.14-.06.19.19,0,0,1,0-.28L92,74.05a.21.21,0,0,1,.29,0,.21.21,0,0,1,0,.28l-7.19,7.18A.2.2,0,0,1,84.94,81.57Z"/><path class="cls-2" d="M45.85,134.7a.17.17,0,0,1-.1,0,.2.2,0,0,1-.07-.27l5.07-8.8a.22.22,0,0,1,.28-.07.21.21,0,0,1,.07.27L46,134.6A.21.21,0,0,1,45.85,134.7ZM79.11,77.09a.17.17,0,0,1-.1,0,.19.19,0,0,1-.07-.27L84,68a.2.2,0,0,1,.27-.08.21.21,0,0,1,.08.28L79.28,77A.21.21,0,0,1,79.11,77.09Z"/><path class="cls-2" d="M55.09,138.52H55a.22.22,0,0,1-.14-.25l2.63-9.8a.19.19,0,0,1,.24-.14.19.19,0,0,1,.14.24l-2.62,9.81A.22.22,0,0,1,55.09,138.52ZM72.31,74.27h0a.19.19,0,0,1-.14-.24l2.63-9.81a.21.21,0,0,1,.24-.14.2.2,0,0,1,.14.25l-2.63,9.8A.19.19,0,0,1,72.31,74.27Z"/><path class="cls-2" d="M79.69,136.91a.21.21,0,0,1-.19-.12l-3.88-9.38a.2.2,0,0,1,.11-.26.21.21,0,0,1,.26.11l3.88,9.38a.2.2,0,0,1-.11.26ZM54.23,75.45a.18.18,0,0,1-.18-.12L50.16,66a.2.2,0,0,1,.37-.15l3.89,9.38a.2.2,0,0,1-.11.26Z"/><path class="cls-2" d="M88.35,131.91a.21.21,0,0,1-.15-.08L82,123.77a.2.2,0,1,1,.32-.24l6.18,8.06a.2.2,0,0,1,0,.28A.28.28,0,0,1,88.35,131.91ZM47.86,79.14a.18.18,0,0,1-.15-.08L41.52,71a.2.2,0,0,1,.32-.24L48,78.82a.2.2,0,0,1,0,.28A.25.25,0,0,1,47.86,79.14Z"/><path class="cls-2" d="M95.43,124.83a.19.19,0,0,1-.12,0l-8.06-6.18a.19.19,0,0,1,0-.28.18.18,0,0,1,.27,0l8.06,6.19a.19.19,0,0,1,0,.27A.21.21,0,0,1,95.43,124.83ZM42.66,84.34a.19.19,0,0,1-.12,0l-8.06-6.18a.2.2,0,0,1,0-.28.18.18,0,0,1,.27,0L42.78,84a.2.2,0,0,1,0,.28A.21.21,0,0,1,42.66,84.34Z"/><path class="cls-2" d="M100.44,116.17l-.08,0L91,112.27a.21.21,0,0,1-.11-.26.2.2,0,0,1,.26-.11l9.38,3.88a.2.2,0,0,1-.07.39ZM39,90.71l-.08,0-9.38-3.88a.2.2,0,0,1,.15-.37l9.38,3.89a.19.19,0,0,1,.11.26A.21.21,0,0,1,39,90.71Z"/><path class="cls-2" d="M103,106.5h0l-10.07-1.33a.2.2,0,0,1,0-.39l10.07,1.32a.2.2,0,0,1,.17.23A.19.19,0,0,1,103,106.5ZM37.08,97.82h0L27,96.49a.21.21,0,0,1-.17-.22A.2.2,0,0,1,27,96.1L37.1,97.42a.19.19,0,0,1,.17.22A.2.2,0,0,1,37.08,97.82Z"/><path class="cls-2" d="M27,106.5a.2.2,0,0,1-.2-.17.21.21,0,0,1,.17-.23l10.07-1.32a.19.19,0,0,1,.22.17.19.19,0,0,1-.17.22L27,106.5ZM93,97.82a.2.2,0,0,1-.2-.18.2.2,0,0,1,.17-.22L103,96.1a.19.19,0,0,1,.22.17.2.2,0,0,1-.17.22L93,97.81Z"/><path class="cls-2" d="M29.6,116.17a.21.21,0,0,1-.08-.39l9.38-3.88a.19.19,0,0,1,.26.11.2.2,0,0,1-.11.26l-9.38,3.88ZM91.06,90.71a.21.21,0,0,1-.19-.12.2.2,0,0,1,.11-.26l9.38-3.89a.2.2,0,0,1,.15.37l-9.38,3.88Z"/><path class="cls-2" d="M34.6,124.83a.2.2,0,0,1-.12-.35l8.06-6.19a.2.2,0,1,1,.24.32l-8.06,6.18A.16.16,0,0,1,34.6,124.83ZM87.37,84.34a.18.18,0,0,1-.15-.08.2.2,0,0,1,0-.28l8.06-6.18a.2.2,0,0,1,.28,0,.21.21,0,0,1,0,.28L87.49,84.3A.16.16,0,0,1,87.37,84.34Z"/><path class="cls-2" d="M41.68,131.91a.28.28,0,0,1-.12,0,.2.2,0,0,1,0-.28l6.19-8.06a.19.19,0,0,1,.27,0,.2.2,0,0,1,0,.28l-6.18,8.06A.21.21,0,0,1,41.68,131.91ZM82.17,79.14a.19.19,0,0,1-.12,0,.2.2,0,0,1,0-.28l6.19-8.06a.2.2,0,1,1,.31.24l-6.18,8.06A.21.21,0,0,1,82.17,79.14Z"/><path class="cls-2" d="M50.35,136.91h-.08a.2.2,0,0,1-.11-.26l3.89-9.38a.2.2,0,0,1,.37.15l-3.89,9.38A.19.19,0,0,1,50.35,136.91ZM75.8,75.45h-.07a.2.2,0,0,1-.11-.26L79.5,65.8a.2.2,0,0,1,.37.15L76,75.33A.21.21,0,0,1,75.8,75.45Z"/><path class="cls-2" d="M60,139.5h0a.19.19,0,0,1-.17-.22l1.32-10.07a.2.2,0,0,1,.22-.17.2.2,0,0,1,.18.22l-1.33,10.07A.2.2,0,0,1,60,139.5ZM68.7,73.55h0a.19.19,0,0,1-.17-.22l1.32-10.07a.21.21,0,0,1,.23-.17.2.2,0,0,1,.17.22L68.89,73.38A.19.19,0,0,1,68.7,73.55Z"/><path class="cls-2" d="M70,139.5a.2.2,0,0,1-.2-.17L68.5,129.26a.19.19,0,0,1,.17-.22.19.19,0,0,1,.22.17l1.33,10.07a.19.19,0,0,1-.17.22ZM61.34,73.55a.2.2,0,0,1-.2-.17L59.82,63.31a.2.2,0,1,1,.39-.05l1.33,10.07a.2.2,0,0,1-.18.22Z"/><polygon class="cls-3" points="63.88 63.07 65.02 59.7 66.15 63.07 65.02 64.76 63.88 63.07"/><path class="cls-3" d="M65,65.41a.72.72,0,1,1-.72.72A.72.72,0,0,1,65,65.41Z"/><path class="cls-3" d="M64.57,67.85h.89a.42.42,0,0,1,.43.42h0a.42.42,0,0,1-.43.42h-.89a.42.42,0,0,1-.42-.42h0A.42.42,0,0,1,64.57,67.85Z"/><polygon class="cls-3" points="63.88 139.52 65.02 142.9 66.15 139.52 65.02 137.83 63.88 139.52"/><path class="cls-3" d="M65,137.18a.72.72,0,1,0-.72-.72A.72.72,0,0,0,65,137.18Z"/><path class="cls-3" d="M64.57,134.74h.89a.42.42,0,0,0,.43-.42h0a.42.42,0,0,0-.43-.42h-.89a.42.42,0,0,0-.42.42h0A.42.42,0,0,0,64.57,134.74Z"/><polygon class="cls-3" points="103.24 100.16 106.62 101.3 103.24 102.43 101.55 101.3 103.24 100.16"/><path class="cls-3" d="M100.9,101.29a.72.72,0,1,1-.72-.72A.73.73,0,0,1,100.9,101.29Z"/><path class="cls-3" d="M98.47,100.85v.89a.43.43,0,0,1-.43.42h0a.42.42,0,0,1-.42-.42v-.89a.42.42,0,0,1,.42-.42h0A.43.43,0,0,1,98.47,100.85Z"/><polygon class="cls-3" points="26.79 100.16 23.41 101.3 26.79 102.43 28.48 101.3 26.79 100.16"/><path class="cls-3" d="M29.13,101.29a.73.73,0,1,0,.72-.72A.73.73,0,0,0,29.13,101.29Z"/><path class="cls-3" d="M31.57,100.85v.89a.42.42,0,0,0,.42.42h0a.42.42,0,0,0,.43-.42v-.89a.42.42,0,0,0-.43-.42h0A.42.42,0,0,0,31.57,100.85Z"/><polygon class="cls-3" points="73.81 64.08 75.78 61.11 76.01 64.67 74.47 66.01 73.81 64.08"/><path class="cls-3" d="M74.31,66.63a.73.73,0,0,1-.38,1.4.73.73,0,1,1,.38-1.4Z"/><path class="cls-3" d="M73.24,68.87l.86.23a.42.42,0,0,1,.3.52h0a.42.42,0,0,1-.52.3L73,69.69a.41.41,0,0,1-.29-.52h0A.42.42,0,0,1,73.24,68.87Z"/><polygon class="cls-3" points="54.03 137.92 54.25 141.48 56.22 138.51 55.56 136.59 54.03 137.92"/><path class="cls-3" d="M55.73,136a.72.72,0,1,0-.51-.89A.74.74,0,0,0,55.73,136Z"/><path class="cls-3" d="M55.93,133.49l.86.23a.43.43,0,0,0,.52-.3h0a.43.43,0,0,0-.3-.52l-.86-.23a.43.43,0,0,0-.52.3h0A.43.43,0,0,0,55.93,133.49Z"/><polygon class="cls-3" points="83.14 67.63 85.82 65.27 85.11 68.76 83.28 69.65 83.14 67.63"/><path class="cls-3" d="M83,70.22a.72.72,0,1,1-1,.26A.73.73,0,0,1,83,70.22Z"/><path class="cls-3" d="M81.35,72.11l.78.44a.42.42,0,0,1,.15.58h0a.43.43,0,0,1-.58.16l-.77-.45a.42.42,0,0,1-.15-.58h0A.41.41,0,0,1,81.35,72.11Z"/><polygon class="cls-3" points="44.92 133.83 44.22 137.32 46.89 134.97 46.75 132.94 44.92 133.83"/><path class="cls-3" d="M47.07,132.37a.72.72,0,1,0-.26-1A.72.72,0,0,0,47.07,132.37Z"/><path class="cls-3" d="M47.91,130l.77.44a.42.42,0,0,0,.58-.15h0a.44.44,0,0,0-.16-.58l-.77-.44a.42.42,0,0,0-.58.15h0A.44.44,0,0,0,47.91,130Z"/><polygon class="cls-3" points="91.24 73.46 94.43 71.88 92.85 75.07 90.85 75.46 91.24 73.46"/><path class="cls-3" d="M90.39,75.92a.72.72,0,1,1-1,0A.72.72,0,0,1,90.39,75.92Z"/><path class="cls-3" d="M88.35,77.33,89,78a.42.42,0,0,1,0,.6h0a.43.43,0,0,1-.6,0l-.63-.63a.43.43,0,0,1,0-.6h0A.43.43,0,0,1,88.35,77.33Z"/><polygon class="cls-3" points="37.19 127.52 35.6 130.71 38.79 129.13 39.18 127.13 37.19 127.52"/><path class="cls-3" d="M39.64,126.67a.72.72,0,1,0,0-1A.72.72,0,0,0,39.64,126.67Z"/><path class="cls-3" d="M41.05,124.63l.63.63a.42.42,0,0,0,.6,0h0a.43.43,0,0,0,0-.6l-.63-.63a.43.43,0,0,0-.6,0h0A.43.43,0,0,0,41.05,124.63Z"/><polygon class="cls-3" points="97.55 81.2 101.05 80.49 98.69 83.17 96.66 83.03 97.55 81.2"/><path class="cls-3" d="M96.1,83.35a.73.73,0,0,1-.27,1,.72.72,0,0,1-.72-1.25A.73.73,0,0,1,96.1,83.35Z"/><path class="cls-3" d="M93.76,84.19l.45.77a.44.44,0,0,1-.16.58h0a.44.44,0,0,1-.58-.16L93,84.61a.42.42,0,0,1,.15-.58h0A.42.42,0,0,1,93.76,84.19Z"/><polygon class="cls-3" points="31.35 119.42 28.99 122.1 32.48 121.39 33.38 119.56 31.35 119.42"/><path class="cls-3" d="M33.94,119.24a.73.73,0,0,0,1,.26.72.72,0,1,0-1-.26Z"/><path class="cls-3" d="M35.83,117.63l.44.77a.42.42,0,0,0,.58.16h0A.44.44,0,0,0,37,118l-.45-.77a.42.42,0,0,0-.58-.15h0A.41.41,0,0,0,35.83,117.63Z"/><polygon class="cls-3" points="101.64 90.31 105.2 90.53 102.23 92.5 100.31 91.84 101.64 90.31"/><path class="cls-3" d="M99.68,92a.72.72,0,0,1-.51.88.72.72,0,1,1,.51-.88Z"/><path class="cls-3" d="M97.21,92.21l.23.86a.42.42,0,0,1-.3.52h0a.43.43,0,0,1-.52-.3l-.23-.86a.43.43,0,0,1,.3-.52h0A.42.42,0,0,1,97.21,92.21Z"/><polygon class="cls-3" points="27.8 110.09 24.83 112.06 28.39 112.29 29.73 110.75 27.8 110.09"/><path class="cls-3" d="M30.35,110.58a.72.72,0,1,0,.52-.88A.72.72,0,0,0,30.35,110.58Z"/><path class="cls-3" d="M32.6,109.52l.23.86a.41.41,0,0,0,.51.3h0a.42.42,0,0,0,.3-.52l-.23-.86a.44.44,0,0,0-.52-.3h0A.43.43,0,0,0,32.6,109.52Z"/><polygon class="cls-3" points="102.23 110.09 105.2 112.06 101.64 112.29 100.31 110.75 102.23 110.09"/><path class="cls-3" d="M99.68,110.58a.72.72,0,0,1-.89.51.72.72,0,0,1,.38-1.39A.72.72,0,0,1,99.68,110.58Z"/><path class="cls-3" d="M97.44,109.52l-.23.86a.42.42,0,0,1-.52.3h0a.43.43,0,0,1-.3-.52l.23-.86a.44.44,0,0,1,.52-.3h0A.42.42,0,0,1,97.44,109.52Z"/><polygon class="cls-3" points="28.39 90.31 24.83 90.53 27.8 92.5 29.73 91.84 28.39 90.31"/><path class="cls-3" d="M30.35,92a.72.72,0,1,0,.89-.51A.72.72,0,0,0,30.35,92Z"/><path class="cls-3" d="M32.83,92.21l-.23.86a.43.43,0,0,0,.29.52h0a.43.43,0,0,0,.52-.3l.23-.86a.42.42,0,0,0-.3-.52h0A.41.41,0,0,0,32.83,92.21Z"/><polygon class="cls-3" points="98.69 119.42 101.05 122.1 97.55 121.39 96.66 119.56 98.69 119.42"/><path class="cls-3" d="M96.1,119.24a.73.73,0,0,1-1,.26.72.72,0,0,1,.72-1.25A.73.73,0,0,1,96.1,119.24Z"/><path class="cls-3" d="M94.21,117.63l-.45.78a.42.42,0,0,1-.58.15h0A.42.42,0,0,1,93,118l.44-.77a.42.42,0,0,1,.58-.15h0A.42.42,0,0,1,94.21,117.63Z"/><polygon class="cls-3" points="32.48 81.2 28.99 80.49 31.35 83.17 33.38 83.03 32.48 81.2"/><path class="cls-3" d="M33.94,83.35a.72.72,0,0,0,.27,1,.72.72,0,0,0,.72-1.25A.73.73,0,0,0,33.94,83.35Z"/><path class="cls-3" d="M36.27,84.19l-.44.77a.42.42,0,0,0,.15.58h0a.43.43,0,0,0,.58-.16l.45-.77a.44.44,0,0,0-.16-.58h0A.42.42,0,0,0,36.27,84.19Z"/><polygon class="cls-3" points="92.85 127.52 94.43 130.71 91.24 129.13 90.85 127.13 92.85 127.52"/><path class="cls-3" d="M90.39,126.67a.72.72,0,1,1,0-1A.72.72,0,0,1,90.39,126.67Z"/><path class="cls-3" d="M89,124.63l-.63.63a.42.42,0,0,1-.6,0h0a.43.43,0,0,1,0-.6l.63-.63a.43.43,0,0,1,.6,0h0A.42.42,0,0,1,89,124.63Z"/><polygon class="cls-3" points="38.79 73.46 35.6 71.88 37.19 75.07 39.18 75.46 38.79 73.46"/><path class="cls-3" d="M39.64,75.92a.72.72,0,1,0,1,0A.72.72,0,0,0,39.64,75.92Z"/><path class="cls-3" d="M41.68,77.33l-.63.63a.43.43,0,0,0,0,.6h0a.44.44,0,0,0,.6,0l.63-.63a.43.43,0,0,0,0-.6h0A.43.43,0,0,0,41.68,77.33Z"/><polygon class="cls-3" points="85.11 133.83 85.82 137.32 83.14 134.97 83.28 132.94 85.11 133.83"/><path class="cls-3" d="M83,132.37a.72.72,0,1,1-.72-1.25.72.72,0,0,1,.72,1.25Z"/><path class="cls-3" d="M82.13,130l-.78.44a.41.41,0,0,1-.57-.15h0a.42.42,0,0,1,.15-.58l.77-.44a.42.42,0,0,1,.58.15h0A.42.42,0,0,1,82.13,130Z"/><polygon class="cls-3" points="46.89 67.63 44.22 65.27 44.92 68.76 46.75 69.66 46.89 67.63"/><path class="cls-3" d="M47.07,70.22a.72.72,0,0,0,.73,1.25.72.72,0,1,0-.73-1.25Z"/><path class="cls-3" d="M48.68,72.11l-.77.44a.44.44,0,0,0-.16.58h0a.44.44,0,0,0,.58.16l.77-.45a.44.44,0,0,0,.16-.58h0A.42.42,0,0,0,48.68,72.11Z"/><polygon class="cls-3" points="76.01 137.92 75.78 141.48 73.81 138.51 74.47 136.59 76.01 137.92"/><path class="cls-3" d="M74.31,136a.73.73,0,1,1-.38-1.4.73.73,0,0,1,.38,1.4Z"/><path class="cls-3" d="M74.1,133.49l-.86.23a.42.42,0,0,1-.51-.3h0a.42.42,0,0,1,.29-.52l.87-.23a.42.42,0,0,1,.51.3h0A.42.42,0,0,1,74.1,133.49Z"/><polygon class="cls-3" points="56.22 64.08 54.25 61.11 54.03 64.67 55.56 66.01 56.22 64.08"/><path class="cls-3" d="M55.73,66.63a.74.74,0,0,0-.51.89.72.72,0,1,0,.51-.89Z"/><path class="cls-3" d="M56.79,68.87l-.86.23a.43.43,0,0,0-.3.52h0a.42.42,0,0,0,.52.3l.86-.23a.42.42,0,0,0,.3-.52h0A.43.43,0,0,0,56.79,68.87Z"/><path class="cls-3" d="M48.87,62.3a.75.75,0,0,1,1,.4.74.74,0,1,1-1-.4Z"/><path class="cls-3" d="M49.59,64.06a.45.45,0,1,1-.24.58A.43.43,0,0,1,49.59,64.06Z"/><path class="cls-3" d="M81.17,140.29a.75.75,0,0,0,.4-1,.74.74,0,0,0-1-.4.74.74,0,0,0,.57,1.36Z"/><path class="cls-3" d="M80.44,138.54a.45.45,0,0,0,.24-.59.44.44,0,0,0-.82.34A.45.45,0,0,0,80.44,138.54Z"/><path class="cls-3" d="M59.51,59.45a.75.75,0,0,1,.83.64.74.74,0,1,1-.83-.64Z"/><path class="cls-3" d="M59.76,61.33a.45.45,0,1,1-.39.51A.46.46,0,0,1,59.76,61.33Z"/><path class="cls-3" d="M70.53,143.14a.74.74,0,1,0-.83-.63A.74.74,0,0,0,70.53,143.14Z"/><path class="cls-3" d="M70.28,141.26a.45.45,0,1,0-.5-.39A.44.44,0,0,0,70.28,141.26Z"/><path class="cls-3" d="M70.53,59.45a.74.74,0,1,1-.83.64A.74.74,0,0,1,70.53,59.45Z"/><path class="cls-3" d="M70.28,61.33a.45.45,0,0,1,.38.51.44.44,0,1,1-.38-.51Z"/><path class="cls-3" d="M59.51,143.14a.74.74,0,1,0-.64-.83A.74.74,0,0,0,59.51,143.14Z"/><path class="cls-3" d="M59.76,141.26a.45.45,0,1,0-.39-.5A.45.45,0,0,0,59.76,141.26Z"/><path class="cls-3" d="M81.17,62.3a.76.76,0,0,1,.4,1,.73.73,0,0,1-1,.39.72.72,0,0,1-.4-1A.74.74,0,0,1,81.17,62.3Z"/><path class="cls-3" d="M80.44,64.06a.44.44,0,1,1-.58.24A.43.43,0,0,1,80.44,64.06Z"/><path class="cls-3" d="M48.87,140.29a.74.74,0,0,0,.56-1.36.74.74,0,1,0-.56,1.36Z"/><path class="cls-3" d="M49.59,138.54a.46.46,0,0,0,.59-.25.45.45,0,0,0-.24-.58.45.45,0,0,0-.35.83Z"/><path class="cls-3" d="M90.71,67.81a.74.74,0,1,1-.9,1.17.74.74,0,0,1,.9-1.17Z"/><path class="cls-3" d="M89.56,69.32A.45.45,0,0,1,89,70a.45.45,0,1,1,.55-.71Z"/><path class="cls-3" d="M39.32,134.78a.74.74,0,1,0,.9-1.17.74.74,0,0,0-.9,1.17Z"/><path class="cls-3" d="M40.48,133.27a.45.45,0,1,0,.54-.71.45.45,0,0,0-.54.71Z"/><path class="cls-3" d="M98.5,75.6a.72.72,0,0,1-.14,1,.73.73,0,1,1,.14-1Z"/><path class="cls-3" d="M97,76.76a.45.45,0,1,1-.63-.08A.45.45,0,0,1,97,76.76Z"/><path class="cls-3" d="M31.53,127a.74.74,0,0,0,1,.13.73.73,0,0,0-.9-1.16A.74.74,0,0,0,31.53,127Z"/><path class="cls-3" d="M33,125.83a.45.45,0,0,0,.63.09.46.46,0,0,0,.08-.63.45.45,0,0,0-.63-.09A.46.46,0,0,0,33,125.83Z"/><path class="cls-3" d="M104,85.14a.74.74,0,1,1-1-.4A.75.75,0,0,1,104,85.14Z"/><path class="cls-3" d="M102.26,85.87a.45.45,0,0,1-.25.58.44.44,0,1,1-.34-.82A.46.46,0,0,1,102.26,85.87Z"/><path class="cls-3" d="M26,117.45a.74.74,0,1,0,.4-1A.76.76,0,0,0,26,117.45Z"/><path class="cls-3" d="M27.78,116.72a.44.44,0,1,0,.82-.34.44.44,0,1,0-.82.34Z"/><path class="cls-3" d="M106.86,95.79a.74.74,0,0,1-1.46.19.74.74,0,0,1,.64-.83A.73.73,0,0,1,106.86,95.79Z"/><path class="cls-3" d="M105,96a.45.45,0,1,1-.5-.39A.45.45,0,0,1,105,96Z"/><path class="cls-3" d="M23.17,106.8a.75.75,0,0,0,.83.64.74.74,0,1,0-.83-.64Z"/><path class="cls-3" d="M25.06,106.56a.44.44,0,1,0,.88-.12.46.46,0,0,0-.5-.39A.45.45,0,0,0,25.06,106.56Z"/><path class="cls-3" d="M106.86,106.8a.74.74,0,1,1-.63-.82A.73.73,0,0,1,106.86,106.8Z"/><path class="cls-3" d="M105,106.56a.45.45,0,0,1-.5.38.44.44,0,0,1-.39-.5.45.45,0,1,1,.89.12Z"/><path class="cls-3" d="M23.17,95.79a.73.73,0,0,0,.64.82.73.73,0,0,0,.82-.63.73.73,0,0,0-.63-.83A.75.75,0,0,0,23.17,95.79Z"/><path class="cls-3" d="M25.06,96a.44.44,0,0,0,.38.5.45.45,0,0,0,.12-.89A.44.44,0,0,0,25.06,96Z"/><path class="cls-3" d="M104,117.45a.75.75,0,0,1-1,.4.74.74,0,1,1,1-.4Z"/><path class="cls-3" d="M102.26,116.72a.45.45,0,0,1-.59.24.43.43,0,0,1-.24-.58.45.45,0,0,1,.58-.25A.46.46,0,0,1,102.26,116.72Z"/><path class="cls-3" d="M26,85.14a.74.74,0,1,0,1-.4A.76.76,0,0,0,26,85.14Z"/><path class="cls-3" d="M27.78,85.87a.44.44,0,1,0,.58-.24A.44.44,0,0,0,27.78,85.87Z"/><path class="cls-3" d="M98.5,127a.74.74,0,1,1-.14-1A.72.72,0,0,1,98.5,127Z"/><path class="cls-3" d="M97,125.83a.45.45,0,1,1-.09-.63A.45.45,0,0,1,97,125.83Z"/><path class="cls-3" d="M31.53,75.6a.74.74,0,0,0,.14,1,.73.73,0,0,0,.9-1.16A.74.74,0,0,0,31.53,75.6Z"/><path class="cls-3" d="M33,76.76a.44.44,0,0,0,.08.62.44.44,0,0,0,.63-.08.45.45,0,0,0-.71-.54Z"/><path class="cls-3" d="M90.71,134.78a.72.72,0,0,1-1-.14.74.74,0,1,1,1.17-.89A.74.74,0,0,1,90.71,134.78Z"/><path class="cls-3" d="M89.56,133.27a.45.45,0,1,1,.08-.62A.45.45,0,0,1,89.56,133.27Z"/><path class="cls-3" d="M39.32,67.81a.74.74,0,0,0,.9,1.17.74.74,0,1,0-.9-1.17Z"/><path class="cls-3" d="M40.48,69.32a.45.45,0,1,0,.63.08A.45.45,0,0,0,40.48,69.32Z"/><path class="cls-2" d="M65,130a28.71,28.71,0,1,1,28.7-28.71A28.74,28.74,0,0,1,65,130Zm0-56.36a27.66,27.66,0,1,0,27.65,27.65A27.69,27.69,0,0,0,65,73.64Z"/><path class="cls-2" d="M68.79,126.79a.2.2,0,0,1-.2-.17.19.19,0,0,1,.17-.22A25.53,25.53,0,0,0,90.12,105a.19.19,0,0,1,.22-.17.19.19,0,0,1,.17.22,25.93,25.93,0,0,1-21.69,21.7Zm-7.54,0h0a25.93,25.93,0,0,1-21.7-21.7.2.2,0,0,1,.4,0A25.52,25.52,0,0,0,61.28,126.4a.2.2,0,0,1,0,.39ZM90.31,97.72a.19.19,0,0,1-.19-.17A25.52,25.52,0,0,0,68.76,76.19a.19.19,0,0,1-.17-.22.2.2,0,0,1,.23-.17A25.92,25.92,0,0,1,90.51,97.5a.19.19,0,0,1-.17.22Zm-50.59,0h0a.19.19,0,0,1-.17-.22,25.93,25.93,0,0,1,21.7-21.7.19.19,0,0,1,.22.17.19.19,0,0,1-.16.22A25.52,25.52,0,0,0,39.92,97.55.2.2,0,0,1,39.72,97.72Z"/><path class="cls-2" d="M58.33,121.54h-.07a21.36,21.36,0,0,1-5.55-2.82.2.2,0,0,1-.05-.28.2.2,0,0,1,.28,0,21,21,0,0,0,5.45,2.76.21.21,0,0,1,.13.25A.21.21,0,0,1,58.33,121.54Zm13.38,0a.2.2,0,0,1-.19-.14.2.2,0,0,1,.12-.25,21.09,21.09,0,0,0,5.46-2.76.18.18,0,0,1,.27,0,.2.2,0,0,1-.05.28,21,21,0,0,1-5.55,2.82Zm10.56-7.85a.19.19,0,0,1-.12,0,.19.19,0,0,1,0-.28,20.87,20.87,0,0,0,2.76-5.45.21.21,0,0,1,.25-.12.2.2,0,0,1,.13.25,21,21,0,0,1-2.82,5.55A.19.19,0,0,1,82.27,113.69Zm-34.5,0a.2.2,0,0,1-.17-.09,21.32,21.32,0,0,1-2.81-5.55.19.19,0,0,1,.12-.25.2.2,0,0,1,.25.12,20.6,20.6,0,0,0,2.77,5.45.2.2,0,0,1,0,.28A.21.21,0,0,1,47.77,113.69ZM85.06,94.8a.21.21,0,0,1-.19-.13,20.72,20.72,0,0,0-2.76-5.45.19.19,0,0,1,0-.28.2.2,0,0,1,.28,0,21.2,21.2,0,0,1,2.82,5.55.19.19,0,0,1-.13.25ZM45,94.8h-.06a.19.19,0,0,1-.12-.25A21.17,21.17,0,0,1,47.6,89a.2.2,0,0,1,.33.23,20.75,20.75,0,0,0-2.77,5.45A.2.2,0,0,1,45,94.8Zm7.85-10.56a.21.21,0,0,1-.16-.08.21.21,0,0,1,.05-.28,21.36,21.36,0,0,1,5.55-2.82.21.21,0,0,1,.26.13.21.21,0,0,1-.13.25,21.19,21.19,0,0,0-5.45,2.76A.19.19,0,0,1,52.82,84.24Zm24.39,0a.15.15,0,0,1-.11,0,21.09,21.09,0,0,0-5.46-2.76.19.19,0,0,1-.12-.25.2.2,0,0,1,.25-.13,21,21,0,0,1,5.55,2.82.2.2,0,0,1,.05.28A.21.21,0,0,1,77.21,84.24Z"/><path class="cls-2" d="M65,88.28l-2-3.54H58.89l2-3.54-2-3.53H63l2-3.54,2,3.54h4.08l-2,3.53,2,3.54H67.06Zm-1.24-3.54L65,86.88l1.23-2.14Zm3.68-.7h2.47L68.7,81.9Zm-4.08,0h3.27l1.64-2.84-1.64-2.83H63.38L61.74,81.2Zm-.81,0L61.34,81.9,60.1,84ZM60.1,78.37l1.24,2.13,1.23-2.13Zm7.36,0L68.7,80.5l1.23-2.13Zm-3.68-.7h2.47L65,75.53Z"/><path class="cls-2" d="M65,128.46l-2-3.54H58.89l2-3.53-2-3.54H63l2-3.54,2,3.54h4.08l-2,3.54,2,3.53H67.06Zm-1.24-3.54L65,127.06l1.23-2.14Zm3.68-.7h2.47l-1.23-2.13Zm-4.08,0h3.27l1.64-2.83-1.64-2.84H63.38l-1.64,2.84Zm-.81,0-1.23-2.13-1.24,2.13Zm-2.47-5.67,1.24,2.14,1.23-2.14Zm7.36,0,1.24,2.14,1.23-2.14Zm-3.68-.7h2.47L65,115.71Z"/><path class="cls-2" d="M81.57,107.42v-4.08l-3.53-2,3.53-2V95.17l3.54,2,3.54-2v4.08l3.53,2-3.53,2v4.08l-3.54-2ZM85.81,105l2.13,1.24v-2.47Zm-3.54-1.23v2.47L84.41,105Zm0-.81,2.84,1.64,2.83-1.64V99.66L85.11,98l-2.84,1.64Zm-2.83-1.64,2.13,1.24v-2.47Zm9.21-1.23v2.47l2.13-1.24Zm-2.84-2.44,2.13,1.23V96.38Zm-3.54-1.24v2.47l2.14-1.23Z"/><path class="cls-2" d="M48.46,107.42l-3.54-2-3.53,2v-4.08l-3.54-2,3.54-2V95.17l3.53,2,3.54-2v4.08l3.54,2-3.54,2Zm-6.37-3.68v2.47L44.23,105ZM45.62,105l2.14,1.24v-2.47Zm-3.53-2,2.83,1.64,2.84-1.64V99.66L44.92,98l-2.83,1.64Zm6.37-2.87v2.47l2.14-1.24Zm-9.21,1.23,2.14,1.24v-2.47Zm2.84-4.91v2.47l2.14-1.23Zm3.53,1.24,2.14,1.23V96.38Z"/><path class="cls-2" d="M65,111.28l-10-10,10-10,10,10Zm-8.34-10L65,109.63l8.33-8.34L65,93Z"/><path class="cls-2" d="M72.34,114.18a.21.21,0,0,1-.16-.08l-4.63-6.22a.2.2,0,0,1,0-.28.2.2,0,0,1,.28,0l3.61,4.86-2.59-6a.2.2,0,0,1,.1-.26.19.19,0,0,1,.26.1l3.27,7.58a.21.21,0,0,1-.08.25A.19.19,0,0,1,72.34,114.18Zm-14.64,0a.29.29,0,0,1-.1,0,.2.2,0,0,1-.09-.25l3.27-7.58a.19.19,0,0,1,.26-.1.2.2,0,0,1,.11.26l-2.6,6,3.61-4.86a.2.2,0,0,1,.28,0,.2.2,0,0,1,0,.28l-4.62,6.22A.21.21,0,0,1,57.7,114.18Zm20-5.36-.08,0L70,105.53a.2.2,0,0,1-.1-.26.19.19,0,0,1,.26-.1l6,2.59-4.86-3.61a.2.2,0,1,1,.24-.32l6.21,4.63a.19.19,0,0,1,.06.26A.21.21,0,0,1,77.7,108.82Zm-25.36,0a.19.19,0,0,1-.17-.1.19.19,0,0,1,0-.26l6.21-4.63a.2.2,0,0,1,.28,0,.2.2,0,0,1,0,.28l-4.85,3.61,6-2.59a.2.2,0,0,1,.16.36l-7.58,3.27Zm6.21-10a.19.19,0,0,1-.12,0l-6.21-4.63a.2.2,0,0,1,0-.26.19.19,0,0,1,.24-.08L60,97.06a.19.19,0,0,1,.1.26.2.2,0,0,1-.26.11l-6-2.6,4.85,3.61a.2.2,0,0,1,0,.28A.21.21,0,0,1,58.55,98.8Zm12.93,0a.21.21,0,0,1-.16-.08.22.22,0,0,1,0-.28l4.86-3.61-6,2.6a.2.2,0,0,1-.26-.11.2.2,0,0,1,.1-.26l7.58-3.27a.21.21,0,0,1,.25.08.2.2,0,0,1-.05.26L71.6,98.76A.17.17,0,0,1,71.48,98.8ZM61,96.39a.19.19,0,0,1-.18-.12l-3.27-7.58a.2.2,0,0,1,.09-.25.21.21,0,0,1,.26.06l4.62,6.21a.2.2,0,0,1-.32.24l-3.61-4.86,2.6,6a.2.2,0,0,1-.11.26Zm8.11,0-.08,0a.2.2,0,0,1-.1-.26l2.59-6L67.87,95a.2.2,0,0,1-.32-.24l4.63-6.21a.2.2,0,0,1,.26-.06.21.21,0,0,1,.08.25l-3.27,7.58A.18.18,0,0,1,69.07,96.39Z"/><polygon class="cls-3" points="63.37 81.32 64.68 81.1 64.22 82.82 65.82 82.82 65.36 81.1 66.66 81.32 66.66 80.26 65.02 80.53 63.37 80.26 63.37 81.32"/><polygon class="cls-3" points="63.37 121.27 64.68 121.49 64.22 119.78 65.82 119.78 65.36 121.49 66.66 121.27 66.66 122.33 65.02 122.06 63.37 122.33 63.37 121.27"/><polygon class="cls-3" points="84.99 99.65 85.21 100.96 83.5 100.49 83.5 102.1 85.21 101.63 84.99 102.94 86.05 102.94 85.78 101.3 86.05 99.65 84.99 99.65"/><polygon class="cls-3" points="45.04 99.65 44.82 100.96 46.54 100.49 46.54 102.1 44.82 101.63 45.04 102.94 43.98 102.94 44.26 101.3 43.98 99.65 45.04 99.65"/><polygon class="cls-3" points="53.95 99.65 54.17 100.96 52.45 100.49 52.45 102.1 54.17 101.63 53.95 102.94 55.01 102.94 54.73 101.3 55.01 99.65 53.95 99.65"/><polygon class="cls-3" points="76.09 99.65 75.87 100.96 77.58 100.49 77.58 102.1 75.87 101.63 76.09 102.94 75.03 102.94 75.3 101.3 75.03 99.65 76.09 99.65"/><polygon class="cls-3" points="63.37 112.37 64.68 112.15 64.22 113.86 65.82 113.86 65.36 112.15 66.66 112.37 66.66 111.31 65.02 111.58 63.37 111.31 63.37 112.37"/><polygon class="cls-3" points="63.37 90.22 64.68 90.44 64.22 88.73 65.82 88.73 65.36 90.44 66.66 90.22 66.66 91.28 65.02 91.01 63.37 91.28 63.37 90.22"/><path class="cls-3" d="M50.79,84A2.82,2.82,0,1,1,48,86.85a2.73,2.73,0,0,1,0-.41,2.06,2.06,0,1,0,2.38-2.38A2.69,2.69,0,0,1,50.79,84Z"/><path class="cls-3" d="M51.83,111.87a2.82,2.82,0,1,0,2.81,2.81,2.93,2.93,0,0,0,0-.41,2.05,2.05,0,1,1-2.38-2.37A2.69,2.69,0,0,0,51.83,111.87Z"/><path class="cls-3" d="M78.53,117.88a2.82,2.82,0,1,1,2.81-2.82,2.73,2.73,0,0,1,0,.41,2.05,2.05,0,0,0-4.08.35,2,2,0,0,0,1.7,2A2.69,2.69,0,0,1,78.53,117.88Z"/><path class="cls-3" d="M78.92,90.11a2.82,2.82,0,1,0-2.79-2.41,2.06,2.06,0,1,1,2.38,2.38A2.73,2.73,0,0,0,78.92,90.11Z"/><path class="cls-2" d="M65,104.53a9.21,9.21,0,0,1-7.14-3,.35.35,0,0,1,0-.43,9.94,9.94,0,0,1,14.27,0,.35.35,0,0,1,0,.43A9.19,9.19,0,0,1,65,104.53Zm-6.4-3.23a9.35,9.35,0,0,0,12.8,0,9.35,9.35,0,0,0-12.8,0Z"/><path class="cls-2" d="M65,103.26A3.25,3.25,0,0,1,61.78,100a3.16,3.16,0,0,1,.34-1.45.33.33,0,0,1,.23-.18,11.09,11.09,0,0,1,5.34,0,.31.31,0,0,1,.22.18,3.17,3.17,0,0,1,.35,1.45A3.25,3.25,0,0,1,65,103.26ZM62.68,99a2.54,2.54,0,1,0,4.88,1,2.38,2.38,0,0,0-.21-1A10.52,10.52,0,0,0,62.68,99Z"/><path class="cls-2" d="M65,101.68A1.67,1.67,0,1,1,66.68,100,1.67,1.67,0,0,1,65,101.68Zm0-2.63A1,1,0,1,0,65,101a1,1,0,0,0,0-1.93Z"/></g></g></svg>