<svg xmlns="http://www.w3.org/2000/svg" viewBox="0 0 247.5 360"><defs><style>.cls-1{fill:#212040;}.cls-2{fill:#fdb100;}</style></defs><g id="Layer_2" data-name="Layer 2"><g id="Layer_1-2" data-name="Layer 1"><rect class="cls-1" width="247.5" height="360" rx="11.25"/><circle class="cls-2" cx="32.06" cy="15.75" r="2.25"/><circle class="cls-2" cx="38.7" cy="15.75" r="2.25"/><circle class="cls-2" cx="45.34" cy="15.75" r="2.25"/><circle class="cls-2" cx="51.97" cy="15.75" r="2.25"/><circle class="cls-2" cx="58.61" cy="15.75" r="2.25"/><circle class="cls-2" cx="15.75" cy="32.06" r="2.25"/><circle class="cls-2" cx="15.75" cy="38.7" r="2.25"/><circle class="cls-2" cx="15.75" cy="45.34" r="2.25"/><circle class="cls-2" cx="15.75" cy="51.97" r="2.25"/><circle class="cls-2" cx="15.75" cy="58.61" r="2.25"/><circle class="cls-2" cx="84.94" cy="20.25" r="1.69"/><circle class="cls-2" cx="20.25" cy="84.94" r="1.69"/><path class="cls-2" d="M6.75,38.14a.56.56,0,0,1-.56-.56V11.25a5.07,5.07,0,0,1,5.06-5.06H37.58a.56.56,0,0,1,0,1.12H11.25a4,4,0,0,0-3.94,3.94V37.58A.56.56,0,0,1,6.75,38.14Z"/><path class="cls-2" d="M41,7.31a.57.57,0,0,1-.4-1,.59.59,0,0,1,.8,0,.56.56,0,0,1-.4,1Z"/><path class="cls-2" d="M44.33,7.31a.58.58,0,0,1-.4-.16.56.56,0,0,1,0-.8.57.57,0,0,1,.79,0,.56.56,0,0,1,0,.8A.57.57,0,0,1,44.33,7.31Z"/><path class="cls-2" d="M47.7,7.31a.57.57,0,0,1-.4-1,.59.59,0,0,1,.8,0,.56.56,0,0,1-.4,1Z"/><path class="cls-2" d="M51.08,7.31a.58.58,0,0,1-.4-.16.56.56,0,0,1,0-.8.57.57,0,0,1,.79,0,.56.56,0,0,1,0,.8A.57.57,0,0,1,51.08,7.31Z"/><path class="cls-2" d="M54.45,7.31a.57.57,0,0,1-.4-1,.59.59,0,0,1,.8,0,.56.56,0,0,1-.4,1Z"/><path class="cls-2" d="M6.75,41.51a.57.57,0,0,1-.4-1,.59.59,0,0,1,.8,0,.56.56,0,0,1-.4,1Z"/><path class="cls-2" d="M6.75,44.89a.56.56,0,0,1-.4-.17.57.57,0,0,1-.16-.39.58.58,0,0,1,.16-.4.59.59,0,0,1,.8,0,.58.58,0,0,1,.16.4.57.57,0,0,1-.16.39A.56.56,0,0,1,6.75,44.89Z"/><path class="cls-2" d="M6.75,48.26a.57.57,0,0,1-.4-1,.59.59,0,0,1,.8,0,.56.56,0,0,1-.4,1Z"/><path class="cls-2" d="M6.75,51.64a.56.56,0,0,1-.4-.17.57.57,0,0,1-.16-.39.58.58,0,0,1,.16-.4.59.59,0,0,1,.8,0,.58.58,0,0,1,.16.4.57.57,0,0,1-.16.39A.56.56,0,0,1,6.75,51.64Z"/><path class="cls-2" d="M6.75,55a.57.57,0,0,1-.4-1,.59.59,0,0,1,.8,0,.56.56,0,0,1-.4,1Z"/><circle class="cls-2" cx="32.06" cy="343.8" r="2.25"/><circle class="cls-2" cx="38.7" cy="343.8" r="2.25"/><circle class="cls-2" cx="45.34" cy="343.8" r="2.25"/><circle class="cls-2" cx="51.97" cy="343.8" r="2.25"/><circle class="cls-2" cx="58.61" cy="343.8" r="2.25"/><circle class="cls-2" cx="15.75" cy="327.49" r="2.25"/><circle class="cls-2" cx="15.75" cy="320.85" r="2.25"/><circle class="cls-2" cx="15.75" cy="314.21" r="2.25"/><circle class="cls-2" cx="15.75" cy="307.58" r="2.25"/><circle class="cls-2" cx="15.75" cy="300.94" r="2.25"/><circle class="cls-2" cx="15.75" cy="246.38" r="2.25"/><circle class="cls-2" cx="15.75" cy="239.74" r="2.25"/><circle class="cls-2" cx="15.75" cy="233.1" r="2.25"/><circle class="cls-2" cx="15.75" cy="226.46" r="2.25"/><circle class="cls-2" cx="15.75" cy="219.83" r="2.25"/><circle class="cls-2" cx="15.75" cy="213.19" r="2.25"/><circle class="cls-2" cx="15.75" cy="206.55" r="2.25"/><circle class="cls-2" cx="15.75" cy="199.91" r="2.25"/><circle class="cls-2" cx="15.75" cy="193.28" r="2.25"/><circle class="cls-2" cx="15.75" cy="186.64" r="2.25"/><circle class="cls-2" cx="15.75" cy="180" r="2.25"/><circle class="cls-2" cx="15.75" cy="173.36" r="2.25"/><circle class="cls-2" cx="15.75" cy="166.72" r="2.25"/><circle class="cls-2" cx="15.75" cy="160.09" r="2.25"/><circle class="cls-2" cx="15.75" cy="153.45" r="2.25"/><circle class="cls-2" cx="15.75" cy="146.81" r="2.25"/><circle class="cls-2" cx="15.75" cy="140.17" r="2.25"/><circle class="cls-2" cx="15.75" cy="133.54" r="2.25"/><circle class="cls-2" cx="15.75" cy="126.9" r="2.25"/><circle class="cls-2" cx="15.75" cy="120.26" r="2.25"/><circle class="cls-2" cx="15.75" cy="113.63" r="2.25"/><circle class="cls-2" cx="84.94" cy="339.3" r="1.69"/><circle class="cls-2" cx="20.25" cy="274.61" r="1.69"/><path class="cls-2" d="M37.58,353.36H11.25a5.07,5.07,0,0,1-5.06-5.06V322a.56.56,0,0,1,1.12,0V348.3a4,4,0,0,0,3.94,3.94H37.58a.56.56,0,0,1,0,1.12Z"/><path class="cls-2" d="M41,353.36a.57.57,0,0,1-.4-1,.59.59,0,0,1,.8,0,.56.56,0,0,1-.4,1Z"/><path class="cls-2" d="M44.33,353.36a.58.58,0,0,1-.4-.16.56.56,0,0,1,0-.8.57.57,0,0,1,.79,0,.56.56,0,0,1,0,.8A.57.57,0,0,1,44.33,353.36Z"/><path class="cls-2" d="M47.7,353.36a.57.57,0,0,1-.4-1,.59.59,0,0,1,.8,0,.56.56,0,0,1-.4,1Z"/><path class="cls-2" d="M51.08,353.36a.58.58,0,0,1-.4-.16.56.56,0,0,1,0-.8.57.57,0,0,1,.79,0,.56.56,0,0,1,0,.8A.57.57,0,0,1,51.08,353.36Z"/><path class="cls-2" d="M54.45,353.36a.57.57,0,0,1-.4-1,.59.59,0,0,1,.8,0,.56.56,0,0,1-.4,1Z"/><path class="cls-2" d="M6.75,319.16a.55.55,0,0,1-.56-.56.58.58,0,0,1,.16-.4.59.59,0,0,1,.8,0,.58.58,0,0,1,.16.4.55.55,0,0,1-.56.56Z"/><path class="cls-2" d="M6.75,315.79a.56.56,0,0,1-.4-.17.58.58,0,0,1-.16-.4.57.57,0,0,1,.16-.39.59.59,0,0,1,.8,0,.57.57,0,0,1,.16.39.58.58,0,0,1-.16.4A.56.56,0,0,1,6.75,315.79Z"/><path class="cls-2" d="M6.75,312.41a.55.55,0,0,1-.56-.56.58.58,0,0,1,.16-.4.59.59,0,0,1,.8,0,.56.56,0,0,1-.4,1Z"/><path class="cls-2" d="M6.75,309a.56.56,0,0,1-.4-.17.58.58,0,0,1-.16-.4.57.57,0,0,1,.16-.39.59.59,0,0,1,.8,0,.57.57,0,0,1,.16.39.58.58,0,0,1-.16.4A.56.56,0,0,1,6.75,309Z"/><path class="cls-2" d="M6.75,305.66a.57.57,0,0,1-.4-1,.59.59,0,0,1,.8,0,.56.56,0,0,1-.4,1Z"/><circle class="cls-2" cx="215.44" cy="15.75" r="2.25"/><circle class="cls-2" cx="208.8" cy="15.75" r="2.25"/><circle class="cls-2" cx="202.16" cy="15.75" r="2.25"/><circle class="cls-2" cx="195.52" cy="15.75" r="2.25"/><circle class="cls-2" cx="188.89" cy="15.75" r="2.25"/><circle class="cls-2" cx="231.75" cy="32.06" r="2.25"/><circle class="cls-2" cx="231.75" cy="38.7" r="2.25"/><circle class="cls-2" cx="231.75" cy="45.34" r="2.25"/><circle class="cls-2" cx="231.75" cy="51.97" r="2.25"/><circle class="cls-2" cx="231.75" cy="58.61" r="2.25"/><circle class="cls-2" cx="162.56" cy="20.25" r="1.69"/><path class="cls-2" d="M227.25,86.62a1.69,1.69,0,1,0-1.69-1.68A1.69,1.69,0,0,0,227.25,86.62Z"/><path class="cls-2" d="M240.75,38.14a.56.56,0,0,1-.56-.56V11.25a4,4,0,0,0-3.94-3.94H209.92a.56.56,0,0,1,0-1.12h26.33a5.07,5.07,0,0,1,5.06,5.06V37.58A.56.56,0,0,1,240.75,38.14Z"/><path class="cls-2" d="M206.55,7.31a.57.57,0,0,1-.4-1,.59.59,0,0,1,.8,0,.56.56,0,0,1-.4,1Z"/><path class="cls-2" d="M203.17,7.31a.57.57,0,0,1-.39-.16.56.56,0,0,1,0-.8.57.57,0,0,1,.79,0,.56.56,0,0,1,0,.8A.58.58,0,0,1,203.17,7.31Z"/><path class="cls-2" d="M199.8,7.31a.57.57,0,0,1-.4-1,.59.59,0,0,1,.8,0,.56.56,0,0,1-.4,1Z"/><path class="cls-2" d="M196.42,7.31a.57.57,0,0,1-.39-.16.56.56,0,0,1,0-.8.57.57,0,0,1,.79,0,.56.56,0,0,1,0,.8A.58.58,0,0,1,196.42,7.31Z"/><path class="cls-2" d="M193.05,7.31a.57.57,0,0,1-.4-1,.59.59,0,0,1,.8,0,.56.56,0,0,1-.4,1Z"/><path class="cls-2" d="M240.75,41.51a.57.57,0,0,1-.4-1,.59.59,0,0,1,.8,0,.56.56,0,0,1-.4,1Z"/><path class="cls-2" d="M240.75,44.89a.56.56,0,0,1-.4-.17.57.57,0,0,1-.16-.39.58.58,0,0,1,.16-.4.59.59,0,0,1,.8,0,.58.58,0,0,1,.16.4.57.57,0,0,1-.16.39A.56.56,0,0,1,240.75,44.89Z"/><path class="cls-2" d="M240.75,48.26a.57.57,0,0,1-.4-1,.59.59,0,0,1,.8,0,.56.56,0,0,1-.4,1Z"/><path class="cls-2" d="M240.75,51.64a.56.56,0,0,1-.4-.17.57.57,0,0,1-.16-.39.58.58,0,0,1,.16-.4.59.59,0,0,1,.8,0,.58.58,0,0,1,.16.4.57.57,0,0,1-.16.39A.56.56,0,0,1,240.75,51.64Z"/><path class="cls-2" d="M240.75,55a.57.57,0,0,1-.4-1,.59.59,0,0,1,.8,0,.56.56,0,0,1-.4,1Z"/><circle class="cls-2" cx="215.44" cy="343.8" r="2.25"/><circle class="cls-2" cx="208.8" cy="343.8" r="2.25"/><circle class="cls-2" cx="202.16" cy="343.8" r="2.25"/><circle class="cls-2" cx="195.52" cy="343.8" r="2.25"/><circle class="cls-2" cx="188.89" cy="343.8" r="2.25"/><circle class="cls-2" cx="231.75" cy="327.49" r="2.25"/><circle class="cls-2" cx="231.75" cy="320.85" r="2.25"/><circle class="cls-2" cx="231.75" cy="314.21" r="2.25"/><circle class="cls-2" cx="231.75" cy="307.58" r="2.25"/><circle class="cls-2" cx="231.75" cy="300.94" r="2.25"/><circle class="cls-2" cx="162.56" cy="339.3" r="1.69"/><path class="cls-2" d="M227.25,272.92a1.69,1.69,0,1,1-1.69,1.69A1.69,1.69,0,0,1,227.25,272.92Z"/><path class="cls-2" d="M236.25,349.31h-225a.56.56,0,0,1-.56-.56V11.25a.56.56,0,0,1,.56-.56h225a.56.56,0,0,1,.56.56v337.5A.56.56,0,0,1,236.25,349.31ZM11.81,348.19H235.69V11.81H11.81Z"/><path class="cls-2" d="M65.25,20.81H29.81a.56.56,0,0,1,0-1.12H65.25a.56.56,0,1,1,0,1.12Z"/><path class="cls-2" d="M20.25,25.88a.57.57,0,0,1-.56-.57,4.51,4.51,0,0,0-4.5-4.5.56.56,0,1,1,0-1.12,4.51,4.51,0,0,0,4.5-4.5.56.56,0,1,1,1.12,0,4.51,4.51,0,0,0,4.5,4.5.56.56,0,1,1,0,1.12,4.51,4.51,0,0,0-4.5,4.5A.57.57,0,0,1,20.25,25.88Zm-2.61-5.63a5.69,5.69,0,0,1,2.61,2.61,5.69,5.69,0,0,1,2.61-2.61,5.69,5.69,0,0,1-2.61-2.61A5.69,5.69,0,0,1,17.64,20.25Z"/><path class="cls-2" d="M68.62,24.19a3.94,3.94,0,1,1,3.94-3.94A3.94,3.94,0,0,1,68.62,24.19Zm0-6.75a2.81,2.81,0,1,0,2.82,2.81A2.81,2.81,0,0,0,68.62,17.44Z"/><path class="cls-2" d="M92.89,25.31a5.07,5.07,0,0,1-3.18-1.13.58.58,0,0,1-.2-.54.59.59,0,0,1,.38-.43,3.11,3.11,0,0,0,0-5.92.59.59,0,0,1-.38-.43.58.58,0,0,1,.2-.54,5.06,5.06,0,1,1,3.18,9Zm-1.66-1.49a3.94,3.94,0,1,0,0-7.14,4.24,4.24,0,0,1,0,7.14Z"/><path class="cls-2" d="M20.25,98a5.06,5.06,0,0,1-3.93-8.25.55.55,0,0,1,.54-.2.59.59,0,0,1,.43.38,3.11,3.11,0,0,0,5.92,0,.59.59,0,0,1,.43-.38.55.55,0,0,1,.54.2A5.06,5.06,0,0,1,20.25,98Zm-3.57-6.73a3.94,3.94,0,1,0,7.14,0,4.24,4.24,0,0,1-7.14,0Z"/><path class="cls-2" d="M77.62,23.06a2.81,2.81,0,1,1,2.82-2.81A2.81,2.81,0,0,1,77.62,23.06Zm0-4.5a1.69,1.69,0,1,0,1.69,1.69A1.69,1.69,0,0,0,77.62,18.56Z"/><path class="cls-2" d="M20.25,65.81a.56.56,0,0,1-.56-.56V29.81a.56.56,0,0,1,1.12,0V65.25A.56.56,0,0,1,20.25,65.81Z"/><path class="cls-2" d="M20.25,72.56a3.94,3.94,0,1,1,3.94-3.94A3.94,3.94,0,0,1,20.25,72.56Zm0-6.75a2.82,2.82,0,1,0,2.81,2.81A2.81,2.81,0,0,0,20.25,65.81Z"/><path class="cls-2" d="M20.25,80.44a2.82,2.82,0,1,1,2.81-2.82A2.81,2.81,0,0,1,20.25,80.44Zm0-4.5a1.69,1.69,0,1,0,1.69,1.68A1.69,1.69,0,0,0,20.25,75.94Z"/><path class="cls-2" d="M112.47,20.81H97.39a.56.56,0,0,1,0-1.12h15.08a.56.56,0,1,1,0,1.12Z"/><path class="cls-2" d="M109.84,23.43a.54.54,0,0,1-.39-.16.57.57,0,0,1,0-.8l2.22-2.22L109.45,18a.57.57,0,0,1,0-.8.56.56,0,0,1,.79,0l2.62,2.62a.57.57,0,0,1,0,.8l-2.62,2.62A.55.55,0,0,1,109.84,23.43Z"/><path class="cls-2" d="M150,20.81H135a.56.56,0,1,1,0-1.12H150a.56.56,0,1,1,0,1.12Z"/><path class="cls-2" d="M137.59,23.43a.55.55,0,0,1-.4-.16l-2.62-2.62a.56.56,0,0,1,0-.8l2.62-2.62a.57.57,0,0,1,.8,0,.59.59,0,0,1,0,.8l-2.23,2.22L138,22.47a.59.59,0,0,1,0,.8A.57.57,0,0,1,137.59,23.43Z"/><path class="cls-2" d="M112.47,340.31H97.39a.56.56,0,1,1,0-1.12h15.08a.56.56,0,1,1,0,1.12Z"/><path class="cls-2" d="M109.84,342.93a.54.54,0,0,1-.39-.16.57.57,0,0,1,0-.8l2.22-2.22-2.22-2.22a.57.57,0,0,1,0-.8.56.56,0,0,1,.79,0l2.62,2.62a.57.57,0,0,1,0,.8l-2.62,2.62A.55.55,0,0,1,109.84,342.93Z"/><path class="cls-2" d="M150,340.31H135a.56.56,0,1,1,0-1.12H150a.56.56,0,1,1,0,1.12Z"/><path class="cls-2" d="M137.59,342.93a.55.55,0,0,1-.4-.16l-2.62-2.62a.56.56,0,0,1,0-.8l2.62-2.62a.57.57,0,0,1,.8,0,.59.59,0,0,1,0,.8l-2.23,2.22L138,342a.59.59,0,0,1,0,.8A.57.57,0,0,1,137.59,342.93Z"/><path class="cls-2" d="M20.25,109.21a.56.56,0,0,1-.56-.57V97.39a.56.56,0,0,1,1.12,0v11.25A.56.56,0,0,1,20.25,109.21Z"/><path class="cls-2" d="M20.25,109.21a.58.58,0,0,1-.4-.17l-2.62-2.62a.57.57,0,0,1,0-.8.59.59,0,0,1,.8,0l2.22,2.23,2.22-2.23a.59.59,0,0,1,.8,0,.57.57,0,0,1,0,.8L20.65,109A.58.58,0,0,1,20.25,109.21Z"/><path class="cls-2" d="M65.25,339.86H29.81a.56.56,0,1,1,0-1.12H65.25a.56.56,0,0,1,0,1.12Z"/><path class="cls-2" d="M20.25,344.92a.56.56,0,0,1-.56-.56,4.51,4.51,0,0,0-4.5-4.5.56.56,0,1,1,0-1.12,4.51,4.51,0,0,0,4.5-4.5.56.56,0,1,1,1.12,0,4.51,4.51,0,0,0,4.5,4.5.56.56,0,1,1,0,1.12,4.51,4.51,0,0,0-4.5,4.5A.56.56,0,0,1,20.25,344.92Zm-2.61-5.62a5.69,5.69,0,0,1,2.61,2.61,5.69,5.69,0,0,1,2.61-2.61,5.69,5.69,0,0,1-2.61-2.61A5.69,5.69,0,0,1,17.64,339.3Z"/><path class="cls-2" d="M68.62,343.24a3.94,3.94,0,1,1,3.94-3.94A3.94,3.94,0,0,1,68.62,343.24Zm0-6.75a2.81,2.81,0,1,0,2.82,2.81A2.81,2.81,0,0,0,68.62,336.49Z"/><path class="cls-2" d="M92.89,344.36a5.07,5.07,0,0,1-3.18-1.13.58.58,0,0,1-.2-.54.59.59,0,0,1,.38-.43,3.11,3.11,0,0,0,0-5.92.59.59,0,0,1-.38-.43.58.58,0,0,1,.2-.54,5.06,5.06,0,1,1,3.18,9Zm-1.66-1.49a3.94,3.94,0,1,0,0-7.14,4.24,4.24,0,0,1,0,7.14Z"/><path class="cls-2" d="M23.75,270.05h-.11a.59.59,0,0,1-.43-.38,3.11,3.11,0,0,0-5.92,0,.59.59,0,0,1-.43.38.55.55,0,0,1-.54-.2,5.06,5.06,0,1,1,7.86,0A.56.56,0,0,1,23.75,270.05Zm-3.5-3.68a4.23,4.23,0,0,1,3.57,1.95,3.94,3.94,0,1,0-7.14,0A4.23,4.23,0,0,1,20.25,266.37Z"/><path class="cls-2" d="M77.62,342.11a2.81,2.81,0,1,1,2.82-2.81A2.81,2.81,0,0,1,77.62,342.11Zm0-4.5a1.69,1.69,0,1,0,1.69,1.69A1.69,1.69,0,0,0,77.62,337.61Z"/><path class="cls-2" d="M20.25,330.3a.56.56,0,0,1-.56-.56V294.3a.56.56,0,1,1,1.12,0v35.44A.56.56,0,0,1,20.25,330.3Z"/><path class="cls-2" d="M20.25,294.86a3.94,3.94,0,1,1,3.94-3.94A3.94,3.94,0,0,1,20.25,294.86Zm0-6.75a2.82,2.82,0,1,0,2.81,2.81A2.81,2.81,0,0,0,20.25,288.11Z"/><path class="cls-2" d="M20.25,284.74a2.82,2.82,0,1,1,2.81-2.82A2.81,2.81,0,0,1,20.25,284.74Zm0-4.5a1.69,1.69,0,1,0,1.69,1.68A1.69,1.69,0,0,0,20.25,280.24Z"/><path class="cls-2" d="M20.25,262.72a.56.56,0,0,1-.56-.56V250.91a.56.56,0,1,1,1.12,0v11.25A.56.56,0,0,1,20.25,262.72Z"/><path class="cls-2" d="M22.87,254.09a.54.54,0,0,1-.4-.17l-2.22-2.22L18,253.92a.57.57,0,0,1-.8,0,.56.56,0,0,1,0-.79l2.62-2.62a.59.59,0,0,1,.8,0l2.62,2.62a.56.56,0,0,1,0,.79A.54.54,0,0,1,22.87,254.09Z"/><path class="cls-2" d="M217.69,20.81H182.25a.56.56,0,0,1,0-1.12h35.44a.56.56,0,1,1,0,1.12Z"/><path class="cls-2" d="M227.25,25.88a.57.57,0,0,1-.56-.57,4.51,4.51,0,0,0-4.5-4.5.56.56,0,1,1,0-1.12,4.51,4.51,0,0,0,4.5-4.5.56.56,0,1,1,1.12,0,4.51,4.51,0,0,0,4.5,4.5.56.56,0,1,1,0,1.12,4.51,4.51,0,0,0-4.5,4.5A.57.57,0,0,1,227.25,25.88Zm-2.61-5.63a5.69,5.69,0,0,1,2.61,2.61,5.69,5.69,0,0,1,2.61-2.61,5.69,5.69,0,0,1-2.61-2.61A5.69,5.69,0,0,1,224.64,20.25Z"/><path class="cls-2" d="M178.87,24.19a3.94,3.94,0,1,1,3.94-3.94A3.94,3.94,0,0,1,178.87,24.19Zm0-6.75a2.81,2.81,0,1,0,2.82,2.81A2.81,2.81,0,0,0,178.87,17.44Z"/><path class="cls-2" d="M154.6,25.31a5.06,5.06,0,1,1,3.19-9,.58.58,0,0,1,.2.54.59.59,0,0,1-.38.43,3.11,3.11,0,0,0,0,5.92.59.59,0,0,1,.38.43.58.58,0,0,1-.2.54A5.07,5.07,0,0,1,154.6,25.31Zm0-9a3.94,3.94,0,1,0,1.67,7.51,4.24,4.24,0,0,1,0-7.14A3.92,3.92,0,0,0,154.6,16.31Z"/><path class="cls-2" d="M227.25,98a5.06,5.06,0,0,1-3.93-8.25.55.55,0,0,1,.54-.2.59.59,0,0,1,.43.38,3.11,3.11,0,0,0,5.92,0,.59.59,0,0,1,.43-.38.55.55,0,0,1,.54.2A5.06,5.06,0,0,1,227.25,98Zm-3.57-6.73a3.94,3.94,0,1,0,7.14,0,4.24,4.24,0,0,1-7.14,0Z"/><path class="cls-2" d="M169.87,23.06a2.81,2.81,0,1,1,2.82-2.81A2.81,2.81,0,0,1,169.87,23.06Zm0-4.5a1.69,1.69,0,1,0,1.69,1.69A1.69,1.69,0,0,0,169.87,18.56Z"/><path class="cls-2" d="M227.25,65.81a.56.56,0,0,1-.56-.56V29.81a.56.56,0,0,1,1.12,0V65.25A.56.56,0,0,1,227.25,65.81Z"/><path class="cls-2" d="M227.25,72.56a3.94,3.94,0,1,1,3.94-3.94A3.94,3.94,0,0,1,227.25,72.56Zm0-6.75a2.82,2.82,0,1,0,2.81,2.81A2.81,2.81,0,0,0,227.25,65.81Z"/><path class="cls-2" d="M227.25,80.44a2.82,2.82,0,1,1,2.81-2.82A2.81,2.81,0,0,1,227.25,80.44Zm0-4.5a1.69,1.69,0,1,0,1.69,1.68A1.69,1.69,0,0,0,227.25,75.94Z"/><path class="cls-2" d="M227.25,109.21a.56.56,0,0,1-.56-.57V97.39a.56.56,0,1,1,1.12,0v11.25A.56.56,0,0,1,227.25,109.21Z"/><path class="cls-2" d="M227.25,109.21a.58.58,0,0,1-.4-.17l-2.62-2.62a.57.57,0,0,1,0-.8.59.59,0,0,1,.8,0l2.22,2.23,2.22-2.23a.59.59,0,0,1,.8,0,.57.57,0,0,1,0,.8L227.65,109A.58.58,0,0,1,227.25,109.21Z"/><path class="cls-2" d="M217.69,339.86H182.25a.56.56,0,0,1,0-1.12h35.44a.56.56,0,0,1,0,1.12Z"/><path class="cls-2" d="M227.25,344.92a.56.56,0,0,1-.56-.56,4.51,4.51,0,0,0-4.5-4.5.56.56,0,1,1,0-1.12,4.51,4.51,0,0,0,4.5-4.5.56.56,0,1,1,1.12,0,4.51,4.51,0,0,0,4.5,4.5.56.56,0,1,1,0,1.12,4.51,4.51,0,0,0-4.5,4.5A.56.56,0,0,1,227.25,344.92Zm-2.61-5.62a5.69,5.69,0,0,1,2.61,2.61,5.69,5.69,0,0,1,2.61-2.61,5.69,5.69,0,0,1-2.61-2.61A5.69,5.69,0,0,1,224.64,339.3Z"/><path class="cls-2" d="M178.87,343.24a3.94,3.94,0,1,1,3.94-3.94A3.94,3.94,0,0,1,178.87,343.24Zm0-6.75a2.81,2.81,0,1,0,2.82,2.81A2.81,2.81,0,0,0,178.87,336.49Z"/><path class="cls-2" d="M154.6,344.36a5.06,5.06,0,1,1,3.19-9,.58.58,0,0,1,.2.54.59.59,0,0,1-.38.43,3.11,3.11,0,0,0,0,5.92.59.59,0,0,1,.38.43.58.58,0,0,1-.2.54A5.07,5.07,0,0,1,154.6,344.36Zm0-9a3.94,3.94,0,1,0,1.67,7.51,4.24,4.24,0,0,1,0-7.14A3.92,3.92,0,0,0,154.6,335.36Z"/><path class="cls-2" d="M230.75,270.05h-.11a.59.59,0,0,1-.43-.38,3.11,3.11,0,0,0-5.92,0,.59.59,0,0,1-.43.38.55.55,0,0,1-.54-.2,5.06,5.06,0,1,1,7.86,0A.56.56,0,0,1,230.75,270.05Zm-3.5-3.68a4.23,4.23,0,0,1,3.57,1.95,3.94,3.94,0,1,0-7.14,0A4.23,4.23,0,0,1,227.25,266.37Z"/><path class="cls-2" d="M169.87,342.11a2.81,2.81,0,1,1,2.82-2.81A2.81,2.81,0,0,1,169.87,342.11Zm0-4.5a1.69,1.69,0,1,0,1.69,1.69A1.69,1.69,0,0,0,169.87,337.61Z"/><path class="cls-2" d="M227.25,330.3a.56.56,0,0,1-.56-.56V294.3a.56.56,0,1,1,1.12,0v35.44A.56.56,0,0,1,227.25,330.3Z"/><path class="cls-2" d="M227.25,294.86a3.94,3.94,0,1,1,3.94-3.94A3.94,3.94,0,0,1,227.25,294.86Zm0-6.75a2.82,2.82,0,1,0,2.81,2.81A2.81,2.81,0,0,0,227.25,288.11Z"/><path class="cls-2" d="M227.25,284.74a2.82,2.82,0,1,1,2.81-2.82A2.81,2.81,0,0,1,227.25,284.74Zm0-4.5a1.69,1.69,0,1,0,1.69,1.68A1.69,1.69,0,0,0,227.25,280.24Z"/><path class="cls-2" d="M227.25,262.72a.56.56,0,0,1-.56-.56V250.91a.56.56,0,1,1,1.12,0v11.25A.56.56,0,0,1,227.25,262.72Z"/><path class="cls-2" d="M229.87,254.09a.54.54,0,0,1-.4-.17l-2.22-2.22L225,253.92a.57.57,0,0,1-.8,0,.56.56,0,0,1,0-.79l2.62-2.62a.59.59,0,0,1,.8,0l2.62,2.62a.56.56,0,0,1,0,.79A.54.54,0,0,1,229.87,254.09Z"/><path class="cls-2" d="M236.25,353.36H209.92a.56.56,0,1,1,0-1.12h26.33a4,4,0,0,0,3.94-3.94V322a.56.56,0,0,1,1.12,0V348.3A5.07,5.07,0,0,1,236.25,353.36Z"/><path class="cls-2" d="M206.55,353.36a.57.57,0,0,1-.4-1,.59.59,0,0,1,.8,0,.56.56,0,0,1-.4,1Z"/><path class="cls-2" d="M203.17,353.36a.57.57,0,0,1-.39-.16.56.56,0,0,1,0-.8.57.57,0,0,1,.79,0,.56.56,0,0,1,0,.8A.58.58,0,0,1,203.17,353.36Z"/><path class="cls-2" d="M199.8,353.36a.58.58,0,0,1-.4-.16.58.58,0,0,1,0-.8.59.59,0,0,1,.8,0,.56.56,0,0,1-.4,1Z"/><path class="cls-2" d="M196.42,353.36a.57.57,0,0,1-.39-.16.56.56,0,0,1,0-.8.57.57,0,0,1,.79,0,.56.56,0,0,1,0,.8A.58.58,0,0,1,196.42,353.36Z"/><path class="cls-2" d="M193.05,353.36a.57.57,0,0,1-.4-1,.59.59,0,0,1,.8,0,.56.56,0,0,1-.4,1Z"/><path class="cls-2" d="M240.75,319.16a.57.57,0,0,1-.4-1,.59.59,0,0,1,.8,0,.56.56,0,0,1-.4,1Z"/><path class="cls-2" d="M240.75,315.79a.56.56,0,0,1-.4-.17.58.58,0,0,1-.16-.4.57.57,0,0,1,.16-.39.59.59,0,0,1,.8,0,.57.57,0,0,1,.16.39.58.58,0,0,1-.16.4A.56.56,0,0,1,240.75,315.79Z"/><path class="cls-2" d="M240.75,312.41a.57.57,0,0,1-.4-1,.59.59,0,0,1,.8,0,.56.56,0,0,1-.4,1Z"/><path class="cls-2" d="M240.75,309a.56.56,0,0,1-.4-.17.58.58,0,0,1-.16-.4.57.57,0,0,1,.16-.39.59.59,0,0,1,.8,0,.57.57,0,0,1,.16.39.58.58,0,0,1-.16.4A.56.56,0,0,1,240.75,309Z"/><path class="cls-2" d="M240.75,305.66a.57.57,0,0,1-.4-1,.59.59,0,0,1,.8,0,.56.56,0,0,1-.4,1Z"/><path class="cls-2" d="M20.25,249.19a.56.56,0,0,1-.56-.57V111.38a.56.56,0,1,1,1.12,0V248.62A.56.56,0,0,1,20.25,249.19Z"/><circle class="cls-2" cx="231.75" cy="246.38" r="2.25"/><circle class="cls-2" cx="231.75" cy="239.74" r="2.25"/><circle class="cls-2" cx="231.75" cy="233.1" r="2.25"/><circle class="cls-2" cx="231.75" cy="226.46" r="2.25"/><circle class="cls-2" cx="231.75" cy="219.83" r="2.25"/><circle class="cls-2" cx="231.75" cy="213.19" r="2.25"/><circle class="cls-2" cx="231.75" cy="206.55" r="2.25"/><circle class="cls-2" cx="231.75" cy="199.91" r="2.25"/><circle class="cls-2" cx="231.75" cy="193.28" r="2.25"/><circle class="cls-2" cx="231.75" cy="186.64" r="2.25"/><circle class="cls-2" cx="231.75" cy="180" r="2.25"/><circle class="cls-2" cx="231.75" cy="173.36" r="2.25"/><circle class="cls-2" cx="231.75" cy="166.72" r="2.25"/><circle class="cls-2" cx="231.75" cy="160.09" r="2.25"/><circle class="cls-2" cx="231.75" cy="153.45" r="2.25"/><circle class="cls-2" cx="231.75" cy="146.81" r="2.25"/><circle class="cls-2" cx="231.75" cy="140.17" r="2.25"/><circle class="cls-2" cx="231.75" cy="133.54" r="2.25"/><circle class="cls-2" cx="231.75" cy="126.9" r="2.25"/><circle class="cls-2" cx="231.75" cy="120.26" r="2.25"/><circle class="cls-2" cx="231.75" cy="113.63" r="2.25"/><path class="cls-2" d="M227.25,249.19a.56.56,0,0,1-.56-.57V111.38a.56.56,0,1,1,1.12,0V248.62A.56.56,0,0,1,227.25,249.19Z"/><path class="cls-2" d="M123.72,25.31a5.07,5.07,0,0,1-3.19-1.13.58.58,0,0,1-.2-.54.59.59,0,0,1,.38-.43,3.11,3.11,0,0,0,0-5.92.59.59,0,0,1-.38-.43.58.58,0,0,1,.2-.54,5.06,5.06,0,1,1,3.19,9Zm-1.67-1.49a3.94,3.94,0,1,0,0-7.14,4.24,4.24,0,0,1,0,7.14Z"/><path class="cls-2" d="M120.89,24.31a.55.55,0,0,1-.36-.13,5,5,0,0,1-1.88-3.93,5.15,5.15,0,0,1,1.88-3.93.56.56,0,0,1,.79.07.57.57,0,0,1-.07.8,4,4,0,0,0-1.47,3.06,3.92,3.92,0,0,0,1.46,3.06.56.56,0,0,1,.08.79A.54.54,0,0,1,120.89,24.31Z"/><path class="cls-2" d="M123.72,14.06a.58.58,0,0,1-.4-.16.56.56,0,0,1,0-.8.57.57,0,0,1,.79,0,.56.56,0,0,1,0,.8A.57.57,0,0,1,123.72,14.06Z"/><path class="cls-2" d="M122,14.29a.58.58,0,0,1-.4-.16.58.58,0,0,1,0-.8.59.59,0,0,1,.8,0,.56.56,0,0,1-.4,1Z"/><path class="cls-2" d="M120.34,15a.56.56,0,0,1-.4-.17.58.58,0,0,1-.16-.4.57.57,0,0,1,.16-.39.59.59,0,0,1,.8,0,.57.57,0,0,1,.16.39.58.58,0,0,1-.16.4A.56.56,0,0,1,120.34,15Z"/><path class="cls-2" d="M118.94,16a.58.58,0,0,1-.56-.56.54.54,0,0,1,.17-.4.57.57,0,0,1,.79,0,.54.54,0,0,1,.17.4.52.52,0,0,1-.17.39A.54.54,0,0,1,118.94,16Z"/><path class="cls-2" d="M117.87,17.44a.56.56,0,0,1-.4-.17.57.57,0,0,1-.16-.39.58.58,0,0,1,.16-.4.59.59,0,0,1,.8,0,.58.58,0,0,1,.16.4.57.57,0,0,1-.16.39A.56.56,0,0,1,117.87,17.44Z"/><path class="cls-2" d="M117.2,19.07a.58.58,0,0,1-.57-.57.54.54,0,0,1,.17-.39.57.57,0,0,1,.79,0,.54.54,0,0,1,.17.39.54.54,0,0,1-.17.4A.54.54,0,0,1,117.2,19.07Z"/><path class="cls-2" d="M117,20.81a.58.58,0,0,1-.4-.16.56.56,0,0,1,0-.8.57.57,0,0,1,.79,0,.56.56,0,0,1,0,.8A.57.57,0,0,1,117,20.81Z"/><path class="cls-2" d="M117.2,22.56a.54.54,0,0,1-.4-.17.54.54,0,0,1-.17-.39.54.54,0,0,1,.17-.4.57.57,0,0,1,.79,0,.54.54,0,0,1,.17.4.58.58,0,0,1-.56.56Z"/><path class="cls-2" d="M117.87,24.19a.56.56,0,0,1-.4-.17.58.58,0,0,1-.16-.4.57.57,0,0,1,.16-.39.59.59,0,0,1,.8,0,.57.57,0,0,1,.16.39.58.58,0,0,1-.16.4A.56.56,0,0,1,117.87,24.19Z"/><path class="cls-2" d="M118.94,25.59a.52.52,0,0,1-.39-.17.56.56,0,0,1-.17-.4.54.54,0,0,1,.17-.39.56.56,0,0,1,.79,0,.54.54,0,0,1,.17.39.56.56,0,0,1-.17.4A.54.54,0,0,1,118.94,25.59Z"/><path class="cls-2" d="M120.34,26.66a.56.56,0,0,1-.4-.17.57.57,0,0,1-.16-.39.58.58,0,0,1,.16-.4.59.59,0,0,1,.8,0,.58.58,0,0,1,.16.4.57.57,0,0,1-.16.39A.56.56,0,0,1,120.34,26.66Z"/><path class="cls-2" d="M122,27.33a.58.58,0,0,1-.4-.16.58.58,0,0,1,0-.8.59.59,0,0,1,.8,0,.56.56,0,0,1-.4,1Z"/><path class="cls-2" d="M123.72,27.56a.58.58,0,0,1-.4-.16.56.56,0,0,1,0-.8.57.57,0,0,1,.79,0,.56.56,0,0,1,0,.8A.57.57,0,0,1,123.72,27.56Z"/><path class="cls-2" d="M125.46,27.33a.55.55,0,0,1-.39-.16.56.56,0,0,1,0-.8.57.57,0,0,1,.79,0,.58.58,0,0,1,0,.8A.58.58,0,0,1,125.46,27.33Z"/><path class="cls-2" d="M127.09,26.66a.56.56,0,0,1-.4-.17.57.57,0,0,1-.16-.39.58.58,0,0,1,.16-.4.59.59,0,0,1,.8,0,.58.58,0,0,1,.16.4.57.57,0,0,1-.16.39A.56.56,0,0,1,127.09,26.66Z"/><path class="cls-2" d="M128.49,25.59a.56.56,0,0,1-.4-.17.58.58,0,0,1-.16-.4.55.55,0,0,1,.16-.39.58.58,0,0,1,.8,0,.55.55,0,0,1,.16.39.58.58,0,0,1-.16.4A.56.56,0,0,1,128.49,25.59Z"/><path class="cls-2" d="M129.56,24.19a.56.56,0,0,1-.4-.17.58.58,0,0,1-.16-.4.57.57,0,0,1,.16-.39.59.59,0,0,1,.8,0,.57.57,0,0,1,.16.39.58.58,0,0,1-.16.4A.56.56,0,0,1,129.56,24.19Z"/><path class="cls-2" d="M130.24,22.56a.54.54,0,0,1-.4-.17.54.54,0,0,1-.17-.39.54.54,0,0,1,.17-.4.57.57,0,0,1,.79,0,.54.54,0,0,1,.17.4.58.58,0,0,1-.56.56Z"/><path class="cls-2" d="M130.47,20.81a.58.58,0,0,1-.4-.16.56.56,0,0,1,0-.8.57.57,0,0,1,.79,0,.56.56,0,0,1,0,.8A.57.57,0,0,1,130.47,20.81Z"/><path class="cls-2" d="M130.24,19.07a.58.58,0,0,1-.57-.57.54.54,0,0,1,.17-.39.57.57,0,0,1,.79,0,.54.54,0,0,1,.17.39.54.54,0,0,1-.17.4A.54.54,0,0,1,130.24,19.07Z"/><path class="cls-2" d="M129.56,17.44a.56.56,0,0,1-.4-.17.57.57,0,0,1-.16-.39.58.58,0,0,1,.16-.4.59.59,0,0,1,.8,0,.58.58,0,0,1,.16.4.57.57,0,0,1-.16.39A.56.56,0,0,1,129.56,17.44Z"/><path class="cls-2" d="M128.49,16a.56.56,0,0,1-.4-.17.55.55,0,0,1-.16-.39.58.58,0,0,1,.16-.4.59.59,0,0,1,.8,0,.58.58,0,0,1,.16.4.55.55,0,0,1-.16.39A.56.56,0,0,1,128.49,16Z"/><path class="cls-2" d="M127.09,15a.56.56,0,0,1-.4-.17.58.58,0,0,1-.16-.4.57.57,0,0,1,.16-.39.59.59,0,0,1,.8,0,.57.57,0,0,1,.16.39.58.58,0,0,1-.16.4A.56.56,0,0,1,127.09,15Z"/><path class="cls-2" d="M125.46,14.29a.55.55,0,0,1-.39-.16.56.56,0,0,1-.17-.4.59.59,0,0,1,.16-.4.59.59,0,0,1,.8,0,.58.58,0,0,1,0,.8A.58.58,0,0,1,125.46,14.29Z"/><path class="cls-2" d="M123.72,344.36a5.07,5.07,0,0,1-3.19-1.13.58.58,0,0,1-.2-.54.59.59,0,0,1,.38-.43,3.11,3.11,0,0,0,0-5.92.59.59,0,0,1-.38-.43.58.58,0,0,1,.2-.54,5.06,5.06,0,1,1,3.19,9Zm-1.67-1.49a3.94,3.94,0,1,0,0-7.14,4.24,4.24,0,0,1,0,7.14Z"/><path class="cls-2" d="M120.89,343.36a.55.55,0,0,1-.36-.13,5,5,0,0,1-1.88-3.93,5.15,5.15,0,0,1,1.88-3.93.56.56,0,0,1,.79.07.57.57,0,0,1-.07.8,4,4,0,0,0-1.47,3.06,3.92,3.92,0,0,0,1.46,3.06.56.56,0,0,1,.08.79A.54.54,0,0,1,120.89,343.36Z"/><path class="cls-2" d="M123.72,333.11a.58.58,0,0,1-.4-.16.56.56,0,0,1,0-.8.57.57,0,0,1,.79,0,.56.56,0,0,1,0,.8A.57.57,0,0,1,123.72,333.11Z"/><path class="cls-2" d="M122,333.34a.58.58,0,0,1-.4-.16.58.58,0,0,1,0-.8.59.59,0,0,1,.8,0,.56.56,0,0,1-.4,1Z"/><path class="cls-2" d="M120.34,334a.56.56,0,0,1-.4-.17.58.58,0,0,1-.16-.4.57.57,0,0,1,.16-.39.59.59,0,0,1,.8,0,.57.57,0,0,1,.16.39.58.58,0,0,1-.16.4A.56.56,0,0,1,120.34,334Z"/><path class="cls-2" d="M118.94,335.09a.55.55,0,0,1-.39-.16.56.56,0,0,1-.17-.4.54.54,0,0,1,.17-.4.57.57,0,0,1,.79,0,.54.54,0,0,1,.17.4.56.56,0,0,1-.57.56Z"/><path class="cls-2" d="M117.87,336.49a.56.56,0,0,1-.4-.17.58.58,0,0,1-.16-.4.57.57,0,0,1,.16-.39.59.59,0,0,1,.8,0,.57.57,0,0,1,.16.39.58.58,0,0,1-.16.4A.56.56,0,0,1,117.87,336.49Z"/><path class="cls-2" d="M117.2,338.12a.58.58,0,0,1-.57-.57.54.54,0,0,1,.17-.39.56.56,0,0,1,.79,0,.54.54,0,0,1,.17.39.54.54,0,0,1-.17.4A.54.54,0,0,1,117.2,338.12Z"/><path class="cls-2" d="M117,339.86a.58.58,0,0,1-.4-.16.56.56,0,0,1-.17-.4.54.54,0,0,1,.17-.4.57.57,0,0,1,.79,0,.56.56,0,0,1,0,.8A.57.57,0,0,1,117,339.86Z"/><path class="cls-2" d="M117.2,341.61a.54.54,0,0,1-.4-.17.54.54,0,0,1-.17-.39.54.54,0,0,1,.17-.4.57.57,0,0,1,.79,0,.54.54,0,0,1,.17.4.58.58,0,0,1-.56.56Z"/><path class="cls-2" d="M117.87,343.24a.56.56,0,0,1-.4-.17.58.58,0,0,1-.16-.4.57.57,0,0,1,.16-.39.59.59,0,0,1,.8,0,.57.57,0,0,1,.16.39.58.58,0,0,1-.16.4A.56.56,0,0,1,117.87,343.24Z"/><path class="cls-2" d="M118.94,344.63a.51.51,0,0,1-.39-.16.54.54,0,0,1-.17-.4.56.56,0,0,1,.17-.4.57.57,0,0,1,1,.4.56.56,0,0,1-.17.4A.54.54,0,0,1,118.94,344.63Z"/><path class="cls-2" d="M120.34,345.71a.56.56,0,0,1-.4-.17.57.57,0,0,1-.16-.39.58.58,0,0,1,.16-.4.59.59,0,0,1,.8,0,.58.58,0,0,1,.16.4.57.57,0,0,1-.16.39A.56.56,0,0,1,120.34,345.71Z"/><path class="cls-2" d="M122,346.38a.58.58,0,0,1-.4-.16.58.58,0,0,1,0-.8.59.59,0,0,1,.8,0,.56.56,0,0,1-.4,1Z"/><path class="cls-2" d="M123.72,346.61a.58.58,0,0,1-.4-.16.56.56,0,0,1,0-.8.57.57,0,0,1,.79,0,.56.56,0,0,1,0,.8A.57.57,0,0,1,123.72,346.61Z"/><path class="cls-2" d="M125.46,346.38a.57.57,0,0,1-.39-.16.56.56,0,0,1,0-.8.57.57,0,0,1,.79,0,.58.58,0,0,1,0,.8A.59.59,0,0,1,125.46,346.38Z"/><path class="cls-2" d="M127.09,345.71a.56.56,0,0,1-.4-.17.57.57,0,0,1-.16-.39.58.58,0,0,1,.16-.4.59.59,0,0,1,.8,0,.58.58,0,0,1,.16.4.57.57,0,0,1-.16.39A.56.56,0,0,1,127.09,345.71Z"/><path class="cls-2" d="M128.49,344.63a.55.55,0,0,1-.4-.16.58.58,0,0,1,0-.8.59.59,0,0,1,.8,0,.59.59,0,0,1,.16.4.58.58,0,0,1-.16.4A.55.55,0,0,1,128.49,344.63Z"/><path class="cls-2" d="M129.56,343.24a.56.56,0,0,1-.4-.17.58.58,0,0,1-.16-.4.57.57,0,0,1,.16-.39.59.59,0,0,1,.8,0,.57.57,0,0,1,.16.39.58.58,0,0,1-.16.4A.56.56,0,0,1,129.56,343.24Z"/><path class="cls-2" d="M130.24,341.61a.54.54,0,0,1-.4-.17.54.54,0,0,1-.17-.39.54.54,0,0,1,.17-.4.57.57,0,0,1,.79,0,.54.54,0,0,1,.17.4.58.58,0,0,1-.56.56Z"/><path class="cls-2" d="M130.47,339.86a.58.58,0,0,1-.4-.16.56.56,0,0,1-.17-.4.54.54,0,0,1,.17-.4.57.57,0,0,1,.79,0,.54.54,0,0,1,.17.4.56.56,0,0,1-.17.4A.57.57,0,0,1,130.47,339.86Z"/><path class="cls-2" d="M130.24,338.12a.58.58,0,0,1-.57-.57.54.54,0,0,1,.17-.39.56.56,0,0,1,.79,0,.54.54,0,0,1,.17.39.54.54,0,0,1-.17.4A.54.54,0,0,1,130.24,338.12Z"/><path class="cls-2" d="M129.56,336.49a.56.56,0,0,1-.4-.17.58.58,0,0,1-.16-.4.57.57,0,0,1,.16-.39.59.59,0,0,1,.8,0,.57.57,0,0,1,.16.39.58.58,0,0,1-.16.4A.56.56,0,0,1,129.56,336.49Z"/><path class="cls-2" d="M128.49,335.09a.55.55,0,0,1-.56-.56.58.58,0,0,1,.16-.4.59.59,0,0,1,.8,0,.58.58,0,0,1,.16.4.61.61,0,0,1-.16.4A.59.59,0,0,1,128.49,335.09Z"/><path class="cls-2" d="M127.09,334a.56.56,0,0,1-.4-.17.58.58,0,0,1-.16-.4.57.57,0,0,1,.16-.39.59.59,0,0,1,.8,0,.57.57,0,0,1,.16.39.58.58,0,0,1-.16.4A.56.56,0,0,1,127.09,334Z"/><path class="cls-2" d="M125.46,333.34a.57.57,0,0,1-.39-.16.56.56,0,0,1,0-.8.57.57,0,0,1,.79,0,.58.58,0,0,1,0,.8A.58.58,0,0,1,125.46,333.34Z"/><path class="cls-2" d="M187.88,7.31H59.62a.56.56,0,0,1,0-1.12H187.88a.56.56,0,1,1,0,1.12Z"/><path class="cls-2" d="M189.67,353.36H57.83a.56.56,0,1,1,0-1.12H189.67a.56.56,0,1,1,0,1.12Z"/><path class="cls-2" d="M6.75,302.29a.56.56,0,0,1-.56-.57V57.83a.56.56,0,1,1,1.12,0V301.72A.56.56,0,0,1,6.75,302.29Z"/><path class="cls-2" d="M240.75,302.29a.56.56,0,0,1-.56-.57V57.83a.56.56,0,1,1,1.12,0V301.72A.56.56,0,0,1,240.75,302.29Z"/><path class="cls-2" d="M46.69,59.2a.57.57,0,0,1-.57-.56c0-5.25-.6-7.89-2.16-9.45S39.75,47,34.51,47a.57.57,0,0,1-.56-.57.56.56,0,0,1,.56-.56c5.24,0,7.9-.61,9.45-2.16s2.16-4.21,2.16-9.45a.58.58,0,0,1,.57-.57.57.57,0,0,1,.56.57c0,5.24.61,7.89,2.16,9.45s4.21,2.16,9.45,2.16a.57.57,0,0,1,.57.56.58.58,0,0,1-.57.57c-5.24,0-7.89.6-9.45,2.16s-2.16,4.2-2.16,9.45A.56.56,0,0,1,46.69,59.2ZM41,46.46a6.88,6.88,0,0,1,5.7,5.7,6.86,6.86,0,0,1,5.69-5.7,6.83,6.83,0,0,1-5.69-5.69A6.86,6.86,0,0,1,41,46.46Z"/><path class="cls-2" d="M46.69,64.42a.54.54,0,0,1-.4-.16.54.54,0,0,1,0-.79.56.56,0,0,1,1,.39.54.54,0,0,1-.17.4A.53.53,0,0,1,46.69,64.42Z"/><path class="cls-2" d="M30.29,63.42a.57.57,0,0,1-.39-1L37,55.38a.56.56,0,0,1,.79.79l-7.08,7.08A.56.56,0,0,1,30.29,63.42Z"/><path class="cls-2" d="M38.8,54.92a.57.57,0,0,1-.4-1l2.49-2.49a.56.56,0,0,1,.79.79l-2.49,2.49A.56.56,0,0,1,38.8,54.92Z"/><path class="cls-2" d="M37.38,37.71a.55.55,0,0,1-.4-.16L29.9,30.47a.57.57,0,0,1,0-.8.56.56,0,0,1,.79,0l7.08,7.08a.57.57,0,0,1,0,.8A.54.54,0,0,1,37.38,37.71Z"/><path class="cls-2" d="M41.28,41.62a.54.54,0,0,1-.39-.16L38.4,39a.57.57,0,0,1,0-.8.56.56,0,0,1,.79,0l2.49,2.49a.57.57,0,0,1,0,.8A.55.55,0,0,1,41.28,41.62Z"/><path class="cls-2" d="M56,37.71a.55.55,0,0,1-.4-.16.57.57,0,0,1,0-.8l7.08-7.08a.57.57,0,0,1,.8.8L56.4,37.55A.57.57,0,0,1,56,37.71Z"/><path class="cls-2" d="M52.09,41.62a.56.56,0,0,1-.4-1l2.49-2.49a.57.57,0,0,1,.8.8l-2.49,2.49A.57.57,0,0,1,52.09,41.62Z"/><path class="cls-2" d="M63.08,63.42a.58.58,0,0,1-.4-.17L55.6,56.17a.56.56,0,0,1,0-.79.57.57,0,0,1,.8,0l7.08,7.08a.56.56,0,0,1,0,.79A.58.58,0,0,1,63.08,63.42Z"/><path class="cls-2" d="M54.58,54.92a.56.56,0,0,1-.4-.17l-2.49-2.49a.56.56,0,0,1,0-.79.57.57,0,0,1,.8,0L55,54a.56.56,0,0,1,0,.79A.58.58,0,0,1,54.58,54.92Z"/><path class="cls-2" d="M46.69,62.55a.57.57,0,0,1-.57-.56V60.63a.58.58,0,0,1,.57-.57.57.57,0,0,1,.56.57V62A.56.56,0,0,1,46.69,62.55Z"/><path class="cls-2" d="M29.29,47a.59.59,0,0,1-.4-.17.58.58,0,0,1,0-.8.57.57,0,0,1,.79,0,.56.56,0,0,1,0,.8A.58.58,0,0,1,29.29,47Z"/><path class="cls-2" d="M32.52,47H31.16a.57.57,0,0,1-.56-.57.56.56,0,0,1,.56-.56h1.36a.56.56,0,0,1,.56.56A.57.57,0,0,1,32.52,47Z"/><path class="cls-2" d="M46.69,29.63a.54.54,0,0,1-.4-.17.59.59,0,0,1-.17-.4.6.6,0,0,1,.17-.4.6.6,0,0,1,.79,0,.56.56,0,0,1,.17.4.54.54,0,0,1-.17.4A.54.54,0,0,1,46.69,29.63Z"/><path class="cls-2" d="M46.69,32.86a.57.57,0,0,1-.57-.56V30.94a.57.57,0,0,1,.57-.56.56.56,0,0,1,.56.56V32.3A.56.56,0,0,1,46.69,32.86Z"/><path class="cls-2" d="M64.09,47a.59.59,0,0,1-.4-.17.56.56,0,0,1,0-.8.57.57,0,0,1,.79,0,.57.57,0,0,1-.39,1Z"/><path class="cls-2" d="M62.21,47H60.85a.57.57,0,0,1-.56-.57.56.56,0,0,1,.56-.56h1.36a.56.56,0,0,1,.56.56A.57.57,0,0,1,62.21,47Z"/><path class="cls-2" d="M46.69,325.83a.58.58,0,0,1-.57-.57c0-5.24-.6-7.89-2.16-9.45s-4.21-2.16-9.45-2.16a.56.56,0,1,1,0-1.12c5.24,0,7.9-.61,9.45-2.17s2.16-4.2,2.16-9.45a.57.57,0,0,1,.57-.56.56.56,0,0,1,.56.56c0,5.25.61,7.9,2.16,9.45s4.21,2.17,9.45,2.17a.56.56,0,1,1,0,1.12c-5.24,0-7.89.61-9.45,2.16s-2.16,4.21-2.16,9.45A.57.57,0,0,1,46.69,325.83ZM41,313.09a6.86,6.86,0,0,1,5.7,5.69,6.83,6.83,0,0,1,5.69-5.69,6.86,6.86,0,0,1-5.69-5.7A6.88,6.88,0,0,1,41,313.09Z"/><path class="cls-2" d="M46.69,296.25a.58.58,0,0,1-.4-.16.63.63,0,0,1-.17-.4.59.59,0,0,1,.17-.4.57.57,0,0,1,.79,0,.54.54,0,0,1,.17.4.58.58,0,0,1-.56.56Z"/><path class="cls-2" d="M37.38,304.34a.56.56,0,0,1-.4-.17l-7.08-7.08a.56.56,0,0,1,.79-.79l7.08,7.08a.57.57,0,0,1-.39,1Z"/><path class="cls-2" d="M41.28,308.25a.56.56,0,0,1-.39-.17l-2.49-2.49a.56.56,0,0,1,.79-.79l2.49,2.49a.57.57,0,0,1-.4,1Z"/><path class="cls-2" d="M30.29,330a.54.54,0,0,1-.39-.16.57.57,0,0,1,0-.8L37,322a.56.56,0,0,1,.79,0,.57.57,0,0,1,0,.8l-7.08,7.08A.55.55,0,0,1,30.29,330Z"/><path class="cls-2" d="M38.8,321.54a.55.55,0,0,1-.4-.16.57.57,0,0,1,0-.8l2.49-2.49a.56.56,0,0,1,.79,0,.57.57,0,0,1,0,.8l-2.49,2.49A.54.54,0,0,1,38.8,321.54Z"/><path class="cls-2" d="M63.08,330a.57.57,0,0,1-.4-.16L55.6,322.8a.57.57,0,1,1,.8-.8l7.08,7.08a.56.56,0,0,1-.4,1Z"/><path class="cls-2" d="M54.58,321.54a.55.55,0,0,1-.4-.16l-2.49-2.49a.57.57,0,0,1,.8-.8L55,320.58a.56.56,0,0,1-.4,1Z"/><path class="cls-2" d="M56,304.34a.57.57,0,0,1-.4-1l7.08-7.08a.57.57,0,0,1,.8,0,.56.56,0,0,1,0,.79l-7.08,7.08A.58.58,0,0,1,56,304.34Z"/><path class="cls-2" d="M52.09,308.25a.58.58,0,0,1-.4-.17.56.56,0,0,1,0-.79l2.49-2.49a.57.57,0,0,1,.8,0,.56.56,0,0,1,0,.79l-2.49,2.49A.58.58,0,0,1,52.09,308.25Z"/><path class="cls-2" d="M46.69,299.49a.58.58,0,0,1-.57-.57v-1.36a.57.57,0,0,1,.57-.56.56.56,0,0,1,.56.56v1.36A.57.57,0,0,1,46.69,299.49Z"/><path class="cls-2" d="M29.29,313.65a.58.58,0,0,1-.4-.16.55.55,0,0,1-.16-.4.54.54,0,0,1,.16-.4.59.59,0,0,1,.8,0,.58.58,0,0,1,.16.4.55.55,0,0,1-.56.56Z"/><path class="cls-2" d="M32.52,313.65H31.16a.56.56,0,1,1,0-1.12h1.36a.56.56,0,0,1,0,1.12Z"/><path class="cls-2" d="M46.69,331.05a.54.54,0,0,1-.4-.17.56.56,0,0,1-.17-.39.59.59,0,0,1,.17-.4.57.57,0,0,1,.79,0,.54.54,0,0,1,.17.4.52.52,0,0,1-.17.39A.54.54,0,0,1,46.69,331.05Z"/><path class="cls-2" d="M46.69,329.17a.57.57,0,0,1-.57-.56v-1.36a.57.57,0,0,1,.57-.56.56.56,0,0,1,.56.56v1.36A.56.56,0,0,1,46.69,329.17Z"/><path class="cls-2" d="M64.09,313.65a.58.58,0,0,1-.4-.16.56.56,0,0,1-.17-.4.54.54,0,0,1,.17-.4.57.57,0,0,1,.79,0,.54.54,0,0,1,.17.4.56.56,0,0,1-.17.4A.55.55,0,0,1,64.09,313.65Z"/><path class="cls-2" d="M62.21,313.65H60.85a.56.56,0,0,1,0-1.12h1.36a.56.56,0,0,1,0,1.12Z"/><path class="cls-2" d="M200.81,59.2a.56.56,0,0,1-.56-.56c0-5.25-.61-7.89-2.16-9.45S193.88,47,188.64,47a.58.58,0,0,1-.57-.57.57.57,0,0,1,.57-.56c5.24,0,7.89-.61,9.45-2.16s2.16-4.21,2.16-9.45a.57.57,0,0,1,.56-.57.58.58,0,0,1,.57.57c0,5.24.6,7.89,2.16,9.45s4.2,2.16,9.45,2.16a.56.56,0,0,1,.56.56A.57.57,0,0,1,213,47c-5.25,0-7.9.6-9.45,2.16s-2.16,4.2-2.16,9.45A.57.57,0,0,1,200.81,59.2Zm-5.69-12.74a6.86,6.86,0,0,1,5.69,5.7,6.88,6.88,0,0,1,5.7-5.7,6.86,6.86,0,0,1-5.7-5.69A6.83,6.83,0,0,1,195.12,46.46Z"/><path class="cls-2" d="M200.81,64.42a.55.55,0,0,1-.4-.16.58.58,0,0,1-.16-.4.57.57,0,0,1,.16-.39.6.6,0,0,1,.8,0,.63.63,0,0,1,.17.4.59.59,0,0,1-.17.4A.55.55,0,0,1,200.81,64.42Z"/><path class="cls-2" d="M217.2,63.42a.56.56,0,0,1-.39-.17l-7.08-7.08a.54.54,0,0,1,0-.79.56.56,0,0,1,.79,0l7.08,7.08a.57.57,0,0,1-.4,1Z"/><path class="cls-2" d="M208.7,54.92a.54.54,0,0,1-.39-.17l-2.49-2.49a.56.56,0,1,1,.79-.79L209.1,54a.57.57,0,0,1-.4,1Z"/><path class="cls-2" d="M210.12,37.71a.53.53,0,0,1-.39-.16.55.55,0,0,1,0-.8l7.08-7.08a.56.56,0,0,1,.79,0,.57.57,0,0,1,0,.8l-7.08,7.08A.55.55,0,0,1,210.12,37.71Z"/><path class="cls-2" d="M206.22,41.62a.55.55,0,0,1-.4-.16.57.57,0,0,1,0-.8l2.49-2.49a.56.56,0,0,1,.79,0,.57.57,0,0,1,0,.8l-2.49,2.49A.54.54,0,0,1,206.22,41.62Z"/><path class="cls-2" d="M191.5,37.71a.57.57,0,0,1-.4-.16L184,30.47a.57.57,0,0,1,.8-.8l7.08,7.08a.57.57,0,0,1,0,.8A.55.55,0,0,1,191.5,37.71Z"/><path class="cls-2" d="M195.41,41.62a.55.55,0,0,1-.4-.16L192.52,39a.57.57,0,0,1,.8-.8l2.49,2.49a.56.56,0,0,1-.4,1Z"/><path class="cls-2" d="M184.42,63.42a.58.58,0,0,1-.4-.17.56.56,0,0,1,0-.79l7.08-7.08a.57.57,0,0,1,.8,0,.56.56,0,0,1,0,.79l-7.08,7.08A.58.58,0,0,1,184.42,63.42Z"/><path class="cls-2" d="M192.92,54.92a.58.58,0,0,1-.4-.17.56.56,0,0,1,0-.79L195,51.47a.57.57,0,0,1,.8,0,.56.56,0,0,1,0,.79l-2.49,2.49A.56.56,0,0,1,192.92,54.92Z"/><path class="cls-2" d="M200.81,62.55a.56.56,0,0,1-.56-.56V60.63a.57.57,0,0,1,.56-.57.58.58,0,0,1,.57.57V62A.57.57,0,0,1,200.81,62.55Z"/><path class="cls-2" d="M218.21,47a.58.58,0,0,1-.39-.17.56.56,0,0,1,0-.8.57.57,0,0,1,.79,0,.58.58,0,0,1,0,.8A.59.59,0,0,1,218.21,47Z"/><path class="cls-2" d="M216.34,47H215a.57.57,0,0,1-.57-.57.56.56,0,0,1,.57-.56h1.36a.56.56,0,0,1,.56.56A.57.57,0,0,1,216.34,47Z"/><path class="cls-2" d="M200.81,29.63a.56.56,0,0,1-.4-.17.58.58,0,0,1-.16-.4.59.59,0,0,1,.16-.4.57.57,0,0,1,1,.4.59.59,0,0,1-.17.4A.56.56,0,0,1,200.81,29.63Z"/><path class="cls-2" d="M200.81,32.86a.56.56,0,0,1-.56-.56V30.94a.56.56,0,0,1,.56-.56.57.57,0,0,1,.57.56V32.3A.57.57,0,0,1,200.81,32.86Z"/><path class="cls-2" d="M183.41,47a.6.6,0,0,1-.4-.17.58.58,0,0,1,0-.8.59.59,0,0,1,.8,0,.57.57,0,0,1-.4,1Z"/><path class="cls-2" d="M186.65,47h-1.36a.57.57,0,0,1-.56-.57.56.56,0,0,1,.56-.56h1.36a.56.56,0,0,1,.56.56A.57.57,0,0,1,186.65,47Z"/><path class="cls-2" d="M200.81,325.83a.57.57,0,0,1-.56-.57c0-5.24-.61-7.89-2.16-9.45s-4.21-2.16-9.45-2.16a.56.56,0,1,1,0-1.12c5.24,0,7.89-.61,9.45-2.17s2.16-4.2,2.16-9.45a.56.56,0,0,1,.56-.56.57.57,0,0,1,.57.56c0,5.25.6,7.9,2.16,9.45s4.2,2.17,9.45,2.17a.56.56,0,0,1,0,1.12c-5.25,0-7.9.61-9.45,2.16s-2.16,4.21-2.16,9.45A.58.58,0,0,1,200.81,325.83Zm-5.69-12.74a6.83,6.83,0,0,1,5.69,5.69,6.86,6.86,0,0,1,5.7-5.69,6.88,6.88,0,0,1-5.7-5.7A6.86,6.86,0,0,1,195.12,313.09Z"/><path class="cls-2" d="M200.81,296.25a.55.55,0,0,1-.56-.56.58.58,0,0,1,.16-.4.57.57,0,0,1,1,.4.63.63,0,0,1-.17.4A.59.59,0,0,1,200.81,296.25Z"/><path class="cls-2" d="M210.12,304.34a.57.57,0,0,1-.39-1l7.08-7.08a.56.56,0,0,1,.79.79l-7.08,7.08A.56.56,0,0,1,210.12,304.34Z"/><path class="cls-2" d="M206.22,308.25a.57.57,0,0,1-.4-1l2.49-2.49a.56.56,0,0,1,.79.79l-2.49,2.49A.56.56,0,0,1,206.22,308.25Z"/><path class="cls-2" d="M217.2,330a.54.54,0,0,1-.39-.16l-7.08-7.08a.56.56,0,1,1,.79-.8l7.08,7.08a.57.57,0,0,1,0,.8A.55.55,0,0,1,217.2,330Z"/><path class="cls-2" d="M208.7,321.54a.53.53,0,0,1-.39-.16l-2.49-2.49a.57.57,0,0,1,0-.8.56.56,0,0,1,.79,0l2.49,2.49a.57.57,0,0,1,0,.8A.55.55,0,0,1,208.7,321.54Z"/><path class="cls-2" d="M184.42,330a.56.56,0,0,1-.4-1L191.1,322a.57.57,0,1,1,.8.8l-7.08,7.08A.57.57,0,0,1,184.42,330Z"/><path class="cls-2" d="M192.92,321.54a.56.56,0,0,1-.4-1l2.49-2.49a.57.57,0,0,1,.8.8l-2.49,2.49A.55.55,0,0,1,192.92,321.54Z"/><path class="cls-2" d="M191.5,304.34a.58.58,0,0,1-.4-.17L184,297.09a.56.56,0,0,1,0-.79.57.57,0,0,1,.8,0l7.08,7.08a.57.57,0,0,1-.4,1Z"/><path class="cls-2" d="M195.41,308.25a.56.56,0,0,1-.4-.17l-2.49-2.49a.56.56,0,0,1,0-.79.57.57,0,0,1,.8,0l2.49,2.49a.56.56,0,0,1,0,.79A.58.58,0,0,1,195.41,308.25Z"/><path class="cls-2" d="M200.81,299.49a.57.57,0,0,1-.56-.57v-1.36a.56.56,0,0,1,.56-.56.57.57,0,0,1,.57.56v1.36A.58.58,0,0,1,200.81,299.49Z"/><path class="cls-2" d="M218.21,313.65a.57.57,0,0,1-.39-.16.56.56,0,0,1-.17-.4.54.54,0,0,1,.17-.4.57.57,0,0,1,.79,0,.54.54,0,0,1,.16.4.55.55,0,0,1-.16.4A.58.58,0,0,1,218.21,313.65Z"/><path class="cls-2" d="M216.34,313.65H215a.56.56,0,1,1,0-1.12h1.36a.56.56,0,0,1,0,1.12Z"/><path class="cls-2" d="M200.81,331.05a.56.56,0,0,1-.4-.17.55.55,0,0,1-.16-.39.58.58,0,0,1,.16-.4.57.57,0,0,1,1,.4.56.56,0,0,1-.17.39A.54.54,0,0,1,200.81,331.05Z"/><path class="cls-2" d="M200.81,329.17a.56.56,0,0,1-.56-.56v-1.36a.56.56,0,0,1,.56-.56.57.57,0,0,1,.57.56v1.36A.57.57,0,0,1,200.81,329.17Z"/><path class="cls-2" d="M183.41,313.65a.55.55,0,0,1-.56-.56.58.58,0,0,1,.16-.4.57.57,0,0,1,1,.4.6.6,0,0,1-.17.4A.59.59,0,0,1,183.41,313.65Z"/><path class="cls-2" d="M186.65,313.65h-1.36a.56.56,0,0,1,0-1.12h1.36a.56.56,0,0,1,0,1.12Z"/><path class="cls-2" d="M192.7,111.61a.54.54,0,0,1-.39-.17,97,97,0,0,0-137.12,0,.56.56,0,0,1-.79-.79,98,98,0,0,1,138.7,0,.57.57,0,0,1-.4,1Z"/><path class="cls-2" d="M123.75,278.08A97.72,97.72,0,0,1,54.4,249.35a.56.56,0,1,1,.79-.79,97,97,0,0,0,137.12,0,.56.56,0,0,1,.79.79,97.72,97.72,0,0,1-69.35,28.73Z"/><path class="cls-2" d="M123.75,225.81a46.16,46.16,0,0,1-5.27-.3,47.28,47.28,0,0,1-6.59-1.25,48,48,0,0,1-5.35-1.79,48.46,48.46,0,0,1-5.7-2.79,46.4,46.4,0,0,1-9.48-7.29,46.79,46.79,0,0,1-3.74-4.22,47.51,47.51,0,0,1-3.55-5.26,46.32,46.32,0,0,1-2.38-4.72,47.4,47.4,0,0,1-2.2-6.33,45.1,45.1,0,0,1-1.11-5.53,46.06,46.06,0,0,1-.14-11.6,47.28,47.28,0,0,1,1.25-6.59,48,48,0,0,1,1.79-5.35,47,47,0,0,1,2.79-5.7,46.4,46.4,0,0,1,7.29-9.48,46.79,46.79,0,0,1,4.22-3.74,47.51,47.51,0,0,1,5.26-3.55,44.28,44.28,0,0,1,4.72-2.37,46.08,46.08,0,0,1,6.33-2.21,45.1,45.1,0,0,1,5.53-1.11,46.42,46.42,0,0,1,11.6-.14,47.28,47.28,0,0,1,6.59,1.25,48,48,0,0,1,5.35,1.79,47,47,0,0,1,5.7,2.79,46.4,46.4,0,0,1,9.48,7.29,48.2,48.2,0,0,1,3.74,4.22,47.51,47.51,0,0,1,3.55,5.26,44.28,44.28,0,0,1,2.37,4.72,46.08,46.08,0,0,1,2.21,6.33,45.1,45.1,0,0,1,1.11,5.53,46.06,46.06,0,0,1,.14,11.6,47.28,47.28,0,0,1-1.25,6.59,48,48,0,0,1-1.79,5.35,47,47,0,0,1-2.79,5.7,46.4,46.4,0,0,1-7.29,9.48,48.2,48.2,0,0,1-4.22,3.74,47.51,47.51,0,0,1-5.26,3.55,44.28,44.28,0,0,1-4.72,2.37,46.08,46.08,0,0,1-6.33,2.21,45.1,45.1,0,0,1-5.53,1.11A46,46,0,0,1,123.75,225.81Zm0-90.49a44.43,44.43,0,0,0-11.57,1.51A43.32,43.32,0,0,0,106,139a45.29,45.29,0,0,0-9.74,5.78,45.82,45.82,0,0,0-4.12,3.64,46.79,46.79,0,0,0-4.27,4.95,43.8,43.8,0,0,0-2.83,4.31,43.18,43.18,0,0,0-2.72,5.55,43.81,43.81,0,0,0-1.75,5.22,45.14,45.14,0,0,0-1.22,6.42,44.2,44.2,0,0,0-.29,5.15,44.43,44.43,0,0,0,1.51,11.57,43.32,43.32,0,0,0,2.15,6.17,44.94,44.94,0,0,0,5.78,9.73,44.6,44.6,0,0,0,3.64,4.13,46.79,46.79,0,0,0,4.95,4.27,44.54,44.54,0,0,0,15.08,7.3,45.14,45.14,0,0,0,6.42,1.22,45.61,45.61,0,0,0,11.32-.13,44.89,44.89,0,0,0,5.4-1.09,44.72,44.72,0,0,0,15.9-7.93,44.48,44.48,0,0,0,4.12-3.64,45.75,45.75,0,0,0,4.28-4.95,43.8,43.8,0,0,0,2.83-4.31,43.18,43.18,0,0,0,2.72-5.55,44.42,44.42,0,0,0,1.75-5.22,45.14,45.14,0,0,0,1.22-6.42,46.51,46.51,0,0,0,.29-5.15,44.43,44.43,0,0,0-1.51-11.57,43.32,43.32,0,0,0-2.15-6.17,44.94,44.94,0,0,0-5.78-9.73,44.54,44.54,0,0,0-3.65-4.13,45.71,45.71,0,0,0-4.94-4.27,43.8,43.8,0,0,0-4.31-2.83,42.67,42.67,0,0,0-5.56-2.72,43.66,43.66,0,0,0-5.21-1.75,45.14,45.14,0,0,0-6.42-1.22A46.51,46.51,0,0,0,123.75,135.32Z"/><path class="cls-2" d="M111.57,136.61c-.24-.35-5.89-8.74-2.13-22.74,3.61-13.44-1.79-20.41-1.85-20.48a.56.56,0,0,1,.81-.78,34.31,34.31,0,0,1,5.51,6.31c2.46,3.6,5.29,9.27,4.8,15.79-1.07,14,5.33,19.56,5.4,19.61l-.72.87c-.28-.24-6.92-5.92-5.81-20.57.62-8.07-4.12-14.89-7.27-18.47,1.33,3.44,2.52,9.44.22,18-3.62,13.47,1.91,21.72,2,21.81Z"/><path class="cls-2" d="M100.75,141.24c-.15-.14-3.7-3.4-4.22-10.88-1.06-15.32-7-19.28-7-19.32a.56.56,0,0,1,.45-1,21.22,21.22,0,0,1,6.76,3.62,24.77,24.77,0,0,1,9,15.09c1.37,6.9,6.13,7,6.34,7v1.13h0c-.09,0-5.89-.08-7.45-7.9A23.66,23.66,0,0,0,96,114.56a22,22,0,0,0-3.92-2.45c2,2.54,4.82,7.89,5.53,18.17.49,7,3.82,10.09,3.85,10.12Z"/><path class="cls-2" d="M117.5,135.75a.57.57,0,0,1-.43-.2,17.7,17.7,0,0,1-3.64-11.82.57.57,0,0,1,1.13,0,16.8,16.8,0,0,0,3.36,11,.58.58,0,0,1,0,.8A.59.59,0,0,1,117.5,135.75Z"/><path class="cls-2" d="M105.78,139a.56.56,0,0,1-.27-.08c-.14-.08-3.56-2-4.28-7.58a.56.56,0,1,1,1.11-.15c.65,5,3.69,6.73,3.72,6.75a.57.57,0,0,1,.22.77A.59.59,0,0,1,105.78,139Z"/><path class="cls-2" d="M91.52,148.52c-.39-.19-9.48-4.63-13.23-18.64-3.6-13.44-11.75-16.78-11.84-16.81a.57.57,0,0,1,.31-1.08,34.52,34.52,0,0,1,7.92,2.71c3.94,1.89,9.23,5.38,12.06,11.28,6.11,12.72,14.4,14.27,14.48,14.28l-.19,1.11c-.36-.06-9-1.66-15.31-14.9-3.49-7.29-11-10.83-15.52-12.36,2.86,2.31,6.88,6.92,9.18,15.48C83,143.07,91.91,147.46,92,147.5Z"/><path class="cls-2" d="M84.44,157.92c-.19,0-4.89-1.08-9.08-7.3-8.63-12.81-15.7-13.2-15.77-13.21a.56.56,0,0,1-.53-.49.55.55,0,0,1,.41-.61,20.75,20.75,0,0,1,7.67-.25,24.74,24.74,0,0,1,15.34,8.56c4.64,5.29,8.82,3,9,2.9l.56,1c-.05,0-5.13,2.89-10.4-3.12A23.67,23.67,0,0,0,67,137.18a22,22,0,0,0-4.61-.16c3,1.2,8.11,4.42,13.87,13,3.91,5.81,8.34,6.82,8.39,6.83Z"/><path class="cls-2" d="M95.93,144.88a.57.57,0,0,1-.18,0,17.65,17.65,0,0,1-9.07-8.42.56.56,0,1,1,1-.52,17,17,0,0,0,8.43,7.88.55.55,0,0,1,.35.71A.57.57,0,0,1,95.93,144.88Z"/><path class="cls-2" d="M87.42,153.58c-.34,0-4.18-.1-7.49-4.43a.57.57,0,0,1,.1-.79.56.56,0,0,1,.79.1c3,4,6.46,4,6.6,4a.57.57,0,0,1,0,1.13Z"/><path class="cls-2" d="M79.39,168.87c-2.5,0-11.22-.69-20.07-9.54-9.87-9.88-18.57-8.66-18.65-8.65a.55.55,0,0,1-.63-.41.56.56,0,0,1,.35-.67A33.71,33.71,0,0,1,48.61,148c4.35-.34,10.68,0,16.07,3.73,11.61,7.94,19.61,5.16,19.68,5.13l.4,1.05c-.35.13-8.58,3-20.71-5.25-6.67-4.56-15-3.87-19.63-2.94,3.65.57,9.43,2.55,15.7,8.82,9.86,9.87,19.77,9.2,19.87,9.2l.09,1.12C80,168.85,79.78,168.87,79.39,168.87Z"/><path class="cls-2" d="M75.68,180.91a19.36,19.36,0,0,1-8.53-2.16C53.35,172,47,175.17,46.89,175.2a.55.55,0,0,1-.71-.17.57.57,0,0,1,0-.73,21.13,21.13,0,0,1,6.52-4.05A24.79,24.79,0,0,1,70.32,170c6.7,2.27,9.2-1.95,9.23-2l1,.56A7.5,7.5,0,0,1,74,171.79a12.45,12.45,0,0,1-4.07-.73,23.15,23.15,0,0,0-20.8,2.38c3.2-.45,9.24-.22,18.48,4.3,6.3,3.08,10.65,1.74,10.69,1.72l.35,1.07A10.1,10.1,0,0,1,75.68,180.91Z"/><path class="cls-2" d="M79.71,163.73a18.37,18.37,0,0,1-9.85-2.93.57.57,0,0,1-.17-.78.55.55,0,0,1,.77-.17,16.74,16.74,0,0,0,11.24,2.6.56.56,0,1,1,.21,1.11A13,13,0,0,1,79.71,163.73Z"/><path class="cls-2" d="M75.07,176.19a12.19,12.19,0,0,1-4.7-1,.56.56,0,0,1,.43-1c4.61,1.92,7.59.23,7.71.16a.56.56,0,0,1,.77.19.56.56,0,0,1-.19.77A8.17,8.17,0,0,1,75.07,176.19Z"/><path class="cls-2" d="M36.79,196.28a.6.6,0,0,1-.41-.17.57.57,0,0,1,0-.76,33.9,33.9,0,0,1,6.31-5.51c3.6-2.46,9.27-5.29,15.79-4.8,14,1.07,19.56-5.33,19.61-5.4l.87.72c-.22.26-5.07,5.93-17.32,5.93-1,0-2.11,0-3.25-.12-8.07-.62-14.89,4.12-18.47,7.26,3.44-1.32,9.44-2.51,18-.21,13.5,3.63,21.72-1.91,21.8-2l.65.93c-.36.24-8.74,5.89-22.75,2.13-13.48-3.62-20.4,1.79-20.47,1.84A.53.53,0,0,1,36.79,196.28Z"/><path class="cls-2" d="M54.31,214.53a.59.59,0,0,1-.22-.05.56.56,0,0,1-.32-.66,21.22,21.22,0,0,1,3.62-6.76,24.77,24.77,0,0,1,15.09-9c6.94-1.38,7-6.28,7-6.33H80.6c0,.06-.06,5.88-7.9,7.44a23.16,23.16,0,0,0-16.83,12.47c2.55-2,7.89-4.81,18.16-5.52,7-.49,10.08-3.81,10.11-3.85L85,203c-.14.15-3.39,3.7-10.87,4.22-15.32,1.06-19.28,7-19.32,7.05A.56.56,0,0,1,54.31,214.53Z"/><path class="cls-2" d="M68.33,190.34l-.85,0a.57.57,0,0,1-.54-.59.58.58,0,0,1,.59-.54,16.8,16.8,0,0,0,11-3.36.56.56,0,1,1,.74.85A17.57,17.57,0,0,1,68.33,190.34Z"/><path class="cls-2" d="M75,202.53a.56.56,0,0,1-.07-1.12c5-.65,6.73-3.69,6.75-3.72a.56.56,0,0,1,.76-.22.57.57,0,0,1,.22.77c-.08.14-2,3.56-7.58,4.28Z"/><path class="cls-2" d="M56.3,237.65a.44.44,0,0,1-.16,0,.56.56,0,0,1-.4-.64,34.52,34.52,0,0,1,2.71-7.92c1.89-3.94,5.38-9.23,11.28-12.06C82.41,210.93,84,202.61,84,202.53l1.11.19c-.06.36-1.65,8.95-14.9,15.31-7.29,3.5-10.83,11-12.36,15.53,2.32-2.87,6.92-6.89,15.49-9.19,13.51-3.61,17.87-12.53,17.91-12.62l1,.48c-.18.39-4.62,9.48-18.63,13.23-13.44,3.6-16.78,11.75-16.81,11.84A.56.56,0,0,1,56.3,237.65Z"/><path class="cls-2" d="M80.6,244.7a.56.56,0,0,1-.54-.42,20.75,20.75,0,0,1-.25-7.67,24.72,24.72,0,0,1,8.56-15.34c5.32-4.67,2.92-9,2.9-9l1-.57s2.89,5.13-3.12,10.4a23.62,23.62,0,0,0-8.19,14.61,22,22,0,0,0-.16,4.61c1.2-3,4.42-8.11,13-13.87,5.85-3.94,6.82-8.34,6.83-8.38l1.1.22c0,.2-1.08,4.9-7.3,9.09-12.81,8.63-13.2,15.69-13.21,15.76a.56.56,0,0,1-.49.54Z"/><path class="cls-2" d="M79.92,217.13a.56.56,0,0,1-.26-1.06,16.72,16.72,0,0,0,7.87-8.43.56.56,0,0,1,1.07.36,17.65,17.65,0,0,1-8.42,9.07A.65.65,0,0,1,79.92,217.13Z"/><path class="cls-2" d="M92.55,223.94a.56.56,0,0,1-.34-1c4-3,4-6.46,4-6.6a.57.57,0,0,1,.56-.57h0a.57.57,0,0,1,.57.55c0,.17,0,4.12-4.44,7.51A.54.54,0,0,1,92.55,223.94Z"/><path class="cls-2" d="M93.88,263.73a.56.56,0,0,1-.53-.37,34.13,34.13,0,0,1-1.62-8.22c-.33-4.35,0-10.68,3.74-16.08,8-11.65,5.15-19.6,5.12-19.67l1.06-.4c.13.35,3,8.58-5.25,20.71-4.56,6.67-3.87,15-2.94,19.63.57-3.65,2.55-9.43,8.82-15.7,9.89-9.88,9.2-19.77,9.2-19.87l1.12-.09c0,.42.73,10.51-9.52,20.76-9.88,9.87-8.66,18.57-8.65,18.65a.55.55,0,0,1-.41.63A.36.36,0,0,1,93.88,263.73Z"/><path class="cls-2" d="M118.45,257.68a.56.56,0,0,1-.4-.17,21,21,0,0,1-4-6.51,24.79,24.79,0,0,1-.25-17.57c2.27-6.71-2-9.2-2-9.23l.55-1c.06,0,5.07,3,2.5,10.56a23.15,23.15,0,0,0,2.38,20.8c-.45-3.2-.22-9.24,4.3-18.48,3.08-6.3,1.74-10.65,1.72-10.69l1.07-.35c.07.19,1.51,4.79-1.78,11.53-6.74,13.8-3.59,20.19-3.55,20.25a.56.56,0,0,1-.17.72A.57.57,0,0,1,118.45,257.68Z"/><path class="cls-2" d="M104.07,234.15a.58.58,0,0,1-.3-.09.55.55,0,0,1-.17-.77,16.74,16.74,0,0,0,2.6-11.24.56.56,0,0,1,1.11-.21,17.73,17.73,0,0,1-2.76,12A.56.56,0,0,1,104.07,234.15Z"/><path class="cls-2" d="M118.42,233.72a.57.57,0,0,1-.22,0,.56.56,0,0,1-.3-.73c1.93-4.65.18-7.68.16-7.71a.56.56,0,1,1,1-.58c.09.14,2.07,3.56-.08,8.72A.57.57,0,0,1,118.42,233.72Z"/><path class="cls-2" d="M139.46,267.52a.57.57,0,0,1-.36-.13,34.31,34.31,0,0,1-5.51-6.31c-2.46-3.6-5.29-9.27-4.8-15.79,1.07-14-5.34-19.56-5.4-19.61l.72-.87c.28.24,6.92,5.92,5.8,20.57-.61,8.06,4.13,14.88,7.27,18.46-1.32-3.44-2.5-9.44-.21-18,3.63-13.51-1.91-21.72-2-21.8l.92-.65c.25.35,5.9,8.74,2.14,22.74-3.61,13.44,1.79,20.41,1.84,20.48a.57.57,0,0,1,0,.76A.59.59,0,0,1,139.46,267.52Z"/><path class="cls-2" d="M157.72,250l-.15,0a21.22,21.22,0,0,1-6.76-3.62,24.77,24.77,0,0,1-9-15.09c-1.37-6.9-6.14-7-6.34-7v-1.13h0c.09,0,5.89.08,7.44,7.9a23.2,23.2,0,0,0,12.46,16.83c-2-2.55-4.8-7.89-5.51-18.16-.49-7-3.82-10.08-3.85-10.11l.75-.84c.15.14,3.7,3.39,4.22,10.87C152,245.05,158,248.92,158,249a.57.57,0,0,1,.21.7A.55.55,0,0,1,157.72,250Z"/><path class="cls-2" d="M133.5,236.81h0a.57.57,0,0,1-.54-.59,16.81,16.81,0,0,0-3.36-11,.56.56,0,1,1,.85-.74,17.7,17.7,0,0,1,3.64,11.82A.58.58,0,0,1,133.5,236.81Z"/><path class="cls-2" d="M145.71,229.27a.56.56,0,0,1-.55-.49c-.65-5-3.69-6.73-3.72-6.75a.56.56,0,1,1,.55-1c.14.08,3.56,2,4.28,7.58a.56.56,0,0,1-.48.63Z"/><path class="cls-2" d="M180.84,248h-.1a34.52,34.52,0,0,1-7.92-2.71c-3.94-1.89-9.23-5.38-12.06-11.28-6.08-12.68-14.4-14.26-14.48-14.28l.19-1.1c.36.06,8.95,1.65,15.31,14.9,3.49,7.28,11,10.82,15.52,12.35-2.86-2.31-6.89-6.92-9.18-15.48-3.6-13.48-12.53-17.87-12.62-17.91l.48-1c.39.19,9.48,4.63,13.23,18.64C172.82,243.61,181,246.9,181,246.93a.56.56,0,0,1-.2,1.09Z"/><path class="cls-2" d="M183.61,224.16a24.39,24.39,0,0,1-3.25-.22A24.72,24.72,0,0,1,165,215.38c-4.67-5.33-9-2.93-9-2.9l-.57-1s5.13-2.89,10.4,3.12A23.22,23.22,0,0,0,185.07,223c-3-1.22-8.11-4.43-13.86-13-3.92-5.81-8.34-6.82-8.39-6.83l.23-1.1c.2,0,4.9,1.08,9.09,7.3,8.58,12.74,15.7,13.2,15.77,13.21a.56.56,0,0,1,.12,1.1A18.15,18.15,0,0,1,183.61,224.16Z"/><path class="cls-2" d="M160.32,224.4a.56.56,0,0,1-.5-.31,17,17,0,0,0-8.43-7.88.55.55,0,0,1-.35-.71.56.56,0,0,1,.71-.35,17.65,17.65,0,0,1,9.07,8.42.56.56,0,0,1-.24.76A.48.48,0,0,1,160.32,224.4Z"/><path class="cls-2" d="M167.12,211.76a.57.57,0,0,1-.44-.22c-3-3.93-6.39-4-6.6-4h0a.56.56,0,0,1-.56-.56.57.57,0,0,1,.55-.57c.17,0,4.12,0,7.51,4.43a.57.57,0,0,1-.1.79A.59.59,0,0,1,167.12,211.76Z"/><path class="cls-2" d="M196.42,212.11a24,24,0,0,1-13.61-3.83c-11.61-7.94-19.6-5.16-19.68-5.13l-.39-1.05c.35-.13,8.58-3,20.71,5.25,6.67,4.56,15,3.87,19.63,2.94-3.65-.57-9.43-2.55-15.7-8.82-9.86-9.87-19.77-9.2-19.87-9.2l-.09-1.12c.42,0,10.51-.74,20.76,9.52,9.83,9.85,18.57,8.66,18.65,8.65a.55.55,0,0,1,.63.41.56.56,0,0,1-.35.67,33.85,33.85,0,0,1-8.22,1.61C198.12,212.07,197.29,212.11,196.42,212.11Z"/><path class="cls-2" d="M168,192l-1-.56c0-.05,3-5.06,10.56-2.49a23.66,23.66,0,0,0,16.74-.22,22.23,22.23,0,0,0,4.08-2.16c-3.2.45-9.24.23-18.5-4.3-6.3-3.08-10.65-1.74-10.69-1.72l-.35-1.07c.19-.07,4.79-1.51,11.53,1.78,13.8,6.74,20.19,3.58,20.25,3.55a.56.56,0,0,1,.66.9,20.84,20.84,0,0,1-6.51,4.05,24.79,24.79,0,0,1-17.57.25C170.52,187.74,168.05,191.82,168,192Z"/><path class="cls-2" d="M177.34,200.24a.59.59,0,0,1-.31-.09,16.84,16.84,0,0,0-11.23-2.6.56.56,0,0,1-.21-1.11,17.73,17.73,0,0,1,12,2.76.56.56,0,0,1-.3,1Z"/><path class="cls-2" d="M176.91,185.89a.52.52,0,0,1-.21,0c-4.65-1.93-7.68-.18-7.71-.16a.56.56,0,0,1-.58-1c.14-.09,3.56-2.07,8.72.08a.56.56,0,0,1-.22,1.08Z"/><path class="cls-2" d="M169.43,180.36l-.87-.72c.24-.28,5.92-6.92,20.57-5.8,8.07.61,14.89-4.13,18.47-7.27-3.44,1.32-9.44,2.51-18,.21-13.51-3.63-21.72,1.91-21.81,2l-.64-.93c.35-.24,8.74-5.89,22.74-2.13,13.44,3.61,20.41-1.79,20.48-1.84a.54.54,0,0,1,.75,0,.56.56,0,0,1,0,.76,34.31,34.31,0,0,1-6.31,5.51c-3.6,2.46-9.27,5.29-15.79,4.8C175,173.89,169.48,180.29,169.43,180.36Z"/><path class="cls-2" d="M166.9,168.29c0-.06.06-5.88,7.9-7.44a23.71,23.71,0,0,0,14.39-8.56,22.3,22.3,0,0,0,2.45-3.91c-2.54,2-7.89,4.81-18.17,5.52-7,.49-10.08,3.82-10.11,3.85l-.84-.75c.14-.15,3.39-3.7,10.87-4.22,15.32-1.06,19.28-7,19.32-7.05a.56.56,0,0,1,1,.45,21.22,21.22,0,0,1-3.62,6.76A24.77,24.77,0,0,1,175,162c-6.9,1.37-7,6.13-7,6.34Z"/><path class="cls-2" d="M168.57,174.31a.59.59,0,0,1-.43-.19.57.57,0,0,1,.06-.8A17.7,17.7,0,0,1,180,169.68a.57.57,0,0,1-.05,1.13,16.74,16.74,0,0,0-11,3.36A.59.59,0,0,1,168.57,174.31Z"/><path class="cls-2" d="M165.29,162.6a.57.57,0,0,1-.28-.08.56.56,0,0,1-.21-.76c.08-.14,2-3.56,7.58-4.28a.56.56,0,0,1,.63.48.56.56,0,0,1-.48.63c-5,.65-6.68,3.59-6.75,3.72A.59.59,0,0,1,165.29,162.6Z"/><path class="cls-2" d="M163.5,157.47l-1.11-.19c.06-.36,1.65-8.95,14.89-15.31,7.29-3.49,10.83-11,12.36-15.52-2.31,2.86-6.92,6.89-15.48,9.18-13.48,3.6-17.87,12.53-17.91,12.62l-1-.48c.19-.39,4.63-9.48,18.64-13.23,13.44-3.6,16.78-11.75,16.81-11.84a.56.56,0,0,1,.68-.33.57.57,0,0,1,.4.64,34.28,34.28,0,0,1-2.72,7.92c-1.88,3.94-5.37,9.23-11.27,12.06C165.09,149.07,163.51,157.39,163.5,157.47Z"/><path class="cls-2" d="M155.26,148.29s-2.89-5.13,3.12-10.4a23.72,23.72,0,0,0,8.19-14.61,22,22,0,0,0,.16-4.61c-1.21,3-4.42,8.11-13,13.87-5.85,3.94-6.82,8.34-6.83,8.38l-1.1-.23c0-.19,1.08-4.89,7.3-9.08,12.81-8.63,13.2-15.69,13.2-15.76a.57.57,0,0,1,.5-.54.56.56,0,0,1,.61.41,20.75,20.75,0,0,1,.25,7.67,24.72,24.72,0,0,1-8.57,15.34c-5.32,4.67-2.92,9-2.89,9Z"/><path class="cls-2" d="M159.43,152.74l-.18,0a.56.56,0,0,1-.35-.71,17.65,17.65,0,0,1,8.42-9.07.56.56,0,1,1,.52,1,16.9,16.9,0,0,0-7.88,8.43A.56.56,0,0,1,159.43,152.74Z"/><path class="cls-2" d="M150.74,144.24a.57.57,0,0,1-.57-.55c0-.17,0-4.12,4.43-7.51a.56.56,0,1,1,.69.89c-4,3.06-4,6.57-4,6.6a.57.57,0,0,1-.56.57Z"/><path class="cls-2" d="M145.85,141c-.13-.35-3-8.58,5.25-20.71,4.56-6.67,3.87-15,2.94-19.63-.58,3.65-2.55,9.43-8.82,15.7-9.9,9.88-9.2,19.77-9.2,19.87l-1.12.09c0-.42-.74-10.51,9.52-20.76,9.88-9.87,8.66-18.57,8.64-18.65a.56.56,0,0,1,.42-.63.56.56,0,0,1,.67.35,33.71,33.71,0,0,1,1.61,8.22c.34,4.35,0,10.68-3.73,16.08-8,11.65-5.16,19.59-5.13,19.67Z"/><path class="cls-2" d="M135.18,136.77c-.05,0-5.06-3-2.49-10.56a23.16,23.16,0,0,0-2.38-20.8c.45,3.2.22,9.24-4.3,18.48-3.08,6.3-1.74,10.65-1.73,10.69l-1.06.35c-.07-.19-1.52-4.79,1.78-11.53,6.74-13.8,3.58-20.19,3.55-20.26a.55.55,0,0,1,.17-.71.57.57,0,0,1,.73,0A21.29,21.29,0,0,1,133.5,109a24.79,24.79,0,0,1,.25,17.57c-2.27,6.71,1.95,9.2,2,9.23Z"/><path class="cls-2" d="M140.75,138.62a.58.58,0,0,1-.56-.46,17.73,17.73,0,0,1,2.76-12,.56.56,0,0,1,.78-.17.55.55,0,0,1,.17.77A16.87,16.87,0,0,0,141.3,138a.57.57,0,0,1-.45.66Z"/><path class="cls-2" d="M129,135.61a.54.54,0,0,1-.48-.27c-.09-.14-2.07-3.56.08-8.72a.57.57,0,0,1,.74-.3.56.56,0,0,1,.3.73c-1.94,4.65-.18,7.68-.16,7.71a.56.56,0,0,1-.19.77A.51.51,0,0,1,129,135.61Z"/><path class="cls-2" d="M106.27,81.44a.56.56,0,0,1-.55-.46l-.88-5a.57.57,0,0,1,.46-.65.56.56,0,0,1,.65.46l.88,5a.56.56,0,0,1-.46.65Z"/><path class="cls-2" d="M102,82.3a.55.55,0,0,1-.54-.44l-.57-2.54a.56.56,0,1,1,1.1-.24l.56,2.53a.57.57,0,0,1-.42.68Z"/><path class="cls-2" d="M97.7,83.34a.54.54,0,0,1-.54-.42l-1.31-4.86a.56.56,0,0,1,1.09-.29l1.3,4.86a.56.56,0,0,1-.4.69A.32.32,0,0,1,97.7,83.34Z"/><path class="cls-2" d="M93.48,84.57a.55.55,0,0,1-.53-.39l-.76-2.41a.56.56,0,0,1,.37-.7.55.55,0,0,1,.7.37l.76,2.4a.55.55,0,0,1-.37.7A.47.47,0,0,1,93.48,84.57Z"/><path class="cls-2" d="M89.33,86a.56.56,0,0,1-.53-.37l-1.73-4.73a.57.57,0,0,1,.34-.72.56.56,0,0,1,.72.33l1.72,4.74a.56.56,0,0,1-.33.72Z"/><path class="cls-2" d="M85.23,87.57a.57.57,0,0,1-.52-.34l-1-2.33a.56.56,0,1,1,1-.43l1,2.33a.55.55,0,0,1-.3.73A.57.57,0,0,1,85.23,87.57Z"/><path class="cls-2" d="M81.21,89.34A.57.57,0,0,1,80.7,89l-2.13-4.57a.56.56,0,0,1,.28-.75.56.56,0,0,1,.74.27l2.13,4.57a.57.57,0,0,1-.27.75A.52.52,0,0,1,81.21,89.34Z"/><path class="cls-2" d="M77.27,91.29a.56.56,0,0,1-.49-.31L75.6,88.73a.57.57,0,0,1,.24-.76.56.56,0,0,1,.76.24l1.17,2.25a.55.55,0,0,1-.24.76A.59.59,0,0,1,77.27,91.29Z"/><path class="cls-2" d="M73.42,93.4a.55.55,0,0,1-.48-.28l-2.52-4.37a.56.56,0,0,1,.2-.77.57.57,0,0,1,.77.21l2.52,4.36a.56.56,0,0,1-.2.77A.6.6,0,0,1,73.42,93.4Z"/><path class="cls-2" d="M69.67,95.67a.55.55,0,0,1-.47-.26l-1.45-2.27a.57.57,0,0,1,.17-.78.55.55,0,0,1,.77.17l1.45,2.28a.57.57,0,0,1-.17.78A.54.54,0,0,1,69.67,95.67Z"/><path class="cls-2" d="M66,98.12a.57.57,0,0,1-.46-.24l-2.89-4.13a.56.56,0,0,1,.14-.79.57.57,0,0,1,.78.14l2.89,4.13a.55.55,0,0,1-.14.78A.56.56,0,0,1,66,98.12Z"/><path class="cls-2" d="M62.48,100.71a.55.55,0,0,1-.45-.22l-1.53-2a.56.56,0,1,1,.89-.68l1.53,2a.56.56,0,0,1-.1.79A.6.6,0,0,1,62.48,100.71Z"/><path class="cls-2" d="M59.05,103.46a.57.57,0,0,1-.43-.2L55.38,99.4a.56.56,0,0,1,.07-.79.57.57,0,0,1,.8.07l3.23,3.86a.56.56,0,0,1-.07.79A.53.53,0,0,1,59.05,103.46Z"/><path class="cls-2" d="M55.75,106.36a.56.56,0,0,1-.41-.19l-1.71-1.85a.57.57,0,0,1,0-.8.56.56,0,0,1,.79,0l1.71,1.85a.57.57,0,0,1,0,.8A.55.55,0,0,1,55.75,106.36Z"/><path class="cls-2" d="M141.23,81.44h-.1a.56.56,0,0,1-.46-.65l.88-5a.56.56,0,0,1,.65-.46.57.57,0,0,1,.46.65l-.88,5A.56.56,0,0,1,141.23,81.44Z"/><path class="cls-2" d="M145.53,82.3h-.12a.57.57,0,0,1-.42-.68l.56-2.53a.56.56,0,0,1,.67-.43.57.57,0,0,1,.43.67l-.57,2.54A.56.56,0,0,1,145.53,82.3Z"/><path class="cls-2" d="M149.8,83.34a.39.39,0,0,1-.15,0,.56.56,0,0,1-.39-.69l1.3-4.86a.56.56,0,1,1,1.09.29l-1.31,4.86A.54.54,0,0,1,149.8,83.34Z"/><path class="cls-2" d="M154,84.57a.47.47,0,0,1-.17,0,.55.55,0,0,1-.37-.7l.76-2.4a.56.56,0,1,1,1.07.33l-.76,2.41A.55.55,0,0,1,154,84.57Z"/><path class="cls-2" d="M158.17,86a.63.63,0,0,1-.19,0,.56.56,0,0,1-.33-.72l1.72-4.74a.56.56,0,0,1,.72-.33.57.57,0,0,1,.34.72l-1.73,4.73A.56.56,0,0,1,158.17,86Z"/><path class="cls-2" d="M162.27,87.57a.54.54,0,0,1-.22,0,.55.55,0,0,1-.3-.73l1-2.33a.56.56,0,1,1,1,.43l-1,2.33A.57.57,0,0,1,162.27,87.57Z"/><path class="cls-2" d="M166.29,89.34a.49.49,0,0,1-.24,0,.57.57,0,0,1-.27-.75L167.91,84a.56.56,0,0,1,.74-.27.57.57,0,0,1,.28.75L166.8,89A.57.57,0,0,1,166.29,89.34Z"/><path class="cls-2" d="M170.22,91.29a.68.68,0,0,1-.26-.07.56.56,0,0,1-.23-.76l1.17-2.25a.56.56,0,0,1,.76-.24.57.57,0,0,1,.24.76L170.72,91A.57.57,0,0,1,170.22,91.29Z"/><path class="cls-2" d="M174.07,93.4a.6.6,0,0,1-.28-.08.56.56,0,0,1-.2-.77l2.52-4.36a.56.56,0,1,1,1,.56l-2.52,4.37A.55.55,0,0,1,174.07,93.4Z"/><path class="cls-2" d="M177.83,95.67a.52.52,0,0,1-.3-.08.57.57,0,0,1-.18-.78l1.46-2.28a.55.55,0,0,1,.77-.17.57.57,0,0,1,.17.78l-1.45,2.27A.55.55,0,0,1,177.83,95.67Z"/><path class="cls-2" d="M181.48,98.12a.56.56,0,0,1-.32-.11.55.55,0,0,1-.14-.78l2.89-4.13a.57.57,0,0,1,.78-.14.56.56,0,0,1,.14.79l-2.89,4.13A.57.57,0,0,1,181.48,98.12Z"/><path class="cls-2" d="M185,100.71a.6.6,0,0,1-.34-.11.56.56,0,0,1-.1-.79l1.53-2a.56.56,0,0,1,.79-.11.57.57,0,0,1,.1.79l-1.53,2A.55.55,0,0,1,185,100.71Z"/><path class="cls-2" d="M188.45,103.46a.58.58,0,0,1-.37-.13.57.57,0,0,1-.06-.79l3.23-3.86a.57.57,0,0,1,.8-.07.56.56,0,0,1,.07.79l-3.24,3.86A.57.57,0,0,1,188.45,103.46Z"/><path class="cls-2" d="M191.75,106.36a.55.55,0,0,1-.38-.15.57.57,0,0,1,0-.8l1.71-1.85a.56.56,0,0,1,.79,0,.58.58,0,0,1,0,.8l-1.71,1.85A.56.56,0,0,1,191.75,106.36Z"/><path class="cls-2" d="M83.05,256.12a2.81,2.81,0,1,0-3.84,1A2.8,2.8,0,0,0,83.05,256.12Z"/><path class="cls-2" d="M105.4,284.65h-.1a.57.57,0,0,1-.46-.65l.88-5a.55.55,0,0,1,.65-.45.56.56,0,0,1,.46.65l-.88,5A.57.57,0,0,1,105.4,284.65Z"/><path class="cls-2" d="M101.4,281.36h-.12a.57.57,0,0,1-.43-.67l.57-2.54a.56.56,0,1,1,1.09.25l-.56,2.53A.57.57,0,0,1,101.4,281.36Z"/><path class="cls-2" d="M96.4,282.65l-.15,0a.57.57,0,0,1-.4-.69l1.31-4.86a.55.55,0,0,1,.68-.4.56.56,0,0,1,.4.69l-1.3,4.86A.57.57,0,0,1,96.4,282.65Z"/><path class="cls-2" d="M92.73,279a.47.47,0,0,1-.17,0,.56.56,0,0,1-.37-.7l.76-2.41a.56.56,0,0,1,1.07.34l-.76,2.4A.56.56,0,0,1,92.73,279Z"/><path class="cls-2" d="M87.6,279.88a.43.43,0,0,1-.19,0,.56.56,0,0,1-.34-.72l1.73-4.73a.57.57,0,0,1,.72-.34.56.56,0,0,1,.33.72l-1.72,4.74A.56.56,0,0,1,87.6,279.88Z"/><path class="cls-2" d="M84.27,275.88a.55.55,0,0,1-.52-.78l1-2.33a.57.57,0,0,1,.74-.3.55.55,0,0,1,.3.73l-1,2.33A.56.56,0,0,1,84.27,275.88Z"/><path class="cls-2" d="M79.08,276.35a.59.59,0,0,1-.23-.05.56.56,0,0,1-.28-.75L80.7,271a.56.56,0,1,1,1,.48L79.59,276A.56.56,0,0,1,79.08,276.35Z"/><path class="cls-2" d="M76.1,272.09a.58.58,0,0,1-.26-.06.57.57,0,0,1-.24-.76L76.78,269a.56.56,0,1,1,1,.52l-1.17,2.25A.57.57,0,0,1,76.1,272.09Z"/><path class="cls-2" d="M70.9,272.09a.58.58,0,0,1-.28-.07.56.56,0,0,1-.2-.77l2.52-4.37a.56.56,0,0,1,.77-.2.56.56,0,0,1,.2.77l-2.52,4.36A.55.55,0,0,1,70.9,272.09Z"/><path class="cls-2" d="M68.22,267.73a.55.55,0,0,1-.3-.09.57.57,0,0,1-.17-.78l1.45-2.28a.56.56,0,1,1,.94.61l-1.45,2.28A.55.55,0,0,1,68.22,267.73Z"/><path class="cls-2" d="M63.13,267.14a.53.53,0,0,1-.32-.1.56.56,0,0,1-.14-.79l2.89-4.13a.56.56,0,0,1,.78-.13.55.55,0,0,1,.14.78l-2.89,4.13A.57.57,0,0,1,63.13,267.14Z"/><path class="cls-2" d="M60.94,262.41a.53.53,0,0,1-.34-.11.56.56,0,0,1-.1-.79l1.53-2a.57.57,0,0,1,.79-.11.56.56,0,0,1,.1.79l-1.53,2A.55.55,0,0,1,60.94,262.41Z"/><path class="cls-2" d="M55.81,261.53a.58.58,0,0,1-.36-.14.56.56,0,0,1-.07-.79l3.24-3.86a.56.56,0,1,1,.86.72l-3.23,3.86A.58.58,0,0,1,55.81,261.53Z"/><path class="cls-2" d="M54.05,256.63a.55.55,0,0,1-.38-.15.57.57,0,0,1,0-.8l1.71-1.85a.56.56,0,0,1,.79,0,.57.57,0,0,1,0,.8l-1.71,1.86A.55.55,0,0,1,54.05,256.63Z"/><path class="cls-2" d="M164.45,256.12a2.81,2.81,0,1,1,3.84,1A2.8,2.8,0,0,1,164.45,256.12Z"/><path class="cls-2" d="M142.1,284.65a.57.57,0,0,1-.55-.47l-.88-5a.56.56,0,0,1,.46-.65.55.55,0,0,1,.65.45l.88,5a.57.57,0,0,1-.46.65Z"/><path class="cls-2" d="M146.1,281.36a.56.56,0,0,1-.55-.44l-.56-2.53a.56.56,0,1,1,1.09-.25l.57,2.54a.57.57,0,0,1-.43.67Z"/><path class="cls-2" d="M151.1,282.65a.57.57,0,0,1-.54-.42l-1.3-4.86a.56.56,0,1,1,1.08-.29l1.31,4.86a.57.57,0,0,1-.4.69Z"/><path class="cls-2" d="M154.77,279a.56.56,0,0,1-.53-.4l-.76-2.4a.56.56,0,0,1,1.07-.34l.76,2.41a.56.56,0,0,1-.37.7A.47.47,0,0,1,154.77,279Z"/><path class="cls-2" d="M159.9,279.88a.56.56,0,0,1-.53-.37l-1.72-4.74a.56.56,0,0,1,.33-.72.57.57,0,0,1,.72.34l1.73,4.73a.56.56,0,0,1-.34.72A.43.43,0,0,1,159.9,279.88Z"/><path class="cls-2" d="M163.23,275.88a.56.56,0,0,1-.52-.35l-1-2.33a.55.55,0,0,1,.3-.73.57.57,0,0,1,.74.3l1,2.33a.55.55,0,0,1-.52.78Z"/><path class="cls-2" d="M168.42,276.35a.55.55,0,0,1-.51-.32l-2.13-4.57a.56.56,0,0,1,1-.48l2.13,4.57a.57.57,0,0,1-.28.75A.59.59,0,0,1,168.42,276.35Z"/><path class="cls-2" d="M171.4,272.09a.56.56,0,0,1-.5-.3l-1.17-2.25a.56.56,0,1,1,1-.52l1.18,2.25a.57.57,0,0,1-.24.76A.62.62,0,0,1,171.4,272.09Z"/><path class="cls-2" d="M176.59,272.09a.55.55,0,0,1-.48-.28l-2.52-4.36a.56.56,0,0,1,.2-.77.56.56,0,0,1,.77.2l2.52,4.37a.57.57,0,0,1-.2.77A.59.59,0,0,1,176.59,272.09Z"/><path class="cls-2" d="M179.28,267.73a.54.54,0,0,1-.47-.26l-1.46-2.28a.57.57,0,0,1,.18-.78.56.56,0,0,1,.77.17l1.45,2.28a.57.57,0,0,1-.17.78A.55.55,0,0,1,179.28,267.73Z"/><path class="cls-2" d="M184.37,267.14a.57.57,0,0,1-.46-.24L181,262.77a.55.55,0,0,1,.14-.78.56.56,0,0,1,.78.13l2.89,4.13a.56.56,0,0,1-.14.79A.55.55,0,0,1,184.37,267.14Z"/><path class="cls-2" d="M186.56,262.41a.55.55,0,0,1-.45-.22l-1.53-2a.56.56,0,1,1,.89-.68l1.53,2a.57.57,0,0,1-.1.79A.55.55,0,0,1,186.56,262.41Z"/><path class="cls-2" d="M191.69,261.53a.58.58,0,0,1-.44-.21L188,257.46a.56.56,0,1,1,.86-.72l3.24,3.86a.56.56,0,0,1-.07.79A.58.58,0,0,1,191.69,261.53Z"/><path class="cls-2" d="M193.45,256.63a.55.55,0,0,1-.41-.18l-1.71-1.86a.57.57,0,0,1,0-.8.56.56,0,0,1,.79,0l1.71,1.85a.58.58,0,0,1,0,.8A.55.55,0,0,1,193.45,256.63Z"/><path class="cls-2" d="M123.75,83.05A12.74,12.74,0,0,1,111,70.32a12.59,12.59,0,0,1,4-9.21.56.56,0,0,1,.71-.06.57.57,0,0,1,.19.69,8.59,8.59,0,1,0,15.76,0,.57.57,0,0,1,.19-.69.56.56,0,0,1,.71.06,12.59,12.59,0,0,1,3.95,9.21A12.74,12.74,0,0,1,123.75,83.05Zm-9.62-19.22a11.47,11.47,0,0,0-2,6.49,11.6,11.6,0,1,0,23.2,0,11.47,11.47,0,0,0-2-6.49,9.71,9.71,0,1,1-19.24,0Z"/><path class="cls-2" d="M123.75,58.39a4.17,4.17,0,1,1,4.16-4.17A4.17,4.17,0,0,1,123.75,58.39Zm0-7.2a3,3,0,1,0,3,3A3,3,0,0,0,123.75,51.19Z"/><circle class="cls-2" cx="123.75" cy="43.2" r="2.25"/><path class="cls-2" d="M123.75,74.87a.56.56,0,0,1-.56-.56v-40a.56.56,0,0,1,1.12,0v40A.56.56,0,0,1,123.75,74.87Z"/><path class="cls-2" d="M132.14,299.05a.63.63,0,0,1-.32-.1.56.56,0,0,1-.19-.69,8.59,8.59,0,1,0-15.76,0,.56.56,0,0,1-.9.63,12.59,12.59,0,0,1-4-9.21,12.73,12.73,0,1,1,25.46,0,12.59,12.59,0,0,1-3.95,9.21A.59.59,0,0,1,132.14,299.05Zm-8.39-13.92a9.72,9.72,0,0,1,9.62,11,11.47,11.47,0,0,0,2-6.49,11.6,11.6,0,0,0-23.2,0,11.47,11.47,0,0,0,2,6.49,9.72,9.72,0,0,1,9.62-11Z"/><path class="cls-2" d="M123.75,309.94a4.17,4.17,0,1,1,4.16-4.16A4.16,4.16,0,0,1,123.75,309.94Zm0-7.2a3,3,0,1,0,3,3A3,3,0,0,0,123.75,302.74Z"/><circle class="cls-2" cx="123.75" cy="316.8" r="2.25"/><path class="cls-2" d="M123.75,326.25a.56.56,0,0,1-.56-.56v-40a.56.56,0,1,1,1.12,0v40A.56.56,0,0,1,123.75,326.25Z"/><path class="cls-2" d="M159.75,94.74a.57.57,0,0,1-.22,0A93.1,93.1,0,0,0,88,94.7a.56.56,0,1,1-.44-1,94.22,94.22,0,0,1,72.44,0,.56.56,0,0,1-.22,1.08Z"/><path class="cls-2" d="M84.44,96.26a.57.57,0,0,1-.4-1,.59.59,0,0,1,.8,0,.56.56,0,0,1-.4,1Z"/><path class="cls-2" d="M80.8,98.06a.56.56,0,0,1-.4-.17.57.57,0,0,1-.16-.39.58.58,0,0,1,.16-.4.59.59,0,0,1,.8,0,.58.58,0,0,1,.16.4.57.57,0,0,1-.16.39A.56.56,0,0,1,80.8,98.06Z"/><path class="cls-2" d="M77.24,100a.56.56,0,0,1-.4-.17.57.57,0,0,1-.16-.39.58.58,0,0,1,.16-.4.59.59,0,0,1,.8,0,.58.58,0,0,1,.16.4.57.57,0,0,1-.16.39A.56.56,0,0,1,77.24,100Z"/><path class="cls-2" d="M73.77,102.11a.55.55,0,0,1-.4-.16.58.58,0,0,1-.16-.4.56.56,0,1,1,1,.4A.58.58,0,0,1,73.77,102.11Z"/><path class="cls-2" d="M70.4,104.37a.56.56,0,0,1-.4-.17.54.54,0,0,1,0-.79.59.59,0,0,1,.8,0,.58.58,0,0,1,.16.4.57.57,0,0,1-.16.39A.56.56,0,0,1,70.4,104.37Z"/><path class="cls-2" d="M67.13,106.77a.54.54,0,0,1-.4-.17.52.52,0,0,1-.17-.39.54.54,0,0,1,.17-.4.57.57,0,0,1,.79,0,.54.54,0,0,1,.17.4.52.52,0,0,1-.17.39A.54.54,0,0,1,67.13,106.77Z"/><path class="cls-2" d="M64,109.31a.56.56,0,0,1-.4-.17.55.55,0,0,1-.16-.39.58.58,0,0,1,.16-.4.59.59,0,0,1,.8,0,.58.58,0,0,1,.16.4.57.57,0,0,1-.16.39A.56.56,0,0,1,64,109.31Z"/><path class="cls-2" d="M60.91,112a.57.57,0,0,1-.4-1,.59.59,0,0,1,.8,0,.56.56,0,0,1-.4,1Z"/><path class="cls-2" d="M163.06,96.26a.57.57,0,0,1-.4-1,.59.59,0,0,1,.8,0,.56.56,0,0,1-.4,1Z"/><path class="cls-2" d="M166.7,98.06a.56.56,0,0,1-.4-.17.57.57,0,0,1-.16-.39.58.58,0,0,1,.16-.4.59.59,0,0,1,.8,0,.58.58,0,0,1,.16.4.57.57,0,0,1-.16.39A.56.56,0,0,1,166.7,98.06Z"/><path class="cls-2" d="M170.26,100a.54.54,0,0,1-.4-.17.54.54,0,0,1-.17-.39.54.54,0,0,1,.17-.4.59.59,0,0,1,.8,0,.58.58,0,0,1,.16.4.57.57,0,0,1-.16.39A.56.56,0,0,1,170.26,100Z"/><path class="cls-2" d="M173.73,102.11a.54.54,0,0,1-.4-.16.56.56,0,0,1-.17-.4.58.58,0,0,1,.17-.4.58.58,0,0,1,.79,0,.58.58,0,0,1,.17.4.56.56,0,0,1-.17.4A.51.51,0,0,1,173.73,102.11Z"/><path class="cls-2" d="M177.1,104.37a.56.56,0,0,1-.4-.17.57.57,0,0,1-.16-.39.58.58,0,0,1,.16-.4.59.59,0,0,1,.8,0,.58.58,0,0,1,.16.4.57.57,0,0,1-.16.39A.56.56,0,0,1,177.1,104.37Z"/><path class="cls-2" d="M180.37,106.77a.58.58,0,0,1-.4-.17.55.55,0,0,1-.16-.39.54.54,0,0,1,.17-.4.57.57,0,0,1,.79,0,.54.54,0,0,1,.17.4.52.52,0,0,1-.17.39A.56.56,0,0,1,180.37,106.77Z"/><path class="cls-2" d="M183.54,109.31a.56.56,0,0,1-.4-.17.55.55,0,0,1-.16-.39.58.58,0,0,1,.16-.4.59.59,0,0,1,.8,0,.58.58,0,0,1,.16.4.55.55,0,0,1-.16.39A.56.56,0,0,1,183.54,109.31Z"/><path class="cls-2" d="M186.59,112a.57.57,0,0,1-.4-1,.59.59,0,0,1,.8,0,.56.56,0,0,1-.4,1Z"/><path class="cls-2" d="M123.75,273.58a93.16,93.16,0,0,1-36.22-7.24.56.56,0,0,1,.44-1,93.1,93.1,0,0,0,71.56,0,.56.56,0,1,1,.44,1A93.16,93.16,0,0,1,123.75,273.58Z"/><path class="cls-2" d="M84.44,264.86a.57.57,0,0,1-.4-1,.59.59,0,0,1,.8,0,.56.56,0,0,1-.4,1Z"/><path class="cls-2" d="M80.8,263.07a.56.56,0,0,1-.4-.17.58.58,0,0,1-.16-.4.57.57,0,0,1,.16-.39.59.59,0,0,1,.8,0,.57.57,0,0,1,.16.39.58.58,0,0,1-.16.4A.56.56,0,0,1,80.8,263.07Z"/><path class="cls-2" d="M77.24,261.12a.56.56,0,0,1-.4-.17.58.58,0,0,1-.16-.4.57.57,0,0,1,.16-.39.59.59,0,0,1,.8,0,.57.57,0,0,1,.16.39.58.58,0,0,1-.16.4A.56.56,0,0,1,77.24,261.12Z"/><path class="cls-2" d="M73.77,259a.55.55,0,0,1-.56-.56.58.58,0,0,1,.16-.4.59.59,0,0,1,.8,0,.58.58,0,0,1,.16.4.59.59,0,0,1-.16.4A.58.58,0,0,1,73.77,259Z"/><path class="cls-2" d="M70.4,256.76a.56.56,0,0,1-.4-.17.59.59,0,0,1-.17-.4.56.56,0,0,1,.17-.39.59.59,0,0,1,.8,0,.55.55,0,0,1,.16.39.58.58,0,0,1-.16.4A.56.56,0,0,1,70.4,256.76Z"/><path class="cls-2" d="M67.13,254.36a.58.58,0,0,1-.57-.57.58.58,0,0,1,.17-.4.6.6,0,0,1,.79,0,.56.56,0,0,1,.17.4.54.54,0,0,1-.17.4A.54.54,0,0,1,67.13,254.36Z"/><path class="cls-2" d="M64,251.82a.56.56,0,0,1-.4-.17.58.58,0,0,1,0-.8.61.61,0,0,1,.8,0,.59.59,0,0,1,.16.4.58.58,0,0,1-.16.4A.56.56,0,0,1,64,251.82Z"/><path class="cls-2" d="M60.91,249.14a.57.57,0,0,1-.4-1,.59.59,0,0,1,.8,0,.56.56,0,0,1-.4,1Z"/><path class="cls-2" d="M163.06,264.86a.57.57,0,0,1-.4-1,.59.59,0,0,1,.8,0,.56.56,0,0,1-.4,1Z"/><path class="cls-2" d="M166.7,263.07a.56.56,0,0,1-.4-.17.58.58,0,0,1-.16-.4.57.57,0,0,1,.16-.39.59.59,0,0,1,.8,0,.57.57,0,0,1,.16.39.58.58,0,0,1-.16.4A.56.56,0,0,1,166.7,263.07Z"/><path class="cls-2" d="M170.26,261.12a.58.58,0,0,1-.57-.57.54.54,0,0,1,.17-.39.59.59,0,0,1,.8,0,.57.57,0,0,1,.16.39.58.58,0,0,1-.16.4A.56.56,0,0,1,170.26,261.12Z"/><path class="cls-2" d="M173.73,259a.58.58,0,0,1-.4-.16.56.56,0,0,1-.17-.4.54.54,0,0,1,.17-.4.57.57,0,0,1,.79,0,.54.54,0,0,1,.17.4.56.56,0,0,1-.17.4A.55.55,0,0,1,173.73,259Z"/><path class="cls-2" d="M177.1,256.76a.56.56,0,0,1-.4-.17.58.58,0,0,1-.16-.4.55.55,0,0,1,.16-.39.59.59,0,0,1,.8,0,.55.55,0,0,1,.16.39.58.58,0,0,1-.16.4A.56.56,0,0,1,177.1,256.76Z"/><path class="cls-2" d="M180.37,254.36a.54.54,0,0,1-.39-.17.54.54,0,0,1-.17-.4.59.59,0,0,1,.16-.4.61.61,0,0,1,.8,0,.58.58,0,0,1,.17.4.54.54,0,0,1-.17.4A.56.56,0,0,1,180.37,254.36Z"/><path class="cls-2" d="M183.54,251.82a.56.56,0,0,1-.4-.17.58.58,0,0,1,0-.8.61.61,0,0,1,.8,0,.59.59,0,0,1,.16.4.58.58,0,0,1-.16.4A.56.56,0,0,1,183.54,251.82Z"/><path class="cls-2" d="M186.59,249.14a.57.57,0,0,1-.4-1,.59.59,0,0,1,.8,0,.56.56,0,0,1-.4,1Z"/><path class="cls-2" d="M101,46.91a3.6,3.6,0,1,0-3.6,3.6A3.6,3.6,0,0,0,101,46.91Z"/><path class="cls-2" d="M85.79,50.29a3.38,3.38,0,1,1,3.38-3.38A3.38,3.38,0,0,1,85.79,50.29Zm0-5.63A2.25,2.25,0,1,0,88,46.91,2.25,2.25,0,0,0,85.79,44.66Z"/><circle class="cls-2" cx="74.19" cy="46.91" r="1.69"/><path class="cls-2" d="M146.5,46.91a3.6,3.6,0,1,1,3.6,3.6A3.6,3.6,0,0,1,146.5,46.91Z"/><path class="cls-2" d="M161.7,50.29a3.38,3.38,0,1,1,3.38-3.38A3.38,3.38,0,0,1,161.7,50.29Zm0-5.63A2.25,2.25,0,1,0,164,46.91,2.25,2.25,0,0,0,161.7,44.66Z"/><circle class="cls-2" cx="173.31" cy="46.91" r="1.69"/><path class="cls-2" d="M101,313.09a3.6,3.6,0,1,0-3.6,3.6A3.6,3.6,0,0,0,101,313.09Z"/><path class="cls-2" d="M85.79,316.46a3.38,3.38,0,1,1,3.38-3.37A3.37,3.37,0,0,1,85.79,316.46Zm0-5.62A2.25,2.25,0,1,0,88,313.09,2.25,2.25,0,0,0,85.79,310.84Z"/><circle class="cls-2" cx="74.19" cy="313.09" r="1.69"/><path class="cls-2" d="M146.5,313.09a3.6,3.6,0,1,1,3.6,3.6A3.6,3.6,0,0,1,146.5,313.09Z"/><path class="cls-2" d="M161.7,316.46a3.38,3.38,0,1,1,3.38-3.37A3.37,3.37,0,0,1,161.7,316.46Zm0-5.62a2.25,2.25,0,1,0,2.25,2.25A2.25,2.25,0,0,0,161.7,310.84Z"/><circle class="cls-2" cx="173.31" cy="313.09" r="1.69"/><circle class="cls-2" cx="123.75" cy="93.73" r="2.81"/><path class="cls-2" d="M50.44,134.43a2.81,2.81,0,1,1-3.84,1A2.81,2.81,0,0,1,50.44,134.43Z"/><circle class="cls-2" cx="37.48" cy="180" r="2.81"/><path class="cls-2" d="M47.63,220.7a2.81,2.81,0,1,1-1,3.84A2.8,2.8,0,0,1,47.63,220.7Z"/><path class="cls-2" d="M78.18,253.31a2.81,2.81,0,1,1,1,3.84A2.81,2.81,0,0,1,78.18,253.31Z"/><circle class="cls-2" cx="123.75" cy="266.27" r="2.81"/><path class="cls-2" d="M164.45,256.12a2.81,2.81,0,1,1,3.84,1A2.8,2.8,0,0,1,164.45,256.12Z"/><path class="cls-2" d="M197.05,225.57a2.81,2.81,0,1,1,3.85-1A2.81,2.81,0,0,1,197.05,225.57Z"/><circle class="cls-2" cx="210.02" cy="180" r="2.81" transform="translate(-36.65 305.15) rotate(-67.5)"/><path class="cls-2" d="M199.87,139.3a2.81,2.81,0,1,1,1-3.84A2.8,2.8,0,0,1,199.87,139.3Z"/><path class="cls-2" d="M169.32,106.69a2.81,2.81,0,1,1-1-3.84A2.81,2.81,0,0,1,169.32,106.69Z"/><path class="cls-2" d="M83.05,103.88a2.81,2.81,0,1,1-3.84-1A2.8,2.8,0,0,1,83.05,103.88Z"/></g></g></svg>