<svg xmlns="http://www.w3.org/2000/svg" viewBox="0 0 130.04 201.27"><defs><style>.cls-1{fill:#88468d;}.cls-2,.cls-3{fill:#eac47e;}.cls-3{fill-rule:evenodd;}</style></defs><g id="Layer_2" data-name="Layer 2"><g id="Layer_1-2" data-name="Layer 1"><path class="cls-1" d="M6.38,0H123.66A6.38,6.38,0,0,1,130,6.38V194.89a6.37,6.37,0,0,1-6.37,6.37H6.38A6.38,6.38,0,0,1,0,194.89V6.38A6.38,6.38,0,0,1,6.38,0Z"/><path class="cls-2" d="M119.65,195.37H10.38a4.5,4.5,0,0,1-4.49-4.49V10.38a4.5,4.5,0,0,1,4.49-4.49H119.65a4.5,4.5,0,0,1,4.49,4.49v180.5A4.49,4.49,0,0,1,119.65,195.37ZM10.38,6.73a3.66,3.66,0,0,0-3.65,3.65v180.5a3.65,3.65,0,0,0,3.65,3.65H119.65a3.64,3.64,0,0,0,3.65-3.65V10.38a3.65,3.65,0,0,0-3.65-3.65Z"/><path class="cls-2" d="M109.92,10.7H20.12a.43.43,0,0,1,0-.85h89.8a.43.43,0,0,1,0,.85Z"/><rect class="cls-2" x="20.12" y="190.32" width="89.8" height="0.84"/><path class="cls-2" d="M10.37,180.38A.42.42,0,0,1,10,180V21.3a.42.42,0,1,1,.84,0V180A.42.42,0,0,1,10.37,180.38Z"/><path class="cls-2" d="M119.81,180.38a.42.42,0,0,1-.42-.42V21.3a.42.42,0,0,1,.42-.42.42.42,0,0,1,.42.42V180A.42.42,0,0,1,119.81,180.38Z"/><path class="cls-2" d="M11.05,13.21A2.25,2.25,0,1,1,13.3,11,2.25,2.25,0,0,1,11.05,13.21Zm0-4.24a2,2,0,1,0,2,2A2,2,0,0,0,11.05,9Z"/><path class="cls-3" d="M10.44,11A1.37,1.37,0,0,1,11.81,9.6h0A1.53,1.53,0,0,0,11,9.37a1.59,1.59,0,0,0,0,3.18,1.61,1.61,0,0,0,.81-.22h0A1.37,1.37,0,0,1,10.44,11Z"/><polygon class="cls-3" points="10.49 13.82 10.84 14.41 11.5 14.24 11.33 14.9 11.92 15.25 11.33 15.6 11.5 16.26 10.84 16.1 10.49 16.68 10.14 16.1 9.47 16.26 9.64 15.6 9.06 15.25 9.64 14.9 9.47 14.24 10.14 14.41 10.49 13.82"/><polygon class="cls-3" points="13.86 10.4 14.45 10.05 14.28 9.39 14.94 9.55 15.29 8.97 15.64 9.55 16.3 9.39 16.14 10.05 16.72 10.4 16.14 10.75 16.3 11.41 15.64 11.24 15.29 11.83 14.94 11.24 14.28 11.41 14.45 10.75 13.86 10.4"/><polygon class="cls-3" points="10.49 17.36 10.72 17.74 11.15 17.63 11.04 18.07 11.43 18.3 11.04 18.53 11.15 18.97 10.72 18.86 10.49 19.25 10.26 18.86 9.82 18.97 9.93 18.53 9.54 18.3 9.93 18.07 9.82 17.63 10.26 17.74 10.49 17.36"/><polygon class="cls-3" points="17.4 10.4 17.78 10.17 17.67 9.73 18.11 9.84 18.34 9.46 18.57 9.84 19.01 9.73 18.9 10.17 19.29 10.4 18.9 10.63 19.01 11.07 18.57 10.96 18.34 11.34 18.11 10.96 17.67 11.07 17.78 10.63 17.4 10.4"/><path class="cls-3" d="M12.58,14.09a.26.26,0,0,1,.23.29.27.27,0,0,1-.29.23.27.27,0,0,1-.23-.29A.27.27,0,0,1,12.58,14.09Z"/><path class="cls-3" d="M14.5,12a.25.25,0,0,1,.23.29.26.26,0,1,1-.51-.06A.24.24,0,0,1,14.5,12Z"/><path class="cls-3" d="M13.84,12.92A.55.55,0,1,1,13.72,14a.55.55,0,0,1,.12-1.09Z"/><path class="cls-2" d="M11.05,192.3a2.25,2.25,0,1,1,2.25-2.25A2.25,2.25,0,0,1,11.05,192.3Zm0-4.25a2,2,0,1,0,2,2A2,2,0,0,0,11.05,188.05Z"/><path class="cls-3" d="M10.44,190.05a1.38,1.38,0,0,0,1.37,1.37h0a1.61,1.61,0,0,1-.81.22,1.59,1.59,0,1,1,0-3.18,1.61,1.61,0,0,1,.81.22h0A1.38,1.38,0,0,0,10.44,190.05Z"/><polygon class="cls-3" points="10.49 187.19 10.84 186.6 11.5 186.78 11.33 186.11 11.92 185.76 11.33 185.41 11.5 184.75 10.84 184.92 10.49 184.33 10.14 184.92 9.47 184.75 9.64 185.41 9.06 185.76 9.64 186.11 9.47 186.78 10.14 186.6 10.49 187.19"/><polygon class="cls-3" points="13.86 190.62 14.45 190.97 14.28 191.63 14.94 191.46 15.29 192.04 15.64 191.46 16.3 191.63 16.14 190.97 16.72 190.62 16.14 190.26 16.3 189.6 15.64 189.77 15.29 189.18 14.94 189.77 14.28 189.6 14.45 190.26 13.86 190.62"/><polygon class="cls-3" points="10.49 183.66 10.72 183.27 11.15 183.38 11.04 182.94 11.43 182.71 11.04 182.48 11.15 182.04 10.72 182.15 10.49 181.77 10.26 182.15 9.82 182.04 9.93 182.48 9.54 182.71 9.93 182.94 9.82 183.38 10.26 183.27 10.49 183.66"/><polygon class="cls-3" points="17.4 190.62 17.78 190.85 17.67 191.28 18.11 191.17 18.34 191.56 18.57 191.17 19.01 191.28 18.9 190.85 19.29 190.62 18.9 190.38 19.01 189.95 18.57 190.06 18.34 189.67 18.11 190.06 17.67 189.95 17.78 190.38 17.4 190.62"/><path class="cls-3" d="M12.58,186.92a.25.25,0,0,0,.23-.29.27.27,0,0,0-.29-.23.27.27,0,0,0-.23.29A.26.26,0,0,0,12.58,186.92Z"/><path class="cls-3" d="M14.5,189a.26.26,0,0,0-.05-.51.25.25,0,0,0-.23.29A.24.24,0,0,0,14.5,189Z"/><path class="cls-3" d="M13.84,188.1a.55.55,0,0,0-.12-1.1.55.55,0,0,0,.12,1.1Z"/><path class="cls-2" d="M119,13.34a2.25,2.25,0,1,1,2.25-2.25A2.25,2.25,0,0,1,119,13.34Zm0-4.25a2,2,0,1,0,2,2A2,2,0,0,0,119,9.09Z"/><path class="cls-3" d="M119.59,11.09a1.37,1.37,0,0,0-1.37-1.37h0A1.62,1.62,0,0,1,119,9.5a1.59,1.59,0,0,1,0,3.18,1.62,1.62,0,0,1-.82-.22h0A1.37,1.37,0,0,0,119.59,11.09Z"/><polygon class="cls-3" points="119.55 13.95 119.2 14.53 118.54 14.37 118.7 15.03 118.12 15.38 118.7 15.73 118.54 16.39 119.2 16.22 119.55 16.81 119.9 16.22 120.56 16.39 120.39 15.73 120.98 15.38 120.39 15.03 120.56 14.37 119.9 14.53 119.55 13.95"/><polygon class="cls-3" points="116.18 10.53 115.59 10.18 115.76 9.51 115.09 9.68 114.75 9.09 114.39 9.68 113.73 9.51 113.9 10.18 113.31 10.53 113.9 10.88 113.73 11.54 114.39 11.37 114.75 11.96 115.09 11.37 115.76 11.54 115.59 10.88 116.18 10.53"/><polygon class="cls-3" points="119.55 17.48 119.32 17.87 118.88 17.76 118.99 18.2 118.6 18.43 118.99 18.66 118.88 19.1 119.32 18.98 119.55 19.37 119.78 18.98 120.22 19.1 120.11 18.66 120.49 18.43 120.11 18.2 120.22 17.76 119.78 17.87 119.55 17.48"/><polygon class="cls-3" points="112.64 10.53 112.25 10.29 112.36 9.86 111.93 9.97 111.7 9.58 111.47 9.97 111.03 9.86 111.14 10.29 110.75 10.53 111.14 10.76 111.03 11.19 111.47 11.08 111.7 11.47 111.93 11.08 112.36 11.19 112.25 10.76 112.64 10.53"/><path class="cls-3" d="M117.46,14.22a.25.25,0,0,0-.23.29.26.26,0,1,0,.51-.06A.24.24,0,0,0,117.46,14.22Z"/><path class="cls-3" d="M115.53,12.09a.27.27,0,0,0-.23.29.26.26,0,0,0,.29.23.26.26,0,0,0,.23-.29A.27.27,0,0,0,115.53,12.09Z"/><path class="cls-3" d="M116.19,13a.55.55,0,0,0,.12,1.1.55.55,0,0,0-.12-1.1Z"/><path class="cls-2" d="M119,192.17a2.25,2.25,0,1,1,2.25-2.25A2.25,2.25,0,0,1,119,192.17Zm0-4.24a2,2,0,1,0,2,2A2,2,0,0,0,119,187.93Z"/><path class="cls-3" d="M119.59,189.93a1.36,1.36,0,0,1-1.37,1.36h0a1.63,1.63,0,0,0,.82.23,1.6,1.6,0,0,0,0-3.19,1.53,1.53,0,0,0-.82.23h0A1.37,1.37,0,0,1,119.59,189.93Z"/><polygon class="cls-3" points="119.55 187.07 119.2 186.48 118.54 186.65 118.7 185.98 118.12 185.63 118.7 185.28 118.54 184.62 119.2 184.79 119.55 184.2 119.9 184.79 120.56 184.62 120.39 185.28 120.98 185.63 120.39 185.98 120.56 186.65 119.9 186.48 119.55 187.07"/><polygon class="cls-3" points="116.18 190.49 115.59 190.84 115.76 191.5 115.09 191.33 114.75 191.92 114.39 191.33 113.73 191.5 113.9 190.84 113.31 190.49 113.9 190.14 113.73 189.47 114.39 189.64 114.75 189.06 115.09 189.64 115.76 189.47 115.59 190.14 116.18 190.49"/><polygon class="cls-3" points="119.55 183.53 119.32 183.14 118.88 183.25 118.99 182.82 118.6 182.59 118.99 182.35 118.88 181.92 119.32 182.03 119.55 181.64 119.78 182.03 120.22 181.92 120.11 182.35 120.49 182.59 120.11 182.82 120.22 183.25 119.78 183.14 119.55 183.53"/><polygon class="cls-3" points="112.64 190.49 112.25 190.72 112.36 191.16 111.93 191.04 111.7 191.43 111.47 191.04 111.03 191.16 111.14 190.72 110.75 190.49 111.14 190.26 111.03 189.82 111.47 189.93 111.7 189.54 111.93 189.93 112.36 189.82 112.25 190.26 112.64 190.49"/><path class="cls-3" d="M117.46,186.79a.24.24,0,0,1-.23-.28.25.25,0,0,1,.28-.23.26.26,0,0,1-.05.51Z"/><path class="cls-3" d="M115.53,188.92a.26.26,0,0,1-.23-.29.27.27,0,0,1,.29-.23.27.27,0,0,1,.23.29A.27.27,0,0,1,115.53,188.92Z"/><path class="cls-3" d="M116.19,188a.54.54,0,0,1-.48-.61.53.53,0,0,1,.6-.48.55.55,0,0,1,.49.6A.56.56,0,0,1,116.19,188Z"/><path class="cls-2" d="M26.13,49.82h0a.42.42,0,0,1-.38-.25L25,47.74l-1.86.73a.4.4,0,0,1-.45-.09.42.42,0,0,1-.09-.45l.73-1.86-1.82-.78a.42.42,0,0,1,0-.78l1.82-.79-.73-1.85a.42.42,0,0,1,.09-.45.42.42,0,0,1,.45-.1l1.86.74.79-1.83a.44.44,0,0,1,.77,0l.79,1.83,1.85-.74a.42.42,0,0,1,.55.55L29,43.72l1.83.79a.42.42,0,0,1,0,.78L29,46.07l.74,1.86a.44.44,0,0,1-.09.45.41.41,0,0,1-.46.09l-1.85-.73-.79,1.83A.43.43,0,0,1,26.13,49.82Zm-.95-3a.41.41,0,0,1,.39.25l.56,1.31L26.7,47a.42.42,0,0,1,.54-.23l1.33.53L28,46a.42.42,0,0,1,.23-.54l1.31-.56-1.31-.57a.42.42,0,0,1-.23-.54l.53-1.33L27.24,43a.42.42,0,0,1-.54-.22l-.57-1.31-.56,1.31A.42.42,0,0,1,25,43l-1.33-.53.53,1.33a.42.42,0,0,1-.23.54l-1.31.57,1.31.56a.43.43,0,0,1,.23.55l-.53,1.32L25,46.8Z"/><path class="cls-2" d="M103.9,49.82a.41.41,0,0,1-.38-.25l-.79-1.83-1.86.73a.4.4,0,0,1-.45-.09.42.42,0,0,1-.1-.45l.74-1.86-1.83-.78a.43.43,0,0,1,0-.78l1.83-.79-.74-1.85a.43.43,0,0,1,.55-.55l1.86.74.79-1.83a.43.43,0,0,1,.77,0l.79,1.83,1.85-.74a.43.43,0,0,1,.55.55l-.74,1.85,1.83.79a.43.43,0,0,1,0,.78l-1.83.78.69,1.75a.4.4,0,0,1,.1.26.44.44,0,0,1-.43.42.32.32,0,0,1-.17,0l-1.85-.73-.79,1.83A.43.43,0,0,1,103.9,49.82Zm-1-3a.4.4,0,0,1,.38.25l.57,1.31.57-1.31a.42.42,0,0,1,.54-.23l1.33.53L105.81,46a.43.43,0,0,1,.22-.55l1.31-.56L106,44.33a.42.42,0,0,1-.22-.54l.53-1.33L105,43a.42.42,0,0,1-.54-.22l-.57-1.31-.56,1.31a.42.42,0,0,1-.54.22l-1.33-.53.52,1.33a.41.41,0,0,1-.22.54l-1.31.57,1.31.56A.41.41,0,0,1,102,46l-.52,1.33,1.32-.53Z"/><path class="cls-2" d="M65.08,43.35a.41.41,0,0,1-.4-.31,3.55,3.55,0,0,1,0-1.53,2.57,2.57,0,0,0,.06-1.16,4,4,0,0,0-.68-1.21,4.83,4.83,0,0,1-.82-1.48,3.4,3.4,0,0,1,0-1.53,2.33,2.33,0,0,0,.05-.28,5.37,5.37,0,0,1-1.28.35,4.07,4.07,0,0,0-1.3.39,2.82,2.82,0,0,0-.75.9,3.44,3.44,0,0,1-1,1.15,4.57,4.57,0,0,1-1.59.51,4.05,4.05,0,0,0-1.31.39.41.41,0,0,1-.58-.56,3.45,3.45,0,0,1,1.11-1,2.62,2.62,0,0,0,.86-.78,4,4,0,0,0,.37-1.34,4.92,4.92,0,0,1,.47-1.62,3.58,3.58,0,0,1,1.12-1l.23-.16a5.78,5.78,0,0,1-1.15-.66,4.15,4.15,0,0,0-1.2-.64,2.83,2.83,0,0,0-1.16.1,3.61,3.61,0,0,1-1.53.1,4.68,4.68,0,0,1-1.49-.76,4.08,4.08,0,0,0-1.2-.65.42.42,0,0,1,0-.82,3.78,3.78,0,0,1,1.53.05,2.59,2.59,0,0,0,1.16.06,4.29,4.29,0,0,0,1.21-.68,4.71,4.71,0,0,1,1.48-.82,3.61,3.61,0,0,1,1.53,0l.27.05a5.87,5.87,0,0,1-.34-1.28,4.33,4.33,0,0,0-.4-1.3,2.67,2.67,0,0,0-.89-.75,3.35,3.35,0,0,1-1.15-1,4.64,4.64,0,0,1-.51-1.59,4.31,4.31,0,0,0-.4-1.31.44.44,0,0,1,.05-.52.42.42,0,0,1,.52-.06,3.45,3.45,0,0,1,1.05,1.11,2.59,2.59,0,0,0,.77.86,4.42,4.42,0,0,0,1.34.37,5.05,5.05,0,0,1,1.63.47,3.34,3.34,0,0,1,1,1.12,1.88,1.88,0,0,1,.16.23,6.32,6.32,0,0,1,.66-1.15,4.2,4.2,0,0,0,.65-1.2,2.76,2.76,0,0,0-.1-1.16,3.41,3.41,0,0,1-.11-1.53,4.61,4.61,0,0,1,.77-1.49,3.92,3.92,0,0,0,.64-1.2.42.42,0,0,1,.82,0,3.36,3.36,0,0,1,0,1.52,2.77,2.77,0,0,0-.06,1.17,4.42,4.42,0,0,0,.69,1.2,4.73,4.73,0,0,1,.81,1.49,3.51,3.51,0,0,1,0,1.52l-.06.28a6.91,6.91,0,0,1,1.28-.35,4.05,4.05,0,0,0,1.31-.39,2.77,2.77,0,0,0,.75-.89,3.25,3.25,0,0,1,1-1.15,4.37,4.37,0,0,1,1.59-.51,4.33,4.33,0,0,0,1.3-.4.42.42,0,0,1,.59.57,3.31,3.31,0,0,1-1.11,1,2.89,2.89,0,0,0-.87.78,4.43,4.43,0,0,0-.36,1.34,4.83,4.83,0,0,1-.48,1.63,3.31,3.31,0,0,1-1.11,1l-.23.16a6.32,6.32,0,0,1,1.15.66,4.08,4.08,0,0,0,1.2.65,2.85,2.85,0,0,0,1.16-.11,3.45,3.45,0,0,1,1.53-.09,4.44,4.44,0,0,1,1.48.76,4.07,4.07,0,0,0,1.21.64.42.42,0,0,1,.32.41.41.41,0,0,1-.31.41,3.6,3.6,0,0,1-1.53-.05,2.93,2.93,0,0,0-1.16-.06,4.46,4.46,0,0,0-1.21.69,4.79,4.79,0,0,1-1.48.81,3.45,3.45,0,0,1-1.53-.05l-.27-.05a6.89,6.89,0,0,1,.34,1.28,3.89,3.89,0,0,0,.4,1.31,2.54,2.54,0,0,0,.89.74,3.56,3.56,0,0,1,1.15,1,4.69,4.69,0,0,1,.51,1.6,4.89,4.89,0,0,0,.35,1.22.42.42,0,0,1-.3.73.51.51,0,0,1-.22-.06,3.45,3.45,0,0,1-1-1.11,2.76,2.76,0,0,0-.78-.87,4.27,4.27,0,0,0-1.34-.36,4.7,4.7,0,0,1-1.62-.48,3.45,3.45,0,0,1-1-1.11A1.88,1.88,0,0,0,68,35.3a5.78,5.78,0,0,1-.66,1.15,4,4,0,0,0-.64,1.2,2.73,2.73,0,0,0,.1,1.15,3.44,3.44,0,0,1,.1,1.54,4.63,4.63,0,0,1-.76,1.48,4.2,4.2,0,0,0-.65,1.2.42.42,0,0,1-.4.33Zm-1.25-8.74a.3.3,0,0,1,.13,0,.41.41,0,0,1,.29.33,3.9,3.9,0,0,1-.09,1.33,2.57,2.57,0,0,0-.06,1.16,4.29,4.29,0,0,0,.68,1.21,4.83,4.83,0,0,1,.82,1.48,2.44,2.44,0,0,1,.05.89,2.85,2.85,0,0,0,.43-.88A2.76,2.76,0,0,0,66,39a3.41,3.41,0,0,1-.1-1.53A4.78,4.78,0,0,1,66.64,36a4.08,4.08,0,0,0,.65-1.2,2,2,0,0,0,0-.36.43.43,0,0,1,.22-.39.43.43,0,0,1,.44,0,3.75,3.75,0,0,1,.88,1,2.76,2.76,0,0,0,.78.87,4.55,4.55,0,0,0,1.34.37,4.55,4.55,0,0,1,1.62.47,2.73,2.73,0,0,1,.67.59,3,3,0,0,0-.32-.92,2.65,2.65,0,0,0-.89-.75,3.59,3.59,0,0,1-1.16-1,4.92,4.92,0,0,1-.51-1.6,4.07,4.07,0,0,0-.39-1.3,1.23,1.23,0,0,0-.24-.28.41.41,0,0,1-.11-.43.4.4,0,0,1,.33-.29,3.92,3.92,0,0,1,1.33.09,2.92,2.92,0,0,0,1.16.06,4.46,4.46,0,0,0,1.21-.69,4.79,4.79,0,0,1,1.48-.81,2.39,2.39,0,0,1,.89-.06,2.93,2.93,0,0,0-.88-.42A2.66,2.66,0,0,0,74,29a3.61,3.61,0,0,1-1.53.1A4.82,4.82,0,0,1,71,28.37a4,4,0,0,0-1.2-.64c-.23-.05-.59,0-.71-.26a.43.43,0,0,1,0-.44,3.89,3.89,0,0,1,1-.87,2.76,2.76,0,0,0,.87-.78A4.55,4.55,0,0,0,71.31,24a4.49,4.49,0,0,1,.47-1.62,2.41,2.41,0,0,1,.59-.67,2.76,2.76,0,0,0-.92.32,2.56,2.56,0,0,0-.75.89,3.56,3.56,0,0,1-1,1.15,4.71,4.71,0,0,1-1.59.51,3.82,3.82,0,0,0-1.31.4,1.42,1.42,0,0,0-.28.23.41.41,0,0,1-.43.12.42.42,0,0,1-.29-.34,3.84,3.84,0,0,1,.09-1.32,2.73,2.73,0,0,0,.06-1.16,4.32,4.32,0,0,0-.69-1.21,4.79,4.79,0,0,1-.81-1.48,2.51,2.51,0,0,1,0-.9,3,3,0,0,0-.43.88,2.61,2.61,0,0,0,.1,1.16,3.41,3.41,0,0,1,.1,1.53A4.61,4.61,0,0,1,63.39,24a4.15,4.15,0,0,0-.64,1.2,2.05,2.05,0,0,0,0,.37.41.41,0,0,1-.23.38.39.39,0,0,1-.44,0,3.73,3.73,0,0,1-.87-1,2.72,2.72,0,0,0-.78-.86,4,4,0,0,0-1.34-.37,4.92,4.92,0,0,1-1.62-.47,2.42,2.42,0,0,1-.67-.6,2.82,2.82,0,0,0,.32.93,2.67,2.67,0,0,0,.89.75,3.25,3.25,0,0,1,1.15,1,4.57,4.57,0,0,1,.51,1.59,4.06,4.06,0,0,0,.4,1.3,1.49,1.49,0,0,0,.23.28.43.43,0,0,1,.12.44.44.44,0,0,1-.34.29,4.14,4.14,0,0,1-1.32-.09,2.76,2.76,0,0,0-1.16-.06,4,4,0,0,0-1.21.68,4.83,4.83,0,0,1-1.48.82,2.64,2.64,0,0,1-.89.05,2.81,2.81,0,0,0,.87.43A3,3,0,0,0,56,31a3.62,3.62,0,0,1,1.53-.1,4.58,4.58,0,0,1,1.49.76,4.2,4.2,0,0,0,1.2.65c.24,0,.6,0,.72.26A.39.39,0,0,1,61,33a3.6,3.6,0,0,1-1,.88,2.61,2.61,0,0,0-.86.78A4,4,0,0,0,58.73,36a5.05,5.05,0,0,1-.47,1.63,2.57,2.57,0,0,1-.6.67,3.07,3.07,0,0,0,.93-.32,2.89,2.89,0,0,0,.75-.89,3.37,3.37,0,0,1,1-1.16,4.79,4.79,0,0,1,1.59-.51,4.07,4.07,0,0,0,1.3-.39,1.23,1.23,0,0,0,.28-.24A.48.48,0,0,1,63.83,34.61Z"/><path class="cls-2" d="M65,34.37A4.38,4.38,0,1,1,69.39,30,4.38,4.38,0,0,1,65,34.37Zm0-7.91A3.54,3.54,0,1,0,68.55,30,3.54,3.54,0,0,0,65,26.46Z"/><path class="cls-2" d="M26.13,161.29a.42.42,0,0,1-.38-.25L25,159.21l-1.86.73a.4.4,0,0,1-.45-.09.42.42,0,0,1-.09-.45l.73-1.86-1.82-.78a.42.42,0,0,1,0-.78l1.82-.79-.73-1.85a.42.42,0,0,1,.09-.45.42.42,0,0,1,.45-.1l1.86.74.79-1.83a.44.44,0,0,1,.77,0l.79,1.83,1.85-.74a.42.42,0,0,1,.55.55L29,155.19l1.83.79a.42.42,0,0,1,.26.39.4.4,0,0,1-.26.38l-1.83.79.7,1.75a.39.39,0,0,1,.09.26.42.42,0,0,1-.42.42h0a.45.45,0,0,1-.16,0l-1.85-.73L26.52,161A.43.43,0,0,1,26.13,161.29Zm-.95-3a.41.41,0,0,1,.39.25l.56,1.31.57-1.31a.41.41,0,0,1,.54-.22l1.33.52L28,157.48a.42.42,0,0,1,.23-.54l1.31-.57-1.31-.57a.42.42,0,0,1-.23-.54l.53-1.32-1.33.52a.41.41,0,0,1-.54-.22l-.57-1.31-.56,1.31a.41.41,0,0,1-.54.22l-1.33-.52.53,1.32a.42.42,0,0,1-.23.54l-1.31.57,1.31.56a.42.42,0,0,1,.23.54l-.53,1.33,1.33-.52A.27.27,0,0,1,25.18,158.25Z"/><path class="cls-2" d="M103.9,161.29h0a.41.41,0,0,1-.38-.25l-.79-1.83-1.86.73a.4.4,0,0,1-.45-.09.42.42,0,0,1-.1-.45l.74-1.86-1.83-.79a.41.41,0,0,1-.25-.38.43.43,0,0,1,.25-.39l1.83-.79-.74-1.85a.43.43,0,0,1,.55-.55l1.86.74.79-1.83a.43.43,0,0,1,.77,0l.79,1.83,1.85-.74a.43.43,0,0,1,.55.55l-.74,1.85,1.83.79a.43.43,0,0,1,0,.78l-1.83.78.74,1.86a.42.42,0,0,1-.1.45.39.39,0,0,1-.45.09l-1.85-.73-.79,1.83A.43.43,0,0,1,103.9,161.29Zm-1-3a.42.42,0,0,1,.39.25l.56,1.31.57-1.31a.41.41,0,0,1,.54-.22l1.33.52-.53-1.33a.42.42,0,0,1,.22-.54l1.31-.56L106,155.8a.42.42,0,0,1-.22-.54l.53-1.32-1.33.52a.41.41,0,0,1-.54-.22l-.57-1.31-.57,1.31a.4.4,0,0,1-.54.22l-1.32-.52.52,1.32a.41.41,0,0,1-.22.54l-1.31.57,1.31.57a.4.4,0,0,1,.22.54l-.52,1.32,1.33-.52A.27.27,0,0,1,103,158.25Z"/><path class="cls-2" d="M65,184.62h0a.42.42,0,0,1-.41-.32,4,4,0,0,0-.64-1.21,4.66,4.66,0,0,1-.77-1.48,3.4,3.4,0,0,1,.11-1.53,2.79,2.79,0,0,0,.1-1.16,4.27,4.27,0,0,0-.64-1.2,6.37,6.37,0,0,1-.67-1.15l-.16.23a3.31,3.31,0,0,1-1,1.11,4.83,4.83,0,0,1-1.63.48,4.43,4.43,0,0,0-1.34.36,2.74,2.74,0,0,0-.77.87A3.45,3.45,0,0,1,56,180.73a.42.42,0,0,1-.57-.58,4.49,4.49,0,0,0,.4-1.31,4.57,4.57,0,0,1,.51-1.59,3.25,3.25,0,0,1,1.15-1,2.67,2.67,0,0,0,.89-.75,4.33,4.33,0,0,0,.4-1.3,5.87,5.87,0,0,1,.34-1.28l-.27.05a3.6,3.6,0,0,1-1.53,0,4.84,4.84,0,0,1-1.49-.81,4.42,4.42,0,0,0-1.2-.69,2.92,2.92,0,0,0-1.16.06,3.61,3.61,0,0,1-1.53.05.43.43,0,0,1-.32-.41.44.44,0,0,1,.33-.41,4,4,0,0,0,1.2-.64,4.71,4.71,0,0,1,1.49-.77,3.8,3.8,0,0,1,1.53.11,3,3,0,0,0,1.16.1,4.41,4.41,0,0,0,1.2-.64,6.37,6.37,0,0,1,1.15-.67l-.23-.16a3.43,3.43,0,0,1-1.12-1,5.05,5.05,0,0,1-.47-1.63,4,4,0,0,0-.37-1.33,2.51,2.51,0,0,0-.86-.78,3.45,3.45,0,0,1-1.11-1.05.41.41,0,0,1,.06-.51.42.42,0,0,1,.52-.06,4,4,0,0,0,1.31.4,4.57,4.57,0,0,1,1.59.51,3.35,3.35,0,0,1,1,1.15,2.67,2.67,0,0,0,.75.89,4.33,4.33,0,0,0,1.3.4,5.87,5.87,0,0,1,1.28.34,2.56,2.56,0,0,0-.05-.27,3.41,3.41,0,0,1,0-1.53,4.87,4.87,0,0,1,.82-1.49,4.12,4.12,0,0,0,.68-1.2,2.57,2.57,0,0,0-.06-1.16,3.56,3.56,0,0,1,0-1.53.46.46,0,0,1,.41-.32.43.43,0,0,1,.4.33,4.08,4.08,0,0,0,.65,1.2,5,5,0,0,1,.76,1.49,3.41,3.41,0,0,1-.1,1.53,2.78,2.78,0,0,0-.1,1.16,4.15,4.15,0,0,0,.64,1.2A5.78,5.78,0,0,1,68,166l.16-.23a3.58,3.58,0,0,1,1-1.12,4.92,4.92,0,0,1,1.62-.47,4,4,0,0,0,1.34-.37,2.62,2.62,0,0,0,.78-.86,3.45,3.45,0,0,1,1-1.11.42.42,0,0,1,.57.58,3.82,3.82,0,0,0-.4,1.31,4.57,4.57,0,0,1-.51,1.59,3.34,3.34,0,0,1-1.15,1,2.67,2.67,0,0,0-.89.75,3.83,3.83,0,0,0-.4,1.3,6.5,6.5,0,0,1-.34,1.28l.27,0a3.6,3.6,0,0,1,1.53,0,4.59,4.59,0,0,1,1.48.81,4.46,4.46,0,0,0,1.21.69,2.78,2.78,0,0,0,1.16-.07,3.77,3.77,0,0,1,1.53,0,.4.4,0,0,1,.31.41.41.41,0,0,1-.32.4,4.12,4.12,0,0,0-1.21.65,4.44,4.44,0,0,1-1.48.76,3.67,3.67,0,0,1-1.54-.1,3,3,0,0,0-1.15-.1,4,4,0,0,0-1.2.64,5.78,5.78,0,0,1-1.15.66,1.88,1.88,0,0,0,.23.16,3.45,3.45,0,0,1,1.11,1.05,4.76,4.76,0,0,1,.48,1.63,4.28,4.28,0,0,0,.36,1.33,2.83,2.83,0,0,0,.86.78,3.37,3.37,0,0,1,1.12,1.05.41.41,0,0,1-.07.51.42.42,0,0,1-.52.06,4.06,4.06,0,0,0-1.3-.4,4.57,4.57,0,0,1-1.59-.51,3.25,3.25,0,0,1-1-1.15,2.67,2.67,0,0,0-.75-.89,4,4,0,0,0-1.31-.4,6.89,6.89,0,0,1-1.28-.34l.06.27a3.56,3.56,0,0,1,0,1.53,4.79,4.79,0,0,1-.81,1.48,4.46,4.46,0,0,0-.69,1.21,2.72,2.72,0,0,0,.06,1.16,3.4,3.4,0,0,1,0,1.53A.41.41,0,0,1,65,184.62Zm-2.65-9.38a.41.41,0,0,1,.19,0,.43.43,0,0,1,.23.39,2,2,0,0,0,0,.36,4.07,4.07,0,0,0,.64,1.21,4.66,4.66,0,0,1,.77,1.48,3.4,3.4,0,0,1-.1,1.53,2.63,2.63,0,0,0-.1,1.16,2.74,2.74,0,0,0,.43.88,2.46,2.46,0,0,1,0-.89,4.79,4.79,0,0,1,.81-1.48,4.46,4.46,0,0,0,.69-1.21,2.72,2.72,0,0,0-.06-1.16,3.9,3.9,0,0,1-.09-1.33.42.42,0,0,1,.29-.33.43.43,0,0,1,.43.11,1.49,1.49,0,0,0,.28.24,4.07,4.07,0,0,0,1.3.39,4.7,4.7,0,0,1,1.6.52,3.46,3.46,0,0,1,1,1.15,2.65,2.65,0,0,0,.75.89,3,3,0,0,0,.92.32,2.56,2.56,0,0,1-.59-.67,4.55,4.55,0,0,1-.47-1.62,4.55,4.55,0,0,0-.37-1.34,2.76,2.76,0,0,0-.87-.78,3.75,3.75,0,0,1-1-.88.43.43,0,0,1,0-.44.43.43,0,0,1,.39-.22,1.64,1.64,0,0,0,.37,0,4.16,4.16,0,0,0,1.19-.65,5,5,0,0,1,1.49-.76,3.61,3.61,0,0,1,1.53.1,2.83,2.83,0,0,0,1.16.1,2.74,2.74,0,0,0,.88-.43,2.63,2.63,0,0,1-.89-.05,5,5,0,0,1-1.48-.81,4.46,4.46,0,0,0-1.21-.69,2.92,2.92,0,0,0-1.16.06,3.92,3.92,0,0,1-1.33.09.42.42,0,0,1-.22-.72,1.49,1.49,0,0,0,.24-.28,4.05,4.05,0,0,0,.39-1.31,4.79,4.79,0,0,1,.51-1.59,3.48,3.48,0,0,1,1.16-1,2.77,2.77,0,0,0,.89-.75,3.07,3.07,0,0,0,.32-.93,2.57,2.57,0,0,1-.67.6A5,5,0,0,1,71,165a4.28,4.28,0,0,0-1.33.37,2.83,2.83,0,0,0-.78.86,3.47,3.47,0,0,1-.88,1,.41.41,0,0,1-.44,0,.43.43,0,0,1-.22-.39,2.13,2.13,0,0,0,0-.37,4.2,4.2,0,0,0-.65-1.2,4.63,4.63,0,0,1-.76-1.48,3.39,3.39,0,0,1,.1-1.53,2.79,2.79,0,0,0,.1-1.16,2.89,2.89,0,0,0-.43-.89,2.51,2.51,0,0,1-.05.9,5,5,0,0,1-.81,1.48,4,4,0,0,0-.69,1.21,2.57,2.57,0,0,0,.06,1.16,3.86,3.86,0,0,1,.09,1.32.44.44,0,0,1-.29.34.41.41,0,0,1-.43-.12,2.6,2.6,0,0,0-.28-.23,4.21,4.21,0,0,0-1.31-.4,4.57,4.57,0,0,1-1.59-.51,3.25,3.25,0,0,1-1-1.15,2.67,2.67,0,0,0-.75-.89,3.07,3.07,0,0,0-.93-.32,2.42,2.42,0,0,1,.6.67,4.92,4.92,0,0,1,.47,1.62,4,4,0,0,0,.37,1.34,2.72,2.72,0,0,0,.86.78,3.73,3.73,0,0,1,1,.87.39.39,0,0,1,0,.44.45.45,0,0,1-.38.23,3.06,3.06,0,0,0-.37,0,4.15,4.15,0,0,0-1.2.64,4.61,4.61,0,0,1-1.49.77,3.57,3.57,0,0,1-1.52-.1,2.89,2.89,0,0,0-1.17-.11,3.33,3.33,0,0,0-.87.43,2.93,2.93,0,0,1,.89.06,4.79,4.79,0,0,1,1.48.81,4.32,4.32,0,0,0,1.21.69,2.93,2.93,0,0,0,1.16-.06,3.87,3.87,0,0,1,1.32-.09.42.42,0,0,1,.34.29.41.41,0,0,1-.12.43A1.49,1.49,0,0,0,60,173a4,4,0,0,0-.4,1.31,4.71,4.71,0,0,1-.51,1.59A3.35,3.35,0,0,1,58,177a2.67,2.67,0,0,0-.89.75,2.84,2.84,0,0,0-.32.92,2.41,2.41,0,0,1,.67-.59,4.7,4.7,0,0,1,1.62-.48,4.27,4.27,0,0,0,1.34-.36,2.83,2.83,0,0,0,.78-.86,3.77,3.77,0,0,1,.87-1A.44.44,0,0,1,62.3,175.24Z"/><path class="cls-2" d="M65,175.64a4.38,4.38,0,1,1,4.37-4.37A4.38,4.38,0,0,1,65,175.64Zm0-7.9a3.53,3.53,0,1,0,3.53,3.53A3.53,3.53,0,0,0,65,167.74Z"/><path class="cls-2" d="M66.59,148.59a.28.28,0,0,1-.28-.27.28.28,0,0,1,.27-.29,47.79,47.79,0,0,0,9.2-1.2.28.28,0,0,1,.34.21.29.29,0,0,1-.22.34,48,48,0,0,1-9.3,1.21Zm-3.14,0h0a48.24,48.24,0,0,1-9.31-1.21.29.29,0,0,1-.21-.34.28.28,0,0,1,.34-.21,47.89,47.89,0,0,0,9.19,1.2.28.28,0,1,1,0,.56Zm15.43-2a.29.29,0,0,1-.27-.2.28.28,0,0,1,.19-.35,47.14,47.14,0,0,0,8.56-3.56.3.3,0,0,1,.39.12.28.28,0,0,1-.12.38,47.62,47.62,0,0,1-8.67,3.6Zm-27.72,0h-.09a48.12,48.12,0,0,1-8.66-3.6.28.28,0,0,1-.12-.38.3.3,0,0,1,.38-.12A47.41,47.41,0,0,0,51.24,146a.28.28,0,0,1,.19.35A.29.29,0,0,1,51.16,146.57Zm39.06-5.15a.31.31,0,0,1-.24-.13.29.29,0,0,1,.09-.39,47.53,47.53,0,0,0,7.35-5.65.28.28,0,1,1,.39.41,47.4,47.4,0,0,1-7.44,5.71A.3.3,0,0,1,90.22,141.42Zm-50.4,0a.25.25,0,0,1-.15,0,48.34,48.34,0,0,1-7.44-5.71.28.28,0,1,1,.39-.41A47.38,47.38,0,0,0,40,140.9a.29.29,0,0,1,.09.39A.31.31,0,0,1,39.82,141.42Zm60-7.91a.24.24,0,0,1-.19-.08.27.27,0,0,1,0-.39,48.29,48.29,0,0,0,5.64-7.35.27.27,0,0,1,.39-.09.28.28,0,0,1,.09.38,48.34,48.34,0,0,1-5.71,7.44A.29.29,0,0,1,99.84,133.51Zm-69.64,0a.29.29,0,0,1-.21-.09A47.4,47.4,0,0,1,24.28,126a.26.26,0,0,1,.09-.38.27.27,0,0,1,.39.09A47.24,47.24,0,0,0,30.4,133a.28.28,0,0,1,0,.4A.27.27,0,0,1,30.2,133.51Zm76.9-10.12a.31.31,0,0,1-.13,0,.28.28,0,0,1-.12-.38,46.78,46.78,0,0,0,3.55-8.57.29.29,0,0,1,.36-.18.28.28,0,0,1,.18.35,47.07,47.07,0,0,1-3.59,8.66A.27.27,0,0,1,107.1,123.39Zm-84.16,0a.27.27,0,0,1-.25-.15,47.48,47.48,0,0,1-3.59-8.66.27.27,0,0,1,.18-.35.28.28,0,0,1,.36.18A47.49,47.49,0,0,0,23.19,123a.29.29,0,0,1-.12.38A.31.31,0,0,1,22.94,123.39Zm-4.39-11.65a.3.3,0,0,1-.28-.22,48.83,48.83,0,0,1-1.21-9.3.3.3,0,0,1,.28-.3c.15,0,.28.12.29.28a47,47,0,0,0,1.2,9.19.29.29,0,0,1-.22.34Zm92.94,0h-.07a.29.29,0,0,1-.21-.34,47.11,47.11,0,0,0,1.2-9.19c0-.16.13-.31.29-.28a.3.3,0,0,1,.28.3,48.25,48.25,0,0,1-1.22,9.3A.28.28,0,0,1,111.49,111.74Zm1.2-12.4a.28.28,0,0,1-.28-.27,47,47,0,0,0-1.2-9.2.28.28,0,0,1,.55-.12,48,48,0,0,1,1.22,9.3.29.29,0,0,1-.28.29Zm-95.35,0h0a.29.29,0,0,1-.28-.29,48.93,48.93,0,0,1,1.21-9.3.29.29,0,0,1,.56.12,47.21,47.21,0,0,0-1.2,9.2A.29.29,0,0,1,17.34,99.34Zm93.33-12.29a.29.29,0,0,1-.27-.2,47.1,47.1,0,0,0-3.55-8.56.28.28,0,0,1,.12-.38.27.27,0,0,1,.38.11,47.58,47.58,0,0,1,3.59,8.67.28.28,0,0,1-.18.35Zm-91.3,0h-.09a.27.27,0,0,1-.18-.35A47.17,47.17,0,0,1,22.69,78a.27.27,0,0,1,.38-.11.28.28,0,0,1,.12.38,47,47,0,0,0-3.55,8.56A.29.29,0,0,1,19.37,87.05Zm86.15-11.34a.31.31,0,0,1-.24-.13,47.47,47.47,0,0,0-5.64-7.35.28.28,0,0,1,0-.4.28.28,0,0,1,.4,0,47.46,47.46,0,0,1,5.71,7.43.28.28,0,0,1-.09.39A.26.26,0,0,1,105.52,75.71Zm-81,0a.24.24,0,0,1-.15,0,.27.27,0,0,1-.09-.39A47.79,47.79,0,0,1,30,67.85a.28.28,0,0,1,.4,0,.28.28,0,0,1,0,.4,47.8,47.8,0,0,0-5.64,7.35A.31.31,0,0,1,24.52,75.71Zm73.09-9.62a.3.3,0,0,1-.19-.07,47.24,47.24,0,0,0-7.35-5.65.28.28,0,1,1,.3-.48,47.87,47.87,0,0,1,7.44,5.71.28.28,0,0,1,0,.4A.27.27,0,0,1,97.61,66.09Zm-65.19,0a.27.27,0,0,1-.2-.09.28.28,0,0,1,0-.4,47.87,47.87,0,0,1,7.44-5.71.28.28,0,0,1,.3.48A46.78,46.78,0,0,0,32.62,66,.31.31,0,0,1,32.42,66.09ZM87.5,58.83a.35.35,0,0,1-.14,0,47.1,47.1,0,0,0-8.56-3.55.29.29,0,0,1-.19-.35.28.28,0,0,1,.35-.19,48.29,48.29,0,0,1,8.67,3.59.28.28,0,0,1-.13.53Zm-45,0a.29.29,0,0,1-.25-.14.3.3,0,0,1,.12-.39,48.5,48.5,0,0,1,8.66-3.59.28.28,0,0,1,.36.19.29.29,0,0,1-.19.35,47.49,47.49,0,0,0-8.57,3.55A.28.28,0,0,1,42.54,58.83Zm33.3-4.39h-.06a47.21,47.21,0,0,0-9.2-1.2.29.29,0,0,1-.27-.29.26.26,0,0,1,.29-.27,48,48,0,0,1,9.3,1.21.28.28,0,0,1,.22.34A.29.29,0,0,1,75.84,54.44Zm-21.64,0a.28.28,0,0,1-.07-.55,48.24,48.24,0,0,1,9.31-1.21c.13,0,.28.11.29.27a.29.29,0,0,1-.28.29,47,47,0,0,0-9.19,1.2Z"/><path class="cls-2" d="M65,150a.19.19,0,0,1-.19-.18L64,130.32l.15-2.11a.2.2,0,0,1,.2-.17H65.7a.18.18,0,0,1,.2.17l.15,2.09-.84,19.48A.19.19,0,0,1,65,150Zm-.51-21.54-.14,1.91.65,15,.65-15-.14-1.88Q65,128.44,64.51,128.42Zm13.23,19.86a.2.2,0,0,1-.19-.13L71.7,129.58l-.39-2.06a.19.19,0,0,1,.15-.22c.44-.1.89-.22,1.32-.35a.2.2,0,0,1,.24.13L73.7,129l4.21,19a.19.19,0,0,1,0,.1.19.19,0,0,1-.19.19Zm-6-20.65.36,1.86,4.51,14.32-3.26-14.69-.62-1.75ZM52.3,148.28h0a.19.19,0,0,1-.13-.23l4.22-19,.68-2a.2.2,0,0,1,.24-.13c.43.13.88.25,1.32.35a.19.19,0,0,1,.15.22l-.39,2-5.85,18.6A.2.2,0,0,1,52.3,148.28Zm5-20.91-.62,1.78-3.25,14.66L58,129.46l.35-1.83Zm32.27,16a.22.22,0,0,1-.17-.09L79,126.86,78.09,125a.18.18,0,0,1,.08-.25c.4-.22.8-.44,1.2-.68a.2.2,0,0,1,.26,0l1.12,1.65,9,17.24a.17.17,0,0,1,.06.14.2.2,0,0,1-.2.19ZM78.51,125l.79,1.64,8.07,12.66-7-13.34-1-1.47ZM40.45,143.38a.16.16,0,0,1-.09,0,.19.19,0,0,1-.08-.25l9-17.27,1.13-1.66a.18.18,0,0,1,.25-.06c.4.23.8.46,1.21.68A.18.18,0,0,1,52,125l-.87,1.8L40.61,143.29A.2.2,0,0,1,40.45,143.38Zm10.17-18.85-1,1.5-6.94,13.32,8.08-12.7.78-1.61Zm19.76,17a.2.2,0,0,1-.19-.16l-2.32-11.17-.12-2.11a.19.19,0,0,1,.17-.21c.45,0,.91-.1,1.36-.17a.18.18,0,0,1,.21.15l.43,2,.65,11.37a.13.13,0,0,1,0,.06.19.19,0,0,1-.2.2Zm-2.24-13.28.11,1.9L70,138.77l-.5-8.81-.39-1.83Zm-8.48,13.28h0a.2.2,0,0,1-.16-.21l.65-11.39.43-2.07a.19.19,0,0,1,.21-.15c.44.07.9.13,1.36.17a.19.19,0,0,1,.17.21l-.12,2.08-2.32,11.2A.2.2,0,0,1,59.66,141.54Zm1.22-13.41L60.5,130l-.5,8.78,1.79-8.64.11-1.87Zm19.85,10.63a.21.21,0,0,1-.17-.1l-5.13-10.2-.65-2a.19.19,0,0,1,.11-.24c.43-.16.86-.33,1.28-.52a.18.18,0,0,1,.24.09l.92,1.81,3.57,10.82a.2.2,0,0,1,0,.11.18.18,0,0,1-.19.19ZM75.2,126.55l.58,1.77,4,7.85L77,127.79l-.82-1.62ZM49.31,138.76h-.08a.2.2,0,0,1-.11-.24l3.58-10.84.92-1.84a.2.2,0,0,1,.25-.09c.42.19.85.36,1.28.52a.19.19,0,0,1,.11.24l-.64,1.94-5.14,10.22A.22.22,0,0,1,49.31,138.76Zm4.57-12.59-.83,1.65-2.75,8.35,4-7.88.57-1.74Zm45.89,9.4h0a.24.24,0,0,1-.13,0L85.28,122.36l-.45-.52a.2.2,0,0,1,0-.21.22.22,0,0,1,.18-.11h2.26a.16.16,0,0,1,.13.06l12.5,13.63a.2.2,0,0,1-.1.36ZM85.4,121.91l.16.18,11.07,10.15-9.48-10.33ZM30.28,135.57a.2.2,0,0,1-.14-.06.2.2,0,0,1,0-.27l12.52-13.66a.2.2,0,0,1,.14-.06h2.26a.2.2,0,0,1,.17.11.18.18,0,0,1,0,.21l-.44.5L30.41,135.52A.24.24,0,0,1,30.28,135.57Zm12.61-13.66-9.48,10.33L44.5,122.07l.14-.16ZM90,133.4a.2.2,0,0,1-.15-.06l-7.59-8.52-1.09-1.66a.19.19,0,0,1,0-.26c.37-.26.75-.54,1.12-.83a.2.2,0,0,1,.26,0l1.29,1.45,6.25,9.52a.21.21,0,0,1,.07.15.19.19,0,0,1-.2.19Zm-8.41-10.29,1,1.48,5.85,6.56-4.83-7.38-1.16-1.29C82.17,122.7,81.89,122.91,81.61,123.11ZM40,133.4a.15.15,0,0,1-.11,0,.18.18,0,0,1,0-.25l6.26-9.55,1.31-1.47a.2.2,0,0,1,.26,0c.37.29.74.57,1.11.83a.18.18,0,0,1,.05.26l-1.07,1.64-7.61,8.54A.22.22,0,0,1,40,133.4Zm7.57-10.92-1.16,1.31-4.83,7.36,5.88-6.59,1-1.45Q48,122.81,47.59,122.48Zm-15.15,3.34a.19.19,0,0,1-.15-.07.2.2,0,0,1,0-.26l4.39-3.92a.24.24,0,0,1,.13,0h1.58a.18.18,0,0,1,.18.14.17.17,0,0,1-.07.21l-6,3.92A.23.23,0,0,1,32.44,125.82Zm4.46-3.91-2.4,2.14,3.27-2.14Zm60.7,3.91a.2.2,0,0,1-.11,0l-6-3.92a.19.19,0,0,1-.08-.21.2.2,0,0,1,.19-.14h1.58a.18.18,0,0,1,.12,0l4.36,3.89a.19.19,0,0,1,.11.17.18.18,0,0,1-.2.19Zm-5.33-3.91,3.26,2.14-2.4-2.14Zm15.3,3.48-.09,0-6.69-3.49a.18.18,0,0,1-.1-.21.19.19,0,0,1,.19-.15h1.22a.19.19,0,0,1,.1,0l5.44,3.47a.18.18,0,0,1,.13.18.19.19,0,0,1-.19.19Zm-5.91-3.48,2.07,1.07L102,121.91Zm-79.19,3.48a.2.2,0,0,1-.17-.09.19.19,0,0,1,.07-.26l5.47-3.49a.19.19,0,0,1,.1,0h1.22a.18.18,0,0,1,.18.15.18.18,0,0,1-.09.21l-6.69,3.49ZM28,121.91,26.31,123l2.06-1.07Zm75-5.37h-.06L98.22,115a.15.15,0,0,1-.11-.08l-.67-1.15a.2.2,0,0,1,0-.23.21.21,0,0,1,.23,0l5.31,2.68a.19.19,0,0,1,.15.19.2.2,0,0,1-.2.19Zm-4.55-1.9,2.14.71-2.45-1.23Zm-71.33,1.9a.21.21,0,0,1-.18-.12.2.2,0,0,1,.1-.24l5.34-2.7a.2.2,0,0,1,.26.27l-.67,1.15a.15.15,0,0,1-.11.08l-4.68,1.55Zm4.86-2.42-2.46,1.23,2.15-.71Zm80.54-.58h0L95.17,109.7a.18.18,0,0,1-.13-.09l-1.13-2a.18.18,0,0,1,0-.22.21.21,0,0,1,.21-.06l18.38,5.79a.19.19,0,0,1,.17.19.2.2,0,0,1-.19.19Zm-17.15-4.19,12.87,2.85-13.72-4.32Zm-77.77,4.19a.21.21,0,0,1-.19-.14.2.2,0,0,1,.13-.23l18.41-5.8a.19.19,0,0,1,.21.06.2.2,0,0,1,0,.22l-1.13,2a.2.2,0,0,1-.13.09L17.6,113.54Zm18-5.66-13.7,4.32,12.86-2.85Zm70.18-1.69h0l-11.39-.65-1.49-.3a.2.2,0,0,1-.15-.23c.09-.46.16-1,.23-1.44,0-.09.1-.19.2-.16l1.45.08,11.18,2.32a.19.19,0,0,1,.18.19.19.19,0,0,1-.19.2Zm-12.63-1.3,1.27.27,8.79.49-8.64-1.79-1.25-.07C93.22,104.16,93.17,104.53,93.1,104.89Zm-68.79,1.3a.19.19,0,0,1-.19-.17.2.2,0,0,1,.15-.22l11.17-2.32,1.48-.08c.1,0,.19.07.2.16.06.49.14,1,.23,1.44a.2.2,0,0,1-.15.23l-1.46.3-11.42.65Zm12.45-2.4-1.27.07-8.61,1.79,8.81-.5,1.25-.26C36.87,104.53,36.82,104.16,36.76,103.79Zm57.94-2.12h0l-1.4-.11a.18.18,0,0,1-.17-.2c0-.48,0-1,0-1.45a.21.21,0,0,1,.18-.21l1.36-.1,19.47.84a.19.19,0,0,1,.18.19.18.18,0,0,1-.18.19l-19.45.85Zm-1.19-.47,1.19.08,15-.65-15-.65-1.15.09C93.53,100.45,93.53,100.82,93.51,101.2Zm-58.17.47h0l-19.45-.85a.19.19,0,0,1,0-.38l19.45-.84,1.38.1a.19.19,0,0,1,.17.19c0,.5,0,1,0,1.47a.18.18,0,0,1-.18.2l-1.39.11Zm-15-1,15,.65,1.19-.08c0-.38,0-.76,0-1.13L35.32,100Zm16.46-2.77h0l-1.3-.07-11.2-2.33a.18.18,0,0,1-.15-.21.2.2,0,0,1,.2-.17l11.39.65L37,96a.2.2,0,0,1,.15.21c-.07.49-.12,1-.16,1.48A.19.19,0,0,1,36.78,97.86Zm-9.9-2.25,8.64,1.8,1.09,0c0-.37.07-.76.12-1.13l-1.07-.22Zm66.38,2.25a.19.19,0,0,1-.19-.18c0-.49-.1-1-.16-1.48a.19.19,0,0,1,.15-.21l1.24-.25,11.42-.66a.2.2,0,0,1,.2.17.19.19,0,0,1-.15.21L94.59,97.78l-1.32.08Zm.06-1.53c0,.38.08.76.11,1.13l1.11-.06,8.62-1.79-8.81.51Zm-56-2.15h0L36.1,94,17.5,88.1a.2.2,0,0,1-.13-.23.19.19,0,0,1,.23-.14l19,4.22,1.12.39a.18.18,0,0,1,.12.23c-.13.48-.24,1-.35,1.46A.19.19,0,0,1,37.31,94.18ZM21.84,89.06l14.35,4.52,1,.19c.08-.38.17-.75.27-1.13l-.94-.32Zm70.88,5.12a.19.19,0,0,1-.18-.15c-.11-.49-.22-1-.35-1.46a.18.18,0,0,1,.12-.23l1.1-.39,19-4.22a.19.19,0,0,1,.22.14.19.19,0,0,1-.13.23L94,94l-1.2.23Zm-.12-1.54c.1.38.19.75.27,1.13l1-.19,14.33-4.52L93.51,92.32Zm-54.27-2h-.06l-1.05-.35L27,85.09a.2.2,0,0,1-.1-.24.18.18,0,0,1,.24-.11L38,88.31l1,.5a.18.18,0,0,1,.09.24c-.19.46-.38.93-.55,1.41A.19.19,0,0,1,38.33,90.59Zm-8.85-4.68,7.88,4,.85.28.42-1.09-.8-.4Zm62.23,4.68a.19.19,0,0,1-.18-.13c-.17-.47-.36-.95-.55-1.41a.18.18,0,0,1,.09-.24l1-.49,10.87-3.58a.17.17,0,0,1,.23.11.19.19,0,0,1-.09.24L92.85,90.22l-1.08.36Zm-.31-1.52c.15.36.29.72.43,1.09l.87-.29,7.86-4-8.38,2.77Zm-1.18-1.91a.18.18,0,0,1-.17-.11c-.23-.44-.48-.89-.73-1.33a.19.19,0,0,1,.06-.26l.81-.56,17.29-9a.19.19,0,0,1,.19.33L91.25,86.68l-.94.46Zm-.48-1.48c.2.34.39.69.57,1l.75-.36,12.67-8.07-13.34,7ZM39.82,87.16l-.09,0-.92-.44L22.37,76.23A.2.2,0,0,1,22.3,76a.19.19,0,0,1,.26-.07l17.27,9,.83.57a.19.19,0,0,1,.06.26c-.25.43-.5.88-.73,1.33A.21.21,0,0,1,39.82,87.16ZM26.31,78.28,39,86.36l.73.35c.19-.35.37-.69.57-1l-.67-.46Zm62,5.66a.21.21,0,0,1-.16-.08c-.29-.41-.59-.83-.91-1.24a.2.2,0,0,1,0-.26l.69-.61,9.56-6.28a.2.2,0,0,1,.26,0,.19.19,0,0,1,0,.26l-8.51,7.59-.82.54A.17.17,0,0,1,88.29,83.94Zm-.66-1.41.71,1,.63-.42,6.56-5.86-7.37,4.85ZM41.75,83.94a.23.23,0,0,1-.11,0l-.79-.52-8.54-7.61a.2.2,0,0,1,.24-.31l9.54,6.27.7.62a.19.19,0,0,1,0,.26c-.31.4-.62.82-.91,1.24A.21.21,0,0,1,41.75,83.94ZM34.5,77.21l6.59,5.88.61.4c.23-.33.47-.65.71-1L41.86,82ZM85.94,81a.2.2,0,0,1-.14-.06c-.29-.32-.58-.62-.89-.93l-.19-.18a.2.2,0,0,1,0-.26l.55-.65L99.63,65.75a.19.19,0,0,1,.27,0,.19.19,0,0,1,0,.26L86.74,80.37l-.67.59A.22.22,0,0,1,85.94,81Zm-.82-1.32.06.06.78.8.52-.44L96.63,69,85.54,79.19ZM44.1,81A.2.2,0,0,1,44,81l-.66-.57L30.14,66a.19.19,0,0,1,0-.26.19.19,0,0,1,.27,0L44.76,78.91l.57.66a.19.19,0,0,1,0,.26l-.18.18c-.31.31-.6.61-.89.93A.2.2,0,0,1,44.1,81ZM33.41,69,43.58,80.11l.5.44.77-.81.07-.06-.44-.51Zm49.81,9.37a.16.16,0,0,1-.12,0c-.4-.33-.81-.66-1.23-1a.19.19,0,0,1,0-.26l.43-.65,7.61-8.54a.19.19,0,0,1,.26,0,.2.2,0,0,1,.05.26L83.91,77.7l-.55.63A.2.2,0,0,1,83.22,78.39Zm-1-1.21c.32.25.64.5,1,.76l.41-.47,4.82-7.35L82.56,76.7ZM46.82,78.39a.2.2,0,0,1-.14-.06l-.54-.6-6.28-9.57a.2.2,0,0,1,0-.26.19.19,0,0,1,.26,0l7.59,8.52.45.67a.2.2,0,0,1-.05.26c-.41.31-.82.64-1.22,1A.17.17,0,0,1,46.82,78.39ZM41.6,70.12l4.84,7.37.4.45c.31-.26.63-.51.95-.76l-.33-.5Zm38.57,6a.23.23,0,0,1-.11,0c-.43-.28-.89-.55-1.34-.8a.19.19,0,0,1-.08-.25l.32-.66L89.42,58a.18.18,0,0,1,.26-.06.19.19,0,0,1,.08.25l-9,17.27-.43.64A.21.21,0,0,1,80.17,76.16Zm-1.11-1.08c.36.21.71.41,1,.63l.32-.47,6.94-13.32L79.29,74.61ZM49.87,76.16a.21.21,0,0,1-.16-.08l-.42-.62-9-17.29a.19.19,0,0,1,.08-.25.17.17,0,0,1,.25.06L51.07,74.4l.33.68a.19.19,0,0,1-.08.25c-.46.25-.91.52-1.35.8A.17.17,0,0,1,49.87,76.16Zm-7.2-14.24,6.95,13.34.31.45c.34-.22.69-.43,1-.63l-.23-.49ZM53.2,74.35a.22.22,0,0,1-.18-.1l-.31-.63L49.12,62.75a.19.19,0,0,1,.11-.23.2.2,0,0,1,.25.09L54.61,72.8l.22.68a.18.18,0,0,1-.11.24c-.48.19-1,.4-1.44.61A.12.12,0,0,1,53.2,74.35Zm-2.9-9.26,2.76,8.38.23.44c.37-.17.75-.33,1.13-.48L54.26,73Zm26.54,9.26a.12.12,0,0,1-.08,0c-.47-.21-1-.42-1.44-.61a.19.19,0,0,1-.12-.24l.22-.65,5.14-10.22a.2.2,0,0,1,.25-.09.18.18,0,0,1,.1.23L77.34,73.59l-.33.66A.19.19,0,0,1,76.84,74.35Zm-1.22-.92c.38.15.76.31,1.13.48l.23-.46,2.76-8.36-4,7.89Zm-19.11-1.1h0a.18.18,0,0,1-.15-.15l-4.21-19a.18.18,0,0,1,.13-.22.2.2,0,0,1,.24.13l5.35,17a.23.23,0,0,1,0,.16l-1.14,2A.19.19,0,0,1,56.51,72.33ZM53.45,57.46l3.14,14.16.86-1.47ZM73.52,72.33a.19.19,0,0,1-.16-.1l-1.14-2a.18.18,0,0,1,0-.16l5.35-17a.19.19,0,0,1,.23-.13.19.19,0,0,1,.14.22l-4.21,19a.2.2,0,0,1-.16.15Zm-.93-2.18.85,1.47,3.15-14.16ZM60,66.3h0a.19.19,0,0,1-.15-.17l-.35-6.19a.18.18,0,0,1,.16-.2.19.19,0,0,1,.22.15l1,5a.17.17,0,0,1,0,.14l-.68,1.18A.21.21,0,0,1,60,66.3Zm0-3.8.17,3,.33-.57Zm10,3.8a.19.19,0,0,1-.17-.1L69.18,65a.17.17,0,0,1,0-.14l1-5a.18.18,0,0,1,.21-.15.19.19,0,0,1,.17.2l-.35,6.19a.2.2,0,0,1-.15.17Zm-.49-1.41.33.57.17-3Zm-4.8-6.74h0a.18.18,0,0,1-.14-.19l.28-6.46a.19.19,0,0,1,.38,0L65.49,58a.18.18,0,0,1-.14.19.19.19,0,0,1-.22-.09L65,57.86l-.11.19A.19.19,0,0,1,64.74,58.15ZM65,55.94,65,57.29h.12Z"/><polygon class="cls-3" points="47.66 58.72 48.37 59.57 49.29 58.93 48.9 59.98 49.91 60.45 48.81 60.64 48.91 61.75 48.2 60.9 47.29 61.54 47.67 60.49 46.66 60.02 47.76 59.83 47.66 58.72"/><polygon class="cls-3" points="81.12 139.51 81.84 140.37 82.75 139.73 82.37 140.78 83.38 141.24 82.28 141.44 82.38 142.55 81.67 141.69 80.75 142.33 81.14 141.28 80.12 140.82 81.22 140.63 81.12 139.51"/><polygon class="cls-3" points="59.1 55.65 59.57 56.66 60.62 56.28 59.97 57.19 60.83 57.91 59.72 57.81 59.53 58.91 59.06 57.9 58.01 58.28 58.65 57.37 57.8 56.65 58.91 56.75 59.1 55.65"/><polygon class="cls-3" points="70.51 142.36 70.98 143.37 72.03 142.98 71.39 143.9 72.24 144.61 71.13 144.52 70.94 145.61 70.47 144.6 69.42 144.98 70.06 144.07 69.21 143.35 70.32 143.46 70.51 142.36"/><polygon class="cls-3" points="70.94 55.65 71.13 56.75 72.24 56.65 71.39 57.37 72.03 58.28 70.98 57.9 70.51 58.91 70.32 57.81 69.21 57.91 70.06 57.19 69.42 56.28 70.47 56.66 70.94 55.65"/><polygon class="cls-3" points="59.53 142.36 59.72 143.46 60.83 143.35 59.97 144.07 60.62 144.98 59.57 144.6 59.1 145.61 58.91 144.52 57.8 144.61 58.65 143.9 58.01 142.98 59.06 143.37 59.53 142.36"/><polygon class="cls-3" points="82.38 58.72 82.28 59.83 83.38 60.02 82.37 60.49 82.75 61.54 81.84 60.9 81.12 61.75 81.22 60.64 80.12 60.45 81.14 59.98 80.75 58.93 81.67 59.57 82.38 58.72"/><polygon class="cls-3" points="48.91 139.51 48.81 140.63 49.91 140.82 48.9 141.28 49.29 142.33 48.37 141.69 47.66 142.55 47.76 141.44 46.66 141.24 47.67 140.78 47.29 139.73 48.2 140.37 48.91 139.51"/><polygon class="cls-3" points="92.64 64.64 92.26 65.69 93.27 66.16 92.17 66.35 92.27 67.46 91.55 66.6 90.64 67.25 91.02 66.2 90.01 65.73 91.11 65.53 91.01 64.42 91.73 65.28 92.64 64.64"/><polygon class="cls-3" points="39.4 134.02 39.02 135.07 40.03 135.54 38.93 135.73 39.03 136.84 38.31 135.98 37.4 136.63 37.78 135.58 36.77 135.11 37.87 134.92 37.77 133.81 38.49 134.66 39.4 134.02"/><polygon class="cls-3" points="101.01 73.01 100.37 73.93 101.23 74.64 100.12 74.55 99.92 75.64 99.45 74.63 98.41 75.01 99.05 74.1 98.19 73.39 99.3 73.48 99.5 72.39 99.97 73.4 101.01 73.01"/><polygon class="cls-3" points="31.63 126.25 30.99 127.16 31.85 127.88 30.73 127.78 30.54 128.88 30.07 127.87 29.03 128.25 29.67 127.34 28.81 126.62 29.92 126.72 30.11 125.62 30.59 126.63 31.63 126.25"/><polygon class="cls-3" points="106.93 83.27 106.08 83.99 106.72 84.9 105.67 84.52 105.2 85.53 105.01 84.43 103.9 84.53 104.75 83.81 104.11 82.9 105.16 83.28 105.63 82.27 105.82 83.37 106.93 83.27"/><polygon class="cls-3" points="26.14 116.74 25.29 117.45 25.92 118.36 24.88 117.98 24.41 119 24.21 117.9 23.1 117.99 23.96 117.28 23.32 116.37 24.36 116.75 24.84 115.74 25.03 116.84 26.14 116.74"/><polygon class="cls-3" points="110 94.71 108.99 95.18 109.37 96.23 108.46 95.59 107.74 96.44 107.84 95.33 106.74 95.14 107.75 94.67 107.37 93.62 108.28 94.26 109 93.41 108.9 94.52 110 94.71"/><polygon class="cls-3" points="23.3 106.13 22.28 106.6 22.66 107.64 21.75 107 21.04 107.86 21.14 106.75 20.04 106.56 21.05 106.08 20.67 105.04 21.58 105.68 22.3 104.82 22.2 105.93 23.3 106.13"/><polygon class="cls-3" points="110 106.56 108.9 106.75 109 107.86 108.28 107 107.37 107.64 107.75 106.6 106.74 106.13 107.84 105.93 107.74 104.82 108.46 105.68 109.37 105.04 108.99 106.08 110 106.56"/><polygon class="cls-3" points="23.3 95.14 22.2 95.33 22.3 96.44 21.58 95.59 20.67 96.23 21.05 95.18 20.04 94.71 21.14 94.52 21.04 93.41 21.75 94.26 22.66 93.62 22.28 94.67 23.3 95.14"/><polygon class="cls-3" points="106.93 117.99 105.83 117.9 105.63 119 105.16 117.98 104.11 118.36 104.75 117.45 103.9 116.74 105.01 116.84 105.2 115.74 105.67 116.75 106.72 116.36 106.08 117.28 106.93 117.99"/><polygon class="cls-3" points="26.14 84.53 25.03 84.43 24.84 85.53 24.36 84.52 23.32 84.9 23.96 83.99 23.1 83.27 24.21 83.37 24.41 82.27 24.88 83.28 25.92 82.9 25.29 83.81 26.14 84.53"/><polygon class="cls-3" points="101.01 128.25 99.97 127.87 99.5 128.88 99.3 127.78 98.19 127.88 99.05 127.16 98.41 126.25 99.45 126.63 99.92 125.62 100.12 126.72 101.23 126.62 100.37 127.34 101.01 128.25"/><polygon class="cls-3" points="31.63 75.01 30.59 74.63 30.11 75.64 29.92 74.55 28.81 74.64 29.67 73.93 29.03 73.01 30.07 73.4 30.54 72.39 30.73 73.48 31.85 73.39 30.99 74.1 31.63 75.01"/><polygon class="cls-3" points="92.64 136.63 91.73 135.98 91.01 136.84 91.11 135.73 90.01 135.54 91.02 135.07 90.64 134.02 91.55 134.66 92.27 133.81 92.17 134.92 93.27 135.11 92.26 135.58 92.64 136.63"/><polygon class="cls-3" points="39.4 67.25 38.49 66.6 37.77 67.46 37.87 66.35 36.77 66.16 37.78 65.69 37.4 64.64 38.31 65.28 39.03 64.42 38.93 65.53 40.03 65.73 39.02 66.2 39.4 67.25"/><path class="cls-2" d="M65,128.46a28.6,28.6,0,0,1-18.16-6.52H27.75a.21.21,0,0,1-.19-.11.24.24,0,0,1,0-.23L37,105.35a28.59,28.59,0,0,1,7.84-25.63,28.73,28.73,0,0,1,11-6.85l9-15.51a.23.23,0,0,1,.39,0l9,15.51a28.73,28.73,0,0,1,11,6.85,28.59,28.59,0,0,1,7.84,25.63l9.43,16.25a.24.24,0,0,1,0,.23.21.21,0,0,1-.19.11H83.18A28.62,28.62,0,0,1,65,128.46Zm-36.88-7h18.8a.24.24,0,0,1,.14.05,28.09,28.09,0,0,0,35.87,0,.25.25,0,0,1,.15-.05h18.79l-9.27-16a.22.22,0,0,1,0-.16A28.12,28.12,0,0,0,74,73.27a.29.29,0,0,1-.12-.1L65,57.93,56.18,73.17a.22.22,0,0,1-.13.1A28.25,28.25,0,0,0,45.15,80a27.9,27.9,0,0,0-8.23,19.87,28.23,28.23,0,0,0,.53,5.43.22.22,0,0,1,0,.16Z"/><path class="cls-3" d="M32.3,117.27,53.62,80.53c.22-.14.45-.26.68-.39l-2.64,5.39,3.64-5.9.63-.29-3.3,6.72,4.44-7.19.39-.14L53.6,86.6l5.11-8.28.48-.13C51,92.24,44.59,103.36,37,116.36h6.43l.26.33-7.57.37,8.2.4.26.3-8.46.41,9.25.45.19.2-9.44.46,10.43.51.24.22H30.71l1.59-2.74ZM57.49,73.86l.39-.11,5.61-9.08-4.3,8.76.22-.05,5-8.18-3.9,8,.32,0,4.55-7.38L61.88,73l.35,0L65,68.14l21.75,37.48,0-.19L82.13,96l5,8,.06-.31L83.1,95.42l4.27,6.88c0-.21,0-.41.06-.62l-3.37-6.8,3.44,5.51v-.77l-20.9-36L65,60.87l-1.58,2.72L57.49,73.86Zm33.88,32.43-.07.26,4.51,9.18-4.87-7.87-.09.29,4,8.12-4.36-7c0,.13-.09.26-.14.4l3.53,7.19-3.9-6.3-.16.37L93,116.36H49.69l.22.2,10.3.5-9.18.45.29.23,8.89.43-7.76.38c.19.13.38.26.58.38l7.18.35-6.09.3.82.43H99.33l-1.59-2.74Z"/><path class="cls-3" d="M65,73.29c.84,0,1.67,0,2.49.11l.28.47c-.91-.09-1.83-.14-2.77-.14a26.19,26.19,0,0,0-25.8,30.64l-.34.6A26.68,26.68,0,0,1,46.2,81.08a26.66,26.66,0,0,1,11.41-6.75h.22l.18,0h.18l.14,0h.14l.07,0h.08l.1,0H59l.13,0h.19l.11,0h0l.15,0h0l.07,0h.26l.16,0h.09l.19,0h.25l.08,0H61l.22,0h.07a26.53,26.53,0,0,1,3.7-.25Zm3.15,1.24A25.14,25.14,0,0,0,65,74.34a25.56,25.56,0,0,0-25.31,29.2l.37-.66a26.47,26.47,0,0,1-.17-3A25.11,25.11,0,0,1,65,74.8a26,26,0,0,1,3.44.23l-.29-.5Zm.68,1.18a24.51,24.51,0,0,0-28.33,24.2c0,.7,0,1.39.09,2.08l.43-.75c0-.44,0-.88,0-1.33a24,24,0,0,1,24-24,24.52,24.52,0,0,1,4.14.35l-.31-.53Zm.72,1.23a23.44,23.44,0,0,0-28,23v.34l.44-.76a22.85,22.85,0,0,1,6.73-15.82,23.09,23.09,0,0,1,4.48-3.5h0l.07,0h0l.15-.08h0l0,0h0q.59-.33,1.17-.63c.47-.23,1-.46,1.45-.66s.93-.37,1.4-.53h0l.27-.08h0l.49-.16h.18l.11,0h0l.09,0H59l.1,0,1.08-.29,0,0A23.37,23.37,0,0,1,65,76.94a22.71,22.71,0,0,1,4.84.51l-.29-.51Zm-11.16,1-.49.16.49-.16Zm15.23-3.19A26.67,26.67,0,0,1,91,105.87c-.18.73-.35,1.35-.53,2l0,.08c-.16.53-.34,1-.54,1.55s-.35.87-.57,1.38a26.45,26.45,0,0,1-3,5h-.55A26.19,26.19,0,0,0,74,75.31l-.35-.6ZM85,115.87A25.57,25.57,0,0,0,74.47,76.15l.38.65a25.11,25.11,0,0,1,9.55,39.07Zm-1.39,0A24.53,24.53,0,0,0,75.38,77.7l.43.75A24,24,0,0,1,83,115.87Zm-1.46,0a23.4,23.4,0,0,0-5.75-36.42l.45.76A23,23,0,0,1,88,99.91a20.25,20.25,0,0,1-.27,3.48h0v.07h0a21.32,21.32,0,0,1-.58,2.66c-.06.25-.12.5-.19.76l0,0a23,23,0,0,1-5.39,9Zm-.25,4.63h-.71a26.16,26.16,0,0,1-34.67-2.08,26.42,26.42,0,0,1-5.47-8l-.27.47a26.66,26.66,0,0,0,5,7.36h0l0,0h0l0,0h0l.12.12h0l0,0h0l0,0,0,0,0,0,.15.15a26.61,26.61,0,0,0,35.69,1.77ZM41.43,109.77A25.57,25.57,0,0,0,80.18,120.5h-.79a25.13,25.13,0,0,1-37.67-11.23l-.29.5Zm.68-1.17A24.51,24.51,0,0,0,78.3,120.5h-.91a24,24,0,0,1-35-12.44l-.31.54Zm.72-1.24A23.41,23.41,0,0,0,76.16,120.5h-1a23,23,0,0,1-20.38,0h0l-.09,0h0c-.41-.21-.82-.43-1.21-.66l0,0h0l-.13-.08-.07,0-.05,0,0,0,0,0h0l0,0h0c-.39-.23-.77-.48-1.14-.74s-.57-.41-.85-.62l0,0-.2-.15h0l-.34-.28-.14-.11,0,0h0l-.06,0-.11-.1-.06,0,0,0h0l-.06-.06h0l0,0,0,0,0,0-.06,0-.12-.11,0,0-.22-.2,0,0,0,0h0l-.9-.84h0a23,23,0,0,1-5.39-9l-.29.51ZM50.5,117.7l.34.28Z"/><path class="cls-2" d="M66.42,110.93h0c-.48,0-1,0-1.49-.06-6.31-.43-9.31-2.67-12.79-5.27a47.14,47.14,0,0,0-5-3.38.33.33,0,0,1-.17-.29.34.34,0,0,1,.17-.29c.78-.44,1.53-.89,2.28-1.32C54.14,97.58,58.56,95,65.15,95c7.7,0,13.46,3.56,17.61,6.67a.34.34,0,0,1,.08.46A19.94,19.94,0,0,1,66.42,110.93Zm-18.38-9a51,51,0,0,1,4.51,3.11c3.39,2.54,6.31,4.73,12.43,5.15.49,0,1,0,1.44,0A19.22,19.22,0,0,0,82.09,102c-4-3-9.6-6.35-16.94-6.35-6.41,0-10.55,2.43-15.34,5.24Z"/><path class="cls-2" d="M65.68,109.52a9.33,9.33,0,0,1-8.61-12.87l.36.15a8.82,8.82,0,0,0-.68,3.4,8.93,8.93,0,1,0,17.33-3l.36-.13A9.19,9.19,0,0,1,75,100.2,9.33,9.33,0,0,1,65.68,109.52Z"/><path class="cls-2" d="M65.68,108.27a8.07,8.07,0,0,1-7-12.07l.12.07a7.93,7.93,0,1,0,14.81,3.93,7.85,7.85,0,0,0-.86-3.59l.12-.07a8.07,8.07,0,0,1-7.19,11.73Z"/><path class="cls-3" d="M65.68,97.15a3.06,3.06,0,1,1-3.05,3A3.06,3.06,0,0,1,65.68,97.15Z"/><path class="cls-2" d="M65.68,107.71a0,0,0,0,1,0,0v-3.74a0,0,0,0,1,0-.05,0,0,0,0,1,0,.05v3.74A0,0,0,0,1,65.68,107.71Zm0-11.18a0,0,0,0,1,0,0V95.33a0,0,0,0,1,0,0,0,0,0,0,1,0,0v1.15A0,0,0,0,1,65.68,96.53Z"/><path class="cls-2" d="M67.61,107.46s0,0,0,0l-1-3.61a.05.05,0,0,1,0,0s0,0,0,0l1,3.61s0,0,0,0ZM64.72,96.65s0,0,0,0l-.34-1.27a0,0,0,0,1,0-.06s0,0,0,0l.34,1.28s0,0,0,.05Z"/><path class="cls-2" d="M69.41,106.71l0,0-1.86-3.24a0,0,0,0,1,0-.06s0,0,.06,0l1.87,3.23s0,0,0,.06ZM63.82,97s0,0,0,0l-.89-1.55a0,0,0,0,1,.07,0l.9,1.56a0,0,0,0,1,0,.06Z"/><path class="cls-2" d="M71,105.53l0,0-2.65-2.64a.06.06,0,0,1,0-.06,0,0,0,0,1,.07,0L71,105.45a0,0,0,0,1,0,.06Zm-7.91-7.91h0L61.11,95.7a.09.09,0,0,1,0-.07h.07l1.9,1.91a0,0,0,0,1,0,.07Z"/><path class="cls-2" d="M72.89,102.18h0l-3.61-1s0,0,0,0a0,0,0,0,1,.06,0l3.61,1a0,0,0,0,1,0,.06S72.91,102.18,72.89,102.18ZM62.08,99.29h0l-3.6-1a0,0,0,0,1,0-.06,0,0,0,0,1,.05,0l3.61,1s0,0,0,0A.07.07,0,0,1,62.08,99.29Z"/><path class="cls-2" d="M72.14,104h0l-3.24-1.86a.06.06,0,0,1,0-.07s0,0,.06,0l3.24,1.87s0,0,0,.06A.05.05,0,0,1,72.14,104Zm-9.68-5.6h0L59.2,96.52a0,0,0,0,1,0-.07s0,0,.06,0l3.23,1.86a0,0,0,0,1,0,.07Z"/><path class="cls-2" d="M73.14,100.25H69.41a0,0,0,0,1,0,0,0,0,0,0,1,0,0h3.73a0,0,0,0,1,0,0A0,0,0,0,1,73.14,100.25Zm-11.18,0H58.22a0,0,0,0,1,0,0,0,0,0,0,1,0,0H62s0,0,0,0A.05.05,0,0,1,62,100.25Z"/><path class="cls-2" d="M58.48,102.18s0,0,0,0a0,0,0,0,1,0-.06l3.61-1s0,0,.05,0a0,0,0,0,1,0,0l-3.61,1Zm10.8-2.89a0,0,0,0,1,0,0,0,0,0,0,1,0,0l3.61-1s.05,0,.05,0a0,0,0,0,1,0,.06l-3.61,1Z"/><path class="cls-2" d="M59.22,104s0,0,0,0a0,0,0,0,1,0-.06L62.44,102s.05,0,.06,0a.06.06,0,0,1,0,.07L59.25,104Zm9.69-5.59,0,0a.06.06,0,0,1,0-.07l3.23-1.86a0,0,0,0,1,.06,0,.06.06,0,0,1,0,.07l-3.24,1.86Z"/><path class="cls-2" d="M60.41,105.53l0,0a0,0,0,0,1,0-.06L63,102.81s0,0,.06,0,0,0,0,.06l-2.64,2.64Zm7.91-7.91h0a.09.09,0,0,1,0-.07L70,95.8s0,0,.06,0a0,0,0,0,1,0,.06l-1.74,1.75Z"/><path class="cls-2" d="M63.75,107.46h0a0,0,0,0,1,0,0l1-3.61s0,0,0,0,0,0,0,0l-1,3.61A.07.07,0,0,1,63.75,107.46Zm2.9-10.81h0a.05.05,0,0,1,0-.05l.33-1.22s0,0,0,0a.05.05,0,0,1,0,.05l-.33,1.22S66.67,96.65,66.65,96.65Z"/><path class="cls-2" d="M62,106.71h0a0,0,0,0,1,0-.06l1.87-3.23a0,0,0,0,1,.07,0s0,0,0,.06L62,106.69ZM67.55,97h0s0,0,0-.06l.83-1.44a0,0,0,0,1,.06,0s0,0,0,.06L67.58,97S67.56,97,67.55,97Z"/><path class="cls-2" d="M68.3,106.56l0,0-1.19-2.88s0,0,0-.06,0,0,.06,0l1.19,2.87a0,0,0,0,1,0,.06Zm-4-9.75s0,0,0,0l-.58-1.39a0,0,0,0,1,.08,0l.58,1.4s0,0,0,0Z"/><path class="cls-2" d="M69.84,105.67s0,0,0,0l-1.9-2.46a.05.05,0,1,1,.08-.06l1.89,2.47s0,.05,0,.06Zm-6.42-8.38h0l-1.33-1.73s0,0,0-.06a0,0,0,0,1,.07,0l1.32,1.73a0,0,0,0,1,0,.07Z"/><path class="cls-2" d="M71.1,104.41h0l-2.46-1.89a0,0,0,0,1,0-.07s0,0,.06,0l2.47,1.89s0,0,0,.06A.05.05,0,0,1,71.1,104.41ZM62.73,98h0l-2.46-1.89s0,0,0-.06,0,0,.06,0l2.47,1.89a0,0,0,0,1,0,.07S62.74,98,62.73,98Z"/><path class="cls-2" d="M72,102.87s0,0,0,0l-2.87-1.19a0,0,0,0,1,0-.06,0,0,0,0,1,.06,0L72,102.78a0,0,0,0,1,0,.06A.05.05,0,0,1,72,102.87Zm-9.76-4.05h0l-2.87-1.19a0,0,0,0,1,0-.06,0,0,0,0,1,.06,0l2.87,1.19a0,0,0,0,1,0,.06S62.26,98.82,62.24,98.82Z"/><path class="cls-2" d="M58.91,101.14a.05.05,0,0,1,0,0s0,0,0,0l3.08-.4h0a0,0,0,0,1,0,0s0,0,0,0l-3.08.4Zm10.47-1.37a0,0,0,0,1,0,0,0,0,0,0,1,0,0l3.08-.41h0a0,0,0,0,1,0,0s0,0,0,0l-3.08.41Z"/><path class="cls-2" d="M72.46,101.14h0l-3.08-.4a.05.05,0,0,1,0,0,0,0,0,0,1,0,0h0l3.08.4s0,0,0,0A0,0,0,0,1,72.46,101.14ZM62,99.76h0l-3.08-.4s0,0,0,0,0,0,.06,0l3.08.41s0,0,0,0A0,0,0,0,1,62,99.76Z"/><path class="cls-2" d="M59.37,102.87s0,0,0,0a0,0,0,0,1,0-.06l2.88-1.19s.05,0,.05,0a0,0,0,0,1,0,.06l-2.87,1.19Zm9.76-4.05s0,0,0,0a0,0,0,0,1,0-.06L72,97.55a0,0,0,0,1,.06,0,0,0,0,0,1,0,.06l-2.87,1.19Z"/><path class="cls-2" d="M60.26,104.41l0,0s0,0,0-.06l2.46-1.89a0,0,0,0,1,.07,0,.06.06,0,0,1,0,.07l-2.47,1.89ZM68.64,98h0a.06.06,0,0,1,0-.07L71.05,96a.06.06,0,0,1,.07,0,0,0,0,0,1,0,.06L68.67,98Z"/><path class="cls-2" d="M61.53,105.67h0a0,0,0,0,1,0-.06l1.89-2.47a.06.06,0,0,1,.07,0,0,0,0,0,1,0,.07l-1.89,2.46ZM68,97.29h0a0,0,0,0,1,0-.07l1.21-1.59a0,0,0,0,1,.07,0s0,0,0,.06L68,97.28Z"/><path class="cls-2" d="M63.07,106.56h0a0,0,0,0,1,0-.06l1.19-2.87a0,0,0,0,1,.06,0s0,0,0,.06l-1.19,2.87S63.09,106.56,63.07,106.56Zm4-9.75h0s0,0,0,0l.54-1.31a0,0,0,0,1,.06,0,0,0,0,0,1,0,.06l-.54,1.31S67.13,96.81,67.11,96.81Z"/><path class="cls-2" d="M66.57,107a0,0,0,0,1,0,0l-.41-3.09a.07.07,0,0,1,0-.05h0a0,0,0,0,1,0,0l.41,3.08a.07.07,0,0,1,0,.06ZM65.2,96.56s0,0,0,0L65,95.33s0,0,0,0h0a.07.07,0,0,1,0,0l.15,1.18s0,0,0,.06Z"/><path class="cls-2" d="M64.79,107h0s-.05,0,0-.06l.4-3.08s0,0,0,0h0s0,0,0,.05l-.4,3.09A.07.07,0,0,1,64.79,107Zm1.38-10.47h0a.07.07,0,0,1,0,0l.16-1.16a0,0,0,0,1,0,0h0a0,0,0,0,1,0,0l-.16,1.16A0,0,0,0,1,66.17,96.56Z"/><path class="cls-2" d="M65,93.11h0a.32.32,0,0,1-.25-.14L63,89.85h-3.6a.29.29,0,0,1-.24-.43l1.8-3.12-1.8-3.12a.28.28,0,0,1,0-.28.27.27,0,0,1,.24-.14H63l1.8-3.12a.29.29,0,0,1,.49,0l1.8,3.12h3.61a.27.27,0,0,1,.24.14.28.28,0,0,1,0,.28l-1.8,3.12,1.76,3.06a.25.25,0,0,1,.09.2.28.28,0,0,1-.28.29H67.06L65.26,93A.29.29,0,0,1,65,93.11Zm-1.39-3.26L65,92.26l1.39-2.41Zm3.76-.57h2.79l-1.39-2.41Zm-4.09,0h3.44l1.72-3-1.72-3H63.3l-1.72,3Zm-3.44,0h2.79l-1.4-2.41Zm0-6,1.39,2.42,1.4-2.42Zm7.53,0,1.4,2.42,1.39-2.42Zm-3.76-.56h2.78L65,80.35Z"/><path class="cls-2" d="M59.55,115.08a.16.16,0,0,1-.1,0,.28.28,0,0,1-.17-.36l1.07-2.9a.29.29,0,0,1,.37-.17.28.28,0,0,1,.16.36l-1.07,2.91A.28.28,0,0,1,59.55,115.08Zm10.82,0a.27.27,0,0,1-.26-.18l-.89-2.4a.28.28,0,0,1,.53-.19l.88,2.39a.27.27,0,0,1-.16.36A.18.18,0,0,1,70.37,115.08Zm2.7,0a.27.27,0,0,1-.25-.16l-1.39-2.87a.27.27,0,0,1,.13-.37.28.28,0,0,1,.38.13l1.39,2.87a.27.27,0,0,1-.13.37A.28.28,0,0,1,73.07,115.08Zm-16.23,0a.31.31,0,0,1-.13,0,.28.28,0,0,1-.13-.37l1.74-3.59a.28.28,0,0,1,.51.25l-1.74,3.58A.27.27,0,0,1,56.84,115.08Zm10.82,0a.28.28,0,0,1-.27-.22l-.47-2.17a.28.28,0,0,1,.21-.34.29.29,0,0,1,.34.22l.47,2.17a.28.28,0,0,1-.22.33Zm-5.41,0h-.06a.27.27,0,0,1-.21-.33l.52-2.45a.29.29,0,0,1,.56.12l-.53,2.45A.29.29,0,0,1,62.25,115.08Zm-8.12,0a.25.25,0,0,1-.14,0,.28.28,0,0,1-.1-.38l2.57-4.47a.27.27,0,0,1,.38-.11.28.28,0,0,1,.11.39l-2.57,4.47A.3.3,0,0,1,54.13,115.08Zm21.65,0a.28.28,0,0,1-.24-.14l-2.06-3.57a.29.29,0,0,1,.11-.39.28.28,0,0,1,.38.1L76,114.66a.28.28,0,0,1-.11.38A.23.23,0,0,1,75.78,115.08Zm2.71,0a.28.28,0,0,1-.24-.13l-2.89-4.47a.28.28,0,1,1,.48-.3l2.88,4.46a.29.29,0,0,1-.08.4A.28.28,0,0,1,78.49,115.08Zm-27.06,0a.29.29,0,0,1-.16,0,.29.29,0,0,1-.08-.4l3.56-5.51a.29.29,0,0,1,.39-.09.3.3,0,0,1,.09.4L51.66,115A.26.26,0,0,1,51.43,115.08Zm29.76,0A.28.28,0,0,1,81,115l-3.88-5.52a.28.28,0,0,1,.06-.39.29.29,0,0,1,.4.07l3.88,5.52a.28.28,0,0,1-.06.39A.34.34,0,0,1,81.19,115.08Zm-32.47,0a.3.3,0,0,1-.16,0,.28.28,0,0,1-.07-.39l4.42-6.29a.3.3,0,0,1,.4-.06.27.27,0,0,1,.06.39L49,115A.27.27,0,0,1,48.72,115.08Zm16.24,0a.29.29,0,0,1-.29-.28v-2.21a.29.29,0,0,1,.57,0v2.21A.29.29,0,0,1,65,115.08Z"/><path class="cls-3" d="M74.27,94.6a1.82,1.82,0,1,0-1.81-1.81,2.28,2.28,0,0,0,0,.26A1.32,1.32,0,1,1,74,94.58Z"/><path class="cls-3" d="M55.77,94.6a1.82,1.82,0,1,1,1.81-1.81,2.28,2.28,0,0,1,0,.26A1.32,1.32,0,1,0,56,94.58Z"/></g></g></svg>