<svg xmlns="http://www.w3.org/2000/svg" viewBox="0 0 130.04 201.27"><defs><style>.cls-1{fill:#88468d;}.cls-2,.cls-3{fill:#eac47e;}.cls-3{fill-rule:evenodd;}</style></defs><g id="Layer_2" data-name="Layer 2"><g id="Layer_1-2" data-name="Layer 1"><rect class="cls-1" width="130.04" height="201.27" rx="6.38"/><path class="cls-2" d="M119.65,195.38H10.38a4.5,4.5,0,0,1-4.49-4.5V10.38a4.5,4.5,0,0,1,4.49-4.49H119.65a4.5,4.5,0,0,1,4.49,4.49v180.5A4.5,4.5,0,0,1,119.65,195.38ZM10.38,6.73a3.66,3.66,0,0,0-3.65,3.65v180.5a3.65,3.65,0,0,0,3.65,3.65H119.65a3.64,3.64,0,0,0,3.65-3.65V10.38a3.65,3.65,0,0,0-3.65-3.65Z"/><path class="cls-2" d="M109.92,10.7H20.12a.43.43,0,0,1,0-.85h89.8a.43.43,0,0,1,0,.85Z"/><rect class="cls-2" x="20.12" y="190.32" width="89.79" height="0.84"/><path class="cls-2" d="M10.37,180.38A.42.42,0,0,1,10,180V21.31a.42.42,0,0,1,.42-.43.42.42,0,0,1,.42.43V180A.42.42,0,0,1,10.37,180.38Z"/><path class="cls-2" d="M119.82,180.38a.42.42,0,0,1-.43-.42V21.31a.43.43,0,1,1,.85,0V180A.42.42,0,0,1,119.82,180.38Z"/><path class="cls-2" d="M11.05,13.21A2.25,2.25,0,1,1,13.3,11,2.25,2.25,0,0,1,11.05,13.21Zm0-4.24a2,2,0,1,0,2,2A2,2,0,0,0,11.05,9Z"/><path class="cls-3" d="M10.45,11A1.36,1.36,0,0,1,11.81,9.6h0A1.53,1.53,0,0,0,11,9.37a1.6,1.6,0,0,0,0,3.19,1.62,1.62,0,0,0,.81-.23h0A1.36,1.36,0,0,1,10.45,11Z"/><polygon class="cls-3" points="10.49 13.82 10.84 14.41 11.5 14.24 11.33 14.9 11.92 15.25 11.33 15.6 11.5 16.27 10.84 16.1 10.49 16.68 10.14 16.1 9.47 16.27 9.64 15.6 9.05 15.25 9.64 14.9 9.47 14.24 10.14 14.41 10.49 13.82"/><polygon class="cls-3" points="13.86 10.4 14.45 10.05 14.28 9.39 14.94 9.56 15.29 8.97 15.64 9.56 16.3 9.39 16.14 10.05 16.72 10.4 16.14 10.75 16.3 11.41 15.64 11.24 15.29 11.83 14.94 11.24 14.28 11.41 14.45 10.75 13.86 10.4"/><polygon class="cls-3" points="10.49 17.36 10.72 17.75 11.15 17.63 11.04 18.07 11.43 18.3 11.04 18.53 11.15 18.97 10.72 18.86 10.49 19.25 10.26 18.86 9.82 18.97 9.93 18.53 9.54 18.3 9.93 18.07 9.82 17.63 10.26 17.75 10.49 17.36"/><polygon class="cls-3" points="17.4 10.4 17.78 10.17 17.67 9.73 18.11 9.84 18.34 9.46 18.57 9.84 19.01 9.73 18.9 10.17 19.29 10.4 18.9 10.63 19.01 11.07 18.57 10.96 18.34 11.35 18.11 10.96 17.67 11.07 17.78 10.63 17.4 10.4"/><path class="cls-3" d="M12.58,14.09a.27.27,0,0,1,.23.29.26.26,0,0,1-.29.23.27.27,0,0,1-.23-.29A.27.27,0,0,1,12.58,14.09Z"/><path class="cls-3" d="M14.5,12a.25.25,0,0,1,.23.29.26.26,0,1,1-.51-.06A.25.25,0,0,1,14.5,12Z"/><path class="cls-3" d="M13.85,12.92a.55.55,0,1,1-.61.49A.55.55,0,0,1,13.85,12.92Z"/><path class="cls-2" d="M11.05,192.3a2.25,2.25,0,1,1,2.25-2.25A2.25,2.25,0,0,1,11.05,192.3Zm0-4.25a2,2,0,1,0,2,2A2,2,0,0,0,11.05,188.05Z"/><path class="cls-3" d="M10.45,190.05a1.36,1.36,0,0,0,1.36,1.37h0a1.61,1.61,0,0,1-.81.22,1.59,1.59,0,1,1,0-3.18,1.61,1.61,0,0,1,.81.22h0A1.37,1.37,0,0,0,10.45,190.05Z"/><polygon class="cls-3" points="10.49 187.19 10.84 186.61 11.5 186.78 11.33 186.11 11.92 185.76 11.33 185.41 11.5 184.75 10.84 184.92 10.49 184.33 10.14 184.92 9.47 184.75 9.64 185.41 9.05 185.76 9.64 186.11 9.47 186.78 10.14 186.61 10.49 187.19"/><polygon class="cls-3" points="13.86 190.62 14.45 190.97 14.28 191.63 14.94 191.46 15.29 192.05 15.64 191.46 16.3 191.63 16.14 190.97 16.72 190.62 16.14 190.27 16.3 189.6 15.64 189.77 15.29 189.18 14.94 189.77 14.28 189.6 14.45 190.27 13.86 190.62"/><polygon class="cls-3" points="10.49 183.66 10.72 183.27 11.15 183.38 11.04 182.94 11.43 182.71 11.04 182.48 11.15 182.04 10.72 182.16 10.49 181.77 10.26 182.16 9.82 182.04 9.93 182.48 9.54 182.71 9.93 182.94 9.82 183.38 10.26 183.27 10.49 183.66"/><polygon class="cls-3" points="17.4 190.62 17.78 190.85 17.67 191.28 18.11 191.17 18.34 191.56 18.57 191.17 19.01 191.28 18.9 190.85 19.29 190.62 18.9 190.38 19.01 189.95 18.57 190.06 18.34 189.67 18.11 190.06 17.67 189.95 17.78 190.38 17.4 190.62"/><path class="cls-3" d="M12.58,186.92a.25.25,0,0,0,.23-.28.25.25,0,0,0-.29-.23.26.26,0,1,0,.06.51Z"/><path class="cls-3" d="M14.5,189.05a.26.26,0,0,0,.23-.29.26.26,0,1,0-.51.06A.26.26,0,0,0,14.5,189.05Z"/><path class="cls-3" d="M13.85,188.1a.55.55,0,0,0-.13-1.1.55.55,0,0,0,.13,1.1Z"/><path class="cls-2" d="M119,13.34a2.25,2.25,0,1,1,2.25-2.25A2.25,2.25,0,0,1,119,13.34Zm0-4.25a2,2,0,1,0,2,2A2,2,0,0,0,119,9.09Z"/><path class="cls-3" d="M119.59,11.09a1.37,1.37,0,0,0-1.37-1.37h0A1.56,1.56,0,0,1,119,9.5a1.59,1.59,0,0,1,0,3.18,1.56,1.56,0,0,1-.81-.22h0A1.37,1.37,0,0,0,119.59,11.09Z"/><polygon class="cls-3" points="119.55 13.95 119.2 14.54 118.54 14.37 118.7 15.03 118.12 15.38 118.7 15.73 118.54 16.39 119.2 16.22 119.55 16.81 119.9 16.22 120.56 16.39 120.39 15.73 120.98 15.38 120.39 15.03 120.56 14.37 119.9 14.54 119.55 13.95"/><polygon class="cls-3" points="116.18 10.53 115.59 10.18 115.76 9.51 115.09 9.68 114.74 9.1 114.4 9.68 113.73 9.51 113.9 10.18 113.31 10.53 113.9 10.88 113.73 11.54 114.4 11.37 114.74 11.96 115.09 11.37 115.76 11.54 115.59 10.88 116.18 10.53"/><polygon class="cls-3" points="119.55 17.48 119.32 17.87 118.88 17.76 118.99 18.2 118.6 18.43 118.99 18.66 118.88 19.1 119.32 18.99 119.55 19.37 119.78 18.99 120.22 19.1 120.11 18.66 120.49 18.43 120.11 18.2 120.22 17.76 119.78 17.87 119.55 17.48"/><polygon class="cls-3" points="112.64 10.53 112.25 10.3 112.36 9.86 111.93 9.97 111.69 9.58 111.47 9.97 111.03 9.86 111.14 10.29 110.75 10.53 111.14 10.76 111.03 11.2 111.47 11.08 111.69 11.47 111.93 11.08 112.36 11.2 112.25 10.76 112.64 10.53"/><path class="cls-3" d="M117.46,14.22a.26.26,0,0,0-.24.29.27.27,0,0,0,.29.23.26.26,0,0,0,.23-.29A.25.25,0,0,0,117.46,14.22Z"/><path class="cls-3" d="M115.53,12.09a.27.27,0,0,0-.23.29.26.26,0,0,0,.29.23.25.25,0,0,0,.23-.28A.27.27,0,0,0,115.53,12.09Z"/><path class="cls-3" d="M116.19,13.05a.53.53,0,0,0-.48.6.54.54,0,0,0,.6.49.56.56,0,0,0,.49-.61A.55.55,0,0,0,116.19,13.05Z"/><path class="cls-2" d="M119,192.17a2.25,2.25,0,1,1,2.25-2.25A2.25,2.25,0,0,1,119,192.17Zm0-4.24a2,2,0,1,0,2,2A2,2,0,0,0,119,187.93Z"/><path class="cls-3" d="M119.59,189.92a1.37,1.37,0,0,1-1.37,1.37h0a1.56,1.56,0,0,0,.81.23,1.6,1.6,0,0,0,0-3.19,1.48,1.48,0,0,0-.81.23h0A1.36,1.36,0,0,1,119.59,189.92Z"/><polygon class="cls-3" points="119.55 187.07 119.2 186.48 118.54 186.65 118.7 185.99 118.12 185.64 118.7 185.29 118.54 184.62 119.2 184.79 119.55 184.2 119.9 184.79 120.56 184.62 120.39 185.29 120.98 185.64 120.39 185.99 120.56 186.65 119.9 186.48 119.55 187.07"/><polygon class="cls-3" points="116.18 190.49 115.59 190.84 115.76 191.5 115.09 191.33 114.74 191.92 114.4 191.33 113.73 191.5 113.9 190.84 113.31 190.49 113.9 190.14 113.73 189.48 114.4 189.64 114.74 189.06 115.09 189.64 115.76 189.48 115.59 190.14 116.18 190.49"/><polygon class="cls-3" points="119.55 183.53 119.32 183.14 118.88 183.25 118.99 182.82 118.6 182.59 118.99 182.35 118.88 181.92 119.32 182.03 119.55 181.64 119.78 182.03 120.22 181.92 120.11 182.35 120.49 182.59 120.11 182.82 120.22 183.25 119.78 183.14 119.55 183.53"/><polygon class="cls-3" points="112.64 190.49 112.25 190.72 112.36 191.16 111.93 191.05 111.69 191.44 111.47 191.05 111.03 191.16 111.14 190.72 110.75 190.49 111.14 190.26 111.03 189.82 111.47 189.93 111.69 189.54 111.93 189.93 112.36 189.82 112.25 190.26 112.64 190.49"/><path class="cls-3" d="M117.46,186.8a.27.27,0,0,1-.24-.29.27.27,0,0,1,.29-.23.25.25,0,0,1,.23.29A.26.26,0,0,1,117.46,186.8Z"/><path class="cls-3" d="M115.53,188.92a.26.26,0,0,1-.23-.29.27.27,0,0,1,.29-.23.26.26,0,0,1-.06.52Z"/><path class="cls-3" d="M116.19,188a.54.54,0,0,1-.48-.61.53.53,0,0,1,.6-.48.54.54,0,0,1,.49.6A.56.56,0,0,1,116.19,188Z"/><path class="cls-2" d="M65,36.91a14,14,0,0,1-14-14,14.25,14.25,0,0,1,.49-3.68.63.63,0,0,1,1.22.08,12.38,12.38,0,0,0,24.52,0,.62.62,0,0,1,.58-.53h0a.63.63,0,0,1,.63.45A13.78,13.78,0,0,1,79,22.94,14,14,0,0,1,65,36.91ZM52.12,20.53a12.94,12.94,0,0,0-.22,2.41,13.12,13.12,0,1,0,26-2.42,13.23,13.23,0,0,1-25.8,0Z"/><path class="cls-2" d="M65,27.94a.42.42,0,0,1-.39-.26l-.78-1.82L62,26.59a.41.41,0,0,1-.46-.09.44.44,0,0,1-.09-.45l.73-1.84-1.82-.79a.42.42,0,0,1-.25-.38.43.43,0,0,1,.25-.39l1.82-.79L61.46,20a.44.44,0,0,1,.09-.45.43.43,0,0,1,.46-.09l1.84.73.78-1.82a.44.44,0,0,1,.77,0l.79,1.82L68,19.48a.41.41,0,0,1,.45.09.42.42,0,0,1,.1.45l-.73,1.84,1.81.79a.42.42,0,0,1,.26.39.41.41,0,0,1-.26.38l-1.81.79.68,1.73a.4.4,0,0,1,.1.26.41.41,0,0,1-.43.42.43.43,0,0,1-.17,0l-1.84-.73-.79,1.82A.4.4,0,0,1,65,27.94Zm-1-3a.44.44,0,0,1,.39.25l.56,1.3.56-1.3a.42.42,0,0,1,.54-.22l1.31.52-.52-1.31a.42.42,0,0,1,.23-.54l1.3-.56-1.3-.56a.43.43,0,0,1-.23-.55l.52-1.31-1.31.52a.42.42,0,0,1-.54-.22L65,19.62l-.56,1.3a.42.42,0,0,1-.54.22l-1.32-.52.52,1.31a.42.42,0,0,1-.22.55L61.6,23l1.3.56a.41.41,0,0,1,.22.54l-.52,1.31,1.32-.52A.4.4,0,0,1,64.07,24.9Z"/><path class="cls-2" d="M77.89,182.46h0a.62.62,0,0,1-.58-.53,12.39,12.39,0,0,0-24.53,0,.61.61,0,0,1-.57.53h0a.64.64,0,0,1-.64-.46,14.17,14.17,0,0,1-.49-3.67,14,14,0,1,1,27.93,0,13.78,13.78,0,0,1-.49,3.68A.62.62,0,0,1,77.89,182.46ZM65,170.44a13.29,13.29,0,0,1,12.9,10.3,12.94,12.94,0,0,0,.22-2.41,13.12,13.12,0,1,0-26.24,0,12.94,12.94,0,0,0,.22,2.41A13.29,13.29,0,0,1,65,170.44Z"/><path class="cls-2" d="M65,183.13a.43.43,0,0,1-.39-.25l-.78-1.82-1.84.73a.43.43,0,0,1-.46-.09.45.45,0,0,1-.09-.46l.73-1.84-1.82-.78a.43.43,0,0,1-.25-.39.41.41,0,0,1,.25-.38l1.82-.79-.73-1.84a.42.42,0,0,1,.55-.55l1.84.74.78-1.82a.44.44,0,0,1,.77,0l.79,1.82,1.84-.74a.41.41,0,0,1,.45.1.42.42,0,0,1,.1.45l-.73,1.84,1.81.79a.4.4,0,0,1,.26.38.42.42,0,0,1-.26.39l-1.81.78.73,1.84a.44.44,0,0,1-.1.46.41.41,0,0,1-.45.09l-1.84-.73-.79,1.82A.41.41,0,0,1,65,183.13Zm-1-3a.42.42,0,0,1,.39.25l.56,1.3.56-1.3a.41.41,0,0,1,.54-.22l1.31.52-.52-1.32a.42.42,0,0,1,.23-.54l1.3-.56-1.3-.56a.42.42,0,0,1-.23-.54l.52-1.31-1.31.52a.42.42,0,0,1-.54-.23L65,174.82l-.56,1.29a.43.43,0,0,1-.54.23l-1.32-.52.52,1.31a.41.41,0,0,1-.22.54l-1.3.56,1.3.56a.41.41,0,0,1,.22.54l-.52,1.32,1.32-.52Z"/><path class="cls-3" d="M65,43.24l.2.66a.68.68,0,0,0,.78.45l.67-.15-.46.51a.64.64,0,0,0,0,.89l.46.51L66,46a.68.68,0,0,0-.78.45l-.2.66-.21-.66A.67.67,0,0,0,64,46l-.67.15.47-.51a.66.66,0,0,0,0-.89l-.47-.51.67.15a.67.67,0,0,0,.78-.45Z"/><path class="cls-3" d="M17.78,66.42l.2.65a.66.66,0,0,0,.78.45l.67-.15-.46.51a.65.65,0,0,0,0,.9l.46.5-.67-.14a.66.66,0,0,0-.78.45l-.2.65-.21-.65a.66.66,0,0,0-.78-.45l-.67.14.46-.5a.65.65,0,0,0,0-.9l-.46-.51.67.15a.66.66,0,0,0,.78-.45Z"/><path class="cls-3" d="M110.81,62.61l.2.66a.67.67,0,0,0,.78.45l.67-.15-.46.5a.65.65,0,0,0,0,.9l.46.51-.67-.15a.66.66,0,0,0-.78.45l-.2.65-.21-.65a.66.66,0,0,0-.78-.45l-.67.15.46-.51a.65.65,0,0,0,0-.9l-.46-.5.67.15a.67.67,0,0,0,.78-.45Z"/><path class="cls-3" d="M18.18,57.09a.56.56,0,0,0,0-1.12.56.56,0,1,0,0,1.12Z"/><path class="cls-3" d="M100.68,57.2a.56.56,0,1,0-.56-.56A.56.56,0,0,0,100.68,57.2Z"/><path class="cls-3" d="M75.72,39.29a.56.56,0,1,0-.56-.56A.56.56,0,0,0,75.72,39.29Z"/><path class="cls-3" d="M115.12,78a.56.56,0,1,0,0-1.11.56.56,0,0,0,0,1.11Z"/><path class="cls-3" d="M35.19,56.31a.56.56,0,1,0-.56-.56A.56.56,0,0,0,35.19,56.31Z"/><path class="cls-3" d="M14.59,83.51A.56.56,0,1,0,14,83,.56.56,0,0,0,14.59,83.51Z"/><path class="cls-3" d="M53.66,41.53a.56.56,0,1,0-.55-.56A.56.56,0,0,0,53.66,41.53Z"/><path class="cls-3" d="M48.91,50.49a1.07,1.07,0,1,0-1.07-1.07A1.07,1.07,0,0,0,48.91,50.49Z"/><path class="cls-3" d="M88,52.72a1.06,1.06,0,1,0-1.07-1.06A1.06,1.06,0,0,0,88,52.72Z"/><path class="cls-3" d="M26.07,63A1.06,1.06,0,1,0,25,62,1.06,1.06,0,0,0,26.07,63Z"/><path class="cls-3" d="M112.72,54.52a1.07,1.07,0,1,0-1.07-1.07A1.07,1.07,0,0,0,112.72,54.52Z"/><path class="cls-3" d="M65,159.07l.2-.65A.67.67,0,0,1,66,158l.67.15-.46-.51a.65.65,0,0,1,0-.9l.46-.5-.67.15a.68.68,0,0,1-.78-.45l-.2-.66-.21.66a.67.67,0,0,1-.78.45l-.67-.15.47.5a.67.67,0,0,1,0,.9l-.47.51L64,158a.66.66,0,0,1,.78.45Z"/><path class="cls-3" d="M17.78,135.9l.2-.65a.65.65,0,0,1,.78-.45l.67.14-.46-.5a.65.65,0,0,1,0-.9l.46-.51-.67.15a.66.66,0,0,1-.78-.45l-.2-.65-.21.65a.66.66,0,0,1-.78.45l-.67-.15.46.51a.65.65,0,0,1,0,.9l-.46.5.67-.14a.65.65,0,0,1,.78.45Z"/><path class="cls-3" d="M110.81,139.71l.2-.66a.67.67,0,0,1,.78-.45l.67.15-.46-.5a.67.67,0,0,1,0-.91l.46-.5-.67.15a.67.67,0,0,1-.78-.45l-.2-.66-.21.66a.67.67,0,0,1-.78.45l-.67-.15.46.5a.67.67,0,0,1,0,.91l-.46.5.67-.15a.67.67,0,0,1,.78.45Z"/><path class="cls-3" d="M18.18,146.35a.56.56,0,1,0,0-1.12.56.56,0,1,0,0,1.12Z"/><path class="cls-3" d="M100.68,146.24a.57.57,0,0,0,.56-.57.56.56,0,0,0-1.12,0A.57.57,0,0,0,100.68,146.24Z"/><path class="cls-3" d="M75.72,164.15a.56.56,0,1,0-.56-.56A.56.56,0,0,0,75.72,164.15Z"/><path class="cls-3" d="M115.12,125.41a.56.56,0,1,0,0-1.12.56.56,0,0,0,0,1.12Z"/><path class="cls-3" d="M35.19,147.13a.56.56,0,1,0-.56-.56A.56.56,0,0,0,35.19,147.13Z"/><path class="cls-3" d="M14.59,119.93a.56.56,0,1,0-.55-.56A.56.56,0,0,0,14.59,119.93Z"/><path class="cls-3" d="M53.66,161.91a.56.56,0,1,0-.55-.56A.56.56,0,0,0,53.66,161.91Z"/><path class="cls-3" d="M48.91,154a1.07,1.07,0,1,0-1.07-1.06A1.07,1.07,0,0,0,48.91,154Z"/><path class="cls-3" d="M88,151.72a1.07,1.07,0,1,0-1.07-1.06A1.07,1.07,0,0,0,88,151.72Z"/><path class="cls-3" d="M26.07,141.42A1.07,1.07,0,1,0,25,140.36,1.07,1.07,0,0,0,26.07,141.42Z"/><path class="cls-3" d="M112.72,149.93a1.07,1.07,0,1,0-1.07-1.06A1.07,1.07,0,0,0,112.72,149.93Z"/><path class="cls-2" d="M65.15,150a48.61,48.61,0,1,1,48.61-48.61A48.66,48.66,0,0,1,65.15,150Zm0-96.2a47.59,47.59,0,1,0,47.59,47.59A47.65,47.65,0,0,0,65.15,53.82Z"/><path class="cls-2" d="M65.15,144a42.54,42.54,0,1,1,42.53-42.54A42.59,42.59,0,0,1,65.15,144Zm0-84.69a42.15,42.15,0,1,0,42.15,42.15A42.2,42.2,0,0,0,65.15,59.26Z"/><path class="cls-2" d="M65.15,142.73a41.32,41.32,0,1,1,41.32-41.32A41.37,41.37,0,0,1,65.15,142.73Zm0-82.25a40.93,40.93,0,1,0,40.93,40.93A41,41,0,0,0,65.15,60.48Z"/><path class="cls-2" d="M63.78,81.27a.22.22,0,0,1-.16-.09.19.19,0,0,1,0-.19l.09-.19a9.93,9.93,0,0,0,1.26-4,9.89,9.89,0,0,0-1.26-4,10.19,10.19,0,0,1-1.3-4.14c0-1.86,1.17-3.72,2.3-5.52a25.34,25.34,0,0,0,1.55-2.68.19.19,0,0,1,.18-.11h0a.18.18,0,0,1,.17.11c.8,1.7.16,3.39-.45,5a9.33,9.33,0,0,0-.81,3.18,9.89,9.89,0,0,0,1.26,4,10.19,10.19,0,0,1,1.3,4.14A10.14,10.14,0,0,1,66.6,81l-.09.18a.16.16,0,0,1-.18.11,19.56,19.56,0,0,0-2.54,0Zm1.37-.44,1.07,0,0-.06a9.93,9.93,0,0,0,1.26-4,9.89,9.89,0,0,0-1.26-4A10.17,10.17,0,0,1,65,68.71a9.66,9.66,0,0,1,.83-3.32c.56-1.49,1.09-2.91.62-4.33-.4.79-.9,1.57-1.38,2.34-1.1,1.75-2.24,3.56-2.24,5.31a9.89,9.89,0,0,0,1.26,4,10.33,10.33,0,0,1,1.29,4.14,10,10,0,0,1-1.24,4Z"/><path class="cls-2" d="M63.87,142.43a.19.19,0,0,1-.17-.12c-.8-1.69-.16-3.38.45-5a9.39,9.39,0,0,0,.81-3.18,9.93,9.93,0,0,0-1.26-4A10.14,10.14,0,0,1,62.4,126a10.19,10.19,0,0,1,1.3-4.14l.08-.18c0-.07.12-.13.19-.11a19.41,19.41,0,0,0,2.53,0,.21.21,0,0,1,.18.08.19.19,0,0,1,0,.19l-.09.2a9.89,9.89,0,0,0-1.26,4,10,10,0,0,0,1.26,4,10.14,10.14,0,0,1,1.3,4.14c0,1.86-1.17,3.71-2.3,5.51a25.34,25.34,0,0,0-1.55,2.68A.2.2,0,0,1,63.87,142.43ZM64.08,122l0,.06a10,10,0,0,0-1.26,4,10,10,0,0,0,1.26,4,10.28,10.28,0,0,1,1.29,4.14,9.6,9.6,0,0,1-.83,3.31c-.56,1.49-1.09,2.91-.62,4.33.4-.78.9-1.57,1.38-2.33,1.1-1.76,2.24-3.57,2.24-5.31a9.93,9.93,0,0,0-1.26-4A10.13,10.13,0,0,1,65,126a10,10,0,0,1,1.24-4A18.74,18.74,0,0,1,64.08,122Z"/><path class="cls-2" d="M71.57,82.25h-.06a20.51,20.51,0,0,0-2.45-.64.19.19,0,0,1-.11-.32l.13-.16a9.9,9.9,0,0,0,2.25-3.51,9.92,9.92,0,0,0-.19-4.17A10.29,10.29,0,0,1,71,69.11c.48-1.8,2.09-3.29,3.65-4.73a28.28,28.28,0,0,0,2.19-2.19.22.22,0,0,1,.2-.07.21.21,0,0,1,.14.16c.33,1.84-.72,3.31-1.74,4.73a9.48,9.48,0,0,0-1.6,2.86A9.92,9.92,0,0,0,74,74a10.29,10.29,0,0,1,.18,4.33A10.22,10.22,0,0,1,71.85,82l-.13.15A.18.18,0,0,1,71.57,82.25Zm-2.12-1c.7.15,1.39.34,2.06.55l0,0a9.73,9.73,0,0,0,2.24-3.51,9.91,9.91,0,0,0-.18-4.17,10.13,10.13,0,0,1-.18-4.33,9.61,9.61,0,0,1,1.66-3c.93-1.29,1.81-2.52,1.72-4-.59.66-1.28,1.29-1.94,1.9-1.52,1.41-3.08,2.86-3.54,4.55a10.08,10.08,0,0,0,.19,4.17,10.13,10.13,0,0,1,.18,4.33A9.91,9.91,0,0,1,69.45,81.28Z"/><path class="cls-2" d="M53.35,140.7H53.3a.19.19,0,0,1-.14-.16c-.33-1.84.72-3.31,1.74-4.73A9.48,9.48,0,0,0,56.5,133a9.86,9.86,0,0,0-.19-4.16,10.34,10.34,0,0,1-.18-4.34,10.11,10.11,0,0,1,2.33-3.66l.12-.15a.19.19,0,0,1,.21-.06,19.19,19.19,0,0,0,2.45.64.24.24,0,0,1,.15.13.19.19,0,0,1,0,.19l-.13.16A10,10,0,0,0,59,125.21a9.91,9.91,0,0,0,.19,4.17,10.14,10.14,0,0,1,.18,4.33c-.48,1.8-2.09,3.29-3.65,4.73a26.71,26.71,0,0,0-2.19,2.2A.2.2,0,0,1,53.35,140.7ZM58.79,121l0,.05a9.73,9.73,0,0,0-2.24,3.51,9.9,9.9,0,0,0,.18,4.17,10.14,10.14,0,0,1,.18,4.33,9.61,9.61,0,0,1-1.66,3c-.93,1.3-1.81,2.53-1.72,4,.59-.65,1.27-1.29,1.94-1.9,1.51-1.41,3.08-2.86,3.53-4.55a9.85,9.85,0,0,0-.18-4.16,10.18,10.18,0,0,1-.18-4.34,9.91,9.91,0,0,1,2.25-3.57C60.16,121.39,59.47,121.21,58.79,121Z"/><path class="cls-2" d="M76.36,84.58a.15.15,0,0,1-.11,0,21.61,21.61,0,0,0-2.2-1.26.18.18,0,0,1-.1-.15A.18.18,0,0,1,74,83l.17-.12A10,10,0,0,0,77.28,80,10,10,0,0,0,78.17,76a10.46,10.46,0,0,1,1-4.24c.93-1.61,2.88-2.63,4.75-3.62a27.82,27.82,0,0,0,2.69-1.55.19.19,0,0,1,.3.17c-.16,1.87-1.55,3-2.9,4.13a9.23,9.23,0,0,0-2.29,2.34,9.89,9.89,0,0,0-.9,4.08,10.13,10.13,0,0,1-1,4.23,10.17,10.17,0,0,1-3.19,2.94l-.16.11A.25.25,0,0,1,76.36,84.58Zm-1.84-1.5c.62.33,1.24.68,1.83,1.07l.06,0a10,10,0,0,0,3.08-2.81,10.06,10.06,0,0,0,.9-4.08A10.29,10.29,0,0,1,81.33,73a9.7,9.7,0,0,1,2.38-2.45c1.24-1,2.41-2,2.7-3.44-.74.48-1.56.91-2.36,1.33-1.83,1-3.72,2-4.59,3.48a9.85,9.85,0,0,0-.9,4.07,10.1,10.1,0,0,1-1,4.23A9.93,9.93,0,0,1,74.52,83.08Z"/><path class="cls-2" d="M43.63,136.32a.16.16,0,0,1-.09,0,.19.19,0,0,1-.1-.18c.16-1.87,1.55-3,2.9-4.12a9.26,9.26,0,0,0,2.29-2.35,10,10,0,0,0,.9-4.07,10.15,10.15,0,0,1,.95-4.24,10.15,10.15,0,0,1,3.19-2.93l.16-.12a.22.22,0,0,1,.22,0,20.11,20.11,0,0,0,2.2,1.26.18.18,0,0,1,.1.16.17.17,0,0,1-.08.17l-.17.12A10.11,10.11,0,0,0,53,122.8a10,10,0,0,0-.9,4.07,10.3,10.3,0,0,1-.94,4.24c-.93,1.61-2.88,2.63-4.75,3.62a27.82,27.82,0,0,0-2.69,1.55A.15.15,0,0,1,43.63,136.32Zm10.31-17.65,0,0a9.86,9.86,0,0,0-3.08,2.81,10,10,0,0,0-.9,4.07,10.1,10.1,0,0,1-.95,4.23,9.53,9.53,0,0,1-2.37,2.46c-1.24,1-2.41,2-2.71,3.44.75-.48,1.57-.92,2.37-1.34,1.83-1,3.72-2,4.59-3.48a9.81,9.81,0,0,0,.9-4.07,10.13,10.13,0,0,1,.95-4.23,9.93,9.93,0,0,1,3.09-2.87C55.16,119.42,54.54,119.06,53.94,118.67Z"/><path class="cls-2" d="M80.38,88.06a.19.19,0,0,1-.14-.07,20.15,20.15,0,0,0-1.8-1.78.22.22,0,0,1-.07-.18.2.2,0,0,1,.13-.15l.2-.07a9.93,9.93,0,0,0,3.7-1.92,9.94,9.94,0,0,0,1.92-3.7,10.4,10.4,0,0,1,2-3.85c1.32-1.31,3.46-1.8,5.53-2.27a27.25,27.25,0,0,0,3-.8.18.18,0,0,1,.2,0,.19.19,0,0,1,0,.2c-.63,1.77-2.28,2.51-3.87,3.23a9.42,9.42,0,0,0-2.82,1.68,10.09,10.09,0,0,0-1.92,3.7,10.11,10.11,0,0,1-2,3.85,10.4,10.4,0,0,1-3.85,2l-.18.07Zm-1.44-1.93c.52.48,1,1,1.5,1.51l.06,0a10.07,10.07,0,0,0,3.71-1.93A9.93,9.93,0,0,0,86.13,82a10.14,10.14,0,0,1,2-3.84,9.82,9.82,0,0,1,2.93-1.76c1.45-.66,2.83-1.28,3.5-2.62-.84.27-1.74.48-2.63.68-2,.46-4.1.93-5.33,2.17a9.65,9.65,0,0,0-1.92,3.7,10.3,10.3,0,0,1-2,3.84A9.88,9.88,0,0,1,78.94,86.13Z"/><path class="cls-2" d="M35.38,129.57a.16.16,0,0,1-.13-.06.19.19,0,0,1,0-.2c.64-1.77,2.28-2.51,3.87-3.23a9.42,9.42,0,0,0,2.82-1.68,10,10,0,0,0,1.92-3.7,10.14,10.14,0,0,1,2-3.84,10.14,10.14,0,0,1,3.84-2l.19-.07a.18.18,0,0,1,.21,0,21.72,21.72,0,0,0,1.8,1.79.19.19,0,0,1-.06.32l-.21.08a10,10,0,0,0-3.69,1.91A9.91,9.91,0,0,0,46,122.64a10.43,10.43,0,0,1-2,3.84c-1.32,1.31-3.46,1.8-5.53,2.27a25.19,25.19,0,0,0-3,.81Zm14.48-14.39-.07,0a10.09,10.09,0,0,0-3.7,1.92,10.09,10.09,0,0,0-1.92,3.7,10,10,0,0,1-2,3.84,9.61,9.61,0,0,1-2.93,1.76c-1.45.66-2.84,1.28-3.5,2.62.84-.27,1.75-.47,2.63-.67,2-.46,4.1-.94,5.33-2.17a9.94,9.94,0,0,0,1.92-3.7,10.4,10.4,0,0,1,2-3.85,10,10,0,0,1,3.74-2C50.84,116.22,50.34,115.71,49.86,115.18Z"/><path class="cls-2" d="M83.37,92.46a.18.18,0,0,1-.17-.11,20.86,20.86,0,0,0-1.28-2.19.18.18,0,0,1,0-.19.21.21,0,0,1,.16-.11h.2a10.06,10.06,0,0,0,4.08-.9,10,10,0,0,0,2.81-3.08,10.28,10.28,0,0,1,2.94-3.19,8.35,8.35,0,0,1,4.1-.81c.6,0,1.22,0,1.82,0a24.58,24.58,0,0,0,3.1,0,.23.23,0,0,1,.19.1.2.2,0,0,1,0,.21c-1.07,1.54-2.85,1.83-4.58,2.11a9.5,9.5,0,0,0-3.15.9,10,10,0,0,0-2.82,3.07,10.06,10.06,0,0,1-2.93,3.2,10.3,10.3,0,0,1-4.24.94l-.19,0Zm-1-2.24a21,21,0,0,1,1.07,1.84h.06a9.81,9.81,0,0,0,4.07-.9,9.9,9.9,0,0,0,2.82-3.08,10.28,10.28,0,0,1,2.94-3.19A9.65,9.65,0,0,1,96.66,84c1.58-.26,3.07-.5,4.06-1.62-.79,0-1.79,0-2.71,0-.6,0-1.22,0-1.81,0a8.07,8.07,0,0,0-3.91.76,10.11,10.11,0,0,0-2.81,3.08,10.06,10.06,0,0,1-2.94,3.19A9.93,9.93,0,0,1,82.42,90.22Z"/><path class="cls-2" d="M34.1,121c-.6,0-1.22,0-1.82,0s-1.22,0-1.82,0-.9,0-1.28,0a.19.19,0,0,1-.18-.3c1.07-1.55,2.85-1.84,4.58-2.12a9.49,9.49,0,0,0,3.15-.89,10,10,0,0,0,2.81-3.08,10.17,10.17,0,0,1,2.94-3.19,10.13,10.13,0,0,1,4.23-1l.2,0a.24.24,0,0,1,.19.11,19,19,0,0,0,1.28,2.19.19.19,0,0,1,0,.19.21.21,0,0,1-.16.11L48,113a10,10,0,0,0-4.07.89A10,10,0,0,0,41.14,117a10.06,10.06,0,0,1-2.94,3.19A8.38,8.38,0,0,1,34.1,121Zm-3.64-.48c.6,0,1.23,0,1.83,0s1.22,0,1.81,0a8.07,8.07,0,0,0,3.91-.76,10.11,10.11,0,0,0,2.81-3.08,10.28,10.28,0,0,1,2.94-3.19,9.89,9.89,0,0,1,4.12-.94,21,21,0,0,1-1.07-1.84h-.06a10,10,0,0,0-4.07.89,10,10,0,0,0-2.82,3.08,10.17,10.17,0,0,1-2.94,3.19,9.65,9.65,0,0,1-3.28.94c-1.58.26-3.07.5-4.06,1.63C29.85,120.48,30.14,120.48,30.46,120.48Z"/><path class="cls-2" d="M88.17,97.87a17,17,0,0,1-2.89-.35l-.2,0a.22.22,0,0,1-.15-.16,21,21,0,0,0-.66-2.44.19.19,0,0,1,0-.19.2.2,0,0,1,.18-.06l.2,0a16.57,16.57,0,0,0,2.83.35,5,5,0,0,0,1.34-.16,10,10,0,0,0,3.52-2.24A10.11,10.11,0,0,1,96,90.29a5.34,5.34,0,0,1,1.36-.16,16.39,16.39,0,0,1,4.56,1,27.12,27.12,0,0,0,3,.8.19.19,0,0,1,.16.14.2.2,0,0,1-.07.2,4.64,4.64,0,0,1-3.1,1c-.61,0-1.25-.06-1.86-.12S98.84,93,98.24,93a5.74,5.74,0,0,0-1.45.16,9.9,9.9,0,0,0-3.51,2.25,10.26,10.26,0,0,1-3.67,2.32A5.42,5.42,0,0,1,88.17,97.87Zm-2.89-.74h.06a16.57,16.57,0,0,0,2.83.35,5.47,5.47,0,0,0,1.34-.16A9.93,9.93,0,0,0,93,95.08a10.22,10.22,0,0,1,3.66-2.32,6,6,0,0,1,1.55-.18c.62,0,1.25.06,1.87.12s1.23.13,1.82.13a4.29,4.29,0,0,0,2.52-.65c-.86-.18-1.75-.46-2.61-.72a15.94,15.94,0,0,0-4.45-.95,4.58,4.58,0,0,0-1.26.16,9.86,9.86,0,0,0-3.51,2.24A10.12,10.12,0,0,1,89,95.23a5.41,5.41,0,0,1-1.44.18,16.84,16.84,0,0,1-2.78-.33A18.23,18.23,0,0,1,85.28,97.13Z"/><path class="cls-2" d="M32.91,112.7a16.39,16.39,0,0,1-4.56-1,27.37,27.37,0,0,0-3-.81.18.18,0,0,1-.15-.14.19.19,0,0,1,.06-.19,4.64,4.64,0,0,1,3.11-1,16.61,16.61,0,0,1,1.86.13c.61.06,1.23.12,1.83.12a5.71,5.71,0,0,0,1.45-.17A10,10,0,0,0,37,107.45a10.15,10.15,0,0,1,3.67-2.33,5.8,5.8,0,0,1,1.44-.17,17,17,0,0,1,2.89.35l.19,0a.19.19,0,0,1,.16.15,18.38,18.38,0,0,0,.65,2.39.2.2,0,0,1-.16.31h0l-.21,0a16.34,16.34,0,0,0-2.82-.35,5,5,0,0,0-1.34.16,9.93,9.93,0,0,0-3.52,2.25,10.13,10.13,0,0,1-3.66,2.32A5.33,5.33,0,0,1,32.91,112.7Zm-7.06-2.06c.86.18,1.75.46,2.61.73a16.27,16.27,0,0,0,4.45.94,5,5,0,0,0,1.26-.15,9.9,9.9,0,0,0,3.51-2.25,10.26,10.26,0,0,1,3.67-2.32,5.42,5.42,0,0,1,1.44-.17,15.83,15.83,0,0,1,2.78.33,19,19,0,0,1-.55-2.06H45a16.43,16.43,0,0,0-2.82-.34,5,5,0,0,0-1.34.16,9.9,9.9,0,0,0-3.52,2.24,10.22,10.22,0,0,1-3.66,2.32,6.05,6.05,0,0,1-1.55.18c-.62,0-1.25-.06-1.87-.12S29,110,28.37,110A4.36,4.36,0,0,0,25.85,110.64Z"/><path class="cls-2" d="M89.74,104.16a10.28,10.28,0,0,1-4.14-1.29l-.18-.09a.2.2,0,0,1-.11-.19c0-.41,0-.8,0-1.18s0-.89,0-1.35a.19.19,0,0,1,.27-.19l.2.09a9.89,9.89,0,0,0,4,1.26,9.89,9.89,0,0,0,4-1.26,10.19,10.19,0,0,1,4.14-1.3c1.86,0,3.72,1.17,5.52,2.3a25.34,25.34,0,0,0,2.68,1.55.2.2,0,0,1,.11.18.18.18,0,0,1-.11.17,3.78,3.78,0,0,1-1.7.38,9.66,9.66,0,0,1-3.32-.83,9.33,9.33,0,0,0-3.18-.81,9.89,9.89,0,0,0-4,1.26A10.14,10.14,0,0,1,89.74,104.16Zm-4-1.68.07,0a9.89,9.89,0,0,0,4,1.26,9.89,9.89,0,0,0,4-1.26,10.33,10.33,0,0,1,4.14-1.29,9.66,9.66,0,0,1,3.32.83,9.54,9.54,0,0,0,3.18.8,3.69,3.69,0,0,0,1.15-.18c-.79-.4-1.57-.9-2.34-1.38-1.75-1.1-3.56-2.24-5.31-2.24a9.89,9.89,0,0,0-4,1.26,10.13,10.13,0,0,1-4.14,1.29,10,10,0,0,1-4-1.24q0,.54,0,1C85.73,101.76,85.72,102.11,85.7,102.48Z"/><path class="cls-2" d="M32.44,104.16c-1.85,0-3.71-1.17-5.51-2.3a25.34,25.34,0,0,0-2.68-1.55.18.18,0,0,1-.11-.17.19.19,0,0,1,.11-.18,3.92,3.92,0,0,1,1.7-.38,9.89,9.89,0,0,1,3.32.83,9.28,9.28,0,0,0,3.17.81,9.93,9.93,0,0,0,4-1.26,10.14,10.14,0,0,1,4.14-1.3A10.14,10.14,0,0,1,44.7,100l.18.09a.17.17,0,0,1,.11.18c0,.42,0,.8,0,1.18s0,.85,0,1.3a.15.15,0,0,1,0,.07.19.19,0,0,1-.2.19.13.13,0,0,1-.08,0l-.19-.09a10.09,10.09,0,0,0-4-1.26,9.84,9.84,0,0,0-4,1.26A10.23,10.23,0,0,1,32.44,104.16Zm-7.64-4c.79.41,1.57.9,2.34,1.38,1.75,1.1,3.56,2.24,5.3,2.24a9.93,9.93,0,0,0,4-1.26,10.28,10.28,0,0,1,4.14-1.29,9.82,9.82,0,0,1,4,1.25c0-.36,0-.72,0-1.06s0-.7,0-1.07l-.07,0a9.89,9.89,0,0,0-4-1.26,9.84,9.84,0,0,0-4,1.26,10.21,10.21,0,0,1-4.15,1.29,9.87,9.87,0,0,1-3.31-.82A9.33,9.33,0,0,0,26,100,3.69,3.69,0,0,0,24.8,100.15Z"/><path class="cls-2" d="M103.59,113.46a7.18,7.18,0,0,1-4-1.8,9.48,9.48,0,0,0-2.86-1.6,5.47,5.47,0,0,0-1.34-.16,16.34,16.34,0,0,0-2.82.35,17.13,17.13,0,0,1-2.89.35,5.44,5.44,0,0,1-1.45-.17,10.22,10.22,0,0,1-3.66-2.32l-.15-.13a.19.19,0,0,1-.06-.21,20.51,20.51,0,0,0,.64-2.45.2.2,0,0,1,.13-.14.17.17,0,0,1,.19,0l.15.13A10,10,0,0,0,89,107.59a5.1,5.1,0,0,0,1.35.16,16.58,16.58,0,0,0,2.82-.35,17,17,0,0,1,2.89-.35,5.86,5.86,0,0,1,1.44.17c1.8.49,3.29,2.09,4.73,3.65a25.14,25.14,0,0,0,2.19,2.19.2.2,0,0,1,.07.2.19.19,0,0,1-.16.14A4,4,0,0,1,103.59,113.46Zm-8.24-3.94a5.42,5.42,0,0,1,1.44.17,9.82,9.82,0,0,1,3,1.66c1.3.93,2.53,1.81,4,1.72a26.82,26.82,0,0,1-1.9-1.94c-1.41-1.51-2.86-3.08-4.55-3.53a5,5,0,0,0-1.34-.16,16.31,16.31,0,0,0-2.82.34,16.19,16.19,0,0,1-2.89.36,5.43,5.43,0,0,1-1.45-.18,9.77,9.77,0,0,1-3.57-2.25,20.12,20.12,0,0,1-.55,2.06l0,0a9.81,9.81,0,0,0,3.51,2.25,5.55,5.55,0,0,0,1.35.16,16.58,16.58,0,0,0,2.82-.35A17,17,0,0,1,95.35,109.52Z"/><path class="cls-2" d="M45.15,97.66a.21.21,0,0,1-.13,0l-.16-.13a10,10,0,0,0-3.51-2.25A5.62,5.62,0,0,0,40,95.07a16.46,16.46,0,0,0-2.82.35,17,17,0,0,1-2.89.35,5.37,5.37,0,0,1-1.44-.17c-1.8-.48-3.29-2.09-4.73-3.65a28.28,28.28,0,0,0-2.19-2.19.19.19,0,0,1-.07-.2.21.21,0,0,1,.16-.14,4,4,0,0,1,.69-.06c1.53,0,2.8.92,4,1.8a9.48,9.48,0,0,0,2.86,1.6,5,5,0,0,0,1.34.16,16.34,16.34,0,0,0,2.82-.35,17.12,17.12,0,0,1,2.9-.35,5.86,5.86,0,0,1,1.44.17,10.25,10.25,0,0,1,3.66,2.33l.15.12a.21.21,0,0,1,.06.21,18.77,18.77,0,0,0-.64,2.45.2.2,0,0,1-.13.15Zm-5.15-3a5.44,5.44,0,0,1,1.45.17A9.91,9.91,0,0,1,45,97.11c.15-.7.34-1.38.55-2.06l0,0A9.86,9.86,0,0,0,42,92.77a10.52,10.52,0,0,0-4.17.18,16.08,16.08,0,0,1-2.89.36,5.41,5.41,0,0,1-1.44-.18,9.61,9.61,0,0,1-3-1.66c-1.3-.93-2.53-1.81-4-1.72.66.59,1.29,1.28,1.9,1.94,1.41,1.52,2.86,3.08,4.55,3.54a5,5,0,0,0,1.34.16A16.34,16.34,0,0,0,37.11,95,17,17,0,0,1,40,94.69Z"/><path class="cls-2" d="M99.86,123.12h0c-1.87-.16-3-1.55-4.12-2.9a9.43,9.43,0,0,0-2.35-2.29,10.06,10.06,0,0,0-4.08-.9,10.13,10.13,0,0,1-4.23-1,10.06,10.06,0,0,1-2.94-3.19l-.11-.16a.18.18,0,0,1,0-.22,19.87,19.87,0,0,0,1.26-2.2.18.18,0,0,1,.16-.1.2.2,0,0,1,.17.08l.12.17a10,10,0,0,0,2.81,3.08,10,10,0,0,0,4.07.9,10.15,10.15,0,0,1,4.24,1c1.61.93,2.63,2.87,3.62,4.74a27,27,0,0,0,1.52,2.65.18.18,0,0,1,.08.15.22.22,0,0,1-.2.19Zm-17.45-10.5,0,0a9.88,9.88,0,0,0,2.81,3.08,9.89,9.89,0,0,0,4.08.9,10.13,10.13,0,0,1,4.23.95A9.66,9.66,0,0,1,96,120c1,1.24,2,2.41,3.44,2.71-.48-.75-.91-1.57-1.33-2.37-1-1.82-2-3.72-3.48-4.59a10,10,0,0,0-4.07-.9,10.13,10.13,0,0,1-4.23-.95,9.93,9.93,0,0,1-2.87-3.09C83.15,111.41,82.8,112,82.41,112.62Z"/><path class="cls-2" d="M46.85,92.61a.21.21,0,0,1-.16-.08l-.12-.17a10,10,0,0,0-2.81-3.08,10,10,0,0,0-4.07-.89,10.3,10.3,0,0,1-4.24-1c-1.61-.93-2.63-2.87-3.62-4.75A26.49,26.49,0,0,0,30.28,80a.18.18,0,0,1,0-.21.21.21,0,0,1,.18-.1c1.87.16,3,1.55,4.12,2.91a9.56,9.56,0,0,0,2.35,2.28,9.88,9.88,0,0,0,4.07.9,10.15,10.15,0,0,1,4.24.95,10.14,10.14,0,0,1,2.93,3.19l.12.16a.2.2,0,0,1,0,.22A19.87,19.87,0,0,0,47,92.51a.18.18,0,0,1-.16.1Zm-16-12.46c.47.74.91,1.56,1.33,2.36,1,1.83,2,3.72,3.48,4.59a9.81,9.81,0,0,0,4.07.9A10.13,10.13,0,0,1,44,89,9.93,9.93,0,0,1,46.82,92a19.84,19.84,0,0,1,1.07-1.83l0-.06A10,10,0,0,0,45,87.07a10,10,0,0,0-4.07-.9,10.29,10.29,0,0,1-4.23-.94,9.74,9.74,0,0,1-2.46-2.38C33.26,81.62,32.3,80.44,30.84,80.15Z"/><path class="cls-2" d="M93.11,131.37h-.06c-1.77-.63-2.51-2.28-3.23-3.87a9.55,9.55,0,0,0-1.68-2.82,10.09,10.09,0,0,0-3.7-1.92,10,10,0,0,1-3.84-2,10.23,10.23,0,0,1-2-3.84l-.06-.19a.18.18,0,0,1,0-.21,21.58,21.58,0,0,0,1.78-1.8.19.19,0,0,1,.18-.06.19.19,0,0,1,.15.12l.07.2a9.93,9.93,0,0,0,1.92,3.7,9.94,9.94,0,0,0,3.7,1.92,10.27,10.27,0,0,1,3.85,2c1.31,1.31,1.8,3.45,2.27,5.52a28,28,0,0,0,.78,2.94.17.17,0,0,1,0,.12.18.18,0,0,1-.19.19ZM78.92,116.7l0,.07a9.94,9.94,0,0,0,1.92,3.7,10,10,0,0,0,3.7,1.92,10.07,10.07,0,0,1,3.84,2,9.61,9.61,0,0,1,1.76,2.93c.66,1.46,1.28,2.84,2.62,3.5-.27-.84-.48-1.74-.68-2.62-.45-2-.93-4.11-2.16-5.34A9.91,9.91,0,0,0,86.24,121a10.3,10.3,0,0,1-3.84-2,9.88,9.88,0,0,1-2-3.73C80,115.72,79.45,116.22,78.92,116.7Z"/><path class="cls-2" d="M49.8,88.19h0a.2.2,0,0,1-.14-.13l-.07-.2a10,10,0,0,0-1.93-3.7,9.79,9.79,0,0,0-3.7-1.92,10.28,10.28,0,0,1-3.84-2c-1.31-1.32-1.8-3.46-2.27-5.53a27.25,27.25,0,0,0-.8-3,.18.18,0,0,1,0-.2.21.21,0,0,1,.2-.05c1.77.64,2.51,2.28,3.23,3.87a9.42,9.42,0,0,0,1.68,2.82,10.09,10.09,0,0,0,3.7,1.92,10,10,0,0,1,3.84,2,10.3,10.3,0,0,1,2,3.84l.06.19a.18.18,0,0,1-.05.21A20.15,20.15,0,0,0,50,88.12.18.18,0,0,1,49.8,88.19ZM37.51,72c.27.84.47,1.75.68,2.63.46,2,.93,4.1,2.17,5.34a10,10,0,0,0,3.69,1.92,10.11,10.11,0,0,1,3.85,2,9.88,9.88,0,0,1,2,3.73c.48-.52,1-1,1.51-1.5l0-.06a9.79,9.79,0,0,0-1.92-3.7,9.88,9.88,0,0,0-3.7-1.93,10.07,10.07,0,0,1-3.84-2,9.82,9.82,0,0,1-1.76-2.93C39.47,74,38.85,72.66,37.51,72Z"/><path class="cls-2" d="M84.46,137.6h0a.3.3,0,0,1-.11,0c-1.54-1.07-1.83-2.85-2.11-4.57a9.48,9.48,0,0,0-.89-3.16A10,10,0,0,0,78.26,127a10.06,10.06,0,0,1-3.19-2.94,10.13,10.13,0,0,1-.95-4.23l0-.2a.2.2,0,0,1,.11-.19,19.88,19.88,0,0,0,2.19-1.28.21.21,0,0,1,.19,0,.21.21,0,0,1,.11.16v.21a10,10,0,0,0,.9,4.07,9.86,9.86,0,0,0,3.08,2.81,10.17,10.17,0,0,1,3.19,2.94c.93,1.61.85,3.81.77,5.93a28.06,28.06,0,0,0,0,3,.19.19,0,0,1,0,.07A.2.2,0,0,1,84.46,137.6Zm-10-17.85v.06a10.06,10.06,0,0,0,.9,4.08,10,10,0,0,0,3.08,2.81,10.28,10.28,0,0,1,3.19,2.94,9.78,9.78,0,0,1,.94,3.28c.26,1.58.5,3.07,1.62,4.06,0-.88,0-1.8,0-2.71.08-2.06.16-4.2-.71-5.71a10,10,0,0,0-3.08-2.82,10.17,10.17,0,0,1-3.19-2.94,9.85,9.85,0,0,1-.94-4.11C75.75,119.07,75.13,119.42,74.5,119.75Z"/><path class="cls-2" d="M53.8,84.67l-.09,0a.21.21,0,0,1-.11-.16v-.2a10.06,10.06,0,0,0-.9-4.08,10,10,0,0,0-3.08-2.81,10.17,10.17,0,0,1-3.19-2.94c-.93-1.61-.85-3.8-.77-5.92a26.71,26.71,0,0,0,0-3.1.19.19,0,0,1,.3-.18c1.55,1.07,1.84,2.85,2.12,4.58A9.49,9.49,0,0,0,49,73,10,10,0,0,0,52,75.81a10,10,0,0,1,3.19,2.93,10.15,10.15,0,0,1,1,4.24l0,.19a.2.2,0,0,1-.11.19,20.86,20.86,0,0,0-2.19,1.28A.19.19,0,0,1,53.8,84.67ZM46.07,65.84c0,.88,0,1.81,0,2.71-.08,2.07-.16,4.2.71,5.72a10,10,0,0,0,3.08,2.81A10.17,10.17,0,0,1,53,80,9.93,9.93,0,0,1,54,84.14c.6-.39,1.21-.74,1.84-1.07V83a10,10,0,0,0-.9-4.07,10,10,0,0,0-3.08-2.82,10.28,10.28,0,0,1-3.19-2.94,9.65,9.65,0,0,1-.94-3.28C47.43,68.32,47.19,66.83,46.07,65.84Z"/><path class="cls-2" d="M74.48,141.37a.23.23,0,0,1-.15-.07c-1.21-1.44-1-3.23-.86-5a9.48,9.48,0,0,0,0-3.28,9.9,9.9,0,0,0-2.25-3.51,10.26,10.26,0,0,1-2.32-3.67,10.14,10.14,0,0,1,.18-4.33l0-.19a.19.19,0,0,1,.15-.16,20.43,20.43,0,0,0,2.44-.66.18.18,0,0,1,.25.21l0,.21a9.86,9.86,0,0,0-.19,4.16A9.93,9.93,0,0,0,74,128.63a10.22,10.22,0,0,1,2.32,3.66c.48,1.8-.17,3.89-.8,5.92a29.71,29.71,0,0,0-.8,3,.19.19,0,0,1-.14.15Zm-5-19.83v.07a9.86,9.86,0,0,0-.18,4.16,9.76,9.76,0,0,0,2.24,3.52A10.31,10.31,0,0,1,73.8,133a9.8,9.8,0,0,1,.06,3.42c-.16,1.59-.31,3.1.52,4.34.18-.86.46-1.75.73-2.61.61-2,1.24-4,.78-5.71a9.86,9.86,0,0,0-2.24-3.51,10.26,10.26,0,0,1-2.32-3.67,9.89,9.89,0,0,1,.16-4.21C70.81,121.21,70.12,121.4,69.43,121.54Z"/><path class="cls-2" d="M58.57,82.31a.21.21,0,0,1-.2-.23l0-.2a9.92,9.92,0,0,0,.19-4.17,10,10,0,0,0-2.24-3.51A10.15,10.15,0,0,1,54,70.53c-.48-1.79.17-3.89.8-5.92a28.85,28.85,0,0,0,.8-3,.19.19,0,0,1,.14-.16.22.22,0,0,1,.2.07c1.21,1.43,1,3.23.86,5a9.23,9.23,0,0,0,0,3.28,9.81,9.81,0,0,0,2.25,3.51A10.26,10.26,0,0,1,61.44,77a10.34,10.34,0,0,1-.18,4.34l0,.19a.18.18,0,0,1-.15.15,19.18,19.18,0,0,0-2.44.67Zm-2.65-20.2c-.18.86-.46,1.75-.72,2.61-.62,2-1.25,4-.79,5.71A9.76,9.76,0,0,0,56.65,74,10.13,10.13,0,0,1,59,77.61a9.93,9.93,0,0,1-.16,4.22c.68-.22,1.37-.4,2.06-.55v-.06a10.08,10.08,0,0,0,.19-4.17,9.81,9.81,0,0,0-2.25-3.51,10.26,10.26,0,0,1-2.32-3.67,9.8,9.8,0,0,1-.06-3.42C56.6,64.87,56.75,63.36,55.92,62.11Z"/><path class="cls-3" d="M59.81,81.73v0Zm0-.22c0-.16,0-.31.08-.47a9.28,9.28,0,0,0,.21-3.74,9.43,9.43,0,0,0-2-3.14l-.28-.33a9.62,9.62,0,0,1,2.09,3.53,9.53,9.53,0,0,1,0,4.15Zm-2.19-7.86a9.62,9.62,0,0,1-2.09-3.53,7.76,7.76,0,0,1-.2-2.4,5.54,5.54,0,0,0,0,2.46,9.35,9.35,0,0,0,2,3.14Z"/><path class="cls-3" d="M70.49,121.09v0Zm0,.28c0,.14,0,.28-.07.41a9.15,9.15,0,0,0-.2,3.75,9.35,9.35,0,0,0,2,3.14l.27.31a7.62,7.62,0,0,1-2-7.61Zm2.21,7.82a9.51,9.51,0,0,1,2.08,3.51,7.78,7.78,0,0,1,.2,2.4,5.54,5.54,0,0,0,0-2.46,9.35,9.35,0,0,0-2-3.14Z"/><path class="cls-3" d="M54.9,83.79v0Zm0-.24c0-.15,0-.31,0-.46a9.5,9.5,0,0,0-.77-3.67,9.37,9.37,0,0,0-2.8-2.51l-.35-.24a9.48,9.48,0,0,1,2.94,2.87,9.71,9.71,0,0,1,1,4Zm-4.15-7a9.56,9.56,0,0,1-2.93-2.87A7.73,7.73,0,0,1,47,71.4a5.73,5.73,0,0,0,.61,2.39,9.31,9.31,0,0,0,2.79,2.5Z"/><path class="cls-3" d="M83.31,131.42a5.54,5.54,0,0,0-.6-2.38,9.21,9.21,0,0,0-2.79-2.51l-.32-.22a9.5,9.5,0,0,1,2.9,2.85,7.37,7.37,0,0,1,.81,2.26Zm-4-5.28a7.57,7.57,0,0,1-3.92-6.84l0,.44a9.57,9.57,0,0,0,.77,3.67,9.47,9.47,0,0,0,2.8,2.5l.32.23Zm-3.94-7.06v0h0Z"/><path class="cls-3" d="M50.69,87.05l0-.09,0,.09Zm-.08-.22c-.06-.15-.11-.3-.16-.45A9.27,9.27,0,0,0,48.75,83a9.36,9.36,0,0,0-3.34-1.7L45,81.2a9.32,9.32,0,0,1,3.58,2,9.66,9.66,0,0,1,2,3.62Zm-5.83-5.72a9.36,9.36,0,0,1-3.57-2,7.74,7.74,0,0,1-1.38-2A5.8,5.8,0,0,0,41,79.27,9.4,9.4,0,0,0,44.38,81Z"/><path class="cls-3" d="M79.61,115.78l0,0,0,0Zm.1.25c.05.14.09.28.14.41a9.32,9.32,0,0,0,1.7,3.35,9.46,9.46,0,0,0,3.35,1.69,3.82,3.82,0,0,0,.36.13,9.46,9.46,0,0,1-3.54-2,9.57,9.57,0,0,1-2-3.59Zm5.85,5.69a9.52,9.52,0,0,1,3.53,2,7.46,7.46,0,0,1,1.37,2,5.66,5.66,0,0,0-1.2-2.15,9.1,9.1,0,0,0-3.34-1.69Z"/><path class="cls-3" d="M47.46,91.27l-.05-.07.05.07Zm-.13-.17-.27-.4a9.21,9.21,0,0,0-2.51-2.79,9.32,9.32,0,0,0-3.67-.78l-.42,0a9.38,9.38,0,0,1,4,1,9.49,9.49,0,0,1,2.9,3Zm-7.11-4a9.69,9.69,0,0,1-4-1,7.66,7.66,0,0,1-1.84-1.56,5.72,5.72,0,0,0,1.72,1.77A9.32,9.32,0,0,0,39.8,87Z"/><path class="cls-3" d="M82.84,111.55l0,0,0,0Zm.15.21.25.36a9.37,9.37,0,0,0,2.51,2.8,9.5,9.5,0,0,0,3.67.77l.4,0a9.43,9.43,0,0,1-3.95-1A9.65,9.65,0,0,1,83,111.76Zm7.1,4a9.48,9.48,0,0,1,4,1,7.66,7.66,0,0,1,1.84,1.56,5.83,5.83,0,0,0-1.72-1.77,9.5,9.5,0,0,0-3.67-.77Z"/><path class="cls-3" d="M45.44,96.2l-.06,0,.06,0Zm-.18-.15-.36-.3a9.22,9.22,0,0,0-3.14-2,9.52,9.52,0,0,0-3.75.2L37.6,94a9.46,9.46,0,0,1,4.1,0,9.67,9.67,0,0,1,3.56,2.12Zm-7.9-2a9.61,9.61,0,0,1-4.1,0,7.65,7.65,0,0,1-2.18-1A5.76,5.76,0,0,0,33.2,94.3a9.28,9.28,0,0,0,3.74-.21Z"/><path class="cls-3" d="M84.86,106.62l0,0,0,0Zm.2.17.34.29a9.35,9.35,0,0,0,3.14,2,9.1,9.1,0,0,0,3.74-.2l.42-.07a9.61,9.61,0,0,1-4.1,0,9.54,9.54,0,0,1-3.54-2.1Zm7.88,2a9.61,9.61,0,0,1,4.1,0,7.65,7.65,0,0,1,2.18,1,5.6,5.6,0,0,0-2.12-1.26,9.46,9.46,0,0,0-3.74.2Z"/><path class="cls-3" d="M44.77,101.48l-.08,0,.08,0Zm-.22-.1-.43-.2A9.34,9.34,0,0,0,40.56,100,9.29,9.29,0,0,0,37,101.18l-.4.19a9.57,9.57,0,0,1,4-1.11,9.56,9.56,0,0,1,4,1.12Zm-8.14.08a9.61,9.61,0,0,1-4,1.11,7.87,7.87,0,0,1-2.36-.43,5.71,5.71,0,0,0,2.36.67A9.39,9.39,0,0,0,36,101.64Z"/><path class="cls-3" d="M85.53,101.34l0,0,0,0Zm.25.12.39.18a9.45,9.45,0,0,0,3.57,1.17,9.34,9.34,0,0,0,3.56-1.17l.37-.17a9.57,9.57,0,0,1-3.93,1.1,9.61,9.61,0,0,1-4-1.11Zm8.14-.11a9.56,9.56,0,0,1,3.93-1.09,7.58,7.58,0,0,1,2.37.43,5.59,5.59,0,0,0-2.37-.68,9.4,9.4,0,0,0-3.56,1.17Z"/><path class="cls-3" d="M31.46,111.19a5.7,5.7,0,0,0,2.46,0,9.53,9.53,0,0,0,3.14-2l.34-.29a9.47,9.47,0,0,1-3.54,2.1,7.49,7.49,0,0,1-2.4.2Zm6.09-2.43a9.72,9.72,0,0,1,3.55-2.1,9.55,9.55,0,0,1,4.12,0l-.44-.08a9.1,9.1,0,0,0-3.74-.2,9.39,9.39,0,0,0-3.15,2c-.11.1-.22.2-.34.29Zm7.87-2h0Z"/><path class="cls-3" d="M98.84,91.63a5.69,5.69,0,0,0-2.46,0,9.35,9.35,0,0,0-3.14,2l-.32.27a9.69,9.69,0,0,1,3.52-2.08,7.78,7.78,0,0,1,2.4-.2Zm-6.12,2.45a9.47,9.47,0,0,1-3.52,2.08,9.56,9.56,0,0,1-4.09,0l.41.07a9.28,9.28,0,0,0,3.74.21,9.43,9.43,0,0,0,3.14-2.05l.32-.27Zm-7.87,2h0Z"/><path class="cls-3" d="M47.53,111.66h0Zm-.27,0-.44,0a9.4,9.4,0,0,0-3.67.78,9.31,9.31,0,0,0-2.5,2.79c-.08.12-.17.24-.25.37a9.43,9.43,0,0,1,2.88-3,9.43,9.43,0,0,1,4-1Zm-7,4.13a9.54,9.54,0,0,1-2.88,3,7.83,7.83,0,0,1-2.26.81,5.93,5.93,0,0,0,2.39-.6,9.47,9.47,0,0,0,2.5-2.8Z"/><path class="cls-3" d="M82.77,91.16h0Zm.3,0,.4,0a9.5,9.5,0,0,0,3.67-.77,9.45,9.45,0,0,0,2.51-2.79l.23-.34A9.49,9.49,0,0,1,87,90.12a9.43,9.43,0,0,1-4,1ZM90,87a9.54,9.54,0,0,1,2.85-2.91,7.7,7.7,0,0,1,2.27-.81,5.5,5.5,0,0,0-2.38.6,9.21,9.21,0,0,0-2.51,2.79Z"/><path class="cls-3" d="M50.78,115.88h0Zm-.25.09-.41.15a9.38,9.38,0,0,0-3.35,1.69,9.46,9.46,0,0,0-1.69,3.35l-.15.42a9.61,9.61,0,0,1,2-3.6,9.57,9.57,0,0,1,3.59-2Zm-5.67,5.79a9.63,9.63,0,0,1-2,3.6,8,8,0,0,1-2,1.37,5.66,5.66,0,0,0,2.15-1.2,9.4,9.4,0,0,0,1.7-3.35Z"/><path class="cls-3" d="M79.52,87l0,0,0,0Zm.25-.1.41-.14A9.4,9.4,0,0,0,83.53,85a9.41,9.41,0,0,0,1.69-3.34c0-.13.09-.26.14-.38a9.63,9.63,0,0,1-2,3.55,9.46,9.46,0,0,1-3.58,2ZM85.45,81a9.63,9.63,0,0,1,2-3.55,7.46,7.46,0,0,1,2-1.37,5.66,5.66,0,0,0-2.15,1.2,9.27,9.27,0,0,0-1.7,3.34C85.55,80.77,85.5,80.9,85.45,81Z"/><path class="cls-3" d="M48.24,132.15A5.92,5.92,0,0,0,50,130.44a9.39,9.39,0,0,0,.77-3.67c0-.15,0-.3,0-.45a9.62,9.62,0,0,1-1,4,7.66,7.66,0,0,1-1.56,1.84Zm2.59-6a9.82,9.82,0,0,1,1-4,9.59,9.59,0,0,1,2.94-2.87l-.35.24a9.5,9.5,0,0,0-2.8,2.51,9.5,9.5,0,0,0-.77,3.67c0,.15,0,.29,0,.44Zm4.14-7,0,0h0Z"/><path class="cls-3" d="M75.29,83.72l0,0,0,0Zm.22-.16.35-.24a9.37,9.37,0,0,0,2.8-2.51,9.5,9.5,0,0,0,.77-3.67l0-.4a9.43,9.43,0,0,1-1,4,9.48,9.48,0,0,1-2.94,2.87Zm4-7.09a9.48,9.48,0,0,1,1-4,7.66,7.66,0,0,1,1.56-1.84,5.72,5.72,0,0,0-1.77,1.72,9.32,9.32,0,0,0-.77,3.67Z"/><path class="cls-3" d="M59.94,121.12l0,0,0,0Zm-.17.21-.29.33a9.35,9.35,0,0,0-2,3.14,9.16,9.16,0,0,0,.2,3.75c0,.14,0,.28.08.42a7.6,7.6,0,0,1,2.05-7.64Zm-2,7.86a9.5,9.5,0,0,1,0,4.11,7.65,7.65,0,0,1-1,2.18A5.6,5.6,0,0,0,58,133.36a9.11,9.11,0,0,0-.2-3.74C57.81,129.48,57.78,129.34,57.75,129.19Z"/><path class="cls-3" d="M73.53,67.34a5.84,5.84,0,0,0-1.27,2.12,9.28,9.28,0,0,0,.21,3.74c0,.14,0,.28.07.43a9.66,9.66,0,0,1,0-4.11,7.65,7.65,0,0,1,1-2.18Zm-1,6.51a9.5,9.5,0,0,1,0,4.11,9.62,9.62,0,0,1-2.09,3.53l.28-.33a9.35,9.35,0,0,0,2-3.14,9.1,9.1,0,0,0-.2-3.74c0-.14,0-.28-.08-.43Zm-2.19,7.82,0,0Z"/><path class="cls-3" d="M65.22,121.8l0,0,0,0Zm-.12.25-.18.39A9.34,9.34,0,0,0,63.75,126a9.39,9.39,0,0,0,1.17,3.57l.18.38a7.58,7.58,0,0,1,0-7.9Zm.1,8.12a9.51,9.51,0,0,1,1.1,4,7.69,7.69,0,0,1-.43,2.37,5.67,5.67,0,0,0,.68-2.37,9.39,9.39,0,0,0-1.17-3.57Z"/><path class="cls-3" d="M64.42,66.34a5.76,5.76,0,0,0-.67,2.37,9.4,9.4,0,0,0,1.17,3.56l.18.39a9.52,9.52,0,0,1-1.11-4,7.88,7.88,0,0,1,.43-2.37Zm.78,6.53a9.51,9.51,0,0,1,1.1,3.95,9.51,9.51,0,0,1-1.1,4l.18-.38a9.39,9.39,0,0,0,1.17-3.57,9.34,9.34,0,0,0-1.17-3.56l-.18-.39ZM65.1,81l0,0h0Z"/><polygon class="cls-3" points="65.15 54.88 65.46 55.88 66.48 55.65 65.78 56.42 66.48 57.19 65.46 56.97 65.15 57.96 64.84 56.97 63.82 57.19 64.52 56.42 63.82 55.65 64.84 55.88 65.15 54.88"/><polygon class="cls-3" points="65.15 144.86 65.46 145.86 66.48 145.63 65.78 146.4 66.48 147.17 65.46 146.94 65.15 147.94 64.84 146.94 63.82 147.17 64.52 146.4 63.82 145.63 64.84 145.86 65.15 144.86"/><polygon class="cls-3" points="77.19 56.47 77.24 57.51 78.28 57.56 77.4 58.12 77.88 59.05 76.95 58.56 76.39 59.44 76.35 58.4 75.31 58.35 76.19 57.79 75.7 56.87 76.63 57.35 77.19 56.47"/><polygon class="cls-3" points="53.9 143.38 53.95 144.42 54.99 144.47 54.11 145.03 54.59 145.96 53.67 145.47 53.11 146.35 53.06 145.31 52.02 145.27 52.9 144.71 52.42 143.78 53.34 144.26 53.9 143.38"/><polygon class="cls-3" points="88.41 61.12 88.19 62.14 89.19 62.45 88.19 62.76 88.41 63.78 87.64 63.08 86.88 63.78 87.1 62.76 86.1 62.45 87.1 62.14 86.88 61.12 87.64 61.82 88.41 61.12"/><polygon class="cls-3" points="43.43 139.04 43.2 140.06 44.19 140.37 43.2 140.69 43.43 141.71 42.66 141 41.88 141.71 42.11 140.69 41.12 140.37 42.11 140.06 41.88 139.04 42.66 139.75 43.43 139.04"/><polygon class="cls-3" points="98.05 68.51 97.57 69.44 98.45 70 97.41 70.04 97.36 71.09 96.8 70.2 95.87 70.69 96.36 69.76 95.47 69.2 96.52 69.16 96.56 68.11 97.12 68.99 98.05 68.51"/><polygon class="cls-3" points="34.43 132.13 33.94 133.06 34.83 133.62 33.78 133.67 33.74 134.71 33.18 133.83 32.25 134.31 32.73 133.39 31.85 132.82 32.9 132.78 32.94 131.74 33.5 132.62 34.43 132.13"/><polygon class="cls-3" points="105.44 78.15 104.74 78.92 105.44 79.69 104.42 79.46 104.11 80.46 103.8 79.46 102.78 79.69 103.48 78.92 102.78 78.15 103.8 78.37 104.11 77.38 104.42 78.37 105.44 78.15"/><polygon class="cls-3" points="27.52 123.14 26.82 123.91 27.52 124.67 26.5 124.45 26.19 125.45 25.88 124.45 24.86 124.67 25.56 123.91 24.86 123.14 25.88 123.36 26.19 122.37 26.5 123.36 27.52 123.14"/><polygon class="cls-3" points="110.09 89.37 109.21 89.93 109.69 90.86 108.77 90.37 108.21 91.25 108.16 90.21 107.12 90.17 108 89.61 107.52 88.68 108.44 89.16 109 88.28 109.05 89.33 110.09 89.37"/><polygon class="cls-3" points="23.18 112.66 22.3 113.22 22.78 114.14 21.86 113.66 21.3 114.54 21.25 113.5 20.21 113.45 21.09 112.89 20.6 111.97 21.53 112.45 22.09 111.57 22.14 112.61 23.18 112.66"/><polygon class="cls-3" points="111.68 101.41 110.68 101.72 110.91 102.75 110.14 102.04 109.37 102.75 109.59 101.72 108.6 101.41 109.59 101.1 109.37 100.08 110.14 100.78 110.91 100.08 110.68 101.1 111.68 101.41"/><polygon class="cls-3" points="21.7 101.41 20.7 101.72 20.93 102.75 20.16 102.04 19.39 102.75 19.62 101.72 18.62 101.41 19.62 101.1 19.39 100.08 20.16 100.78 20.93 100.08 20.7 101.1 21.7 101.41"/><polygon class="cls-3" points="110.09 113.45 109.05 113.5 109 114.54 108.44 113.66 107.52 114.14 108 113.22 107.12 112.66 108.16 112.61 108.21 111.57 108.77 112.45 109.69 111.97 109.21 112.89 110.09 113.45"/><polygon class="cls-3" points="23.18 90.17 22.14 90.21 22.09 91.25 21.53 90.37 20.6 90.86 21.09 89.93 20.21 89.37 21.25 89.33 21.3 88.28 21.86 89.16 22.78 88.68 22.3 89.61 23.18 90.17"/><polygon class="cls-3" points="105.44 124.67 104.42 124.45 104.11 125.45 103.8 124.45 102.78 124.67 103.48 123.91 102.78 123.14 103.8 123.36 104.11 122.37 104.42 123.36 105.44 123.14 104.74 123.91 105.44 124.67"/><polygon class="cls-3" points="27.52 79.69 26.5 79.46 26.19 80.46 25.88 79.46 24.86 79.69 25.56 78.92 24.86 78.15 25.88 78.37 26.19 77.38 26.5 78.37 27.52 78.15 26.81 78.92 27.52 79.69"/><polygon class="cls-3" points="98.05 134.31 97.12 133.83 96.56 134.71 96.52 133.67 95.47 133.62 96.36 133.06 95.87 132.13 96.8 132.62 97.36 131.74 97.41 132.78 98.45 132.82 97.57 133.39 98.05 134.31"/><polygon class="cls-3" points="34.43 70.69 33.5 70.2 32.94 71.09 32.9 70.04 31.85 70 32.73 69.44 32.25 68.51 33.18 68.99 33.74 68.11 33.78 69.16 34.83 69.2 33.94 69.76 34.43 70.69"/><polygon class="cls-3" points="88.41 141.71 87.64 141 86.88 141.71 87.1 140.69 86.1 140.37 87.1 140.06 86.88 139.04 87.64 139.75 88.41 139.04 88.19 140.06 89.19 140.37 88.19 140.69 88.41 141.71"/><polygon class="cls-3" points="43.43 63.78 42.66 63.08 41.88 63.78 42.11 62.76 41.12 62.45 42.11 62.14 41.88 61.12 42.66 61.82 43.43 61.12 43.2 62.14 44.19 62.45 43.2 62.76 43.43 63.78"/><polygon class="cls-3" points="77.19 146.35 76.63 145.47 75.7 145.96 76.19 145.03 75.31 144.47 76.35 144.42 76.39 143.38 76.95 144.26 77.88 143.78 77.4 144.71 78.28 145.27 77.24 145.31 77.19 146.35"/><polygon class="cls-3" points="53.9 59.44 53.34 58.56 52.42 59.05 52.9 58.12 52.02 57.56 53.06 57.51 53.11 56.47 53.67 57.35 54.59 56.87 54.11 57.79 54.99 58.35 53.95 58.4 53.9 59.44"/><path class="cls-2" d="M68.27,149.23a.19.19,0,0,1-.19-.18l-.16-2.45h0l-.18-2.72a.19.19,0,0,1,.18-.21.18.18,0,0,1,.2.18l.16,2.31h0l.18,2.87a.19.19,0,0,1-.18.2Zm-6.24,0h0a.19.19,0,0,1-.18-.2l.18-2.87h0l.16-2.31a.18.18,0,0,1,.2-.18.19.19,0,0,1,.18.21l-.18,2.72h0l-.16,2.45A.19.19,0,0,1,62,149.23Zm12.43-.81a.19.19,0,0,1-.19-.15l-.48-2.42h0l-.08-.4h0l-.45-2.27a.2.2,0,0,1,.15-.23.19.19,0,0,1,.23.15l1,5.1a.18.18,0,0,1-.15.22Zm-18.62,0h0a.18.18,0,0,1-.15-.22l.48-2.42h0l.53-2.67a.19.19,0,0,1,.23-.15.2.2,0,0,1,.15.23l-.45,2.26h0L56,148.27A.19.19,0,0,1,55.84,148.42Zm24.66-1.61a.21.21,0,0,1-.19-.13l-.79-2.33h0l-.88-2.59a.19.19,0,0,1,.12-.24.19.19,0,0,1,.25.12l.74,2.19h0l.92,2.72a.19.19,0,0,1-.12.24Zm-30.7,0h-.06a.19.19,0,0,1-.12-.24l.93-2.72h0l.74-2.19a.19.19,0,0,1,.37.12l-.88,2.59h0L50,146.68A.21.21,0,0,1,49.8,146.81ZM44,144.42l-.09,0a.2.2,0,0,1-.09-.26l1.27-2.58h0l1-2.08a.19.19,0,0,1,.26-.08.19.19,0,0,1,.09.25L45.3,142.1h0l-1.09,2.21A.18.18,0,0,1,44,144.42Zm42.22,0a.18.18,0,0,1-.17-.11l-1.27-2.58h0l-1-2.08a.19.19,0,0,1,.09-.25.2.2,0,0,1,.26.08l1.2,2.45h0l1.09,2.21a.21.21,0,0,1-.09.26Zm5.41-3.13a.21.21,0,0,1-.16-.08l-2.89-4.32a.2.2,0,0,1,.06-.27.18.18,0,0,1,.26,0l1.29,1.93h0l.23.34h0L91.83,141a.19.19,0,0,1,0,.27A.23.23,0,0,1,91.67,141.29Zm-53,0a.23.23,0,0,1-.11,0,.2.2,0,0,1-.05-.27l2.89-4.32a.18.18,0,0,1,.26,0,.2.2,0,0,1,.06.27l-1.29,1.92h0l-1.6,2.39A.19.19,0,0,1,38.63,141.29Zm-5-3.8a.18.18,0,0,1-.12-.05.18.18,0,0,1,0-.27L35.43,135h0L37,133.26a.18.18,0,0,1,.27,0,.19.19,0,0,1,0,.27l-1.8,2h0l-1.62,1.85A.18.18,0,0,1,33.68,137.49Zm62.94,0a.18.18,0,0,1-.15-.07l-1.89-2.16h0l-1.52-1.73a.19.19,0,0,1,0-.27.18.18,0,0,1,.27,0l1.8,2.05h0l1.61,1.85a.19.19,0,0,1,0,.27A.24.24,0,0,1,96.62,137.49Zm4.41-4.42a.22.22,0,0,1-.13,0L97,129.6a.19.19,0,0,1,0-.27.2.2,0,0,1,.28,0L99,130.84h0l.3.27h0l1.85,1.62a.19.19,0,0,1-.13.34Zm-71.76,0a.19.19,0,0,1-.13-.34l3.9-3.42a.2.2,0,0,1,.28,0,.19.19,0,0,1,0,.27l-1.74,1.53h0l-.31.27h0L29.39,133A.17.17,0,0,1,29.27,133.07Zm-3.81-4.95a.21.21,0,0,1-.16-.08.2.2,0,0,1,.06-.27l2.39-1.6h0l1.91-1.29a.2.2,0,0,1,.27.06.19.19,0,0,1-.05.27l-2.27,1.51h0l-2,1.36A.2.2,0,0,1,25.46,128.12Zm79.38,0a.2.2,0,0,1-.11,0l-2.39-1.59h0l-1.92-1.28a.19.19,0,0,1,0-.27.2.2,0,0,1,.27-.06l2.26,1.52h0l2,1.37a.2.2,0,0,1,.06.27A.21.21,0,0,1,104.84,128.12Zm3.12-5.4-.08,0-2.58-1.27h0l-2.07-1a.19.19,0,0,1-.09-.26.21.21,0,0,1,.26-.09l2.44,1.21h0l2.21,1.09a.19.19,0,0,1-.09.37Zm-85.62,0a.19.19,0,0,1-.09-.37l2.21-1.08h0l2.45-1.21a.21.21,0,0,1,.26.09.2.2,0,0,1-.09.26l-2.07,1h0l-2.58,1.27Zm88-5.77h-.07l-2.32-.79h0l-2.58-.88a.19.19,0,1,1,.12-.36l2.19.74h0l2.72.93a.18.18,0,0,1,.12.24A.19.19,0,0,1,110.36,117Zm-90.42,0a.19.19,0,0,1-.06-.37l2.32-.79h0l2.59-.87a.19.19,0,0,1,.12.36l-2.18.74h0l-2.72.92Zm92-6h0l-5.09-1a.19.19,0,0,1-.15-.23.19.19,0,0,1,.22-.15l2.28.46h0l.4.08h0l2.42.48a.19.19,0,0,1,0,.38Zm-93.64,0a.19.19,0,0,1,0-.38l2.41-.48h0l2.68-.54a.19.19,0,0,1,.22.15.19.19,0,0,1-.15.23l-2.27.45h0l-2.82.57Zm94.45-6.19h0l-2.45-.16h0l-2.72-.18a.21.21,0,0,1-.18-.21.2.2,0,0,1,.21-.18l2.31.15h0l2.87.19a.19.19,0,0,1,.18.21A.19.19,0,0,1,112.78,104.73Zm-95.26,0a.19.19,0,0,1-.19-.18.19.19,0,0,1,.18-.21l2.87-.19h0l2.31-.15a.19.19,0,0,1,.21.18.21.21,0,0,1-.18.21l-2.72.17h0l-2.46.16Zm90.07-5.91a.2.2,0,0,1-.19-.18.2.2,0,0,1,.18-.2l2.31-.15h0l2.86-.19a.19.19,0,0,1,.21.18.18.18,0,0,1-.18.2l-2.45.16h0l-2.72.18Zm-84.89,0h0l-2.31-.15h0l-2.87-.19a.18.18,0,0,1-.18-.2.19.19,0,0,1,.2-.18l2.46.16h0l2.72.18a.19.19,0,0,1,0,.38Zm.72-5.51h0l-2.26-.45h0l-2.82-.56a.2.2,0,0,1-.15-.23.2.2,0,0,1,.23-.15l2.41.48h0l2.67.53a.19.19,0,0,1,.15.23A.2.2,0,0,1,23.42,93.31Zm83.46,0a.2.2,0,0,1-.19-.16.19.19,0,0,1,.15-.23l2.67-.53h0l2.41-.48a.19.19,0,1,1,.08.38l-2.82.56h0l-2.27.45Zm-1.44-5.38a.19.19,0,0,1-.18-.13.2.2,0,0,1,.12-.25l2.58-.87h0l2.33-.79a.19.19,0,0,1,.24.12.19.19,0,0,1-.12.25l-2.72.92h0l-2.19.74Zm-80.58,0H24.8l-2.19-.74h0l-2.72-.92a.2.2,0,0,1-.12-.25.19.19,0,0,1,.24-.12l2.33.79h0l2.58.87a.2.2,0,0,1,.12.25A.19.19,0,0,1,24.86,87.93Zm78.45-5.14a.19.19,0,0,1-.09-.37l2.45-1.2h0l2.2-1.09a.21.21,0,0,1,.26.09.19.19,0,0,1-.09.26l-2.58,1.27h0l-2.07,1ZM27,82.79l-.08,0-2.45-1.21h0l-2.21-1.09a.21.21,0,0,1-.09-.26.21.21,0,0,1,.26-.09L25,81.4h0l2.08,1a.21.21,0,0,1,.09.26A.2.2,0,0,1,27,82.79ZM100.52,78a.19.19,0,0,1-.16-.09.18.18,0,0,1,0-.26l1.93-1.29h0l2.39-1.6a.2.2,0,0,1,.27.06.19.19,0,0,1,0,.26l-2,1.37h0l-2.26,1.52A.23.23,0,0,1,100.52,78ZM29.78,78a.23.23,0,0,1-.11,0l-1.92-1.29h0l-2.39-1.6a.19.19,0,0,1-.05-.26.2.2,0,0,1,.27-.06l2.05,1.37h0l2.27,1.52a.18.18,0,0,1,.05.26A.19.19,0,0,1,29.78,78Zm67.35-4.41a.19.19,0,0,1-.15-.07.19.19,0,0,1,0-.27l3.91-3.42a.18.18,0,0,1,.27,0,.19.19,0,0,1,0,.27l-1.85,1.62h0L99,72h0l-1.74,1.53A.24.24,0,0,1,97.13,73.56Zm-64,0a.21.21,0,0,1-.13,0L31.31,72h0l-2.16-1.89a.19.19,0,0,1,0-.27.18.18,0,0,1,.27,0l1.85,1.62h0l2,1.8a.19.19,0,0,1,0,.27A.19.19,0,0,1,33.17,73.56Zm3.93-3.94a.2.2,0,0,1-.14-.06l-1.8-2h0l-1.62-1.84a.19.19,0,1,1,.29-.26l1.89,2.16h0l1.52,1.73a.2.2,0,0,1,0,.28A.18.18,0,0,1,37.1,69.62Zm56.1,0a.18.18,0,0,1-.13,0,.2.2,0,0,1,0-.28l1.8-2h0l1.62-1.85a.19.19,0,1,1,.29.26l-1.89,2.16h0l-1.53,1.74A.2.2,0,0,1,93.2,69.62Zm-4.42-3.39a.19.19,0,0,1-.1,0,.2.2,0,0,1-.06-.27l1.52-2.26h0l1.37-2a.2.2,0,0,1,.27-.06.19.19,0,0,1,0,.27l-1.6,2.39h0L89,66.15A.19.19,0,0,1,88.78,66.23Zm-47.26,0a.16.16,0,0,1-.16-.08l-1.29-1.93h0l-1.6-2.39a.2.2,0,0,1,.05-.27.2.2,0,0,1,.27.06l1.37,2h0l1.52,2.26a.2.2,0,0,1-.06.27A.19.19,0,0,1,41.52,66.23ZM84,63.45l-.09,0a.21.21,0,0,1-.09-.26L85,60.73h0l1.09-2.21a.21.21,0,0,1,.26-.09.19.19,0,0,1,.09.26l-1.27,2.58h0l-1,2.07A.18.18,0,0,1,84,63.45Zm-37.64,0a.18.18,0,0,1-.17-.11l-1-2.07h0l-1.27-2.58a.2.2,0,0,1,.09-.26.2.2,0,0,1,.26.09l1.09,2.21h0l1.21,2.44a.2.2,0,0,1-.09.26Zm32.5-2.14h-.06a.19.19,0,0,1-.13-.24l.88-2.58v0l.79-2.32a.2.2,0,1,1,.37.13L79.76,59h0L79,61.18A.19.19,0,0,1,78.83,61.31Zm-27.36,0a.19.19,0,0,1-.18-.13L50.55,59h0l-.93-2.73a.19.19,0,0,1,.12-.24.2.2,0,0,1,.25.12l.79,2.33h0l.88,2.58a.19.19,0,0,1-.12.24Zm5.38-1.43a.2.2,0,0,1-.19-.16l-.53-2.67h0l-.48-2.41a.19.19,0,0,1,.15-.23.2.2,0,0,1,.23.15l.56,2.82h0L57,59.65a.19.19,0,0,1-.15.22Zm16.6,0h0a.19.19,0,0,1-.15-.22l.45-2.27h0l.08-.39h0l.48-2.42a.2.2,0,0,1,.23-.15.19.19,0,0,1,.15.23l-1,5.09A.2.2,0,0,1,73.45,59.88Zm-5.52-.72h0a.19.19,0,0,1-.18-.21l.18-2.71v0l.16-2.45a.21.21,0,0,1,.21-.18.19.19,0,0,1,.17.21l-.18,2.86v0L68.12,59A.19.19,0,0,1,67.93,59.16Zm-5.56,0a.19.19,0,0,1-.19-.18L62,56.67h0l-.18-2.86a.19.19,0,0,1,.18-.21.2.2,0,0,1,.2.18l.16,2.45v0L62.56,59a.19.19,0,0,1-.18.21Z"/><path class="cls-2" d="M65.15,122.31a20.9,20.9,0,1,1,20.9-20.9A20.93,20.93,0,0,1,65.15,122.31Zm0-40.77A19.88,19.88,0,1,0,85,101.41,19.89,19.89,0,0,0,65.15,81.54Z"/><path class="cls-2" d="M68.22,117a.12.12,0,0,1-.11-.09L67,111.1a.11.11,0,0,1,.09-.13.12.12,0,0,1,.14.09l1.15,5.79a.13.13,0,0,1-.09.14ZM63.15,91.47a.12.12,0,0,1-.11-.1L62,86a.11.11,0,0,1,.09-.13.12.12,0,0,1,.14.09l1.07,5.4a.11.11,0,0,1-.09.13Z"/><path class="cls-2" d="M62,95.22a.11.11,0,0,1-.1-.06l-3.86-7.84a.11.11,0,0,1,.05-.15.12.12,0,0,1,.15,0l3.86,7.84a.11.11,0,0,1,0,.15Z"/><path class="cls-2" d="M75.55,113.38a.1.1,0,0,1-.09,0l-3.87-4.41a.11.11,0,0,1,0-.16.1.1,0,0,1,.16,0l3.87,4.41a.11.11,0,0,1,0,.16A.11.11,0,0,1,75.55,113.38ZM57.85,93.2a.12.12,0,0,1-.09,0l-3.09-3.53a.11.11,0,0,1,0-.16.12.12,0,0,1,.16,0L57.93,93a.1.1,0,0,1,0,.16A.09.09,0,0,1,57.85,93.2Z"/><path class="cls-2" d="M78.26,110.29l-.06,0-5.84-3.9a.11.11,0,0,1,0-.16.12.12,0,0,1,.16,0l5.83,3.9a.1.1,0,0,1,0,.15A.1.1,0,0,1,78.26,110.29ZM52.76,93.24h-.07L52,92.75a.12.12,0,0,1,0-.16.11.11,0,0,1,.16,0l.72.48a.1.1,0,0,1,0,.15A.1.1,0,0,1,52.76,93.24Z"/><path class="cls-2" d="M80.08,106.59h0l-.61-.21a.12.12,0,0,1-.07-.14.12.12,0,0,1,.15-.08l.61.21a.12.12,0,0,1,.07.14A.12.12,0,0,1,80.08,106.59ZM57.21,98.83h0l-7-2.38a.11.11,0,0,1-.07-.14.12.12,0,0,1,.15-.07l7,2.37a.11.11,0,0,1,.07.14A.12.12,0,0,1,57.21,98.83Z"/><path class="cls-2" d="M80.88,102.55h0l-4.17-.27a.11.11,0,0,1-.1-.12.1.1,0,0,1,.12-.1l4.17.27a.12.12,0,0,1,.11.12A.12.12,0,0,1,80.88,102.55ZM56.82,101h0l-7.41-.48a.13.13,0,0,1-.11-.13.11.11,0,0,1,.13-.1l7.4.48a.12.12,0,0,1,0,.23Z"/><path class="cls-2" d="M72.66,100a.11.11,0,0,1-.11-.09.11.11,0,0,1,.09-.13l8-1.58a.1.1,0,0,1,.13.08.11.11,0,0,1-.09.14L72.68,100Z"/><path class="cls-2" d="M51,108.5a.12.12,0,0,1-.1-.07.11.11,0,0,1,.05-.15l4.28-2.11a.12.12,0,0,1,.16,0,.11.11,0,0,1-.06.15l-4.28,2.12ZM75.56,96.39a.11.11,0,0,1-.1-.06.13.13,0,0,1,.05-.16l3.73-1.83a.11.11,0,1,1,.1.2l-3.73,1.84Z"/><path class="cls-2" d="M53.3,111.92a.1.1,0,0,1-.09,0,.11.11,0,0,1,0-.16l6.31-5.53a.11.11,0,0,1,.15.17l-6.31,5.53A.11.11,0,0,1,53.3,111.92Zm23.37-20.5a.14.14,0,0,1-.09,0,.11.11,0,0,1,0-.16l.34-.3a.11.11,0,1,1,.15.17l-.34.3Z"/><path class="cls-2" d="M56.39,114.64l-.06,0a.11.11,0,0,1,0-.16l2.23-3.34a.12.12,0,0,1,.16,0,.12.12,0,0,1,0,.16l-2.24,3.35A.11.11,0,0,1,56.39,114.64ZM69.64,94.81l-.07,0a.12.12,0,0,1,0-.16l4.28-6.39a.1.1,0,0,1,.15,0,.1.1,0,0,1,0,.15l-4.27,6.4A.12.12,0,0,1,69.64,94.81Z"/><path class="cls-2" d="M60.08,116.46h0a.11.11,0,0,1-.07-.15l.38-1.13a.11.11,0,0,1,.14-.07.11.11,0,0,1,.08.14l-.39,1.14A.12.12,0,0,1,60.08,116.46ZM68,93h0a.12.12,0,0,1-.07-.15l2.18-6.42a.12.12,0,0,1,.14-.08.13.13,0,0,1,.08.15L68.14,93A.11.11,0,0,1,68,93Z"/><path class="cls-2" d="M64.12,117.26h0a.11.11,0,0,1-.1-.12l.46-7.1a.1.1,0,0,1,.12-.11.12.12,0,0,1,.11.12l-.47,7.1A.11.11,0,0,1,64.12,117.26Z"/><path class="cls-2" d="M73.91,114.64a.11.11,0,0,1-.09,0l-1.44-2.15a.1.1,0,0,1,0-.15.1.1,0,0,1,.15,0L74,114.46a.11.11,0,0,1,0,.16ZM60.41,94.43a.09.09,0,0,1-.09-.05l-4-6a.1.1,0,0,1,0-.15.1.1,0,0,1,.15,0l4,6a.11.11,0,0,1,0,.15A.1.1,0,0,1,60.41,94.43Z"/><path class="cls-2" d="M77,111.92a.11.11,0,0,1-.07,0l-5.82-5.1a.11.11,0,1,1,.15-.17l5.82,5.1a.11.11,0,0,1,0,.16A.1.1,0,0,1,77,111.92Z"/><path class="cls-2" d="M79.29,108.5h-.05L75,106.37a.11.11,0,0,1-.06-.15.11.11,0,0,1,.15,0l4.29,2.11a.11.11,0,0,1,0,.15A.12.12,0,0,1,79.29,108.5ZM55.61,96.82h0L51,94.54a.11.11,0,0,1,.1-.2l4.6,2.26a.13.13,0,0,1,.05.16A.11.11,0,0,1,55.61,96.82Z"/><path class="cls-2" d="M58.27,100.16h0l-8.58-1.7a.11.11,0,0,1-.09-.14.1.1,0,0,1,.13-.08l8.58,1.7a.12.12,0,0,1,0,.23Z"/><path class="cls-2" d="M49.42,102.55a.12.12,0,0,1-.12-.1.12.12,0,0,1,.11-.12L54.2,102a.14.14,0,0,1,.12.11.12.12,0,0,1-.11.12l-4.78.31ZM73.94,101a.12.12,0,0,1,0-.23l6.94-.45a.11.11,0,0,1,.13.1.13.13,0,0,1-.11.13L74,101Z"/><path class="cls-2" d="M50.22,106.59a.12.12,0,0,1-.11-.08.11.11,0,0,1,.07-.14l.61-.21a.12.12,0,0,1,.15.08.12.12,0,0,1-.08.14l-.6.21Zm23.59-8a.14.14,0,0,1-.11-.07.12.12,0,0,1,.08-.15L80,96.24a.12.12,0,0,1,.15.07.12.12,0,0,1-.07.14l-6.27,2.13Z"/><path class="cls-2" d="M52,110.29a.12.12,0,0,1-.1-.06.1.1,0,0,1,0-.15l5.83-3.9a.12.12,0,0,1,.13.19l-5.84,3.9Z"/><path class="cls-2" d="M54.75,113.38a.11.11,0,0,1-.07,0,.11.11,0,0,1,0-.16L59.26,108a.11.11,0,0,1,.16,0,.12.12,0,0,1,0,.16l-4.59,5.23A.11.11,0,0,1,54.75,113.38ZM72.06,93.64a.11.11,0,0,1-.07,0,.11.11,0,0,1,0-.16l3.48-4a.12.12,0,0,1,.16,0,.11.11,0,0,1,0,.16l-3.48,4A.1.1,0,0,1,72.06,93.64Z"/><path class="cls-2" d="M68.45,94.84l0,0a.1.1,0,0,1-.05-.15L72,87.22a.12.12,0,0,1,.15,0,.11.11,0,0,1,0,.15l-3.67,7.45A.12.12,0,0,1,68.45,94.84Z"/><path class="cls-2" d="M62.08,117h0a.13.13,0,0,1-.09-.14l1-4.9a.1.1,0,0,1,.13-.09.11.11,0,0,1,.09.13l-1,4.91A.12.12,0,0,1,62.08,117ZM67.4,90.23h0a.1.1,0,0,1-.08-.13l.82-4.16a.11.11,0,0,1,.14-.09.11.11,0,0,1,.09.13l-.83,4.16A.12.12,0,0,1,67.4,90.23Z"/><path class="cls-2" d="M66.18,117.26a.11.11,0,0,1-.11-.11l-.52-7.82a.12.12,0,0,1,.11-.12.11.11,0,0,1,.12.1l.51,7.83a.11.11,0,0,1-.1.12Zm-2-30.36a.11.11,0,0,1-.11-.11L64,85.69a.11.11,0,0,1,.22,0l.07,1.11a.11.11,0,0,1-.1.12Z"/><path class="cls-2" d="M70.22,116.46a.11.11,0,0,1-.11-.08l-.78-2.29a.12.12,0,0,1,.22-.08l.78,2.29a.13.13,0,0,1-.08.15ZM62.58,94a.12.12,0,0,1-.11-.08L60,86.52a.11.11,0,0,1,.07-.15.12.12,0,0,1,.14.08l2.5,7.36a.11.11,0,0,1-.07.14Z"/><path class="cls-3" d="M68.56,95.21,81.3,89.08l-8.81,11.06,12.74,6.13H71.08l3.15,13.79L65.42,109,56.6,120.06l3.14-13.79H45.6l4-1.93,8.73-4.2L49.53,89.08l12.74,6.13,3.15-13.78,3.14,13.78Zm.47,2,.31,1.38,1.27.61,3.56-4.46L69,97.24ZM67.58,100l-2.16-1-2.17,1-.53,2.34,1.49,1.88h2.4l1.5-1.88L67.58,100Zm-.89-3.9-1.27-5.57-1.28,5.57,1.28.61,1.27-.61Zm3.62,6.75.31,1.37h5.71l-5.14-2.48-.88,1.11Zm0,9L69,106.27H67.59l-.88,1.1,3.56,4.47Zm-6.15-4.47-.88-1.1H61.83l-1.28,5.57,3.57-4.47Zm-3.6-4.5-.88-1.11-5.14,2.48h5.71l.31-1.37Zm-3.86-8.1,3.56,4.46,1.27-.61.31-1.38-5.14-2.47Zm9-8.85-.29-1.3-.3,1.3L62.76,96.24l-9.54-4.59L52,91.07l.83,1,6.61,8.28L49.92,105l-1.21.58H60.63l-2.35,10.32-.3,1.3.83-1,6.61-8.28,6.6,8.28.83,1-.3-1.3-2.36-10.32H82.12L80.91,105l-9.54-4.59L78,92.11l.83-1-1.21.58-9.53,4.59L65.71,85.92Zm2.5,10.93.51,2.26,2.09,1,5.86-7.35-8.46,4.08Zm.68,3,.24,1,.24,1,1-1.32-1.53-.74ZM68.54,101l-.34-1.51-1.4-.67-1.38-.67L64,98.86l-1.4.67L62.29,101l-.34,1.5,1,1.21,1,1.2H67l1-1.2,1-1.21-.34-1.5ZM68,98.77l-.38-1.65-1.52.74.95.46,1,.45Zm-.52-2.26-2.08-9.16-2.1,9.16,2.1,1,2.08-1Zm2,6.18.51,2.26h9.4L71,100.88l-1.45,1.81Zm2.12,12-2.09-9.16H67.25l-1.45,1.81,5.86,7.35ZM69.43,105l-.38-1.65-.66.83-.65.82ZM65,107.37l-1.45-1.81H61.26l-2.09,9.16L65,107.37ZM63.09,105l-.66-.82-.66-.83L61.4,105Zm1.27.61,1.06,1.33,1-1.33H64.36Zm-3.07-2.87-1.45-1.81L51.38,105h9.39l.52-2.26Zm-7.13-9.92L60,100.12l2.09-1,.51-2.26-8.46-4.08Zm6.25,7.84,1.05,1.32.24-1,.23-1-1.52.74Zm4.3-2.75-1.52-.74-.38,1.65.95-.45Z"/><path class="cls-2" d="M57,119.57a.2.2,0,0,1-.15-.07L46.13,106.18a.21.21,0,0,1,0-.17l3.64-16.85a.22.22,0,0,1,.11-.14l15.5-7.59a.17.17,0,0,1,.17,0L81,89.34a.17.17,0,0,1,.1.13l3.75,16.85a.21.21,0,0,1,0,.17L74,119.19a.17.17,0,0,1-.14.06L57,119.57ZM46.49,106l10.6,13.18,16.68-.31,10.7-12.56L80.76,89.64,65.42,81.81,50.09,89.33Z"/></g></g></svg>