<?xml version="1.0" encoding="utf-8"?>
<!-- Generator: Adobe Illustrator 25.0.1, SVG Export Plug-In . SVG Version: 6.00 Build 0)  -->
<svg version="1.1" id="Layer_1" xmlns="http://www.w3.org/2000/svg" xmlns:xlink="http://www.w3.org/1999/xlink" x="0px" y="0px"
	 viewBox="0 0 131 202.3" style="enable-background:new 0 0 131 202.3;" xml:space="preserve">
<style type="text/css">
	.st0{fill:#88468D;stroke:#88468D;stroke-miterlimit:10;}
	.st1{fill:#EAC47E;}
	.st2{fill-rule:evenodd;clip-rule:evenodd;fill:#EAC47E;}
</style>
<g id="Layer_2_1_">
	<g id="Layer_1-2">
		<path class="st0" d="M6.9,0.5h117.3c3.5,0,6.4,2.9,6.4,6.4v188.5c0,3.5-2.9,6.4-6.4,6.4H6.9c-3.5,0-6.4-2.9-6.4-6.4V6.9
			C0.5,3.4,3.4,0.5,6.9,0.5z"/>
		<path class="st1" d="M120.2,195.9H10.9c-2.5,0-4.5-2-4.5-4.5V10.9c0-2.5,2-4.5,4.5-4.5h109.3c2.5,0,4.5,2,4.5,4.5v180.5
			C124.6,193.9,122.6,195.9,120.2,195.9z M10.9,7.2c-2,0-3.6,1.6-3.7,3.7v180.5c0,2,1.6,3.6,3.7,3.6h109.3c2,0,3.6-1.6,3.7-3.6
			c0,0,0,0,0,0V10.9c0-2-1.6-3.7-3.7-3.7l0,0H10.9z"/>
		<path class="st1" d="M110.4,11.2H20.6c-0.2,0-0.4-0.3-0.4-0.5c0-0.2,0.2-0.3,0.4-0.4h89.8c0.2,0,0.4,0.3,0.4,0.5
			C110.8,11,110.6,11.2,110.4,11.2z"/>
		<rect x="20.6" y="190.8" class="st1" width="89.8" height="0.8"/>
		<path class="st1" d="M10.9,180.9c-0.2,0-0.4-0.2-0.4-0.4V21.8c0-0.2,0.2-0.4,0.4-0.4c0,0,0,0,0,0c0.2,0,0.4,0.2,0.4,0.4
			c0,0,0,0,0,0v158.7C11.3,180.7,11.1,180.9,10.9,180.9z"/>
		<path class="st1" d="M120.3,180.9c-0.2,0-0.4-0.2-0.4-0.4V21.8c0-0.2,0.1-0.5,0.4-0.5c0.2,0,0.5,0.1,0.5,0.4c0,0,0,0.1,0,0.1
			v158.7C120.7,180.7,120.6,180.9,120.3,180.9C120.3,180.9,120.3,180.9,120.3,180.9z"/>
		<path class="st1" d="M11.6,13.7c-1.2,0-2.2-1-2.2-2.2s1-2.2,2.2-2.2s2.2,1,2.2,2.2S12.8,13.7,11.6,13.7z M11.6,9.5
			c-1.1,0-2,0.9-2,2s0.9,2,2,2s2-0.9,2-2S12.7,9.5,11.6,9.5z"/>
		<path class="st2" d="M10.9,11.5c0-0.8,0.6-1.4,1.4-1.4l0,0c-0.2-0.2-0.5-0.2-0.8-0.2c-0.9,0.1-1.5,0.8-1.5,1.7
			c0.1,0.8,0.7,1.4,1.5,1.5c0.3,0,0.6-0.1,0.8-0.2l0,0C11.6,12.8,10.9,12.2,10.9,11.5C10.9,11.5,10.9,11.5,10.9,11.5z"/>
		<polygon class="st2" points="11,14.3 11.3,14.9 12,14.7 11.8,15.4 12.4,15.8 11.8,16.1 12,16.8 11.3,16.6 11,17.2 10.6,16.6 
			10,16.8 10.1,16.1 9.6,15.8 10.1,15.4 10,14.7 10.6,14.9 		"/>
		<polygon class="st2" points="14.4,10.9 14.9,10.6 14.8,9.9 15.4,10.1 15.8,9.5 16.1,10.1 16.8,9.9 16.6,10.6 17.2,10.9 16.6,11.2 
			16.8,11.9 16.1,11.7 15.8,12.3 15.4,11.7 14.8,11.9 14.9,11.2 		"/>
		<polygon class="st2" points="11,17.9 11.2,18.2 11.6,18.1 11.5,18.6 11.9,18.8 11.5,19 11.6,19.5 11.2,19.4 11,19.8 10.8,19.4 
			10.3,19.5 10.4,19 10,18.8 10.4,18.6 10.3,18.1 10.8,18.2 		"/>
		<polygon class="st2" points="17.9,10.9 18.3,10.7 18.2,10.2 18.6,10.3 18.8,10 19.1,10.3 19.5,10.2 19.4,10.7 19.8,10.9 
			19.4,11.1 19.5,11.6 19.1,11.5 18.8,11.9 18.6,11.5 18.2,11.6 18.3,11.1 		"/>
		<path class="st2" d="M13.1,14.6c0.1,0,0.2,0.1,0.2,0.3c0,0.1-0.1,0.2-0.3,0.2c0,0,0,0,0,0c-0.1,0-0.2-0.1-0.2-0.3
			C12.8,14.7,12.9,14.6,13.1,14.6z"/>
		<path class="st2" d="M15,12.5c0.1,0,0.3,0.1,0.2,0.3c0,0,0,0,0,0c0,0.1-0.1,0.2-0.2,0.2c-0.1,0-0.2-0.1-0.2-0.3c0,0,0,0,0,0
			C14.8,12.6,14.9,12.5,15,12.5z"/>
		<path class="st2" d="M14.3,13.4c0.3,0,0.5,0.3,0.5,0.6c0,0,0,0,0,0c0,0.3-0.3,0.5-0.6,0.5c-0.3,0-0.5-0.3-0.5-0.6
			C13.8,13.6,14,13.4,14.3,13.4z"/>
		<path class="st1" d="M11.6,192.8c-1.2,0-2.2-1-2.2-2.2s1-2.2,2.2-2.2s2.2,1,2.2,2.2l0,0C13.8,191.8,12.8,192.8,11.6,192.8z
			 M11.6,188.6c-1.1,0-2,0.9-2,2s0.9,2,2,2s2-0.9,2-2S12.7,188.6,11.6,188.6z"/>
		<path class="st2" d="M10.9,190.6c0,0.8,0.6,1.4,1.4,1.4l0,0c-0.2,0.1-0.5,0.2-0.8,0.2c-0.9,0-1.6-0.7-1.6-1.6
			c0-0.9,0.7-1.6,1.6-1.6c0,0,0,0,0,0c0.3,0,0.6,0.1,0.8,0.2l0,0C11.6,189.2,10.9,189.8,10.9,190.6z"/>
		<polygon class="st2" points="11,187.7 11.3,187.1 12,187.3 11.8,186.6 12.4,186.3 11.8,185.9 12,185.2 11.3,185.4 11,184.8 
			10.6,185.4 10,185.2 10.1,185.9 9.6,186.3 10.1,186.6 10,187.3 10.6,187.1 		"/>
		<polygon class="st2" points="14.4,191.1 14.9,191.5 14.8,192.1 15.4,192 15.8,192.6 16.1,192 16.8,192.1 16.6,191.5 17.2,191.1 
			16.6,190.8 16.8,190.1 16.1,190.3 15.8,189.7 15.4,190.3 14.8,190.1 14.9,190.8 		"/>
		<polygon class="st2" points="11,184.2 11.2,183.8 11.6,183.9 11.5,183.4 11.9,183.2 11.5,183 11.6,182.5 11.2,182.7 11,182.3 
			10.8,182.7 10.3,182.5 10.4,183 10,183.2 10.4,183.4 10.3,183.9 10.8,183.8 		"/>
		<polygon class="st2" points="17.9,191.1 18.3,191.4 18.2,191.8 18.6,191.7 18.8,192.1 19.1,191.7 19.5,191.8 19.4,191.4 
			19.8,191.1 19.4,190.9 19.5,190.4 19.1,190.6 18.8,190.2 18.6,190.6 18.2,190.4 18.3,190.9 		"/>
		<path class="st2" d="M13.1,187.4c0.1,0,0.2-0.1,0.2-0.3c0,0,0,0,0,0c0-0.1-0.1-0.2-0.3-0.2c0,0,0,0,0,0c-0.1,0-0.3,0.1-0.3,0.2
			C12.7,187.3,12.9,187.4,13.1,187.4C13,187.4,13.1,187.4,13.1,187.4z"/>
		<path class="st2" d="M15,189.6c0.1,0,0.3-0.1,0.2-0.3c0-0.1-0.1-0.2-0.2-0.3c-0.1,0-0.2,0.1-0.2,0.3c0,0,0,0,0,0
			C14.8,189.4,14.9,189.5,15,189.6z"/>
		<path class="st2" d="M14.3,188.6c0.3,0,0.5-0.3,0.5-0.6c0-0.3-0.3-0.5-0.6-0.5s-0.5,0.3-0.5,0.6C13.8,188.4,14,188.6,14.3,188.6z"
			/>
		<path class="st1" d="M119.5,13.8c-1.2,0-2.2-1-2.2-2.2s1-2.2,2.2-2.2s2.2,1,2.2,2.2l0,0C121.7,12.8,120.7,13.8,119.5,13.8
			C119.5,13.8,119.5,13.8,119.5,13.8z M119.5,9.6c-1.1,0-2,0.9-2,2s0.9,2,2,2s2-0.9,2-2S120.6,9.6,119.5,9.6z"/>
		<path class="st2" d="M120.1,11.6c0-0.8-0.6-1.4-1.4-1.4l0,0l0,0c0.2-0.1,0.5-0.2,0.8-0.2c0.9,0,1.6,0.7,1.6,1.6s-0.7,1.6-1.6,1.6
			c-0.3,0-0.6-0.1-0.8-0.2l0,0C119.5,13,120.1,12.3,120.1,11.6C120.1,11.6,120.1,11.6,120.1,11.6z"/>
		<polygon class="st2" points="120.1,14.4 119.7,15 119,14.9 119.2,15.5 118.6,15.9 119.2,16.2 119,16.9 119.7,16.7 120.1,17.3 
			120.4,16.7 121.1,16.9 120.9,16.2 121.5,15.9 120.9,15.5 121.1,14.9 120.4,15 		"/>
		<polygon class="st2" points="116.7,11 116.1,10.7 116.3,10 115.6,10.2 115.2,9.6 114.9,10.2 114.2,10 114.4,10.7 113.8,11 
			114.4,11.4 114.2,12 114.9,11.9 115.2,12.5 115.6,11.9 116.3,12 116.1,11.4 		"/>
		<polygon class="st2" points="120.1,18 119.8,18.4 119.4,18.3 119.5,18.7 119.1,18.9 119.5,19.2 119.4,19.6 119.8,19.5 120.1,19.9 
			120.3,19.5 120.7,19.6 120.6,19.2 121,18.9 120.6,18.7 120.7,18.3 120.3,18.4 		"/>
		<polygon class="st2" points="113.1,11 112.8,10.8 112.9,10.4 112.4,10.5 112.2,10.1 112,10.5 111.5,10.4 111.6,10.8 111.2,11 
			111.6,11.3 111.5,11.7 112,11.6 112.2,12 112.4,11.6 112.9,11.7 112.8,11.3 		"/>
		<path class="st2" d="M118,14.7c-0.1,0-0.3,0.1-0.2,0.3c0,0,0,0,0,0c0,0.1,0.1,0.2,0.3,0.2c0.1,0,0.2-0.1,0.2-0.3c0,0,0,0,0,0
			C118.3,14.8,118.2,14.7,118,14.7C118,14.7,118,14.7,118,14.7z"/>
		<path class="st2" d="M116,12.6c-0.1,0-0.2,0.1-0.2,0.3c0,0.1,0.1,0.2,0.3,0.2c0,0,0,0,0,0c0.1,0,0.2-0.1,0.2-0.3c0,0,0,0,0,0
			C116.3,12.7,116.1,12.6,116,12.6z"/>
		<path class="st2" d="M116.7,13.6c-0.3,0-0.5,0.3-0.5,0.6c0,0,0,0,0,0c0,0.3,0.3,0.5,0.6,0.5c0,0,0,0,0,0c0.3,0,0.5-0.3,0.5-0.6
			C117.3,13.7,117,13.5,116.7,13.6z"/>
		<path class="st1" d="M119.5,192.7c-1.2,0-2.2-1-2.2-2.2s1-2.2,2.2-2.2s2.2,1,2.2,2.2l0,0C121.7,191.7,120.7,192.7,119.5,192.7
			C119.5,192.7,119.5,192.7,119.5,192.7z M119.5,188.4c-1.1,0-2,0.9-2,2s0.9,2,2,2s2-0.9,2-2S120.6,188.4,119.5,188.4z"/>
		<path class="st2" d="M120.1,190.4c0,0.8-0.6,1.4-1.4,1.4l0,0c0.2,0.1,0.5,0.2,0.8,0.2c0.9-0.1,1.5-0.8,1.5-1.7
			c-0.1-0.8-0.7-1.4-1.5-1.5c-0.3,0-0.6,0.1-0.8,0.2l0,0C119.5,189.1,120.1,189.7,120.1,190.4C120.1,190.4,120.1,190.4,120.1,190.4z
			"/>
		<polygon class="st2" points="120.1,187.6 119.7,187 119,187.1 119.2,186.5 118.6,186.1 119.2,185.8 119,185.1 119.7,185.3 
			120.1,184.7 120.4,185.3 121.1,185.1 120.9,185.8 121.5,186.1 120.9,186.5 121.1,187.1 120.4,187 		"/>
		<polygon class="st2" points="116.7,191 116.1,191.3 116.3,192 115.6,191.8 115.2,192.4 114.9,191.8 114.2,192 114.4,191.3 
			113.8,191 114.4,190.6 114.2,190 114.9,190.1 115.2,189.6 115.6,190.1 116.3,190 116.1,190.6 		"/>
		<polygon class="st2" points="120.1,184 119.8,183.6 119.4,183.8 119.5,183.3 119.1,183.1 119.5,182.9 119.4,182.4 119.8,182.5 
			120.1,182.1 120.3,182.5 120.7,182.4 120.6,182.9 121,183.1 120.6,183.3 120.7,183.8 120.3,183.6 		"/>
		<polygon class="st2" points="113.1,191 112.8,191.2 112.9,191.7 112.4,191.6 112.2,191.9 112,191.6 111.5,191.7 111.6,191.2 
			111.2,191 111.6,190.8 111.5,190.3 112,190.4 112.2,190 112.4,190.4 112.9,190.3 112.8,190.8 		"/>
		<path class="st2" d="M118,187.3c-0.1,0-0.3-0.1-0.2-0.3c0-0.1,0.1-0.2,0.3-0.2c0.1,0,0.2,0.1,0.2,0.3c0,0,0,0,0,0
			C118.3,187.2,118.1,187.3,118,187.3z"/>
		<path class="st2" d="M116,189.4c-0.1,0-0.2-0.1-0.2-0.3c0,0,0,0,0,0c0-0.1,0.1-0.2,0.3-0.2c0.1,0,0.2,0.1,0.2,0.3
			C116.3,189.3,116.1,189.4,116,189.4L116,189.4L116,189.4z"/>
		<path class="st2" d="M116.7,188.5c-0.3,0-0.5-0.3-0.5-0.6c0,0,0,0,0,0c0-0.3,0.3-0.5,0.6-0.5c0,0,0,0,0,0c0.3,0,0.5,0.3,0.5,0.6
			C117.3,188.3,117,188.5,116.7,188.5z"/>
	</g>
</g>
</svg>
