<svg xmlns="http://www.w3.org/2000/svg" viewBox="0 0 130.04 201.27"><defs><style>.cls-1{fill:#88468d;}.cls-2,.cls-3{fill:#eac47e;}.cls-3{fill-rule:evenodd;}</style></defs><g id="Layer_2" data-name="Layer 2"><g id="Layer_1-2" data-name="Layer 1"><path class="cls-1" d="M6.38,0H123.66A6.38,6.38,0,0,1,130,6.38V194.89a6.37,6.37,0,0,1-6.37,6.37H6.38A6.38,6.38,0,0,1,0,194.89V6.38A6.38,6.38,0,0,1,6.38,0Z"/><path class="cls-2" d="M119.65,195.37H10.38a4.5,4.5,0,0,1-4.49-4.49V10.38a4.5,4.5,0,0,1,4.49-4.49H119.65a4.5,4.5,0,0,1,4.49,4.49v180.5A4.49,4.49,0,0,1,119.65,195.37ZM10.38,6.73a3.66,3.66,0,0,0-3.65,3.65v180.5a3.66,3.66,0,0,0,3.65,3.66H119.65a3.65,3.65,0,0,0,3.65-3.66V10.38a3.65,3.65,0,0,0-3.65-3.65Z"/><path class="cls-2" d="M109.92,10.7H20.12a.43.43,0,0,1,0-.85h89.8a.43.43,0,0,1,0,.85Z"/><rect class="cls-2" x="20.12" y="190.32" width="89.8" height="0.84"/><path class="cls-2" d="M10.37,180.38A.42.42,0,0,1,10,180V21.3a.42.42,0,0,1,.42-.42.42.42,0,0,1,.42.42V180A.42.42,0,0,1,10.37,180.38Z"/><path class="cls-2" d="M119.81,180.38a.42.42,0,0,1-.42-.42V21.3a.43.43,0,0,1,.85,0V180A.42.42,0,0,1,119.81,180.38Z"/><path class="cls-2" d="M11.05,13.21A2.25,2.25,0,1,1,13.3,11,2.25,2.25,0,0,1,11.05,13.21Zm0-4.24a2,2,0,1,0,2,2A2,2,0,0,0,11.05,9Z"/><path class="cls-3" d="M10.44,11A1.37,1.37,0,0,1,11.81,9.6h0A1.53,1.53,0,0,0,11,9.37a1.59,1.59,0,1,0,.81,3h0A1.37,1.37,0,0,1,10.44,11Z"/><polygon class="cls-3" points="10.49 13.82 10.84 14.41 11.5 14.24 11.33 14.9 11.92 15.25 11.33 15.6 11.5 16.27 10.84 16.1 10.49 16.68 10.14 16.1 9.47 16.27 9.64 15.6 9.06 15.25 9.64 14.9 9.47 14.24 10.14 14.41 10.49 13.82"/><polygon class="cls-3" points="13.86 10.4 14.45 10.05 14.28 9.39 14.94 9.55 15.29 8.97 15.64 9.55 16.3 9.39 16.14 10.05 16.72 10.4 16.14 10.75 16.3 11.41 15.64 11.24 15.29 11.83 14.94 11.24 14.28 11.41 14.45 10.75 13.86 10.4"/><polygon class="cls-3" points="10.49 17.36 10.72 17.74 11.15 17.63 11.04 18.07 11.43 18.3 11.04 18.53 11.15 18.97 10.72 18.86 10.49 19.25 10.26 18.86 9.82 18.97 9.93 18.53 9.54 18.3 9.93 18.07 9.82 17.63 10.26 17.74 10.49 17.36"/><polygon class="cls-3" points="17.4 10.4 17.78 10.17 17.67 9.73 18.11 9.84 18.34 9.46 18.57 9.84 19.01 9.73 18.9 10.17 19.29 10.4 18.9 10.63 19.01 11.07 18.57 10.96 18.34 11.35 18.11 10.96 17.67 11.07 17.78 10.63 17.4 10.4"/><path class="cls-3" d="M12.58,14.09a.26.26,0,0,1,.23.29.27.27,0,0,1-.29.23.27.27,0,0,1-.23-.29A.27.27,0,0,1,12.58,14.09Z"/><path class="cls-3" d="M14.5,12a.26.26,0,0,1,.24.29.27.27,0,0,1-.29.23.26.26,0,0,1-.23-.29A.24.24,0,0,1,14.5,12Z"/><path class="cls-3" d="M13.84,12.92A.55.55,0,1,1,13.72,14a.55.55,0,0,1,.12-1.09Z"/><path class="cls-2" d="M11.05,192.3a2.25,2.25,0,1,1,2.25-2.25A2.25,2.25,0,0,1,11.05,192.3Zm0-4.25a2,2,0,1,0,2,2A2,2,0,0,0,11.05,188.05Z"/><path class="cls-3" d="M10.44,190.05a1.38,1.38,0,0,0,1.37,1.37h0a1.59,1.59,0,1,1,0-2.74h0A1.37,1.37,0,0,0,10.44,190.05Z"/><polygon class="cls-3" points="10.49 187.19 10.84 186.61 11.5 186.77 11.33 186.11 11.92 185.76 11.33 185.41 11.5 184.75 10.84 184.92 10.49 184.33 10.14 184.92 9.47 184.75 9.64 185.41 9.06 185.76 9.64 186.11 9.47 186.77 10.14 186.61 10.49 187.19"/><polygon class="cls-3" points="13.86 190.62 14.45 190.97 14.28 191.63 14.94 191.46 15.29 192.05 15.64 191.46 16.3 191.63 16.14 190.97 16.72 190.62 16.14 190.27 16.3 189.6 15.64 189.77 15.29 189.18 14.94 189.77 14.28 189.6 14.45 190.27 13.86 190.62"/><polygon class="cls-3" points="10.49 183.66 10.72 183.27 11.15 183.38 11.04 182.94 11.43 182.71 11.04 182.48 11.15 182.04 10.72 182.16 10.49 181.77 10.26 182.16 9.82 182.04 9.93 182.48 9.54 182.71 9.93 182.94 9.82 183.38 10.26 183.27 10.49 183.66"/><polygon class="cls-3" points="17.4 190.62 17.78 190.85 17.67 191.28 18.11 191.17 18.34 191.56 18.57 191.17 19.01 191.28 18.9 190.85 19.29 190.62 18.9 190.38 19.01 189.95 18.57 190.06 18.34 189.67 18.11 190.06 17.67 189.95 17.78 190.38 17.4 190.62"/><path class="cls-3" d="M12.58,186.92a.25.25,0,0,0,.23-.29.27.27,0,0,0-.29-.23.27.27,0,0,0-.23.29A.26.26,0,0,0,12.58,186.92Z"/><path class="cls-3" d="M14.5,189.05a.27.27,0,0,0,.24-.29.27.27,0,0,0-.29-.23.25.25,0,0,0-.23.29A.26.26,0,0,0,14.5,189.05Z"/><path class="cls-3" d="M13.84,188.1a.55.55,0,0,0-.12-1.1.55.55,0,0,0,.12,1.1Z"/><path class="cls-2" d="M119,13.34a2.25,2.25,0,1,1,2.25-2.25A2.24,2.24,0,0,1,119,13.34Zm0-4.25a2,2,0,1,0,2,2A2,2,0,0,0,119,9.09Z"/><path class="cls-3" d="M119.59,11.09a1.37,1.37,0,0,0-1.37-1.37h0A1.62,1.62,0,0,1,119,9.5a1.59,1.59,0,0,1,0,3.18,1.62,1.62,0,0,1-.82-.22h0A1.37,1.37,0,0,0,119.59,11.09Z"/><polygon class="cls-3" points="119.55 13.95 119.2 14.54 118.54 14.37 118.7 15.03 118.12 15.38 118.7 15.73 118.54 16.39 119.2 16.22 119.55 16.81 119.9 16.22 120.56 16.39 120.39 15.73 120.98 15.38 120.39 15.03 120.56 14.37 119.9 14.54 119.55 13.95"/><polygon class="cls-3" points="116.18 10.53 115.59 10.18 115.76 9.51 115.09 9.68 114.74 9.09 114.39 9.68 113.73 9.51 113.9 10.18 113.31 10.53 113.9 10.88 113.73 11.54 114.39 11.37 114.74 11.96 115.09 11.37 115.76 11.54 115.59 10.88 116.18 10.53"/><polygon class="cls-3" points="119.55 17.48 119.32 17.87 118.88 17.76 118.99 18.2 118.6 18.43 118.99 18.66 118.88 19.1 119.32 18.99 119.55 19.37 119.78 18.99 120.22 19.1 120.11 18.66 120.49 18.43 120.11 18.2 120.22 17.76 119.78 17.87 119.55 17.48"/><polygon class="cls-3" points="112.64 10.53 112.25 10.29 112.36 9.86 111.93 9.97 111.69 9.58 111.47 9.97 111.03 9.86 111.14 10.29 110.75 10.53 111.14 10.76 111.03 11.19 111.47 11.08 111.69 11.47 111.93 11.08 112.36 11.19 112.25 10.76 112.64 10.53"/><path class="cls-3" d="M117.46,14.22a.26.26,0,0,0-.24.29.27.27,0,0,0,.29.23.26.26,0,0,0,.23-.29A.24.24,0,0,0,117.46,14.22Z"/><path class="cls-3" d="M115.53,12.09a.27.27,0,0,0-.23.29.26.26,0,0,0,.29.23.25.25,0,0,0,.23-.29A.27.27,0,0,0,115.53,12.09Z"/><path class="cls-3" d="M116.19,13a.55.55,0,0,0-.48.61.54.54,0,0,0,.6.49.55.55,0,0,0-.12-1.1Z"/><path class="cls-2" d="M119,192.17a2.25,2.25,0,1,1,2.25-2.25A2.24,2.24,0,0,1,119,192.17Zm0-4.24a2,2,0,1,0,2,2A2,2,0,0,0,119,187.93Z"/><path class="cls-3" d="M119.59,189.93a1.36,1.36,0,0,1-1.37,1.36h0a1.53,1.53,0,0,0,.82.23,1.6,1.6,0,0,0,0-3.19,1.53,1.53,0,0,0-.82.23h0A1.37,1.37,0,0,1,119.59,189.93Z"/><polygon class="cls-3" points="119.55 187.07 119.2 186.48 118.54 186.65 118.7 185.99 118.12 185.64 118.7 185.28 118.54 184.62 119.2 184.79 119.55 184.2 119.9 184.79 120.56 184.62 120.39 185.28 120.98 185.64 120.39 185.98 120.56 186.65 119.9 186.48 119.55 187.07"/><polygon class="cls-3" points="116.18 190.49 115.59 190.84 115.76 191.5 115.09 191.33 114.74 191.92 114.39 191.33 113.73 191.5 113.9 190.84 113.31 190.49 113.9 190.14 113.73 189.48 114.39 189.64 114.74 189.06 115.09 189.64 115.76 189.48 115.59 190.14 116.18 190.49"/><polygon class="cls-3" points="119.55 183.53 119.32 183.14 118.88 183.25 118.99 182.82 118.6 182.59 118.99 182.35 118.88 181.92 119.32 182.03 119.55 181.64 119.78 182.03 120.22 181.92 120.11 182.35 120.49 182.59 120.11 182.82 120.22 183.25 119.78 183.14 119.55 183.53"/><polygon class="cls-3" points="112.64 190.49 112.25 190.72 112.36 191.16 111.93 191.05 111.69 191.43 111.47 191.05 111.03 191.16 111.14 190.72 110.75 190.49 111.14 190.26 111.03 189.82 111.47 189.93 111.69 189.54 111.93 189.93 112.36 189.82 112.25 190.26 112.64 190.49"/><path class="cls-3" d="M117.46,186.8a.27.27,0,0,1-.24-.29.27.27,0,0,1,.29-.23.25.25,0,0,1,.23.29A.26.26,0,0,1,117.46,186.8Z"/><path class="cls-3" d="M115.53,188.92a.26.26,0,1,1,.29-.23A.27.27,0,0,1,115.53,188.92Z"/><path class="cls-3" d="M116.19,188a.55.55,0,0,1,.12-1.1.56.56,0,0,1,.49.61A.56.56,0,0,1,116.19,188Z"/><path class="cls-2" d="M74.05,44.56a14.85,14.85,0,0,1-9-3.07,15,15,0,0,1-11.2,2.92,15.88,15.88,0,0,1-2.1-.48l-1.13-.34a.42.42,0,0,1-.29-.48L50.52,42a14.83,14.83,0,0,1,8.79-10.84c0-.44-.06-.89-.06-1.34a14.54,14.54,0,0,1,1.21-5.84,14.22,14.22,0,0,1,3.44-4.84l.92-.85a.41.41,0,0,1,.58,0l.89.88A14.91,14.91,0,0,1,69.62,24a14.7,14.7,0,0,1,1.16,5.75c0,.45,0,.9-.06,1.34A14.8,14.8,0,0,1,79.52,42l.22,1.17a.42.42,0,0,1-.29.48L78.3,44a17.23,17.23,0,0,1-2.08.46A15.83,15.83,0,0,1,74.05,44.56Zm-9-4a.41.41,0,0,1,.26.09,14.07,14.07,0,0,0,10.81,3,13.59,13.59,0,0,0,2-.43l.78-.23-.15-.8a13.89,13.89,0,0,0-8.57-10.33.42.42,0,0,1-.27-.44,13.91,13.91,0,0,0-1-7,14.15,14.15,0,0,0-3.14-4.61l-.6-.6-.63.58a13.52,13.52,0,0,0-3.24,4.55,14.29,14.29,0,0,0-1,7.08.41.41,0,0,1-.26.44A13.61,13.61,0,0,0,56.16,34a14,14,0,0,0-4.82,8.1l-.15.79.77.24a12.91,12.91,0,0,0,2,.44,14,14,0,0,0,10.8-3A.44.44,0,0,1,65,40.53Zm9,1.4a12.07,12.07,0,0,1-7.38-2.5.48.48,0,0,1-.17-.29.46.46,0,0,1,.1-.32,13.8,13.8,0,0,0,2.72-4.93.44.44,0,0,1,.22-.26.43.43,0,0,1,.35,0,12.11,12.11,0,0,1,6.73,7.56.45.45,0,0,1,0,.34.44.44,0,0,1-.29.19l-.46.08A13.08,13.08,0,0,1,74.05,41.93ZM67.53,39a11.22,11.22,0,0,0,6.52,2.06A10.8,10.8,0,0,0,75.66,41,11.25,11.25,0,0,0,70,34.59,14.55,14.55,0,0,1,67.53,39ZM56,41.93a13.05,13.05,0,0,1-1.77-.13l-.47-.08a.41.41,0,0,1-.28-.2.41.41,0,0,1,0-.34,12,12,0,0,1,3.88-5.8,12.21,12.21,0,0,1,2.84-1.75.43.43,0,0,1,.35,0,.45.45,0,0,1,.23.26,13.77,13.77,0,0,0,2.71,4.93.41.41,0,0,1,.1.32.43.43,0,0,1-.16.29A12.09,12.09,0,0,1,56,41.93Zm-1.61-1a10.8,10.8,0,0,0,1.61.11A11.22,11.22,0,0,0,62.5,39a14.55,14.55,0,0,1-2.44-4.43A11.34,11.34,0,0,0,54.37,41ZM65,37.68a.45.45,0,0,1-.33-.15,12.35,12.35,0,0,1-2.26-4.17.44.44,0,0,1,0-.34.42.42,0,0,1,.29-.2,12.27,12.27,0,0,1,4.52,0,.42.42,0,0,1,.32.54,12,12,0,0,1-2.26,4.17A.44.44,0,0,1,65,37.68Zm-1.63-4.11a11.26,11.26,0,0,0,1.63,3,11.23,11.23,0,0,0,1.62-3A11.06,11.06,0,0,0,63.39,33.57Zm-1-2.51a.39.39,0,0,1-.26-.09.37.37,0,0,1-.16-.3c0-.3,0-.6,0-.9a11.89,11.89,0,0,1,1-4.8A11.45,11.45,0,0,1,64.73,22a.38.38,0,0,1,.32-.15.42.42,0,0,1,.32.16,12.52,12.52,0,0,1,1.82,3,12.07,12.07,0,0,1,1,4.73q0,.45,0,.9A.43.43,0,0,1,68,31a.42.42,0,0,1-.34.08,14.37,14.37,0,0,0-5.19,0ZM65,23a10.7,10.7,0,0,0-1.39,2.35,11.09,11.09,0,0,0-.92,4.46c0,.12,0,.25,0,.38a15.09,15.09,0,0,1,4.55,0c0-.13,0-.26,0-.38a11.2,11.2,0,0,0-.89-4.4A11.51,11.51,0,0,0,65,23Z"/><path class="cls-2" d="M65.1,183.14a.38.38,0,0,1-.28-.11l-.92-.85a14.32,14.32,0,0,1-3.44-4.84,14.58,14.58,0,0,1-1.21-5.84q0-.67.06-1.35a14.36,14.36,0,0,1-3.69-2.23,14.76,14.76,0,0,1-5.1-8.6l-.22-1.16a.41.41,0,0,1,.29-.48l1.13-.34a13,13,0,0,1,2.1-.48A15,15,0,0,1,65,159.78a15,15,0,0,1,11.2-2.92,15.51,15.51,0,0,1,2.08.46l1.15.34a.42.42,0,0,1,.29.48l-.22,1.17a14.79,14.79,0,0,1-5.1,8.61,14.53,14.53,0,0,1-3.7,2.23q.06.67.06,1.35a14.7,14.7,0,0,1-1.16,5.75,15,15,0,0,1-3.33,4.89l-.89.88A.42.42,0,0,1,65.1,183.14ZM51.19,158.38l.15.79a14,14,0,0,0,4.82,8.1,13.61,13.61,0,0,0,3.76,2.22.41.41,0,0,1,.26.44,13.53,13.53,0,0,0-.08,1.57A13.82,13.82,0,0,0,61.23,177a13.62,13.62,0,0,0,3.24,4.55l.63.58.6-.6a14.15,14.15,0,0,0,3.14-4.61,13.87,13.87,0,0,0,1.1-5.43,13.64,13.64,0,0,0-.09-1.57.42.42,0,0,1,.27-.44,13.89,13.89,0,0,0,8.57-10.34l.15-.79-.78-.23a15.1,15.1,0,0,0-2-.44,14.08,14.08,0,0,0-10.81,3,.44.44,0,0,1-.53,0,14.11,14.11,0,0,0-10.8-3,13.93,13.93,0,0,0-2,.45ZM65,179.4a.42.42,0,0,1-.31-.15,11.5,11.5,0,0,1-1.85-3,11.81,11.81,0,0,1-1-4.79c0-.3,0-.6,0-.91a.38.38,0,0,1,.16-.3.43.43,0,0,1,.33-.08,14.15,14.15,0,0,0,5.19,0,.46.46,0,0,1,.34.08.45.45,0,0,1,.16.3c0,.31,0,.61,0,.91a12.15,12.15,0,0,1-1,4.73,12.52,12.52,0,0,1-1.82,3A.44.44,0,0,1,65,179.4Zm-2.3-8.28c0,.13,0,.25,0,.38a11.09,11.09,0,0,0,.92,4.46A10.63,10.63,0,0,0,65,178.3a11.42,11.42,0,0,0,2.26-6.8c0-.13,0-.25,0-.38A15.09,15.09,0,0,1,62.74,171.12ZM65,168.66a12.18,12.18,0,0,1-2.26-.21.5.5,0,0,1-.29-.2.45.45,0,0,1,0-.34,12.26,12.26,0,0,1,2.26-4.17.41.41,0,0,1,.33-.15h0a.41.41,0,0,1,.32.15,12,12,0,0,1,2.26,4.17.41.41,0,0,1,0,.34.47.47,0,0,1-.28.2A12.34,12.34,0,0,1,65,168.66Zm-1.63-1a11.06,11.06,0,0,0,3.25,0,11.23,11.23,0,0,0-1.62-3A11.11,11.11,0,0,0,63.39,167.7Zm6.33,0a.57.57,0,0,1-.18,0,.44.44,0,0,1-.22-.26,13.8,13.8,0,0,0-2.72-4.93.46.46,0,0,1-.1-.32.48.48,0,0,1,.17-.29,12.14,12.14,0,0,1,9.16-2.37l.46.08a.44.44,0,0,1,.29.19.45.45,0,0,1,0,.34,12,12,0,0,1-3.88,5.8,11.78,11.78,0,0,1-2.85,1.76A.51.51,0,0,1,69.72,167.67Zm-2.19-5.42A14.5,14.5,0,0,1,70,166.67a10.82,10.82,0,0,0,2.24-1.44,11.12,11.12,0,0,0,3.45-4.94A11.35,11.35,0,0,0,67.53,162.25Zm-7.22,5.42-.17,0a12.21,12.21,0,0,1-2.84-1.75,12,12,0,0,1-3.88-5.8.4.4,0,0,1,0-.34.39.39,0,0,1,.28-.2l.47-.08a12.12,12.12,0,0,1,9.16,2.37.43.43,0,0,1,.16.29.41.41,0,0,1-.1.32,13.77,13.77,0,0,0-2.71,4.93.45.45,0,0,1-.23.26A.57.57,0,0,1,60.31,167.67Zm-5.94-7.37a11.22,11.22,0,0,0,3.46,4.94,11.42,11.42,0,0,0,2.23,1.43,14.5,14.5,0,0,1,2.44-4.42A11.22,11.22,0,0,0,54.37,160.3Z"/><path class="cls-3" d="M20.51,24.42l.3.95A1,1,0,0,0,22,26l1-.21-.68.73a1,1,0,0,0,0,1.32l.68.73-1-.21a1,1,0,0,0-1.14.65l-.3,1-.3-1a1,1,0,0,0-1.13-.65l-1,.21.68-.73a1,1,0,0,0,0-1.32l-.68-.73,1,.21a1,1,0,0,0,1.13-.66Z"/><path class="cls-3" d="M112.67,58.36l.3,1a1,1,0,0,0,1.14.65l1-.21-.68.74a1,1,0,0,0,0,1.31l.68.74-1-.22A1,1,0,0,0,113,63l-.3.95-.3-.95a1,1,0,0,0-1.13-.66l-1,.22.68-.74a1,1,0,0,0,0-1.31l-.68-.74,1,.21a1,1,0,0,0,1.13-.65Z"/><path class="cls-3" d="M107.29,16l.3,1a1,1,0,0,0,1.14.66l1-.22-.68.74a1,1,0,0,0,0,1.31l.68.74-1-.22a1,1,0,0,0-1.14.65l-.3,1-.3-1a1,1,0,0,0-1.14-.65l-1,.22.67-.74a1,1,0,0,0,0-1.31l-.67-.74,1,.22a1,1,0,0,0,1.14-.66Z"/><path class="cls-3" d="M14.65,68.58a1,1,0,1,0-1.05-1A1,1,0,0,0,14.65,68.58Z"/><path class="cls-3" d="M89.89,18.05a1,1,0,1,0-1-1A1,1,0,0,0,89.89,18.05Z"/><path class="cls-3" d="M96.92,33.19a1,1,0,1,0-1-1A1,1,0,0,0,96.92,33.19Z"/><path class="cls-3" d="M105.55,155.56a1,1,0,1,0-1-1.05A1,1,0,0,0,105.55,155.56Z"/><path class="cls-3" d="M41.26,39.69a1,1,0,1,0-1-1A1,1,0,0,0,41.26,39.69Z"/><path class="cls-3" d="M37.55,162.52a1,1,0,1,0-1-1A1,1,0,0,0,37.55,162.52Z"/><path class="cls-3" d="M93.36,165.38a1,1,0,1,0-1-1A1,1,0,0,0,93.36,165.38Z"/><path class="cls-3" d="M115.93,72.54a1,1,0,1,0-1.05-1.05A1,1,0,0,0,115.93,72.54Z"/><path class="cls-3" d="M17.56,18.16a.55.55,0,1,0-.55-.55A.55.55,0,0,0,17.56,18.16Z"/><path class="cls-3" d="M24.37,58.8a.55.55,0,1,0-.55-.55A.55.55,0,0,0,24.37,58.8Z"/><path class="cls-3" d="M14.26,40.13a.55.55,0,0,0,0-1.1.55.55,0,1,0,0,1.1Z"/><path class="cls-3" d="M49.63,20.14a.55.55,0,0,0,0-1.1.55.55,0,0,0,0,1.1Z"/><path class="cls-3" d="M34.37,14.54a.55.55,0,0,0,.54-.55.55.55,0,1,0-1.09,0A.55.55,0,0,0,34.37,14.54Z"/><path class="cls-3" d="M39.2,25.41a.55.55,0,1,0-.55-.55A.55.55,0,0,0,39.2,25.41Z"/><path class="cls-3" d="M28,42.09a.55.55,0,0,0,.55-.55A.55.55,0,0,0,28,41a.54.54,0,0,0-.55.55A.55.55,0,0,0,28,42.09Z"/><path class="cls-3" d="M24.92,155.06a.55.55,0,1,0-.55-.55A.55.55,0,0,0,24.92,155.06Z"/><path class="cls-3" d="M79.4,27.39a.55.55,0,1,0-.55-.55A.55.55,0,0,0,79.4,27.39Z"/><path class="cls-3" d="M88.76,40.68a.55.55,0,1,0-.55-.55A.55.55,0,0,0,88.76,40.68Z"/><path class="cls-3" d="M71.71,14.21a.55.55,0,0,0,.55-.55.54.54,0,0,0-.55-.55.55.55,0,0,0-.55.55A.55.55,0,0,0,71.71,14.21Z"/><path class="cls-3" d="M114.77,33.87a.55.55,0,1,0-.55-.55A.55.55,0,0,0,114.77,33.87Z"/><path class="cls-3" d="M95.33,51.44a.55.55,0,1,0-.55-.55A.55.55,0,0,0,95.33,51.44Z"/><path class="cls-3" d="M115.32,53.31a.55.55,0,1,0-.55-.55A.55.55,0,0,0,115.32,53.31Z"/><path class="cls-3" d="M105.44,29.91a.54.54,0,0,0,.54-.54.55.55,0,1,0-1.09,0A.54.54,0,0,0,105.44,29.91Z"/><path class="cls-3" d="M20.51,176.34l.3-1a1,1,0,0,1,1.14-.65l1,.22-.68-.74a1,1,0,0,1,0-1.32l.68-.73-1,.21a1,1,0,0,1-1.14-.65l-.3-1-.3,1a1,1,0,0,1-1.13.65l-1-.21.68.73a1,1,0,0,1,0,1.32l-.68.74,1-.22a1,1,0,0,1,1.13.65Z"/><path class="cls-3" d="M112.67,142.39l.3-.95a1,1,0,0,1,1.14-.65l1,.21-.68-.74a1,1,0,0,1,0-1.31l.68-.74-1,.22a1,1,0,0,1-1.14-.65l-.3-1-.3,1a1,1,0,0,1-1.13.65l-1-.22.68.74a1,1,0,0,1,0,1.31l-.68.74,1-.21a1,1,0,0,1,1.13.65Z"/><path class="cls-3" d="M107.29,184.8l.3-1a1,1,0,0,1,1.14-.65l1,.21-.68-.74a1,1,0,0,1,0-1.31l.68-.74-1,.22a1,1,0,0,1-1.14-.66l-.3-.95-.3.95a1,1,0,0,1-1.14.66l-1-.22.67.74a1,1,0,0,1,0,1.31l-.67.74,1-.21a1,1,0,0,1,1.14.65Z"/><path class="cls-3" d="M14.65,134.27a1,1,0,1,0-1.05-1.05A1,1,0,0,0,14.65,134.27Z"/><path class="cls-3" d="M89.89,184.79a1,1,0,1,0,0-2.08,1,1,0,0,0,0,2.08Z"/><path class="cls-3" d="M115.93,130.31a1,1,0,1,0-1.05-1A1,1,0,0,0,115.93,130.31Z"/><path class="cls-3" d="M17.56,183.7a.55.55,0,1,0-.55-.55A.55.55,0,0,0,17.56,183.7Z"/><path class="cls-3" d="M24.37,143.05a.55.55,0,1,0-.55-.54A.55.55,0,0,0,24.37,143.05Z"/><path class="cls-3" d="M14.26,161.73a.55.55,0,1,0,0-1.1.55.55,0,0,0,0,1.1Z"/><path class="cls-3" d="M49.63,181.72a.55.55,0,0,0,0-1.1.55.55,0,1,0,0,1.1Z"/><path class="cls-3" d="M34.37,187.32a.54.54,0,0,0,.54-.55.55.55,0,1,0-.54.55Z"/><path class="cls-3" d="M39.2,176.45a.55.55,0,1,0-.55-.55A.55.55,0,0,0,39.2,176.45Z"/><path class="cls-3" d="M79.4,174.47a.55.55,0,1,0-.55-.55A.55.55,0,0,0,79.4,174.47Z"/><path class="cls-3" d="M71.71,187.65a.54.54,0,0,0,.55-.55.55.55,0,0,0-.55-.55.55.55,0,0,0-.55.55A.55.55,0,0,0,71.71,187.65Z"/><path class="cls-3" d="M114.77,168a.55.55,0,1,0-.55-.55A.55.55,0,0,0,114.77,168Z"/><path class="cls-3" d="M95.33,150.41a.55.55,0,1,0-.55-.54A.55.55,0,0,0,95.33,150.41Z"/><path class="cls-3" d="M115.32,148.55a.55.55,0,1,0-.55-.55A.55.55,0,0,0,115.32,148.55Z"/><path class="cls-3" d="M105.44,171.94a.55.55,0,1,0-.55-.55A.54.54,0,0,0,105.44,171.94Z"/><path class="cls-3" d="M65,51.81A48.82,48.82,0,1,1,30.5,66.11,48.7,48.7,0,0,1,65,51.81Zm33.79,15a47.79,47.79,0,1,0,14,33.79A47.64,47.64,0,0,0,98.81,66.84Z"/><path class="cls-3" d="M72.58,68.2a33,33,0,0,1,9.08,3.59l-.35.25a32.64,32.64,0,0,0-8.73-3.44c0-.1,0-.19,0-.28V68.2Zm-15.13.4A32.77,32.77,0,0,0,48.72,72l-.34-.25a32.85,32.85,0,0,1,9.07-3.59v.4Zm28.62,6.24a33.49,33.49,0,0,1,7.06,7.94l-.45,0a33,33,0,0,0-4.39-5.45Q87.17,76.25,86,75.23l.12-.39ZM98,96.28a32.88,32.88,0,0,1,.29,4.35,33.4,33.4,0,0,1-.72,6.91l-.35-.25a32.43,32.43,0,0,0,.68-6.66,34.55,34.55,0,0,0-.25-4.09l.35-.26Zm-1.62,15.48a33.42,33.42,0,0,1-6.83,11.36c0-.11,0-.21,0-.32s0-.17,0-.26A33,33,0,0,0,96,111.76Zm-15.9,18.35a32.94,32.94,0,0,1-13.62,3.77l.13-.4A32.59,32.59,0,0,0,80,130l.56.14Zm-17.37,3.77a33.12,33.12,0,0,1-13.51-3.71l.59-.13A32.62,32.62,0,0,0,63,133.48l.12.4ZM40.87,123.55a33.13,33.13,0,0,1-7.24-11.79H34A32.74,32.74,0,0,0,40.83,123a5.85,5.85,0,0,0,0,.6Zm-8.43-16a33.4,33.4,0,0,1-.72-6.91A34.67,34.67,0,0,1,32,96.28l.36.26a32.55,32.55,0,0,0-.25,4.09,33.14,33.14,0,0,0,.67,6.66l-.34.25Zm4.47-24.76A33.24,33.24,0,0,1,44,74.84l.13.39c-.81.68-1.6,1.39-2.34,2.13a33,33,0,0,0-4.4,5.45Z"/><polygon class="cls-3" points="73.83 56.33 73.95 57.44 75.06 57.41 74.16 58.07 74.74 59.02 73.72 58.57 73.19 59.54 73.07 58.44 71.96 58.46 72.86 57.81 72.28 56.86 73.3 57.31 73.83 56.33"/><polygon class="cls-3" points="56.84 141.73 56.96 142.83 58.07 142.81 57.18 143.46 57.75 144.41 56.74 143.96 56.2 144.93 56.09 143.83 54.98 143.85 55.87 143.2 55.3 142.25 56.31 142.7 56.84 141.73"/><polygon class="cls-3" points="84.99 60.12 84.83 61.22 85.9 61.48 84.87 61.88 85.18 62.95 84.32 62.25 83.55 63.05 83.72 61.96 82.64 61.7 83.67 61.3 83.36 60.23 84.23 60.93 84.99 60.12"/><polygon class="cls-3" points="46.49 138.21 46.32 139.31 47.4 139.57 46.36 139.97 46.67 141.04 45.81 140.34 45.04 141.14 45.21 140.05 44.13 139.78 45.17 139.38 44.86 138.32 45.72 139.01 46.49 138.21"/><polygon class="cls-3" points="94.8 66.67 94.35 67.69 95.33 68.22 94.22 68.34 94.25 69.45 93.59 68.56 92.64 69.13 93.09 68.12 92.12 67.58 93.22 67.47 93.19 66.36 93.85 67.25 94.8 66.67"/><polygon class="cls-3" points="37.39 132.13 36.94 133.15 37.92 133.68 36.82 133.8 36.84 134.91 36.19 134.02 35.24 134.59 35.68 133.58 34.71 133.04 35.81 132.93 35.79 131.81 36.44 132.71 37.39 132.13"/><polygon class="cls-3" points="102.57 75.54 101.88 76.41 102.68 77.17 101.58 77 101.32 78.08 100.92 77.05 99.86 77.36 100.55 76.49 99.75 75.72 100.84 75.89 101.11 74.82 101.51 75.85 102.57 75.54"/><polygon class="cls-3" points="30.18 123.91 29.49 124.78 30.29 125.54 29.19 125.37 28.93 126.45 28.53 125.42 27.46 125.73 28.16 124.86 27.35 124.1 28.45 124.27 28.71 123.19 29.12 124.22 30.18 123.91"/><polygon class="cls-3" points="107.79 86.11 106.89 86.77 107.47 87.72 106.45 87.27 105.92 88.24 105.8 87.14 104.69 87.17 105.59 86.51 105.01 85.56 106.03 86.01 106.56 85.04 106.68 86.14 107.79 86.11"/><polygon class="cls-3" points="25.34 114.1 24.45 114.76 25.02 115.7 24.01 115.26 23.48 116.23 23.36 115.13 22.25 115.15 23.14 114.5 22.57 113.55 23.58 114 24.11 113.02 24.23 114.13 25.34 114.1"/><polygon class="cls-3" points="110.09 97.68 109.06 98.08 109.37 99.15 108.5 98.45 107.73 99.25 107.91 98.16 106.83 97.89 107.86 97.49 107.55 96.43 108.41 97.12 109.18 96.32 109.01 97.42 110.09 97.68"/><polygon class="cls-3" points="23.21 103.37 22.18 103.78 22.49 104.84 21.62 104.14 20.86 104.95 21.02 103.85 19.95 103.59 20.98 103.19 20.67 102.12 21.53 102.82 22.3 102.02 22.13 103.11 23.21 103.37"/><polygon class="cls-3" points="109.32 109.45 108.21 109.56 108.24 110.68 107.58 109.78 106.64 110.36 107.08 109.34 106.11 108.81 107.21 108.69 107.19 107.58 107.84 108.47 108.79 107.9 108.34 108.91 109.32 109.45"/><polygon class="cls-3" points="23.93 92.46 22.82 92.58 22.85 93.69 22.19 92.79 21.24 93.37 21.69 92.36 20.72 91.82 21.82 91.7 21.8 90.59 22.45 91.49 23.4 90.91 22.95 91.93 23.93 92.46"/><polygon class="cls-3" points="105.53 120.61 104.43 120.44 104.17 121.52 103.77 120.48 102.7 120.8 103.4 119.93 102.59 119.16 103.69 119.34 103.95 118.26 104.36 119.29 105.42 118.98 104.73 119.84 105.53 120.61"/><polygon class="cls-3" points="27.44 82.1 26.34 81.93 26.08 83.01 25.68 81.98 24.62 82.29 25.31 81.42 24.51 80.66 25.61 80.83 25.87 79.75 26.27 80.78 27.33 80.47 26.64 81.33 27.44 82.1"/><polygon class="cls-3" points="98.98 130.42 97.96 129.97 97.43 130.94 97.31 129.84 96.2 129.86 97.1 129.21 96.52 128.26 97.53 128.71 98.07 127.73 98.19 128.84 99.3 128.81 98.4 129.47 98.98 130.42"/><polygon class="cls-3" points="33.52 73.01 32.5 72.56 31.97 73.53 31.85 72.43 30.74 72.45 31.64 71.8 31.06 70.85 32.07 71.3 32.61 70.33 32.73 71.43 33.84 71.4 32.94 72.06 33.52 73.01"/><polygon class="cls-3" points="90.11 138.19 89.25 137.49 88.48 138.3 88.65 137.2 87.57 136.94 88.61 136.53 88.3 135.47 89.16 136.17 89.93 135.37 89.76 136.46 90.84 136.72 89.8 137.12 90.11 138.19"/><polygon class="cls-3" points="41.74 65.8 40.88 65.1 40.11 65.9 40.28 64.81 39.2 64.54 40.24 64.14 39.92 63.08 40.79 63.77 41.56 62.97 41.39 64.07 42.46 64.33 41.43 64.73 41.74 65.8"/><polygon class="cls-3" points="79.54 143.4 78.88 142.51 77.93 143.09 78.38 142.07 77.41 141.54 78.51 141.42 78.48 140.31 79.14 141.21 80.09 140.63 79.64 141.64 80.61 142.18 79.51 142.29 79.54 143.4"/><polygon class="cls-3" points="51.55 60.96 50.89 60.06 49.95 60.64 50.4 59.63 49.42 59.09 50.52 58.97 50.5 57.86 51.15 58.76 52.1 58.18 51.66 59.2 52.63 59.73 51.52 59.85 51.55 60.96"/><polygon class="cls-3" points="67.97 145.71 67.57 144.67 66.5 144.98 67.2 144.12 66.4 143.35 67.5 143.52 67.76 142.44 68.16 143.48 69.23 143.17 68.53 144.03 69.33 144.8 68.23 144.63 67.97 145.71"/><polygon class="cls-3" points="62.28 58.83 61.88 57.79 60.81 58.1 61.51 57.24 60.7 56.47 61.8 56.64 62.06 55.56 62.47 56.6 63.53 56.28 62.84 57.15 63.64 57.92 62.54 57.75 62.28 58.83"/><path class="cls-3" d="M87.69,61.36l-8.13,12-.92.67,10.2-15a.19.19,0,0,1,.25-.06.2.2,0,0,1,.09.25l-5.32,11-.66.48,4.49-9.3Zm-15,17,4.08-21.49-4.18,12c0-.17,0-.34,0-.51s0-.43,0-.64l4.69-13.44a.19.19,0,0,1,.37.09L73.13,78l-.46.34Zm-1.42-5.71-3.15,9-.55.4,3-8.53a7.89,7.89,0,0,0,.72-.9ZM67,82.42l-.49-6.68.38-.09.48,6.5-.37.27Zm-1.6-21.66L65,55.29l-.41,5.47-.39,0,.6-8.14a.2.2,0,0,1,.18-.18.19.19,0,0,1,.21.18l.6,8.14-.39,0Zm-1.92,15L63,82.42l-.37-.27.48-6.5.38.09Zm-1.57,5.9-3.14-9a8.75,8.75,0,0,0,.72.89l3,8.53-.55-.4ZM57.47,68.83l-4.19-12,4.09,21.49L56.91,78l-4.5-23.65a.22.22,0,0,1,.13-.22.19.19,0,0,1,.24.12l4.7,13.45c0,.21,0,.42,0,.64s0,.34,0,.51Zm-7,4.48-8.13-12,4.49,9.3-.66-.48-5.31-11a.19.19,0,0,1,.06-.24.19.19,0,0,1,.27,0L51.4,74l-.93-.67Zm-5,6-.23-.71-14-12a.19.19,0,0,0-.27,0,.2.2,0,0,0,0,.25L47.66,86.22l-.31-1L33,68.57,45.42,79.31ZM48.55,89l-5.41-2.61a7.49,7.49,0,0,0-.45-.65l5.7,2.75.16.51ZM35.83,82.83,25.75,78l8,5.43-.41.19-10-6.77a.21.21,0,0,1-.06-.25.21.21,0,0,1,.26-.09l13.06,6.31a7,7,0,0,0-.79,0Zm8.44,7.74L49,93.81a.19.19,0,0,1,.05.27.18.18,0,0,1-.2.08l-5.16-1c.05-.12.09-.25.14-.37l4.18.8L44.25,91c0-.15,0-.3,0-.45ZM29.14,90.4l-7.93-1.5,8.05,2.81c0,.14.06.29.1.44L18.62,88.4a.19.19,0,0,1-.13-.22.2.2,0,0,1,.23-.15l10.43,2c0,.11,0,.23,0,.34v.05ZM41.69,96l4.45,1.55-.38.28-4.41-1.54c.12-.09.23-.19.34-.29Zm2.79,2.76-24.81,1.83,20.22,1.5-.49.35L17,100.83a.21.21,0,0,1-.18-.18.21.21,0,0,1,.18-.21l28-2.07-.59.43ZM30,109.3l-8.81,3.07,6.21-1.18-.74.53-8,1.52a.19.19,0,0,1-.1-.37l12.49-4.36L30,109.3Zm12.7,2.46H42l-18.67,12.7a.21.21,0,0,0-.05.27.2.2,0,0,0,.25.06l26.89-13-3.08,3.58.55,0L51,111.76H49.66L25.75,123.31l17-11.55Zm-1.86,11.76L33,132.7l8.37-7.22c0,.13.1.25.16.38L31.22,134.7a.2.2,0,0,1-.25,0,.19.19,0,0,1,0-.27L40.83,123l0,.55ZM52,116.29l2.31-2a.2.2,0,0,1,.28,0,.18.18,0,0,1,0,.21l-1.3,2.7A3.88,3.88,0,0,0,53,117l.86-1.77-1.51,1.3-.35-.21ZM47,130.18l-.39-.08-5.79,12a.19.19,0,0,0,.09.26.19.19,0,0,0,.24-.06l8.23-12.09-.51.06-6.57,9.64,4.7-9.72Zm8.42-9.55,2.29-3.36.15.46-2.31,3.39a4.43,4.43,0,0,0-.13-.49Zm2.73-2-.25-.77-5.53,29.07a.2.2,0,0,0,.16.23.2.2,0,0,0,.22-.13l7.57-21.72-.2-.6-6.88,19.73,4.91-25.81Zm6.22,19.14L65,146l.6-8.21.51-1.55-.92,12.4a.2.2,0,0,1-.18.18.2.2,0,0,1-.21-.18l-.91-12.4.5,1.55Zm5.46-13.06,6.88,19.73-4.9-25.81.24-.77,5.53,29.07a.19.19,0,0,1-.12.22.2.2,0,0,1-.25-.12l-7.58-21.72.2-.6Zm2.42-7.44-.15.46,2.6,3.82c0-.18.06-.35.1-.52l-2.55-3.76Zm8.81,12.94,6.59,9.69L83,130.23l.4-.06,5.76,11.92a.2.2,0,0,1-.07.25.2.2,0,0,1-.27-.05l-8.27-12.17a4.51,4.51,0,0,0,.53.09Zm-4.24-12.73-1.42-3a.21.21,0,0,1,.09-.26.2.2,0,0,1,.22,0l2.46,2.12-.34.21L76.2,115.2l1,2-.3.28ZM89,125.72c-.06.13-.12.25-.17.37l10,8.61a.19.19,0,0,0,.27,0,.18.18,0,0,0,0-.25l-9.52-11.05a4.52,4.52,0,0,1-.06.53l7.59,8.79-8.09-7Zm-6.89-10.39L79,111.76h1.34l23.92,11.55-17-11.55H88l18.66,12.7a.19.19,0,0,1-.19.33l-26.89-13,3,3.54-.52,0Zm20.51-4.14.73.53,8,1.52a.19.19,0,0,0,.22-.16.19.19,0,0,0-.13-.21l-12.48-4.36,1.08.79,8.81,3.07-6.2-1.18Zm-12.48-9.06,20.22-1.5L85.56,98.8l-.6-.43,28,2.07a.2.2,0,0,1,0,.39l-22.37,1.65-.49-.35ZM83.9,97.59,88.34,96l.35.29-4.41,1.54-.38-.28Zm16.87-5.88,8-2.81-7.93,1.5v-.05c0-.11,0-.23,0-.34l10.44-2a.2.2,0,0,1,.22.12.2.2,0,0,1-.12.25l-10.74,3.75c0-.15.07-.3.09-.44ZM86.3,93.18l-5.16,1a.2.2,0,0,1-.23-.15.21.21,0,0,1,.08-.2l4.77-3.24a3.4,3.4,0,0,0,0,.45L82,93.61l4.19-.8c0,.13.09.25.13.37Zm10-9.79,8-5.43L94.2,82.83a6.84,6.84,0,0,0-.79,0l13.07-6.31a.2.2,0,0,1,.19.34l-10,6.77-.41-.19Zm-9.42,3L81.48,89l.17-.51,5.7-2.75a5.87,5.87,0,0,0-.46.65Zm-4.2-1.09-.31,1,16.7-19.38a.19.19,0,0,0,0-.27.18.18,0,0,0-.25,0l-14,12-.23.71L97.09,68.57Z"/><path class="cls-2" d="M58.76,148.39h0a.21.21,0,0,1-.17-.21l.85-14.9a.23.23,0,0,1,.08-.14.2.2,0,0,1,.15,0c.73.12,1.46.22,2.17.29a.19.19,0,0,1,.14.08.2.2,0,0,1,0,.15l-3,14.61A.2.2,0,0,1,58.76,148.39Zm1-14.87-.69,12.07,2.46-11.84C61,133.69,60.38,133.61,59.79,133.52Zm10.9-70a.21.21,0,0,1-.14-.07l-.09-.1.05-.11-.08.07,0,0-.13-.13.1-.17-.14.13-.1-.09.1-.18-.15.13L70,62.89l.09-.18-.13.15-.24-.22.08-.18-.12.15-.09-.07.08-.18-.12.15-.11-.08,0,0-.11-.07a.2.2,0,0,1-.09-.22L71.09,53a.2.2,0,0,1,.21-.16.2.2,0,0,1,.17.21l-.58,10.23a.23.23,0,0,1-.13.18Zm-1.08-1.45,0,0,0,0,.1.07,0,0,.11.09,0,0,.23.2,0,0,.08.07,0,0,.1.1,0,0,0,0,.41-7.17Z"/><path class="cls-2" d="M94.22,138.88a.18.18,0,0,1-.14-.06l-8.39-9.4a.19.19,0,0,1,0-.16.21.21,0,0,1,.1-.14l.69-.45.15.13-.11-.16.16-.12.17.11-.13-.15.17.12-.12-.15.06-.06.17.11-.13-.14.09-.08.17.11-.13-.15.09-.07.15.09h0l-.11-.12.08-.08a.21.21,0,0,1,.17-.06.17.17,0,0,1,.15.07l6.87,10.48a.18.18,0,0,1,.07.15.19.19,0,0,1-.19.19Zm-8.08-9.54,6.48,7.27-5.34-8.14-.07.06,0,0-.09.08,0,0-.07.05,0,0,0,0-.14.11,0,0ZM44,75.24h0a.2.2,0,0,1-.14-.08L35.65,62.68a.2.2,0,0,1,.05-.26.19.19,0,0,1,.26,0l6.55,7.34a.43.43,0,0,1,0,.07L44.21,75a.19.19,0,0,1-.06.21A.24.24,0,0,1,44,75.24Zm-6.6-10.58,6,9.17L42.19,70Z"/><path class="cls-2" d="M112.59,107.09h0l-14.9-.85a.21.21,0,0,1-.14-.07.19.19,0,0,1,0-.16c.12-.73.21-1.46.28-2.17a.22.22,0,0,1,.08-.13.17.17,0,0,1,.15,0l14.6,3a.2.2,0,0,1,0,.39ZM97.9,105.86l12.07.69L98.14,104.1C98.08,104.67,98,105.27,97.9,105.86ZM32.07,97.6h0l-14.61-3a.19.19,0,0,1,0-.38l13.39.76A.23.23,0,0,1,31,95l0,0h0l0,0,0,.05-.11.16.14-.13.1.11-.11.17.14-.13.06.07-.09.18.14-.13.47.45,0,0L32,96a.71.71,0,0,0,.15.12l.13.11a.18.18,0,0,1,.08.18c0,.33-.08.66-.11,1a.17.17,0,0,1-.07.14A.19.19,0,0,1,32.07,97.6Zm-12-2.88L31.9,97.17c0-.22.05-.45.08-.67l0,0-.15-.12-.68-.63,0,0L31,95.6l0,0,0,0,.1-.17-.14.13s0,0,0,0l0,0,0,0h-.07Z"/><path class="cls-2" d="M27,130a.18.18,0,0,1-.15-.08.19.19,0,0,1,0-.26L38,119.76a.17.17,0,0,1,.15-.05.23.23,0,0,1,.14.08c.42.59.87,1.17,1.33,1.74a.19.19,0,0,1,0,.15.22.22,0,0,1-.08.13L27.07,130A.23.23,0,0,1,27,130Zm11.11-9.84-9,8.05,10.1-6.63C38.78,121.14,38.42,120.67,38.07,120.19ZM91.94,81.56h0a.18.18,0,0,1-.14-.08c-.43-.6-.88-1.19-1.34-1.74a.19.19,0,0,1,0-.15.2.2,0,0,1,.09-.13L103,71.27a.19.19,0,0,1,.26,0,.2.2,0,0,1,0,.27L92.07,81.51A.18.18,0,0,1,91.94,81.56Zm-1.06-1.9c.37.46.73.93,1.09,1.42l9-8Z"/><path class="cls-2" d="M71.28,148.39a.2.2,0,0,1-.19-.16l-3-14.61a.2.2,0,0,1,0-.15.16.16,0,0,1,.14-.08c.71-.07,1.44-.17,2.17-.29a.2.2,0,0,1,.15,0,.21.21,0,0,1,.07.14l.85,14.84a.17.17,0,0,1,0,.07.21.21,0,0,1-.2.2Zm-2.8-14.64,2.46,11.84-.69-12.07C69.66,133.61,69.07,133.69,68.48,133.75ZM59.34,63.49h-.05a.19.19,0,0,1-.14-.17l-.59-10.23a.2.2,0,0,1,.17-.21A.21.21,0,0,1,59,53l1.88,9.06a.19.19,0,0,1-.08.2l-.13.1-.16-.13.12.16-.09.06-.16-.12.1.17-.08.07-.17-.12.13.15-.23.2-.19-.09.13.14-.11.11-.17-.11.13.14,0,0,0,.06L59.6,63l.14.14-.18-.1.14.13-.05.06-.12-.06v0l.08.07-.07.08-.15-.07h0l.12.11A.22.22,0,0,1,59.34,63.49Zm.26-.73.18.1-.14-.14.1-.1,0,0,.25-.21,0,0,.09-.07,0,0,0,0,.09-.06,0,0,0,0L59.1,55.68l.41,7.17.05-.05Z"/><path class="cls-2" d="M103.07,130a.19.19,0,0,1-.1,0l-12.48-8.19a.2.2,0,0,1-.09-.13.19.19,0,0,1,0-.15c.46-.57.91-1.15,1.34-1.74a.16.16,0,0,1,.13-.08.17.17,0,0,1,.15.05l11.11,9.9a.2.2,0,0,1,.11.18.21.21,0,0,1-.2.19ZM90.88,121.6,101,128.24l-9-8.05C91.62,120.67,91.25,121.14,90.88,121.6Zm-52.78-40a.21.21,0,0,1-.13,0L26.83,71.58a.21.21,0,0,1,0-.27.19.19,0,0,1,.26,0l12.48,8.19a.22.22,0,0,1,.08.13.19.19,0,0,1,0,.15c-.46.56-.91,1.15-1.33,1.74a.29.29,0,0,1-.14.08Zm-9-8.53,9,8c.35-.48.71-1,1.08-1.42Z"/><path class="cls-2" d="M17.46,107.09a.19.19,0,0,1-.19-.17.18.18,0,0,1,.15-.21l14.61-3a.19.19,0,0,1,.16,0,.17.17,0,0,1,.07.13c.07.72.17,1.45.29,2.17a.23.23,0,0,1,0,.16.27.27,0,0,1-.14.07l-14.9.85Zm14.44-3-11.84,2.45,12.07-.69C32,105.27,32,104.68,31.9,104.1ZM98,97.6a.15.15,0,0,1-.11,0,.22.22,0,0,1-.08-.13c0-.33-.07-.66-.11-1a.17.17,0,0,1,.06-.16,1.11,1.11,0,0,1,.15-.12l.52-.45.17.11-.14-.14.15-.14.17.09-.14-.13.18.09-.14-.13,0,0,.18.09-.14-.14.18.09-.14-.13.06-.06.18.09-.14-.14.18.09-.15-.12,0,0,.18.08L99,95.1l0,0,0,0a.21.21,0,0,1,.14-.07l13.39-.76a.19.19,0,0,1,.05.38L98,97.6Zm.1-1.1c0,.22,0,.45.08.67L110,94.71l-10.69.62,0,0,0,.05,0,0L99,95.36l.15.12-.05.06,0,.06,0,0-.05,0,0,0,0,0,0,0L98.7,96l0,0-.51.44Z"/><path class="cls-2" d="M35.82,138.88a.21.21,0,0,1-.12,0,.22.22,0,0,1-.05-.27l7.06-10.75a.19.19,0,0,1,.14-.09.26.26,0,0,1,.16.06l0,0L43,128h0l.12-.11L43,128h0l.11-.11,0,0-.09.18.13-.14,0,0,0,0-.09.18.13-.14-.09.18.13-.14.06.06-.08.18.12-.15.09.08-.08.19.13-.15.07.06-.08.18.12-.15.05,0-.08.19.12-.16.09.08-.07.18.12-.15,0,0,.11.09-.06.19.11-.16.1.07-.05.17h0l.09-.14-.05.18h0l.09-.15,0,0a.23.23,0,0,1,.1.14.2.2,0,0,1,0,.17L36,138.82A.2.2,0,0,1,35.82,138.88Zm7.08-10.63-5.48,8.35L44,129.18l-.06,0-.06,0-.07,0,0,0,0,0-.06,0,.08-.19-.12.15-.07,0-.06,0-.06-.06-.05,0,0,0,0,0-.09-.07,0,0-.09-.08,0-.05,0,0,0,0-.05-.05ZM86,75.25a.17.17,0,0,1-.12,0l0,0a.19.19,0,0,1-.06-.21l1.66-5.12a.16.16,0,0,1,0-.07l6.54-7.34a.2.2,0,0,1,.27,0,.19.19,0,0,1,0,.26L86.19,75.16a.18.18,0,0,1-.13.09ZM87.85,70l-1.24,3.81,6-9.17Z"/><path class="cls-2" d="M83.37,145.15a.2.2,0,0,1-.17-.11l-6.71-13.33a.19.19,0,0,1,.1-.26c.71-.27,1.39-.55,2-.84a.18.18,0,0,1,.16,0,.16.16,0,0,1,.1.11l4.66,14.12a.15.15,0,0,1,0,.11.2.2,0,0,1-.2.2Zm-6.44-13.42,5.44,10.8-3.79-11.48C78.05,131.29,77.5,131.52,76.93,131.73Zm-25.59-61-.08,0a.22.22,0,0,1-.11-.12L46.48,56.37a.19.19,0,0,1,.1-.24.21.21,0,0,1,.25.1l6.71,13.32a.18.18,0,0,1,0,.16.2.2,0,0,1-.11.11c-.7.26-1.38.55-2,.84ZM47.67,58.74l3.78,11.48c.53-.24,1.09-.47,1.65-.68Z"/><path class="cls-2" d="M109.34,119.19h-.07L95.11,114.5a.22.22,0,0,1-.12-.11.22.22,0,0,1,0-.16c.3-.64.58-1.33.84-2a.2.2,0,0,1,.11-.11.18.18,0,0,1,.16,0l13.29,6.69a.19.19,0,0,1,.15.19.21.21,0,0,1-.2.2Zm-13.91-5L106.91,118l-10.79-5.44Q95.79,113.39,95.43,114.2ZM29.92,87.12h-.06l-9.25-4.66a.2.2,0,0,1-.09-.25.2.2,0,0,1,.24-.11l10.11,3.34a.2.2,0,0,1,.12.13.17.17,0,0,1,0,.17l-.18.23-.18-.07.14.13-.07.1-.19-.07.15.13-.06.08-.19-.07.15.12-.06.11-.19-.06.15.12-.05.08-.19-.06.16.12-.07.11,0,0-.05.08-.19,0,.16.11,0,.07a.22.22,0,0,1-.12.11Zm-6.79-3.84,6.74,3.4h0l0-.07,0,0s0,0,0,0l0-.07,0,0,0,0,0-.06,0,0,0,0,.05-.09,0,0,0,0,0-.06,0,0,0,0,.06-.08,0,0,0,0v0Z"/><path class="cls-2" d="M46.66,145.15l-.07,0a.19.19,0,0,1-.11-.24l4.67-14.16a.19.19,0,0,1,.11-.12.18.18,0,0,1,.16,0c.63.29,1.31.57,2,.84a.2.2,0,0,1,.11.11.16.16,0,0,1,0,.15L46.83,145A.18.18,0,0,1,46.66,145.15Zm4.79-14.1-3.78,11.48,5.43-10.8C52.53,131.52,52,131.29,51.45,131.05ZM78.7,70.68l-.08,0c-.66-.3-1.34-.58-2-.84a.2.2,0,0,1-.11-.11.22.22,0,0,1,0-.16L83.2,56.23a.21.21,0,0,1,.25-.1.2.2,0,0,1,.11.24L78.88,70.54a.15.15,0,0,1-.1.12Zm-1.77-1.14c.56.21,1.11.44,1.65.68l3.79-11.48Z"/><path class="cls-2" d="M20.7,119.19a.2.2,0,0,1-.18-.12.19.19,0,0,1,.09-.25l13.33-6.71a.16.16,0,0,1,.15,0,.25.25,0,0,1,.12.11c.26.7.54,1.38.83,2a.18.18,0,0,1,0,.16.2.2,0,0,1-.11.11l-14.17,4.68Zm13.22-6.64L23.13,118,34.6,114.2C34.36,113.67,34.13,113.12,33.92,112.55Zm66.16-25.42a.19.19,0,0,1-.17-.1l0-.07,0,0,.15-.13-.18.06,0,0,0,0,.15-.14-.18.08,0-.07.15-.14-.18.08,0-.08.14-.14-.18.08,0,0,0,0,.14-.15-.16.1-.08-.11.13-.15-.18.09,0-.08.13-.15-.17.09-.08-.1.09-.1v0l-.13.08,0-.06a.22.22,0,0,1,0-.19c0-.06,0-.13.11-.15l10.1-3.34a.21.21,0,0,1,.25.11.2.2,0,0,1-.1.25l-9.25,4.66Zm-.14-.84,0,.07,0,0,0,0,0,.06,0,0,.06.11h0l6.74-3.4-7.36,2.43v0l0,0-.13.15.15-.11,0,.06,0,0,0,0,0,.08,0,0,0,0,0,.07,0,0-.14.15Z"/><path class="cls-3" d="M66.81,54.64a.19.19,0,0,1-.19-.2.2.2,0,0,1,.2-.18c.42,0,.83,0,1.24.06l1.22.1a.18.18,0,0,1,.17.2.19.19,0,0,1-.21.18c-.38,0-.79-.07-1.21-.09l-1.22-.07Zm6,.63a.2.2,0,0,1-.16-.23.21.21,0,0,1,.22-.16l1.22.23c.39.07.79.16,1.2.25a.2.2,0,0,1-.09.38L74,55.48c-.39-.07-.8-.15-1.2-.21Zm5.85,1.39a.19.19,0,0,1-.12-.24.2.2,0,0,1,.24-.13l1.17.38,1.16.41a.2.2,0,0,1-.13.37L79.82,57l-1.17-.38Zm5.63,2.16a.2.2,0,0,1-.1-.26.21.21,0,0,1,.26-.09l1.1.53,1.1.56a.19.19,0,0,1,.09.26.19.19,0,0,1-.26.08l-1.1-.56-1.09-.52Zm5.29,2.88a.2.2,0,0,1-.06-.27.18.18,0,0,1,.26-.06l1,.67,1,.7a.18.18,0,0,1,0,.27.18.18,0,0,1-.26,0l-1-.69-1-.66Zm4.87,3.54a.19.19,0,0,1,.24-.3c.32.27.64.53.94.8s.6.54.91.82a.2.2,0,0,1,0,.28.2.2,0,0,1-.27,0L95.36,66l-.92-.79Zm4.36,4.14a.19.19,0,0,1,.29-.26l.82.92c.27.3.53.61.8.93a.19.19,0,1,1-.3.24l-.79-.92c-.27-.31-.55-.62-.82-.91Zm3.8,4.68a.19.19,0,1,1,.31-.23c.24.34.48.68.7,1s.45.69.67,1a.2.2,0,0,1-.06.27.21.21,0,0,1-.27-.07l-.66-1c-.23-.34-.46-.68-.69-1Zm3.15,5.13a.18.18,0,0,1,.08-.26.18.18,0,0,1,.26.08c.19.36.38.72.56,1.09s.36.74.53,1.11a.19.19,0,0,1-.09.26.19.19,0,0,1-.26-.1c-.17-.37-.35-.73-.53-1.1s-.36-.72-.55-1.08Zm2.45,5.49a.19.19,0,0,1,.12-.24.19.19,0,0,1,.25.11c.14.38.28.77.41,1.16s.26.77.38,1.17a.2.2,0,0,1-.13.24A.19.19,0,0,1,109,87c-.12-.39-.24-.77-.38-1.17s-.26-.77-.41-1.15Zm1.71,5.78a.2.2,0,0,1,.15-.23.19.19,0,0,1,.23.14c.09.41.18.81.25,1.2s.16.81.23,1.22a.2.2,0,0,1-.16.22.18.18,0,0,1-.22-.16c-.07-.4-.14-.8-.23-1.21s-.16-.79-.25-1.18Zm.94,6a.19.19,0,0,1,.17-.21.2.2,0,0,1,.22.17c0,.42.07.83.09,1.23s0,.81.06,1.23a.2.2,0,0,1-.18.2.19.19,0,0,1-.2-.19L111,97.62c0-.42-.06-.82-.1-1.21Zm.16,6a.19.19,0,0,1,.2-.19.18.18,0,0,1,.18.2q0,.63-.06,1.23c0,.4-.06.81-.1,1.23a.19.19,0,0,1-.21.17.19.19,0,0,1-.17-.21c0-.39.07-.79.1-1.21l.06-1.22Zm-.63,6a.2.2,0,0,1,.23-.15.19.19,0,0,1,.16.22c-.07.4-.15.81-.23,1.21s-.16.8-.25,1.2a.19.19,0,0,1-.23.15.2.2,0,0,1-.15-.23c.09-.39.17-.79.25-1.19s.16-.8.22-1.21ZM109,114.27a.19.19,0,0,1,.37.11c-.12.41-.25.79-.38,1.17s-.27.78-.41,1.17a.19.19,0,0,1-.25.11.2.2,0,0,1-.12-.25c.15-.38.28-.76.41-1.15s.26-.78.38-1.16Zm-2.16,5.62a.19.19,0,0,1,.35.16c-.17.38-.35.75-.53,1.12l-.56,1.09a.19.19,0,0,1-.26.08.19.19,0,0,1-.08-.26c.19-.36.37-.72.55-1.09s.36-.73.53-1.1ZM104,125.18a.2.2,0,0,1,.27-.06.2.2,0,0,1,.06.27c-.22.34-.44.69-.67,1s-.46.67-.7,1a.19.19,0,0,1-.27,0,.2.2,0,0,1,0-.27l.69-1,.66-1Zm-3.54,4.87a.19.19,0,0,1,.27,0,.18.18,0,0,1,0,.27l-.79.93-.83.92a.2.2,0,0,1-.29-.27c.27-.29.55-.59.82-.91s.54-.61.79-.92Zm-4.14,4.37a.19.19,0,0,1,.27,0,.2.2,0,0,1,0,.28l-.91.82-.94.8a.2.2,0,0,1-.27,0,.18.18,0,0,1,0-.27c.29-.25.6-.51.92-.8s.62-.54.91-.81Zm-4.68,3.79a.19.19,0,0,1,.27,0,.18.18,0,0,1,0,.27c-.33.23-.67.47-1,.7l-1,.67a.19.19,0,0,1-.26-.06.2.2,0,0,1,.06-.27l1-.67c.33-.22.67-.45,1-.69Zm-5.13,3.15a.2.2,0,1,1,.18.35l-1.09.56-1.11.53a.2.2,0,1,1-.16-.36l1.1-.52,1.08-.56ZM81,143.82a.19.19,0,0,1,.25.11.2.2,0,0,1-.12.25c-.38.15-.77.28-1.16.42l-1.17.38a.2.2,0,0,1-.24-.13.19.19,0,0,1,.12-.24l1.17-.38,1.15-.41Zm-5.78,1.71a.19.19,0,0,1,.23.15.19.19,0,0,1-.14.23l-1.2.25c-.41.08-.81.16-1.22.22a.19.19,0,0,1-.22-.15.2.2,0,0,1,.16-.23l1.2-.22,1.19-.25Zm-6,.94a.19.19,0,0,1,.21.17.19.19,0,0,1-.17.21l-1.22.1-1.23.06a.2.2,0,0,1-.21-.19.21.21,0,0,1,.19-.2l1.22-.06,1.21-.09Zm-6,.15a.21.21,0,0,1,.19.2.19.19,0,0,1-.2.19L62,147l-1.23-.1a.19.19,0,0,1-.17-.21.2.2,0,0,1,.21-.17l1.21.09,1.22.06Zm-6-.62a.2.2,0,0,1,.15.23.18.18,0,0,1-.22.15c-.4-.06-.81-.14-1.21-.22l-1.2-.25a.2.2,0,0,1-.15-.23.19.19,0,0,1,.23-.15l1.2.25c.39.08.8.16,1.2.22Zm-5.86-1.39a.19.19,0,1,1-.11.37l-1.17-.38c-.39-.14-.78-.27-1.17-.42a.19.19,0,0,1-.11-.25.19.19,0,0,1,.25-.11l1.15.41,1.16.38Zm-5.62-2.16a.18.18,0,0,1,.09.25.19.19,0,0,1-.25.1l-1.11-.53-1.1-.56a.2.2,0,0,1-.08-.26.19.19,0,0,1,.26-.09c.36.19.72.38,1.09.56l1.1.53Zm-5.29-2.88a.2.2,0,0,1,.06.27.2.2,0,0,1-.27.06c-.34-.22-.69-.44-1-.68s-.68-.46-1-.69a.19.19,0,0,1,.22-.32c.33.24.67.47,1,.69s.67.45,1,.67ZM35.6,136a.19.19,0,0,1,0,.27.2.2,0,0,1-.27,0c-.33-.28-.64-.54-.93-.8h0c-.3-.26-.6-.54-.91-.82a.2.2,0,0,1,0-.27.2.2,0,0,1,.28,0c.29.27.58.54.89.81h0c.32.29.63.55.93.8Zm-4.37-4.15a.2.2,0,0,1,0,.28.2.2,0,0,1-.27,0c-.29-.31-.57-.62-.83-.92s-.53-.61-.79-.93a.19.19,0,0,1,.29-.25c.26.31.52.62.79.92l.82.91Zm-3.79-4.67a.19.19,0,0,1-.32.22c-.24-.34-.47-.67-.69-1l-.68-1a.22.22,0,0,1,.06-.27.2.2,0,0,1,.27.06c.22.35.44.69.67,1l.69,1Zm-3.15-5.13a.19.19,0,0,1-.08.26.2.2,0,0,1-.27-.08c-.19-.36-.37-.73-.55-1.09s-.36-.74-.54-1.12a.2.2,0,0,1,.36-.16c.17.37.34.74.52,1.1s.37.73.56,1.09Zm-2.46-5.5a.19.19,0,1,1-.36.14c-.14-.39-.28-.77-.41-1.16s-.26-.77-.39-1.18a.2.2,0,0,1,.13-.24.21.21,0,0,1,.25.13c.11.38.24.77.37,1.17s.27.76.41,1.14Zm-1.71-5.77A.19.19,0,0,1,20,111a.2.2,0,0,1-.24-.15c-.09-.4-.17-.8-.25-1.2s-.15-.8-.22-1.21a.18.18,0,0,1,.16-.22.19.19,0,0,1,.22.16c.07.39.14.79.22,1.2s.16.8.25,1.19Zm-.94-6a.19.19,0,0,1-.17.21.19.19,0,0,1-.21-.18c0-.41-.07-.82-.09-1.22s-.05-.81-.07-1.23a.2.2,0,0,1,.39,0c0,.4,0,.81.06,1.22s.06.82.09,1.21Zm-.15-6a.2.2,0,1,1-.39,0c0-.42,0-.83.07-1.23s.05-.81.09-1.23A.19.19,0,0,1,19,96.2a.19.19,0,0,1,.17.21c0,.39-.06.79-.09,1.21s-.05.82-.06,1.22Zm.62-6a.2.2,0,0,1-.23.16.19.19,0,0,1-.15-.22c.06-.41.14-.81.22-1.21s.16-.8.25-1.21a.21.21,0,0,1,.24-.14.19.19,0,0,1,.14.23c-.09.39-.17.79-.25,1.19s-.15.8-.22,1.2ZM21,87a.19.19,0,0,1-.24.12.2.2,0,0,1-.13-.24l.39-1.17c.13-.39.27-.78.41-1.16a.19.19,0,0,1,.36.14c-.14.37-.28.76-.41,1.14s-.26.79-.38,1.17Zm2.17-5.63a.2.2,0,0,1-.26.1.2.2,0,0,1-.1-.26c.17-.37.35-.74.53-1.11L23.94,79a.2.2,0,0,1,.35.18c-.19.36-.38.72-.56,1.09s-.35.72-.52,1.09Zm2.87-5.29a.21.21,0,0,1-.27.07.22.22,0,0,1-.06-.27l.68-1c.22-.35.46-.69.69-1a.18.18,0,0,1,.27,0,.19.19,0,0,1,.05.27c-.24.33-.47.67-.69,1s-.45.68-.67,1Zm3.54-4.87a.18.18,0,0,1-.27,0,.19.19,0,0,1,0-.27c.26-.32.52-.63.79-.93s.54-.61.83-.92a.19.19,0,0,1,.28.26l-.82.91-.79.92Zm4.15-4.36a.2.2,0,0,1-.27-.29l.92-.82c.29-.26.6-.53.93-.8a.18.18,0,0,1,.27,0,.19.19,0,0,1,0,.27c-.3.25-.61.51-.92.79l-.91.82Zm4.67-3.8a.19.19,0,1,1-.22-.31l1-.7,1-.67a.2.2,0,0,1,.21.33l-1,.66-1,.69Zm5.13-3.15a.19.19,0,1,1-.18-.34c.36-.19.72-.38,1.09-.56l1.12-.53a.2.2,0,0,1,.25.09.19.19,0,0,1-.09.26l-1.11.53-1.08.55Zm5.5-2.45a.21.21,0,0,1-.25-.12.19.19,0,0,1,.11-.25l1.16-.41,1.18-.38a.19.19,0,0,1,.11.37L50.22,57l-1.15.41Zm5.77-1.71a.19.19,0,1,1-.08-.38L56,55.1l1.21-.22a.2.2,0,0,1,.07.39c-.4.06-.81.14-1.2.21l-1.2.26Zm5.95-.94a.2.2,0,0,1-.21-.18.19.19,0,0,1,.17-.2l1.23-.1q.6,0,1.23-.06a.18.18,0,0,1,.2.18.19.19,0,0,1-.19.2L62,54.71C61.59,54.73,61.18,54.76,60.79,54.8Z"/><path class="cls-3" d="M66.6,60a.19.19,0,0,1-.19-.2.2.2,0,0,1,.2-.18l1.09.05,1.08.09A.19.19,0,0,1,69,60a.2.2,0,0,1-.21.17l-1.07-.08L66.6,60Zm5.29.55a.19.19,0,0,1,.06-.38l1.07.2,1.06.22a.19.19,0,0,1,.15.23A.2.2,0,0,1,74,61l-1-.22-1.06-.2Zm5.16,1.23a.18.18,0,0,1-.12-.24.2.2,0,0,1,.24-.13l1,.34,1,.36a.19.19,0,0,1,.11.25.2.2,0,0,1-.25.12c-.33-.13-.67-.25-1-.36l-1-.34Zm5,1.91a.19.19,0,0,1-.09-.26.2.2,0,0,1,.26-.09l1,.47,1,.49a.2.2,0,0,1-.18.35c-.32-.17-.64-.34-1-.49l-1-.47Zm4.68,2.54a.2.2,0,0,1-.07-.27.2.2,0,0,1,.27-.06c.31.19.61.39.91.6l.56.37-.33.24-.44-.29-.9-.59Zm1.91.81.1.07a.19.19,0,0,1,0,.27.18.18,0,0,1-.26,0h0l.13-.38ZM91,69.39a.19.19,0,1,1,.25-.29l.82.7c.27.23.54.48.81.73a.19.19,0,0,1,0,.27.18.18,0,0,1-.27,0l-.8-.72-.82-.7Zm3.86,3.66a.18.18,0,0,1,0-.27.19.19,0,0,1,.27,0l.73.81.7.82a.19.19,0,1,1-.29.25l-.7-.82-.72-.8Zm3.35,4.13A.19.19,0,1,1,98.5,77c.21.29.42.59.62.89l.59.91a.2.2,0,0,1-.06.27.2.2,0,0,1-.27-.06c-.19-.31-.39-.61-.59-.91s-.4-.6-.6-.88ZM101,81.7a.19.19,0,0,1,.08-.26.2.2,0,0,1,.26.08c.17.32.33.65.49,1l.47,1a.19.19,0,0,1-.09.26.2.2,0,0,1-.26-.09c-.15-.33-.31-.66-.46-1l-.49-1Zm2.16,4.86a.2.2,0,0,1,.12-.25.19.19,0,0,1,.25.11l.36,1c.12.33.23.68.34,1a.19.19,0,0,1-.13.24.18.18,0,0,1-.24-.12c-.11-.34-.22-.68-.34-1s-.23-.68-.36-1Zm1.51,5.09a.2.2,0,0,1,.15-.23.19.19,0,0,1,.23.15c.08.36.15.71.23,1.05s.13.72.19,1.08a.18.18,0,0,1-.16.22.19.19,0,0,1-.22-.15c-.06-.36-.13-.71-.2-1.07s-.14-.7-.22-1Zm.83,5.25a.2.2,0,0,1,.17-.21.19.19,0,0,1,.21.18c0,.37.06.73.09,1.08s0,.72,0,1.09a.2.2,0,0,1-.18.2.19.19,0,0,1-.2-.19q0-.52-.06-1.08c0-.37,0-.73-.08-1.07Zm.14,5.32a.19.19,0,0,1,.2-.19.19.19,0,0,1,.18.2c0,.37,0,.73,0,1.09s0,.71-.09,1.08a.2.2,0,0,1-.21.18.21.21,0,0,1-.17-.22c0-.34.06-.69.08-1.07l.06-1.07Zm-.55,5.28a.2.2,0,0,1,.22-.16.2.2,0,0,1,.16.23c-.06.35-.13.71-.19,1.07s-.15.7-.23,1.06a.2.2,0,0,1-.23.15.2.2,0,0,1-.15-.23c.08-.35.15-.7.22-1.06s.14-.7.2-1.06Zm-1.23,5.17a.19.19,0,0,1,.37.11c-.11.36-.22.7-.34,1l-.36,1a.21.21,0,0,1-.25.11.21.21,0,0,1-.12-.25c.13-.34.25-.67.36-1s.23-.69.34-1Zm-1.91,5a.19.19,0,0,1,.26-.09.19.19,0,0,1,.09.25c-.15.33-.31.66-.47,1s-.32.64-.49,1a.19.19,0,0,1-.26.08.19.19,0,0,1-.08-.26c.16-.32.33-.63.49-1s.31-.64.46-1Zm-2.54,4.67a.2.2,0,1,1,.33.21l-.59.91-.62.89a.19.19,0,0,1-.27,0,.18.18,0,0,1,0-.27l.6-.88c.2-.3.4-.6.59-.91Zm-3.12,4.3a.19.19,0,1,1,.29.25l-.7.82-.73.81a.2.2,0,0,1-.27,0,.19.19,0,0,1,0-.28c.23-.25.48-.52.72-.8l.7-.81Zm-3.66,3.85a.2.2,0,0,1,.27,0,.2.2,0,0,1,0,.28l-.81.73-.82.7a.18.18,0,0,1-.27,0,.19.19,0,0,1,0-.27l.82-.69.8-.73Zm-4.13,3.35a.19.19,0,0,1,.27,0,.2.2,0,0,1,0,.27c-.3.2-.59.41-.9.61s-.61.4-.91.59a.19.19,0,0,1-.27-.06.19.19,0,0,1,.06-.26l.91-.59.88-.61ZM84,136.58a.2.2,0,0,1,.26.08.19.19,0,0,1-.08.26l-1,.5-1,.47a.2.2,0,0,1-.26-.1.19.19,0,0,1,.09-.25l1-.47,1-.49Zm-4.86,2.17a.19.19,0,0,1,.14.36l-1,.37-1,.33a.19.19,0,0,1-.24-.13.18.18,0,0,1,.12-.24l1-.33,1-.36ZM74,140.26a.19.19,0,0,1,.23.14.2.2,0,0,1-.15.24l-1.06.22-1.07.2a.19.19,0,0,1-.22-.16.18.18,0,0,1,.16-.22l1.06-.2,1-.22Zm-5.25.83a.19.19,0,0,1,.21.17.19.19,0,0,1-.18.21l-1.08.08c-.35,0-.72,0-1.09.06a.2.2,0,0,1,0-.39l1.08-.05,1.07-.08Zm-5.31.13a.2.2,0,0,1,.18.2.19.19,0,0,1-.2.19c-.37,0-.73,0-1.09-.06l-1.08-.08a.19.19,0,0,1-.17-.21.19.19,0,0,1,.21-.17l1.07.08,1.08.05Zm-5.29-.54a.18.18,0,0,1,.16.22.2.2,0,0,1-.22.16l-1.08-.2L56,140.64a.2.2,0,0,1-.14-.24.18.18,0,0,1,.23-.14l1.05.22,1.06.2ZM53,139.44a.2.2,0,0,1,.13.24.19.19,0,0,1-.24.13l-1-.33-1-.37a.19.19,0,0,1-.12-.24.19.19,0,0,1,.25-.12l1,.36,1,.33Zm-5-1.9a.18.18,0,0,1,.09.25.19.19,0,0,1-.25.1l-1-.47c-.33-.16-.65-.33-1-.5a.19.19,0,1,1,.18-.34l1,.49,1,.47ZM43.35,135a.19.19,0,1,1-.21.32l-.91-.59-.89-.61a.19.19,0,0,1,.22-.32l.89.61.9.59Zm-4.3-3.13a.19.19,0,0,1,0,.27.18.18,0,0,1-.27,0c-.3-.24-.57-.48-.83-.71h0l-.8-.72a.2.2,0,1,1,.27-.29c.25.24.51.47.79.71h0l.81.7Zm-3.85-3.66a.2.2,0,0,1,0,.28.21.21,0,0,1-.28,0l-.73-.81-.7-.82a.2.2,0,1,1,.3-.25l.7.81c.24.28.48.55.72.8Zm-3.35-4.12a.19.19,0,0,1-.05.27.18.18,0,0,1-.26,0c-.22-.29-.42-.59-.62-.89l-.59-.91a.2.2,0,0,1,.06-.27.18.18,0,0,1,.26.06l.59.91c.2.3.41.59.61.88Zm-2.78-4.53a.19.19,0,0,1-.08.26.19.19,0,0,1-.26-.08c-.17-.32-.34-.64-.5-1s-.32-.66-.47-1a.2.2,0,0,1,.36-.16c.15.33.3.65.46,1s.32.64.49,1Zm-2.17-4.85a.19.19,0,0,1-.11.25.2.2,0,0,1-.25-.11c-.13-.34-.25-.69-.36-1s-.23-.68-.34-1a.19.19,0,1,1,.37-.11c.1.34.22.68.33,1l.36,1Zm-1.51-5.09a.19.19,0,0,1-.14.23.2.2,0,0,1-.23-.15c-.09-.36-.16-.71-.23-1.06s-.13-.71-.2-1.08a.21.21,0,0,1,.16-.22.21.21,0,0,1,.23.16c.06.35.12.71.19,1.06s.15.71.22,1.06Zm-.82-5.26a.2.2,0,1,1-.39,0c0-.37-.06-.73-.08-1.08s0-.72-.06-1.09a.2.2,0,0,1,.19-.2.21.21,0,0,1,.2.19c0,.35,0,.71.05,1.07s.05.73.09,1.07Zm-.14-5.31A.2.2,0,1,1,24,99c0-.37,0-.74.06-1.09s0-.71.08-1.08a.19.19,0,0,1,.21-.18.21.21,0,0,1,.18.21c0,.34-.06.7-.09,1.07s0,.73-.05,1.08ZM25,93.77a.2.2,0,0,1-.39-.07c.06-.36.13-.71.2-1.07s.14-.7.22-1.06a.2.2,0,0,1,.24-.15.19.19,0,0,1,.14.23c-.07.35-.15.7-.22,1.06s-.13.7-.19,1.06Zm1.23-5.17a.18.18,0,0,1-.24.12.19.19,0,0,1-.13-.24c.11-.35.22-.7.33-1s.24-.69.37-1a.19.19,0,0,1,.25-.11.19.19,0,0,1,.11.25l-.36,1c-.12.35-.23.69-.33,1Zm1.9-5a.18.18,0,0,1-.25.09.2.2,0,0,1-.1-.26l.47-1,.5-1a.19.19,0,0,1,.34.18c-.17.32-.33.64-.49,1s-.31.64-.47,1ZM30.65,79a.19.19,0,0,1-.26.06.2.2,0,0,1-.06-.27l.59-.91c.2-.31.41-.6.62-.9a.19.19,0,0,1,.26,0,.19.19,0,0,1,.05.27c-.21.29-.41.59-.61.88l-.59.91Zm3.13-4.3a.2.2,0,0,1-.3-.25l.7-.82.73-.81a.2.2,0,0,1,.28,0,.19.19,0,0,1,0,.27l-.72.8c-.25.28-.48.55-.7.82Zm3.66-3.86a.19.19,0,0,1-.28,0,.2.2,0,0,1,0-.27L38,69.8c.27-.23.54-.47.83-.7a.19.19,0,1,1,.24.29l-.81.7-.8.72Zm4.12-3.34a.19.19,0,1,1-.22-.32l.1-.07.12.38Zm.11-.56.56-.38.91-.59a.19.19,0,0,1,.27.06.2.2,0,0,1-.06.27c-.31.19-.61.39-.9.59l-.44.29-.34-.24Zm4.42-2.22a.2.2,0,0,1-.26-.08.2.2,0,0,1,.08-.27l1-.49,1-.47a.19.19,0,0,1,.25.09.19.19,0,0,1-.09.26l-1,.47c-.32.15-.64.32-1,.49Zm4.85-2.17a.2.2,0,1,1-.13-.37l1-.36,1-.34a.19.19,0,1,1,.11.37l-1,.34-1,.36ZM56,61a.2.2,0,0,1-.23-.15.19.19,0,0,1,.14-.23L57,60.41l1.07-.2a.2.2,0,0,1,.23.16.19.19,0,0,1-.16.22l-1.06.2L56,61Zm5.25-.83a.19.19,0,0,1,0-.38l1.08-.09,1.09-.05a.18.18,0,0,1,.2.18.19.19,0,0,1-.18.2l-1.08.06Z"/><path class="cls-2" d="M65,140a.35.35,0,0,1-.33-.23l-9-27.65H26.63a.32.32,0,0,1-.32-.23.35.35,0,0,1,.12-.39L50,94.39,41,66.75a.37.37,0,0,1,.13-.39.36.36,0,0,1,.4,0L65,83.45,88.54,66.36a.36.36,0,0,1,.4,0,.35.35,0,0,1,.12.39l-9,27.64,23.52,17.09a.35.35,0,0,1,.13.39.35.35,0,0,1-.33.23H74.33l-9,27.65A.32.32,0,0,1,65,140ZM27.69,111.42H56a.32.32,0,0,1,.32.23L65,138.53l8.73-26.88a.35.35,0,0,1,.33-.23h28.27L79.47,94.8a.35.35,0,0,1-.12-.38l8.74-26.88L65.22,84.15a.33.33,0,0,1-.4,0L42,67.54l8.73,26.88a.33.33,0,0,1-.12.38Z"/><path class="cls-3" d="M66.82,129.23l6.17-19h25.8l-4.73-3.45L77.92,95.1l6.16-19,1.81-5.56L81.16,74,65,85.72,48.88,74l-4.73-3.44L46,76.12l6.17,19L36,106.82l-4.74,3.45H57.05l6.16,19L65,134.8l1.8-5.57Zm7.41-22.77,1.22-3.78,1.23-3.78,10.4,7.56Zm-2.39-4.95-1.61,4.95H59.81l-1.61-4.95-1.61-5,4.21-3.06L65,90.43l4.22,3.06,4.21,3.06-1.61,5ZM69,110.27,65,122.5l-4-12.23H69Zm9.67-29.76-4,12.24-3.21-2.34-3.22-2.34,10.41-7.56ZM61.78,88.07l-3.21,2.34-3.22,2.34-4-12.24,10.4,7.56ZM43,106.46l10.4-7.56,1.23,3.78,1.23,3.78Z"/><path class="cls-2" d="M48.31,130.8a8,8,0,1,1,8-8A8,8,0,0,1,48.31,130.8Zm0-15a7,7,0,1,0,7,7A7,7,0,0,0,48.31,115.84Z"/><path class="cls-3" d="M44.87,121.64l2.55.2c-1.05-1.22-1.65-4.14.89-4.14s1.94,2.92.88,4.14l2.55-.2a.24.24,0,0,1,.2.07.25.25,0,0,1,.09.19V123a.27.27,0,0,1-.09.2.27.27,0,0,1-.2.07l-2.48-.2a.26.26,0,0,0-.21.07.25.25,0,0,0-.08.21l.26,4.27a.27.27,0,0,1-.27.28H47.65a.23.23,0,0,1-.19-.09.24.24,0,0,1-.08-.19l.26-4.27a.25.25,0,0,0-.28-.28l-2.49.2a.27.27,0,0,1-.29-.27V121.9a.28.28,0,0,1,.09-.19.26.26,0,0,1,.2-.07Zm3.44-3.14c-1.46,0-.59,3,0,3S49.77,118.5,48.31,118.5Z"/><path class="cls-2" d="M65,76.4a8.08,8.08,0,1,1,8.08-8.08A8.08,8.08,0,0,1,65,76.4Zm0-15.14a7.06,7.06,0,1,0,7,7.06A7.07,7.07,0,0,0,65,61.26Z"/><path class="cls-2" d="M65,71.4a8.86,8.86,0,0,1-6.88-2.9.3.3,0,0,1,0-.36,9.59,9.59,0,0,1,13.76,0,.3.3,0,0,1,0,.36A8.87,8.87,0,0,1,65,71.4Zm-6.29-3.08a9.12,9.12,0,0,0,12.57,0,9.1,9.1,0,0,0-12.57,0Z"/><path class="cls-2" d="M65,70.17a3.1,3.1,0,0,1-2.77-4.47.29.29,0,0,1,.19-.15,10.72,10.72,0,0,1,5.16,0,.25.25,0,0,1,.18.15,3,3,0,0,1,.33,1.38A3.1,3.1,0,0,1,65,70.17Zm-2.31-4.1a2.47,2.47,0,0,0-.21,1,2.52,2.52,0,0,0,5,0,2.47,2.47,0,0,0-.21-1A10.3,10.3,0,0,0,62.71,66.07Z"/><path class="cls-2" d="M65,68.64a1.57,1.57,0,1,1,1.56-1.56A1.56,1.56,0,0,1,65,68.64Zm0-2.56a1,1,0,1,0,1,1A1,1,0,0,0,65,66.08Z"/><path class="cls-2" d="M93.33,98.43a8.08,8.08,0,1,1,8.08-8.08A8.1,8.1,0,0,1,93.33,98.43Zm0-15.14a7.06,7.06,0,1,0,7,7.06A7.07,7.07,0,0,0,93.33,83.29Z"/><path class="cls-3" d="M87.76,88.88l2.21.21a4,4,0,0,0-.18.7l-2-.91Zm8.91.19,2.2-.23-2,.92a3.2,3.2,0,0,0-.19-.69Zm.22.91,2.19.34-2.19.37c0-.11,0-.23,0-.34s0-.25,0-.37Zm0,.93,2,.9-2.21-.21a3.88,3.88,0,0,0,.18-.69ZM90,91.63l-2.2.23,2-.92a3.9,3.9,0,0,0,.19.69Zm-.22-.91-2.18-.35L89.76,90c0,.11,0,.22,0,.34s0,.25,0,.37Zm4.13-3.91.9-2L94.58,87h0a4.12,4.12,0,0,0-.69-.18Zm.89.27H95l0,0h.11l0,0h.17l0,0h0l0,0,.77-2.07-1.4,1.72Zm.8.49,1.8-1.31-1.29,1.81v0h0L96,88h0l-.12-.12h0l-.11-.1h-.14Zm.64.68h0a2.13,2.13,0,0,1,.16.25h0l.08.13h0v0h0v0h0v0h0v0l1.71-1.41-2.08.8Zm.38,3.56h0a3.85,3.85,0,0,1-.36.62l2.08.77L96.6,91.81Zm-.49.79,1.3,1.8L95.6,93.11h0a3.08,3.08,0,0,0,.51-.51Zm-.68.65a4,4,0,0,1-.61.35h0l1.41,1.71-.79-2.07Zm-.82.44.23,2.21-.92-2a3.37,3.37,0,0,0,.69-.19Zm-.89.22-.36,2.14v0h0L93,93.91h.4l.34,0Zm-1,0-.9,2,.21-2.21a3.2,3.2,0,0,0,.69.19Zm-.89-.27a3.46,3.46,0,0,1-.62-.36l-.78,2.08,1.4-1.72Zm-.8-.49-1.79,1.3,1.28-1.8a4.81,4.81,0,0,0,.51.5Zm-.64-.68a3.46,3.46,0,0,1-.36-.62l-1.71,1.42,2.07-.8Zm-.38-3.56,0,0h0l0,0h0l0,0h0l.06-.1h0l0-.06h0l.07-.1-2.08-.78,1.72,1.4Zm.49-.8-1.3-1.79,1.81,1.29-.13.11h0l0,0h-.1l0,0h0l0,0h0l-.08.09Zm.68-.64h0l0,0h0l.07-.05h.07l.07,0h0l.07,0h.25l-1.41-1.71.79,2.07ZM92,87l-.23-2.2.92,2a3,3,0,0,0-.59.15h0L92,87Zm.91-.21.35-2.19,0,.14,0-.14.37,2.19-.34,0H93Z"/><path class="cls-3" d="M93.33,87.38a3,3,0,1,1-3,3,3,3,0,0,1,3-3Zm0,.38a2.51,2.51,0,0,0-.92.16,2.6,2.6,0,0,1,0,4.85,2.51,2.51,0,0,0,.92.17,2.59,2.59,0,1,0,0-5.18Z"/><path class="cls-2" d="M36.71,98.43a8.08,8.08,0,1,1,8.08-8.08A8.09,8.09,0,0,1,36.71,98.43Zm0-15.14a7.06,7.06,0,1,0,7.06,7.06A7.07,7.07,0,0,0,36.71,83.29Z"/><path class="cls-2" d="M36.71,96a.29.29,0,0,1-.25-.14L35,93.32H32.06a.28.28,0,0,1-.24-.15.24.24,0,0,1,0-.28l1.46-2.54-1.46-2.54a.26.26,0,0,1,0-.29.29.29,0,0,1,.24-.14H35l1.46-2.54a.3.3,0,0,1,.5,0l1.46,2.54h2.94a.29.29,0,0,1,.24.14.26.26,0,0,1,0,.29l-1.46,2.54,1.43,2.47a.31.31,0,0,1,.09.21.29.29,0,0,1-.3.29H38.42L37,95.86A.29.29,0,0,1,36.71,96Zm-1.06-2.68,1.06,1.82,1-1.82Zm3.1-.57h2.11l-1-1.83Zm-3.43,0h2.77l1.39-2.4L38.09,88H35.32l-1.38,2.4Zm-2.76,0h2.11l-1.06-1.83Zm0-4.8,1,1.83L34.67,88Zm6.19,0,1.06,1.83,1-1.83Zm-3.1-.57h2.11l-1-1.83Z"/><path class="cls-2" d="M82.11,130.8a8,8,0,1,1,8-8A8,8,0,0,1,82.11,130.8Zm0-15a7,7,0,1,0,7,7A7,7,0,0,0,82.11,115.84Z"/><path class="cls-3" d="M82.11,117.8a5,5,0,1,1,0,10,4.92,4.92,0,0,1-1.77-.32,5,5,0,0,0,0-9.37A4.92,4.92,0,0,1,82.11,117.8Z"/><path class="cls-3" d="M59.8,106l1.8-5.34-5.35-4,6.68.12,2.14-6.31,2,6.38,6.65.12-5.46,3.81,2,6.37-5.32-4-5.32,3.72.28-.82Zm2-5.91.94-2.79L58,97.19l3.81,2.87ZM65,92.26l-1.51,4.46,2.89,0L65,92.26Zm-1.7,5-1.06,3.14,2.57,2,2.7-1.89-1-3.14-3.25-.06ZM62.08,101l-1.47,4.34,3.75-2.62L62.08,101Zm5.11-3.64.85,2.79,3.87-2.7-4.72-.09Zm1.92,8.22-1.39-4.52-2.39,1.67Z"/></g></g></svg>