<svg width="62" height="52" viewBox="0 0 62 52" fill="none" xmlns="http://www.w3.org/2000/svg">
<g clip-path="url(#clip0_200_718)">
<path d="M4.24156 16.7928C3.35136 17.3159 2.61825 18.1529 1.67568 18.5714C1.57095 18.6237 1.46622 18.6238 1.30913 18.6761C0.366562 18.7284 -0.314181 17.7344 0.104738 16.8974C0.157102 16.7928 0.209467 16.6881 0.314197 16.6358C1.93751 15.328 3.66555 14.1248 5.34122 12.9215C9.37332 10.0443 13.3007 7.1147 17.3851 4.28975C25.5541 -1.46478 35.9747 -1.41247 44.0389 4.39437C48.0186 7.27164 51.946 10.3058 55.8209 13.34C58.5439 15.5372 58.4916 18.4145 55.6639 20.507C49.4324 25.163 43.1487 29.8189 36.8125 34.4225C33.5135 36.829 29.9527 37.4044 26.1824 35.3642C22.3074 33.2716 20.2652 30.0282 20.2652 25.5815C20.2652 25.006 20.3176 24.4306 20.3699 23.4889C18.5895 24.7445 17.071 25.8954 15.5 26.994C12.7247 29.0342 9.63514 30.7083 7.12163 33.0624C5.81251 34.3179 5.39359 35.4688 7.06926 36.5674C11.1537 39.2354 14.4527 42.3743 18.1182 45.0946C21.7838 47.4487 25.7112 49.6982 30.424 49.5413C34.9274 49.4366 39.1689 48.3904 42.8345 45.67C48.2804 41.6942 53.7264 37.666 59.1723 33.6378C59.5389 33.3763 59.853 32.9578 60.272 32.8531C60.3767 32.8531 60.4291 32.8008 60.5338 32.8008C61.5287 32.6962 62.3142 33.6902 61.8429 34.5272C61.7905 34.6318 61.7382 34.6841 61.6858 34.7364C59.3818 36.6197 56.9206 38.3461 54.5118 40.1248C51.1081 42.6358 47.7568 45.1992 44.3007 47.658C35.6605 53.7264 24.402 53.3602 16.1807 46.8209C12.8818 44.2052 9.63514 41.4326 6.17906 39.0262C2.51352 36.4628 2.72298 33.167 7.59291 29.7666C12.9865 26 18.0135 22.7565 23.0405 18.6761C27.125 15.328 31.0524 14.0201 35.3463 16.4789C39.326 18.7807 41.3683 22.2334 41.1064 26.9417C41.1064 27.2555 41.0541 27.5694 41.0017 28.4064C45.7145 24.9014 50.1132 21.7103 54.4595 18.4145C55.5068 17.6298 55.5591 16.4266 54.4595 15.5895C49.6419 11.8753 45.0338 7.84709 39.8497 4.8652C33.0422 0.993972 25.8682 1.67405 19.3226 5.96379M38.75 26C38.75 21.5533 35.1892 17.9437 30.7905 17.9437C26.4443 17.9437 22.8835 21.501 22.8311 25.8431C22.7787 30.2374 26.4443 33.9517 30.8429 33.8994C35.1892 33.8471 38.6976 30.3421 38.75 26Z" fill="white"/>
<path d="M29.0103 45.5131C26.3921 44.9377 24.9259 44.6761 22.8313 43.4206C19.637 41.5373 16.7569 39.1831 13.8245 36.9337C13.7198 36.8813 13.6674 36.7767 13.615 36.6721C13.039 35.7827 13.8769 34.5795 14.9242 34.8411C15.0289 34.8934 15.1336 34.8934 15.2384 34.998C18.0137 36.829 20.6319 38.8693 23.3549 40.7526C27.387 43.6298 32.833 43.5775 36.865 40.6479C43.4107 35.8351 49.9563 31.0222 56.5019 26.2093C56.9732 25.8431 57.4444 25.4246 57.9681 25.2677C58.387 25.163 59.0154 25.3723 59.2772 25.7385C59.4867 26.0524 59.4343 26.6801 59.2772 27.0986C59.1201 27.4648 58.6488 27.7264 58.2823 27.988C51.5796 32.9055 44.8769 37.8753 38.2265 42.7928C35.8177 44.5715 33.0948 45.5654 30.0576 45.5654C29.9005 45.7224 29.0627 45.3562 29.0103 45.5131Z" fill="white"/>
<path d="M45.2434 14.5958C46.9714 17.0022 44.4579 17.1069 44.0914 16.793C41.7349 15.1713 39.4832 13.4449 37.1792 11.7185C32.2569 8.05657 27.8582 8.00426 22.8836 11.6139C19.8988 13.8111 16.914 15.956 13.8768 18.1532C10.4731 20.6119 7.0694 23.0707 3.61332 25.5294C2.88021 26.0525 2.04237 26.9942 1.15217 25.7387C0.314333 24.5878 1.36163 24.1169 2.09474 23.5938C8.90217 18.6763 15.6572 13.7065 22.4647 8.89359C27.2299 5.54551 32.99 5.65013 37.7552 9.05053C40.2687 10.8815 42.7299 12.7648 45.2434 14.5958Z" fill="white"/>
<path d="M30.7904 31.4929C33.856 31.4929 36.3411 29.0102 36.3411 25.9476C36.3411 22.885 33.856 20.4023 30.7904 20.4023C27.7249 20.4023 25.2397 22.885 25.2397 25.9476C25.2397 29.0102 27.7249 31.4929 30.7904 31.4929Z" fill="#FF6600"/>
</g>
<defs>
<clipPath id="clip0_200_718">
<rect width="62" height="52" fill="white"/>
</clipPath>
</defs>
</svg>
