<svg xmlns="http://www.w3.org/2000/svg" viewBox="0 0 272.18 421.28"><defs><style>.cls-1{fill:#88468d;}.cls-2,.cls-3{fill:#eac47e;}.cls-3{fill-rule:evenodd;}</style></defs><g id="Layer_2" data-name="Layer 2"><g id="Layer_1-2" data-name="Layer 1"><path class="cls-1" d="M13.35,0H258.83a13.35,13.35,0,0,1,13.35,13.35V407.93a13.35,13.35,0,0,1-13.35,13.35H13.34A13.34,13.34,0,0,1,0,407.93V13.35A13.35,13.35,0,0,1,13.35,0Z"/><path class="cls-2" d="M250.45,408.94H21.73a9.41,9.41,0,0,1-9.4-9.4V21.73a9.41,9.41,0,0,1,9.4-9.4H250.45a9.41,9.41,0,0,1,9.4,9.4V399.54A9.41,9.41,0,0,1,250.45,408.94ZM21.73,14.1a7.64,7.64,0,0,0-7.64,7.63V399.54a7.65,7.65,0,0,0,7.64,7.64H250.45a7.65,7.65,0,0,0,7.64-7.64V21.73a7.64,7.64,0,0,0-7.64-7.63Z"/><path class="cls-2" d="M230.07,22.39h-188a.89.89,0,0,1,0-1.77h188a.89.89,0,0,1,0,1.77Z"/><rect class="cls-2" x="42.11" y="398.36" width="187.95" height="1.76"/><path class="cls-2" d="M21.71,377.56a.87.87,0,0,1-.88-.88V44.6a.88.88,0,1,1,1.76,0V376.68A.87.87,0,0,1,21.71,377.56Z"/><path class="cls-2" d="M250.78,377.56a.88.88,0,0,1-.88-.88V44.6a.88.88,0,1,1,1.76,0V376.68A.87.87,0,0,1,250.78,377.56Z"/><path class="cls-2" d="M23.13,27.66A4.71,4.71,0,1,1,27.84,23,4.72,4.72,0,0,1,23.13,27.66Zm0-8.89A4.18,4.18,0,1,0,27.31,23,4.18,4.18,0,0,0,23.13,18.77Z"/><path class="cls-3" d="M21.86,23a2.87,2.87,0,0,1,2.86-2.86h.07a3.33,3.33,0,1,0,0,5.72h-.07A2.87,2.87,0,0,1,21.86,23Z"/><polygon class="cls-3" points="21.95 28.93 22.68 30.16 24.07 29.81 23.72 31.19 24.95 31.93 23.72 32.66 24.07 34.04 22.68 33.69 21.95 34.92 21.22 33.69 19.83 34.04 20.18 32.66 18.95 31.93 20.18 31.19 19.83 29.81 21.22 30.16 21.95 28.93"/><polygon class="cls-3" points="29.01 21.77 30.24 21.04 29.89 19.65 31.27 20 32.01 18.77 32.74 20 34.12 19.65 33.77 21.04 35 21.77 33.77 22.5 34.12 23.89 32.74 23.54 32.01 24.77 31.27 23.54 29.89 23.89 30.24 22.5 29.01 21.77"/><polygon class="cls-3" points="21.95 36.33 22.43 37.14 23.35 36.91 23.11 37.83 23.93 38.31 23.11 38.79 23.35 39.71 22.43 39.48 21.95 40.29 21.47 39.48 20.55 39.71 20.78 38.79 19.97 38.31 20.78 37.83 20.55 36.91 21.47 37.14 21.95 36.33"/><polygon class="cls-3" points="36.41 21.77 37.22 21.29 36.99 20.37 37.91 20.6 38.39 19.79 38.87 20.6 39.79 20.37 39.56 21.29 40.37 21.77 39.56 22.25 39.79 23.17 38.87 22.94 38.39 23.75 37.91 22.94 36.99 23.17 37.22 22.25 36.41 21.77"/><path class="cls-3" d="M26.33,29.5a.54.54,0,1,1-.6.48A.53.53,0,0,1,26.33,29.5Z"/><path class="cls-3" d="M30.36,25.05a.54.54,0,0,1,.48.6.54.54,0,1,1-1.08-.12A.54.54,0,0,1,30.36,25.05Z"/><path class="cls-3" d="M29,27a1.15,1.15,0,1,1-1.27,1A1.15,1.15,0,0,1,29,27Z"/><path class="cls-2" d="M23.13,402.51a4.71,4.71,0,1,1,4.71-4.71A4.71,4.71,0,0,1,23.13,402.51Zm0-8.89a4.18,4.18,0,1,0,4.18,4.18A4.19,4.19,0,0,0,23.13,393.62Z"/><path class="cls-3" d="M21.86,397.8a2.87,2.87,0,0,0,2.86,2.86h.07a3.33,3.33,0,1,1,0-5.72h-.07A2.87,2.87,0,0,0,21.86,397.8Z"/><polygon class="cls-3" points="21.95 391.82 22.68 390.59 24.07 390.94 23.72 389.55 24.95 388.82 23.72 388.09 24.07 386.7 22.68 387.06 21.95 385.82 21.22 387.06 19.83 386.7 20.18 388.09 18.95 388.82 20.18 389.55 19.83 390.94 21.22 390.59 21.95 391.82"/><polygon class="cls-3" points="29.01 398.98 30.24 399.71 29.89 401.1 31.27 400.75 32.01 401.98 32.74 400.75 34.12 401.1 33.77 399.71 35 398.98 33.77 398.25 34.12 396.86 32.74 397.21 32.01 395.98 31.27 397.21 29.89 396.86 30.24 398.25 29.01 398.98"/><polygon class="cls-3" points="21.95 384.42 22.43 383.61 23.35 383.84 23.11 382.92 23.93 382.44 23.11 381.96 23.35 381.04 22.43 381.27 21.95 380.46 21.47 381.27 20.55 381.04 20.78 381.96 19.97 382.44 20.78 382.92 20.55 383.84 21.47 383.61 21.95 384.42"/><polygon class="cls-3" points="36.41 398.98 37.22 399.46 36.99 400.38 37.91 400.15 38.39 400.96 38.87 400.15 39.79 400.38 39.56 399.46 40.37 398.98 39.56 398.5 39.79 397.58 38.87 397.81 38.39 397 37.91 397.81 36.99 397.58 37.22 398.5 36.41 398.98"/><path class="cls-3" d="M26.33,391.25a.54.54,0,1,0-.6-.48A.53.53,0,0,0,26.33,391.25Z"/><path class="cls-3" d="M30.36,395.7a.56.56,0,0,0,.48-.61.54.54,0,1,0-1.08.13A.55.55,0,0,0,30.36,395.7Z"/><path class="cls-3" d="M29,393.71a1.15,1.15,0,1,0-1.27-1A1.15,1.15,0,0,0,29,393.71Z"/><path class="cls-2" d="M249.05,27.92a4.71,4.71,0,1,1,4.7-4.71A4.71,4.71,0,0,1,249.05,27.92Zm0-8.88a4.18,4.18,0,1,0,4.18,4.17A4.18,4.18,0,0,0,249.05,19Z"/><path class="cls-3" d="M250.31,23.21a2.86,2.86,0,0,0-2.86-2.86h-.06a3.42,3.42,0,0,1,1.71-.47,3.33,3.33,0,1,1,0,6.66,3.42,3.42,0,0,1-1.71-.46h.06A2.87,2.87,0,0,0,250.31,23.21Z"/><polygon class="cls-3" points="250.23 29.19 249.5 30.42 248.11 30.07 248.46 31.46 247.23 32.19 248.46 32.92 248.11 34.31 249.5 33.96 250.23 35.19 250.96 33.96 252.35 34.31 251.99 32.92 253.23 32.19 251.99 31.46 252.35 30.07 250.96 30.42 250.23 29.19"/><polygon class="cls-3" points="243.17 22.03 241.94 21.3 242.29 19.91 240.9 20.27 240.17 19.04 239.44 20.27 238.05 19.91 238.41 21.3 237.18 22.03 238.41 22.77 238.05 24.15 239.44 23.8 240.17 25.03 240.9 23.8 242.29 24.15 241.94 22.77 243.17 22.03"/><polygon class="cls-3" points="250.23 36.6 249.75 37.41 248.83 37.18 249.06 38.09 248.25 38.57 249.06 39.06 248.83 39.97 249.74 39.74 250.23 40.55 250.71 39.74 251.63 39.97 251.39 39.06 252.21 38.57 251.39 38.09 251.63 37.18 250.71 37.41 250.23 36.6"/><polygon class="cls-3" points="235.76 22.03 234.96 21.55 235.19 20.63 234.27 20.87 233.79 20.06 233.31 20.87 232.39 20.63 232.62 21.55 231.81 22.03 232.62 22.52 232.39 23.43 233.31 23.2 233.79 24.01 234.27 23.2 235.19 23.43 234.96 22.52 235.76 22.03"/><path class="cls-3" d="M245.85,29.76a.55.55,0,0,0-.49.6.56.56,0,0,0,.61.49.56.56,0,0,0,.48-.61A.54.54,0,0,0,245.85,29.76Z"/><path class="cls-3" d="M241.82,25.32a.54.54,0,1,0,.6.48A.53.53,0,0,0,241.82,25.32Z"/><path class="cls-3" d="M243.2,27.31a1.15,1.15,0,1,0,1.27,1A1.15,1.15,0,0,0,243.2,27.31Z"/><path class="cls-2" d="M249.05,402.24a4.71,4.71,0,1,1,4.7-4.71A4.71,4.71,0,0,1,249.05,402.24Zm0-8.88a4.18,4.18,0,1,0,4.18,4.17A4.18,4.18,0,0,0,249.05,393.36Z"/><path class="cls-3" d="M250.31,397.53a2.87,2.87,0,0,1-2.86,2.87h-.06a3.42,3.42,0,0,0,1.71.47,3.34,3.34,0,1,0-1.71-6.2h.06A2.87,2.87,0,0,1,250.31,397.53Z"/><polygon class="cls-3" points="250.23 391.56 249.5 390.33 248.11 390.68 248.46 389.29 247.23 388.56 248.46 387.83 248.11 386.44 249.5 386.79 250.23 385.56 250.96 386.79 252.35 386.44 251.99 387.82 253.23 388.56 251.99 389.29 252.35 390.68 250.96 390.33 250.23 391.56"/><polygon class="cls-3" points="243.17 398.71 241.94 399.45 242.29 400.83 240.9 400.48 240.17 401.71 239.44 400.48 238.05 400.83 238.41 399.45 237.18 398.71 238.41 397.98 238.05 396.6 239.44 396.95 240.17 395.72 240.9 396.95 242.29 396.6 241.94 397.98 243.17 398.71"/><polygon class="cls-3" points="250.23 384.15 249.75 383.34 248.83 383.57 249.06 382.66 248.25 382.18 249.06 381.69 248.83 380.78 249.74 381.01 250.23 380.2 250.71 381.01 251.63 380.78 251.39 381.69 252.21 382.18 251.39 382.66 251.63 383.57 250.71 383.34 250.23 384.15"/><polygon class="cls-3" points="235.76 398.71 234.96 399.2 235.19 400.11 234.27 399.88 233.79 400.69 233.31 399.88 232.39 400.11 232.62 399.2 231.81 398.71 232.62 398.23 232.39 397.32 233.31 397.55 233.79 396.74 234.27 397.55 235.19 397.32 234.96 398.23 235.76 398.71"/><path class="cls-3" d="M245.85,391a.55.55,0,0,1-.49-.6.56.56,0,0,1,.61-.49.55.55,0,0,1,.48.61A.54.54,0,0,1,245.85,391Z"/><path class="cls-3" d="M241.82,395.43a.53.53,0,0,1-.48-.6.54.54,0,1,1,1.08.12A.54.54,0,0,1,241.82,395.43Z"/><path class="cls-3" d="M243.2,393.44a1.15,1.15,0,1,1,1.27-1A1.15,1.15,0,0,1,243.2,393.44Z"/><path class="cls-2" d="M143.34,83.3l-.17,0a.84.84,0,0,1-.67-.8,6.41,6.41,0,0,0-12.82,0,.84.84,0,0,1-.67.8.85.85,0,0,1-.93-.47,8.81,8.81,0,0,1,3.38-11.16v-7h-7A8.78,8.78,0,0,1,117,68.87a8.87,8.87,0,0,1-3.67-.79.84.84,0,0,1,.33-1.6,6.41,6.41,0,0,0,0-12.82.84.84,0,0,1-.8-.67.83.83,0,0,1,.47-.93,8.8,8.8,0,0,1,11.15,3.37h7v-7a8.81,8.81,0,0,1-3.38-11.16.87.87,0,0,1,.93-.47.84.84,0,0,1,.67.8,6.41,6.41,0,0,0,12.82,0,.84.84,0,0,1,.67-.8.86.86,0,0,1,.93.47,8.81,8.81,0,0,1-3.37,11.16v7h7a8.81,8.81,0,0,1,7.49-4.17,8.71,8.71,0,0,1,3.66.8.84.84,0,0,1-.33,1.6,6.41,6.41,0,0,0,0,12.82.82.82,0,0,1,.8.67.85.85,0,0,1-.47.93,8.83,8.83,0,0,1-11.15-3.38h-7v7a8.81,8.81,0,0,1,3.37,11.16A.84.84,0,0,1,143.34,83.3ZM124,63h8.27a.84.84,0,0,1,.84.83v8.27a.85.85,0,0,1-.44.74,7.15,7.15,0,0,0-3.73,6,8.07,8.07,0,0,1,14.26,0,7.15,7.15,0,0,0-3.73-6,.85.85,0,0,1-.44-.74V63.86a.83.83,0,0,1,.84-.83h8.27a.81.81,0,0,1,.73.44,7.15,7.15,0,0,0,6,3.72,8.06,8.06,0,0,1,0-14.25,7.13,7.13,0,0,0-6,3.73.83.83,0,0,1-.73.44h-8.27a.84.84,0,0,1-.84-.84V48a.85.85,0,0,1,.44-.74,7.15,7.15,0,0,0,3.73-6,8.07,8.07,0,0,1-14.26,0,7.15,7.15,0,0,0,3.73,6,.85.85,0,0,1,.44.74v8.27a.85.85,0,0,1-.84.84H124a.84.84,0,0,1-.73-.44,7.13,7.13,0,0,0-6-3.73,8.06,8.06,0,0,1,0,14.25,7.12,7.12,0,0,0,6-3.72A.82.82,0,0,1,124,63Z"/><path class="cls-2" d="M136.09,87.9a4.8,4.8,0,1,1,4.8-4.8A4.81,4.81,0,0,1,136.09,87.9Zm0-7.92a3.12,3.12,0,1,0,3.12,3.12A3.12,3.12,0,0,0,136.09,80Zm0-38.15a4.8,4.8,0,1,1,4.8-4.8A4.81,4.81,0,0,1,136.09,41.83Zm0-7.92A3.13,3.13,0,1,0,139.21,37,3.12,3.12,0,0,0,136.09,33.91Z"/><path class="cls-2" d="M159.12,64.87a4.8,4.8,0,1,1,4.8-4.8A4.81,4.81,0,0,1,159.12,64.87Zm0-7.92a3.12,3.12,0,1,0,3.13,3.12A3.12,3.12,0,0,0,159.12,57Zm-46.06,7.92a4.8,4.8,0,1,1,4.79-4.8A4.81,4.81,0,0,1,113.06,64.87Zm0-7.92a3.12,3.12,0,1,0,3.12,3.12A3.13,3.13,0,0,0,113.06,57Z"/><path class="cls-2" d="M54.7,104.8a.83.83,0,0,1-.76-.51l-1.68-3.87L48.35,102a.84.84,0,0,1-1.09-1.09L48.81,97,45,95.3a.83.83,0,0,1-.51-.77.85.85,0,0,1,.51-.77l3.86-1.66-1.55-3.92a.85.85,0,0,1,.18-.9.83.83,0,0,1,.91-.19l3.91,1.56,1.68-3.87a.83.83,0,0,1,.76-.51h0a.83.83,0,0,1,.77.51l1.67,3.87,3.92-1.56a.82.82,0,0,1,.9.19.83.83,0,0,1,.19.9l-1.56,3.91,3.87,1.67a.85.85,0,0,1,.51.77.83.83,0,0,1-.51.77L60.59,97l1.56,3.92A.84.84,0,0,1,61.06,102l-3.92-1.56-1.67,3.87A.83.83,0,0,1,54.7,104.8Zm-2-6.29a.84.84,0,0,1,.77.5l1.22,2.84L55.93,99A.84.84,0,0,1,57,98.56l2.87,1.15-1.14-2.88a.83.83,0,0,1,.44-1.07L62,94.53l-2.84-1.22a.84.84,0,0,1-.44-1.08l1.14-2.87L57,90.5a.82.82,0,0,1-1.07-.45L54.7,87.22l-1.22,2.83a.84.84,0,0,1-1.08.45l-2.87-1.14,1.14,2.87a.84.84,0,0,1-.45,1.08l-2.83,1.22,2.83,1.23a.82.82,0,0,1,.45,1.07l-1.14,2.88,2.87-1.15A1.12,1.12,0,0,1,52.71,98.51Z"/><path class="cls-2" d="M217.48,104.8a.83.83,0,0,1-.77-.51L215,100.42,211.12,102a.84.84,0,0,1-1.09-1.09L211.59,97l-3.87-1.67a.82.82,0,0,1-.5-.77.84.84,0,0,1,.5-.77l3.87-1.67L210,88.18a.83.83,0,0,1,.19-.9.82.82,0,0,1,.9-.19L215,88.65l1.67-3.87a.87.87,0,0,1,1.54,0l1.67,3.87,3.92-1.56a.8.8,0,0,1,.89.19.83.83,0,0,1,.19.9l-1.55,3.92,3.86,1.66a.85.85,0,0,1,.51.77.83.83,0,0,1-.51.77L223.37,97l1.47,3.7a.87.87,0,0,1,.18.53.89.89,0,0,1-.85.84,1,1,0,0,1-.34-.06l-3.91-1.56-1.67,3.87A.85.85,0,0,1,217.48,104.8Zm-2-6.29a.83.83,0,0,1,.76.5l1.23,2.84L218.7,99a.84.84,0,0,1,1.08-.45l2.87,1.15-1.14-2.88a.82.82,0,0,1,.45-1.07l2.83-1.23L222,93.31a.84.84,0,0,1-.45-1.08l1.14-2.87-2.87,1.14a.84.84,0,0,1-1.08-.45l-1.22-2.83-1.23,2.83a.82.82,0,0,1-1.07.45l-2.87-1.14,1.14,2.87a.85.85,0,0,1-.45,1.08l-2.84,1.22L213,95.76a.84.84,0,0,1,.45,1.07l-1.14,2.88,2.86-1.15A1.19,1.19,0,0,1,215.49,98.51Z"/><path class="cls-2" d="M143.34,384.44l-.17,0a.84.84,0,0,1-.67-.8,6.41,6.41,0,0,0-12.82,0,.84.84,0,0,1-.67.8.85.85,0,0,1-.93-.47,8.81,8.81,0,0,1,3.38-11.16v-7h-7a8.8,8.8,0,0,1-11.15,3.37.82.82,0,0,1-.47-.92.83.83,0,0,1,.8-.67,6.41,6.41,0,0,0,0-12.82.84.84,0,0,1-.8-.67.83.83,0,0,1,.47-.93,8.8,8.8,0,0,1,11.15,3.37h7v-6.95a8.79,8.79,0,0,1-3.38-11.15.84.84,0,0,1,1.6.33,6.41,6.41,0,0,0,12.82,0,.83.83,0,0,1,.67-.8.82.82,0,0,1,.93.47,8.71,8.71,0,0,1,.8,3.66,8.81,8.81,0,0,1-4.17,7.49v6.95h7a8.81,8.81,0,0,1,7.49-4.17,8.71,8.71,0,0,1,3.66.8.84.84,0,0,1-.33,1.6,6.41,6.41,0,0,0,0,12.82.83.83,0,0,1,.8.67.82.82,0,0,1-.47.92,8.67,8.67,0,0,1-3.65.8,8.78,8.78,0,0,1-7.5-4.17h-7v7A8.81,8.81,0,0,1,144.1,384,.84.84,0,0,1,143.34,384.44ZM124,364.17h8.27a.84.84,0,0,1,.84.83v8.27a.85.85,0,0,1-.44.74,7.15,7.15,0,0,0-3.73,6,8.07,8.07,0,0,1,14.26,0,7.16,7.16,0,0,0-3.73-6,.85.85,0,0,1-.44-.74V365a.83.83,0,0,1,.84-.83h8.27a.83.83,0,0,1,.73.44,7.12,7.12,0,0,0,6,3.72,8.06,8.06,0,0,1,0-14.25,7.16,7.16,0,0,0-6,3.73.83.83,0,0,1-.73.44h-8.27a.84.84,0,0,1-.84-.84v-8.27a.83.83,0,0,1,.44-.73,7.18,7.18,0,0,0,3.73-6,8.07,8.07,0,0,1-14.26,0,7.17,7.17,0,0,0,3.73,6,.83.83,0,0,1,.44.73v8.27a.85.85,0,0,1-.84.84H124a.84.84,0,0,1-.73-.44,7.15,7.15,0,0,0-6-3.73,8.06,8.06,0,0,1,0,14.25,7.12,7.12,0,0,0,6-3.72A.84.84,0,0,1,124,364.17Z"/><path class="cls-2" d="M136.09,389a4.8,4.8,0,1,1,4.8-4.8A4.81,4.81,0,0,1,136.09,389Zm0-7.92a3.13,3.13,0,1,0,3.12,3.12A3.12,3.12,0,0,0,136.09,381.12Zm0-38.15a4.8,4.8,0,1,1,4.8-4.8A4.81,4.81,0,0,1,136.09,343Zm0-7.92a3.13,3.13,0,1,0,3.12,3.12A3.12,3.12,0,0,0,136.09,335.05Z"/><path class="cls-2" d="M159.12,366a4.8,4.8,0,1,1,4.8-4.8A4.81,4.81,0,0,1,159.12,366Zm0-7.92a3.12,3.12,0,1,0,3.13,3.12A3.12,3.12,0,0,0,159.12,358.09ZM113.06,366a4.8,4.8,0,1,1,4.79-4.8A4.81,4.81,0,0,1,113.06,366Zm0-7.92a3.12,3.12,0,1,0,3.12,3.12A3.13,3.13,0,0,0,113.06,358.09Z"/><path class="cls-2" d="M54.7,337a.82.82,0,0,1-.76-.5l-1.68-3.87-3.91,1.56a.87.87,0,0,1-.91-.19.85.85,0,0,1-.18-.9l1.55-3.92L45,327.51a.84.84,0,0,1-.51-.77A.83.83,0,0,1,45,326l3.86-1.68-1.55-3.91a.85.85,0,0,1,.18-.9.83.83,0,0,1,.91-.19l3.91,1.55L53.94,317a.86.86,0,0,1,1.53,0l1.67,3.86,3.92-1.55a.84.84,0,0,1,1.09,1.09l-1.56,3.91L64.46,326a.83.83,0,0,1,0,1.53l-3.87,1.67,1.47,3.7a.82.82,0,0,1,.19.53.86.86,0,0,1-.86.84,1.75,1.75,0,0,1-.33-.06l-3.92-1.56-1.67,3.87A.82.82,0,0,1,54.7,337Zm-2-6.28a.84.84,0,0,1,.77.5l1.22,2.84,1.23-2.84a.85.85,0,0,1,1.07-.45l2.88,1.15L58.74,329a.83.83,0,0,1,.44-1.07L62,326.74l-2.84-1.22a.84.84,0,0,1-.44-1.08l1.14-2.87L57,322.71a.84.84,0,0,1-1.07-.45l-1.23-2.83-1.22,2.83a.84.84,0,0,1-1.08.45l-2.87-1.14,1.14,2.87a.84.84,0,0,1-.45,1.08l-2.83,1.22L50.22,328a.82.82,0,0,1,.45,1.07l-1.14,2.88,2.87-1.15A1.12,1.12,0,0,1,52.71,330.72Z"/><path class="cls-2" d="M217.48,337h0a.82.82,0,0,1-.77-.5L215,332.63l-3.92,1.56a.86.86,0,0,1-.9-.19.84.84,0,0,1-.19-.9l1.56-3.92-3.87-1.67a.83.83,0,0,1-.5-.77.82.82,0,0,1,.5-.76l3.87-1.68L210,320.39a.84.84,0,0,1,1.09-1.09l3.92,1.55,1.67-3.86a.87.87,0,0,1,1.54,0l1.67,3.86,3.92-1.55a.82.82,0,0,1,.89.19.83.83,0,0,1,.19.9l-1.55,3.91,3.86,1.68a.83.83,0,0,1,.51.76.84.84,0,0,1-.51.77l-3.86,1.67,1.55,3.92a.84.84,0,0,1-1.08,1.09l-3.92-1.56-1.67,3.87A.84.84,0,0,1,217.48,337Zm-2-6.28a.83.83,0,0,1,.76.5l1.23,2.84,1.22-2.84a.87.87,0,0,1,1.08-.45l2.87,1.15L221.51,329A.82.82,0,0,1,222,328l2.83-1.23L222,325.52a.84.84,0,0,1-.45-1.08l1.14-2.87-2.87,1.14a.85.85,0,0,1-1.08-.45l-1.22-2.83-1.23,2.83a.83.83,0,0,1-1.07.45l-2.87-1.14,1.14,2.87a.85.85,0,0,1-.45,1.08l-2.84,1.22L213,328a.84.84,0,0,1,.45,1.07l-1.14,2.88,2.87-1.15A1.06,1.06,0,0,1,215.49,330.72Z"/><path class="cls-3" d="M138.27,166.72a41.17,41.17,0,0,1,14.47,3.41c-.08.36-.16.75-.23,1.13a40.4,40.4,0,0,1,6.11,3.38,11.25,11.25,0,0,1,.15-1.27,42.17,42.17,0,0,1,10.82,10.2c-.26.28-.51.58-.77.87a39.89,39.89,0,0,1,3.62,6,10.26,10.26,0,0,1,.75-1,41.11,41.11,0,0,1,4.27,14.25l-1.09.36a41.15,41.15,0,0,1,.23,4.3c0,.89,0,1.79-.09,2.69a8.66,8.66,0,0,1,1.16-.51A41.17,41.17,0,0,1,174.26,225l-1.14-.23a41,41,0,0,1-2.17,4.22l-1.58-2.48a37.91,37.91,0,1,0-66.56,0l-1.58,2.48c-.53-.9-1-1.82-1.49-2.75a10.26,10.26,0,0,1-.75,1A41.4,41.4,0,0,1,94.71,213l1.1-.37a41,41,0,0,1-.23-4.29c0-.9,0-1.79.09-2.69a11,11,0,0,1-1.16.51,41.4,41.4,0,0,1,3.41-14.48c.37.09.75.16,1.13.24a40.5,40.5,0,0,1,3.38-6.12,11,11,0,0,1-1.26-.14,41.69,41.69,0,0,1,10.2-10.82c.27.25.57.51.86.76a41.75,41.75,0,0,1,6-3.61,10.37,10.37,0,0,1-1-.76,41.39,41.39,0,0,1,14.25-4.27c.11.36.24.73.37,1.1a40.81,40.81,0,0,1,4.29-.23c.89,0,1.79,0,2.69.09a9.26,9.26,0,0,1-.51-1.16Zm31.2,66.47a42.07,42.07,0,0,1-8.66,8.61c-.27-.26-.57-.51-.86-.77a40.4,40.4,0,0,1-6,3.62,10.26,10.26,0,0,1,1,.75,41.17,41.17,0,0,1-14.25,4.27c-.11-.35-.24-.72-.37-1.09a41,41,0,0,1-4.29.23c-.9,0-1.79,0-2.69-.09a10.2,10.2,0,0,1,.52,1.16,41.4,41.4,0,0,1-14.48-3.41c.08-.37.16-.75.23-1.14a40.05,40.05,0,0,1-6.12-3.37,9.16,9.16,0,0,1-.14,1.26,42,42,0,0,1-10.7-10h4.79a37.9,37.9,0,0,0,57.18,0Z"/><path class="cls-3" d="M130,170.89c-.42-2.11-1.76-4.21-1.54-6.32.26-2.64,3-5.28,3.22-7.92s-1.9-5.28-1.64-7.92,3-5.28,3.23-7.92-1.9-5.28-1.64-7.92,3-5.28,3.23-7.92-1.9-5.27-1.64-7.91,3-5.28,3.23-7.92c.31,2.64-1.82,5.28-1.52,7.92s3.05,5.28,3.36,7.91-1.83,5.29-1.52,7.92,3,5.29,3.35,7.92-1.83,5.29-1.52,7.92,3,5.28,3.35,7.92-1.82,5.28-1.52,7.92c.26,2.18,2.17,4.36,3,6.53a38.41,38.41,0,0,0-7.32-.71,37.32,37.32,0,0,0-6.11.5ZM131.8,168a40.81,40.81,0,0,1,4.29-.23c.89,0,1.79,0,2.69.09a8.65,8.65,0,0,1-.95-3,2.9,2.9,0,0,1-.05-.83,13.13,13.13,0,0,1,.93-4.28,7.71,7.71,0,0,0,.64-2.81,9.78,9.78,0,0,0-1.35-3,13.25,13.25,0,0,1-2-5,3.17,3.17,0,0,1,0-.81,12.81,12.81,0,0,1,.93-4.31,7.62,7.62,0,0,0,.64-2.8,10,10,0,0,0-1.36-3,13.84,13.84,0,0,1-2-4.71,9.71,9.71,0,0,0,.68,2.51,11.34,11.34,0,0,1,1,5.13,12.85,12.85,0,0,1-1.93,5,9.81,9.81,0,0,0-1.3,3c0,.06,0,.13,0,.19a9,9,0,0,0,.69,2.62,11.52,11.52,0,0,1,1,5.11,12.83,12.83,0,0,1-1.93,5,9.81,9.81,0,0,0-1.3,3,9.74,9.74,0,0,0,.78,3.19Zm8.58,80.56a41,41,0,0,1-4.29.23c-.9,0-1.79,0-2.69-.09a8.65,8.65,0,0,1,.95,3,3.31,3.31,0,0,1,.05.83,12.89,12.89,0,0,1-.94,4.28,7.86,7.86,0,0,0-.63,2.81,9.7,9.7,0,0,0,1.35,3,13.3,13.3,0,0,1,2,5,2.94,2.94,0,0,1,0,.83,12.83,12.83,0,0,1-.93,4.28,7.54,7.54,0,0,0-.63,2.81,9.86,9.86,0,0,0,1.34,3,13.69,13.69,0,0,1,2,4.73,9.73,9.73,0,0,0-.69-2.55,11.32,11.32,0,0,1-1-5.1,13.07,13.07,0,0,1,1.94-5,9.7,9.7,0,0,0,1.3-2.95c0-.06,0-.13,0-.19a8.9,8.9,0,0,0-.69-2.62,11.38,11.38,0,0,1-1-5.11,12.89,12.89,0,0,1,1.93-5,9.76,9.76,0,0,0,1.3-2.94,9.74,9.74,0,0,0-.78-3.19Zm13.6-3.93a9,9,0,0,1,2.32,2.13,3.13,3.13,0,0,1,.46.7,13.29,13.29,0,0,1,1.33,4.17,7.67,7.67,0,0,0,.85,2.75,9.73,9.73,0,0,0,2.66,1.89,13.13,13.13,0,0,1,4.21,3.29,3.34,3.34,0,0,1,.45.68,13.2,13.2,0,0,1,1.34,4.21,7.57,7.57,0,0,0,.85,2.73,10.13,10.13,0,0,0,2.65,1.89,13.51,13.51,0,0,1,4.06,3.09,9.48,9.48,0,0,0-1.85-1.84,11.37,11.37,0,0,1-3.39-3.94,12.8,12.8,0,0,1-.81-5.28,9.81,9.81,0,0,0-.35-3.2l-.09-.17a8.87,8.87,0,0,0-1.9-1.92,11.21,11.21,0,0,1-3.39-4,13,13,0,0,1-.82-5.27,9.75,9.75,0,0,0-.35-3.2A10,10,0,0,0,160,241a40.4,40.4,0,0,1-6,3.62Zm19.14-19.93a41,41,0,0,1-2.17,4.22l-1.58-2.48a38.5,38.5,0,0,0,2.18-4.75c2,.69,4.52.59,6.24,1.82,2.15,1.55,3.09,5.21,5.24,6.76s5.52,1,7.68,2.54,3.09,5.2,5.24,6.76,5.53,1,7.68,2.53,3.09,5.21,5.25,6.76,5.52,1,7.67,2.54,3.09,5.2,5.25,6.76c-2.44-1.06-3.66-4.22-6.1-5.28s-6.1,0-8.54-1.05-3.66-4.23-6.09-5.28-6.11,0-8.54-1-3.66-4.23-6.1-5.28-6.1,0-8.53-1.06-3.66-4.22-6.11-5.28c-2-.86-4.85-.3-7.16-.67l0,0h9l-1.15-1.8.33.13a3.11,3.11,0,0,1,.75.38,12.92,12.92,0,0,1,3.23,2.94,7.56,7.56,0,0,0,2.12,1.95,9.77,9.77,0,0,0,3.24.32,13,13,0,0,1,5.3.74,3,3,0,0,1,.72.36,13.06,13.06,0,0,1,3.27,3,7.74,7.74,0,0,0,2.1,1.94,10,10,0,0,0,3.24.31,13.55,13.55,0,0,1,5.07.65,9.3,9.3,0,0,0-2.52-.67,11.51,11.51,0,0,1-4.92-1.72,13,13,0,0,1-3.33-4.16,9.87,9.87,0,0,0-1.91-2.6l-.16-.1a8.65,8.65,0,0,0-2.61-.72,11.34,11.34,0,0,1-4.91-1.72,13,13,0,0,1-3.34-4.16,9.87,9.87,0,0,0-1.91-2.6,9.78,9.78,0,0,0-3.14-.92ZM70.3,172.51a9.41,9.41,0,0,0,2.55.67,11.51,11.51,0,0,1,4.9,1.72,13,13,0,0,1,3.33,4.16,9.71,9.71,0,0,0,1.91,2.6l.17.11a9.26,9.26,0,0,0,2.61.71,11.41,11.41,0,0,1,4.9,1.71A12.89,12.89,0,0,1,94,188.36a9.85,9.85,0,0,0,1.9,2.59,9.92,9.92,0,0,0,3.14.93,40.5,40.5,0,0,1,3.38-6.12,8.67,8.67,0,0,1-3.08-.68,3.2,3.2,0,0,1-.74-.37,12.87,12.87,0,0,1-3.24-3,7.86,7.86,0,0,0-2.12-1.95,10,10,0,0,0-3.23-.31,13.22,13.22,0,0,1-5.3-.74,3.44,3.44,0,0,1-.74-.38,12.86,12.86,0,0,1-3.25-3,7.82,7.82,0,0,0-2.11-1.95,10,10,0,0,0-3.23-.31,13.65,13.65,0,0,1-5.09-.65ZM211,206.4a9.85,9.85,0,0,0-2.53.68,11.43,11.43,0,0,1-5.12,1,12.85,12.85,0,0,1-5-1.93,9.81,9.81,0,0,0-2.95-1.3h-.2a9,9,0,0,0-2.61.69,11.52,11.52,0,0,1-5.11,1,13.1,13.1,0,0,1-5-1.93,9.6,9.6,0,0,0-2.95-1.3,10,10,0,0,0-3.18.77,41.15,41.15,0,0,1,.23,4.3c0,.89,0,1.79-.09,2.69a8.45,8.45,0,0,1,3-1,3,3,0,0,1,.84,0,13.13,13.13,0,0,1,4.27.93,7.71,7.71,0,0,0,2.81.64,10,10,0,0,0,3-1.35,13.25,13.25,0,0,1,5-2,3.18,3.18,0,0,1,.81,0,13.07,13.07,0,0,1,4.31.94,7.66,7.66,0,0,0,2.8.64,10,10,0,0,0,3-1.36,13.7,13.7,0,0,1,4.72-2ZM61.22,210.2a9.47,9.47,0,0,0,2.55-.7,11.45,11.45,0,0,1,5.1-1,13.07,13.07,0,0,1,5,1.94,9.7,9.7,0,0,0,3,1.3H77a8.9,8.9,0,0,0,2.62-.69,11.23,11.23,0,0,1,5.1-1,12.87,12.87,0,0,1,5,1.93,9.65,9.65,0,0,0,2.94,1.3,9.74,9.74,0,0,0,3.19-.78,41,41,0,0,1-.23-4.29c0-.9,0-1.79.09-2.69a8.65,8.65,0,0,1-3,.95,3.26,3.26,0,0,1-.82.05,12.9,12.9,0,0,1-4.29-.94,7.65,7.65,0,0,0-2.81-.63,9.76,9.76,0,0,0-3,1.35,13.19,13.19,0,0,1-5,2,2.94,2.94,0,0,1-.83.05,13.19,13.19,0,0,1-4.29-.93,7.66,7.66,0,0,0-2.8-.64,9.89,9.89,0,0,0-3,1.35,13.77,13.77,0,0,1-4.73,2Zm107.6-25.76a39.89,39.89,0,0,1,3.62,6,8.85,8.85,0,0,1,2.13-2.31,2.86,2.86,0,0,1,.7-.47,13.29,13.29,0,0,1,4.17-1.33,7.61,7.61,0,0,0,2.75-.85,9.73,9.73,0,0,0,1.89-2.66,13.13,13.13,0,0,1,3.29-4.21,3.34,3.34,0,0,1,.68-.45,12.9,12.9,0,0,1,4.2-1.34,7.62,7.62,0,0,0,2.74-.85,9.9,9.9,0,0,0,1.89-2.65,13.76,13.76,0,0,1,3.09-4.07,9.82,9.82,0,0,0-1.84,1.86,11.42,11.42,0,0,1-3.95,3.39,12.88,12.88,0,0,1-5.26.81,9.84,9.84,0,0,0-3.21.35l-.17.09a8.87,8.87,0,0,0-1.92,1.9,11.57,11.57,0,0,1-3.94,3.39,12.8,12.8,0,0,1-5.28.81,9.79,9.79,0,0,0-3.2.36,9.77,9.77,0,0,0-2.38,2.26Zm-67.59,44.5c-.53-.9-1-1.82-1.49-2.75a9,9,0,0,1-2.13,2.32,3,3,0,0,1-.69.45,12.85,12.85,0,0,1-4.18,1.33,7.89,7.89,0,0,0-2.75.86,9.9,9.9,0,0,0-1.89,2.65A13.13,13.13,0,0,1,84.81,238a3.46,3.46,0,0,1-.69.46,12.85,12.85,0,0,1-4.18,1.33,7.82,7.82,0,0,0-2.75.86,10.07,10.07,0,0,0-1.89,2.64,13.63,13.63,0,0,1-3.1,4.08,9.47,9.47,0,0,0,1.86-1.88A11.52,11.52,0,0,1,78,242.12a13.14,13.14,0,0,1,5.28-.81,9.55,9.55,0,0,0,3.2-.35l.18-.09a9.1,9.1,0,0,0,1.92-1.9,11.28,11.28,0,0,1,3.94-3.39,12.92,12.92,0,0,1,5.27-.81,9.78,9.78,0,0,0,3.2-.35,5.6,5.6,0,0,0,1.46-1.23h3.41c-1.19,1.32-2.25,2.9-3.8,3.6-2.42,1.09-6.06.07-8.47,1.16s-3.62,4.29-6,5.38-6.06.08-8.48,1.17-3.61,4.29-6,5.38S67,250,64.55,251s-3.62,4.29-6,5.38-6.06.07-8.48,1.16c2.13-1.58,5.49-1.06,7.62-2.64s3.05-5.28,5.18-6.86,5.49-1.06,7.62-2.65,3.05-5.28,5.18-6.86,5.49-1.06,7.62-2.65,3-5.28,5.18-6.86,5.49-1.06,7.62-2.64c1.76-1.31,2.69-4,4.15-5.86a39.41,39.41,0,0,0,2.6,5.9l-1.58,2.48Zm70.65-86.42a13.55,13.55,0,0,0-.65,5.07,10,10,0,0,1-.31,3.24,7.64,7.64,0,0,1-1.95,2.1,13.21,13.21,0,0,0-3,3.27,2.85,2.85,0,0,0-.36.72,13.2,13.2,0,0,0-.74,5.29,10.07,10.07,0,0,1-.31,3.25,7.56,7.56,0,0,1-2,2.11,13.14,13.14,0,0,0-2.94,3.24,3.3,3.3,0,0,0-.38.75,8.91,8.91,0,0,0-.69,3.08,40.4,40.4,0,0,0-6.11-3.38,9.66,9.66,0,0,1,.93-3.14,9.63,9.63,0,0,1,2.59-1.9,12.9,12.9,0,0,0,4.16-3.35,11.25,11.25,0,0,0,1.72-4.9,8.57,8.57,0,0,1,.72-2.61.86.86,0,0,1,.1-.16,9.87,9.87,0,0,1,2.6-1.91,12.84,12.84,0,0,0,4.16-3.33,11.51,11.51,0,0,0,1.72-4.92,9.3,9.3,0,0,1,.67-2.52ZM118.2,172a41.75,41.75,0,0,0-6,3.61,10,10,0,0,1-2.26-2.37,9.75,9.75,0,0,1-.35-3.19,13,13,0,0,0-.81-5.29,11.34,11.34,0,0,0-3.39-3.93,9.1,9.1,0,0,1-1.9-1.92.76.76,0,0,1-.09-.18,9.82,9.82,0,0,1-.36-3.2,12.8,12.8,0,0,0-.81-5.28,11.41,11.41,0,0,0-3.38-3.93A9.69,9.69,0,0,1,97,144.41a13.82,13.82,0,0,0,4.08,3.11,10,10,0,0,1,2.65,1.88,7.6,7.6,0,0,1,.84,2.75,13.11,13.11,0,0,0,1.34,4.18,3.46,3.46,0,0,0,.46.69,13.13,13.13,0,0,0,4.21,3.29,9.9,9.9,0,0,1,2.65,1.89,7.67,7.67,0,0,1,.85,2.75,13.35,13.35,0,0,0,1.33,4.18,3.77,3.77,0,0,0,.46.69A9,9,0,0,0,118.2,172Zm1.47,73.38a40.05,40.05,0,0,1-6.12-3.37,8.67,8.67,0,0,1-.68,3.08,3.41,3.41,0,0,1-.37.74,13.2,13.2,0,0,1-3,3.24,7.75,7.75,0,0,0-2,2.12,10,10,0,0,0-.31,3.23,13,13,0,0,1-.74,5.3,3,3,0,0,1-.38.74,12.86,12.86,0,0,1-3,3.25,7.67,7.67,0,0,0-1.95,2.11A10,10,0,0,0,101,269a13.68,13.68,0,0,1-.65,5.09,9.48,9.48,0,0,0,.67-2.56,11.52,11.52,0,0,1,1.72-4.89,13.12,13.12,0,0,1,4.16-3.34,9.9,9.9,0,0,0,2.6-1.9l.11-.17a9.35,9.35,0,0,0,.71-2.61,11.25,11.25,0,0,1,1.72-4.9,12.87,12.87,0,0,1,4.16-3.34,9.69,9.69,0,0,0,2.59-1.9,9.91,9.91,0,0,0,.93-3.15Zm22.53.38c.42,2.11,1.76,4.21,1.55,6.32-.27,2.64-3,5.27-3.24,7.91s1.91,5.28,1.64,7.92-3,5.28-3.22,7.92,1.9,5.28,1.64,7.92-3,5.28-3.23,7.92,1.9,5.28,1.64,7.92-3,5.28-3.23,7.92c-.31-2.64,1.82-5.28,1.52-7.92s-3.05-5.28-3.35-7.92,1.82-5.28,1.51-7.92-3.05-5.28-3.35-7.92,1.83-5.28,1.52-7.92-3-5.28-3.35-7.92,1.82-5.27,1.52-7.91c-.26-2.18-2.16-4.36-3-6.54a37.62,37.62,0,0,0,7.32.72,38.45,38.45,0,0,0,6.11-.5Zm17.88-8.07c1.42,1.61,3.63,2.77,4.5,4.7,1.09,2.42.08,6.06,1.17,8.47s4.29,3.62,5.38,6,.07,6.06,1.16,8.48,4.29,3.62,5.38,6,.07,6.06,1.16,8.47,4.29,3.62,5.38,6,.08,6.06,1.16,8.48c-1.58-2.14-1.05-5.49-2.63-7.62s-5.28-3.05-6.87-5.18-1.06-5.49-2.64-7.62-5.29-3.05-6.87-5.18-1.06-5.49-2.64-7.62-5.29-3.05-6.87-5.18-1.06-5.49-2.64-7.62c-1.31-1.76-4.05-2.69-5.86-4.16a37.58,37.58,0,0,0,11.73-6.53Zm-59.45-42.76c-2-.69-4.52-.58-6.24-1.81-2.15-1.55-3.09-5.21-5.24-6.76s-5.53-1-7.68-2.54-3.09-5.21-5.24-6.76-5.53-1-7.68-2.54-3.09-5.2-5.24-6.75-5.53-1-7.68-2.54-3.09-5.21-5.25-6.76c2.44,1.06,3.66,4.22,6.1,5.28s6.1,0,8.54,1.05,3.65,4.22,6.1,5.28,6.09,0,8.53,1.05,3.66,4.23,6.1,5.28,6.09,0,8.54,1.06,3.65,4.21,6.09,5.27c2,.87,4.86.3,7.17.67a37.76,37.76,0,0,0-6.92,11.52Zm72.87,7.31c2.11-.42,4.21-1.76,6.32-1.55,2.64.27,5.28,3,7.92,3.23s5.28-1.9,7.91-1.64,5.28,3,7.93,3.23,5.27-1.9,7.91-1.64,5.29,3,7.93,3.23,5.27-1.9,7.91-1.64,5.28,3,7.92,3.23c-2.64.3-5.28-1.82-7.92-1.52s-5.28,3-7.91,3.36-5.29-1.83-7.93-1.53-5.28,3.05-7.91,3.36-5.29-1.83-7.92-1.53-5.29,3.06-7.92,3.36-5.28-1.82-7.93-1.52c-2.17.26-4.35,2.16-6.52,3a37.86,37.86,0,0,0,.21-13.43ZM98.68,214.41c-2.11.41-4.21,1.75-6.32,1.54-2.64-.26-5.28-3-7.91-3.23s-5.28,1.91-7.92,1.64-5.29-3-7.93-3.23-5.28,1.91-7.91,1.65-5.28-3-7.92-3.23-5.28,1.9-7.92,1.64-5.28-3-7.92-3.23c2.64-.31,5.28,1.82,7.92,1.52s5.28-3,7.92-3.36,5.28,1.83,7.91,1.52,5.28-3,7.92-3.35,5.28,1.82,7.93,1.52,5.27-3.05,7.91-3.35,5.28,1.82,7.92,1.51c2.18-.25,4.36-2.16,6.53-3a38.33,38.33,0,0,0-.71,7.32,37.32,37.32,0,0,0,.5,6.11Zm66.75-30.11c1.61-1.41,2.77-3.63,4.7-4.49,2.42-1.1,6.06-.08,8.47-1.17s3.63-4.29,6-5.38,6.05-.07,8.48-1.16,3.62-4.29,6-5.38,6.06-.07,8.48-1.17,3.62-4.28,6-5.37,6.06-.08,8.48-1.17c-2.14,1.59-5.49,1.06-7.62,2.65s-3.05,5.27-5.18,6.86-5.49,1.06-7.62,2.64-3.05,5.29-5.18,6.87-5.49,1.06-7.62,2.64-3,5.28-5.18,6.87-5.49,1.05-7.62,2.64c-1.76,1.31-2.69,4-4.16,5.85a37.7,37.7,0,0,0-6.53-11.73ZM149.5,172.84c.69-2,.59-4.52,1.82-6.24,1.55-2.15,5.21-3.09,6.76-5.24s1-5.53,2.54-7.68,5.2-3.09,6.75-5.24,1-5.53,2.54-7.68,5.21-3.09,6.76-5.25,1-5.52,2.54-7.68,5.21-3.08,6.76-5.24c-1.06,2.44-4.22,3.66-5.28,6.1s0,6.1-1.05,8.54-4.23,3.66-5.28,6.09,0,6.1-1.05,8.54-4.23,3.66-5.28,6.1,0,6.09-1.05,8.53-4.23,3.66-5.28,6.1c-.87,2-.31,4.86-.68,7.16a37.81,37.81,0,0,0-11.52-6.91ZM112.09,179c-1.41-1.62-3.62-2.77-4.49-4.7-1.1-2.42-.07-6.06-1.17-8.47s-4.29-3.62-5.38-6-.07-6.06-1.16-8.48-4.29-3.62-5.38-6-.07-6.06-1.16-8.48-4.3-3.62-5.38-6-.08-6.06-1.17-8.48c1.59,2.13,1.06,5.49,2.65,7.62s5.28,3,6.86,5.18,1.06,5.49,2.65,7.62,5.27,3.05,6.86,5.18,1.06,5.49,2.64,7.62,5.28,3,6.87,5.18,1.06,5.49,2.64,7.62c1.31,1.76,4,2.69,5.86,4.15A38,38,0,0,0,112.09,179Zm10.58,64.8a38.08,38.08,0,0,1-11.52-6.92c-.36,2.31.2,5.15-.67,7.16-1,2.45-4.22,3.67-5.27,6.11s0,6.09-1.06,8.53-4.22,3.66-5.28,6.1,0,6.09-1.05,8.53-4.22,3.66-5.28,6.1,0,6.09-1.05,8.54-4.22,3.65-5.28,6.09c1.55-2.15,5.21-3.09,6.76-5.24s1-5.52,2.54-7.68,5.21-3.08,6.76-5.24,1-5.53,2.53-7.68,5.21-3.09,6.76-5.24,1-5.53,2.54-7.68,5.21-3.09,6.76-5.24C122.09,248.28,122,245.79,122.67,243.76Z"/><path class="cls-3" d="M84.56,159.77a2.13,2.13,0,0,1-.24-2.72l-1-1a1.48,1.48,0,0,1-2-2l-8.59-8.59,1.8,4.74a.37.37,0,1,1-.7.26L71.34,144a.37.37,0,0,1,.22-.48.39.39,0,0,1,.26,0h0L78.18,146a.37.37,0,0,1-.26.7l-4.74-1.8,8.59,8.59a1.48,1.48,0,0,1,2,2l1,1.05a2.13,2.13,0,0,1,3,3l1,1a1.5,1.5,0,0,1,1.8.23,1.47,1.47,0,0,1,.22,1.8l5.74,5.73,4.58.73a.37.37,0,1,1-.12.73l-3.56-.56,1.14,1.14,4.58.73a.38.38,0,0,1,.31.43.37.37,0,0,1-.43.3l-3.57-.56,1.15,1.15,4.57.71a.38.38,0,0,1,.31.43.37.37,0,0,1-.42.31l-3.56-.56,1.69,1.69a.37.37,0,1,1-.53.53l-1.69-1.7.56,3.57a.38.38,0,0,1-.31.43.37.37,0,0,1-.42-.31l-.73-4.58L99,171.75l.56,3.57a.36.36,0,0,1-.31.43.37.37,0,0,1-.42-.31l-.73-4.58L97,169.71l.56,3.57a.37.37,0,0,1-.3.43.38.38,0,0,1-.43-.31l-.73-4.59-5.73-5.72a1.48,1.48,0,0,1-2-2l-1-1.05A2.11,2.11,0,0,1,84.56,159.77Z"/><path class="cls-3" d="M184.62,259.83a2.11,2.11,0,0,0,2.71.24l1,1a1.52,1.52,0,0,0,.23,1.81,1.49,1.49,0,0,0,1.8.22l8.59,8.6-4.74-1.8a.38.38,0,1,0-.27.7l6.37,2.41a.36.36,0,0,0,.47-.48h0l-2.41-6.37a.38.38,0,1,0-.7.27l1.79,4.74-8.59-8.6a1.47,1.47,0,0,0-2-2l-1-1a2.13,2.13,0,0,0-3-3l-1-1a1.49,1.49,0,0,0-.24-1.8,1.47,1.47,0,0,0-1.79-.23l-5.73-5.73-.73-4.58a.36.36,0,0,0-.43-.31.37.37,0,0,0-.31.42l.57,3.57-1.14-1.14-.73-4.58a.37.37,0,0,0-.74.12l.57,3.56L172,243.69l-.72-4.57a.37.37,0,0,0-.42-.31.38.38,0,0,0-.31.43l.56,3.56-1.7-1.7a.37.37,0,0,0-.53.53l1.7,1.7-3.56-.57a.39.39,0,0,0-.43.31.38.38,0,0,0,.31.43l4.58.73,1.14,1.14-3.57-.57a.37.37,0,0,0-.11.74l4.58.72,1.15,1.15-3.57-.57a.38.38,0,0,0-.43.31.39.39,0,0,0,.31.43l4.58.73L181.3,254a1.48,1.48,0,0,0,2,2l1,1.05A2.14,2.14,0,0,0,184.62,259.83Z"/><path class="cls-3" d="M115.73,140.51a2.14,2.14,0,0,1,1.14-2.48l-.38-1.43a1.47,1.47,0,0,1-1.44-1.1,1.49,1.49,0,0,1,.7-1.67l-3.15-11.74-.81,5a.38.38,0,0,1-.43.31.37.37,0,0,1-.3-.43l1.09-6.71a.37.37,0,0,1,.43-.31.36.36,0,0,1,.22.13h0l4.31,5.27a.37.37,0,0,1,0,.52.38.38,0,0,1-.53,0l-3.2-3.92,3.14,11.73a1.48,1.48,0,0,1,.74,2.77l.39,1.43a2.12,2.12,0,0,1,1.08,4l.38,1.43a1.48,1.48,0,0,1,.74,2.77l2.1,7.83,3.6,2.92a.36.36,0,0,1,.06.52.37.37,0,0,1-.52.06l-2.81-2.28.42,1.57,3.6,2.92a.37.37,0,1,1-.47.57L123,157.92l.43,1.57L127,162.4a.37.37,0,1,1-.46.58l-2.8-2.27.61,2.32a.36.36,0,0,1-.26.45.37.37,0,0,1-.46-.26L123,160.9l-1.29,3.37a.38.38,0,0,1-.48.22A.38.38,0,0,1,121,164l1.66-4.33-.41-1.56-1.3,3.37a.37.37,0,0,1-.69-.27l1.66-4.33-.42-1.56-1.29,3.37a.38.38,0,1,1-.7-.27l1.66-4.33-2.1-7.83a1.47,1.47,0,0,1-1.44-1.1,1.49,1.49,0,0,1,.7-1.67l-.38-1.43A2.11,2.11,0,0,1,115.73,140.51Z"/><path class="cls-3" d="M152.35,277.19a2.13,2.13,0,0,0,2.23,1.57l.38,1.42a1.49,1.49,0,0,0-.69,1.68,1.47,1.47,0,0,0,1.44,1.09l3.14,11.74-3.21-3.93a.37.37,0,0,0-.52-.05.39.39,0,0,0-.06.53l4.31,5.27a.39.39,0,0,0,.53.05.35.35,0,0,0,.12-.23h0l1.09-6.72a.38.38,0,0,0-.31-.43.37.37,0,0,0-.42.31l-.82,5-3.14-11.73a1.48,1.48,0,0,0-.74-2.77l-.39-1.43a2.12,2.12,0,0,0-1.08-4l-.38-1.43a1.48,1.48,0,0,0-.74-2.77l-2.1-7.83,1.66-4.33a.37.37,0,0,0-.22-.48.38.38,0,0,0-.48.22l-1.29,3.36-.42-1.55,1.66-4.34a.37.37,0,0,0-.22-.48.38.38,0,0,0-.48.22l-1.29,3.37-.42-1.57,1.66-4.32a.37.37,0,0,0-.69-.26l-1.29,3.36-.63-2.32a.37.37,0,0,0-.45-.26.38.38,0,0,0-.27.46l.63,2.32-2.81-2.27a.37.37,0,0,0-.47.57l3.6,2.92.42,1.56-2.81-2.27a.37.37,0,0,0-.52.05.39.39,0,0,0,0,.53l3.61,2.92.42,1.56-2.81-2.27a.36.36,0,0,0-.52.05.38.38,0,0,0,0,.53l3.61,2.92,2.09,7.83a1.48,1.48,0,0,0,.75,2.77l.38,1.43A2.12,2.12,0,0,0,152.35,277.19Z"/><path class="cls-3" d="M152.35,139.41a2.12,2.12,0,0,1,2.23-1.57l.38-1.43a1.48,1.48,0,0,1,.75-2.77l3.14-11.74-3.21,3.93a.36.36,0,0,1-.52,0,.37.37,0,0,1-.05-.52l4.3-5.27a.38.38,0,0,1,.53,0,.35.35,0,0,1,.12.23h0l1.09,6.71a.37.37,0,0,1-.31.43.36.36,0,0,1-.42-.31l-.82-5-3.14,11.74a1.47,1.47,0,0,1-.74,2.76L155.3,138a2.12,2.12,0,0,1-1.08,4l-.38,1.43a1.51,1.51,0,0,1,.7,1.68,1.49,1.49,0,0,1-1.44,1.1L151,154.1l1.66,4.33a.38.38,0,1,1-.7.27l-1.29-3.37-.42,1.56,1.66,4.33a.38.38,0,0,1-.7.27l-1.29-3.37-.42,1.57,1.66,4.31a.37.37,0,1,1-.69.27l-1.29-3.36-.62,2.31a.38.38,0,0,1-.73-.19l.63-2.32L145.65,163a.37.37,0,0,1-.52,0,.38.38,0,0,1,.05-.53l3.6-2.91.42-1.57-2.8,2.28a.38.38,0,0,1-.48-.58l3.61-2.92.42-1.57-2.81,2.28a.37.37,0,0,1-.47-.58l3.61-2.92,2.09-7.83a1.48,1.48,0,0,1,.75-2.77l.38-1.43A2.12,2.12,0,0,1,152.35,139.41Z"/><path class="cls-3" d="M115.73,276.09a2.12,2.12,0,0,0,1.14,2.47L116.5,280a1.49,1.49,0,0,0-1.45,1.11,1.47,1.47,0,0,0,.7,1.66l-3.14,11.74-.82-5a.38.38,0,0,0-.42-.31.37.37,0,0,0-.31.43l1.09,6.72a.38.38,0,0,0,.43.31.37.37,0,0,0,.22-.14h0l4.31-5.27a.38.38,0,0,0-.58-.48l-3.2,3.93L116.47,283a1.47,1.47,0,0,0,1.44-1.09,1.49,1.49,0,0,0-.69-1.68l.38-1.42a2.12,2.12,0,0,0,1.08-4l.38-1.43a1.5,1.5,0,0,0,1.45-1.11,1.46,1.46,0,0,0-.71-1.66l2.1-7.84,3.6-2.91a.37.37,0,0,0,.06-.53.37.37,0,0,0-.52-.05l-2.81,2.27.42-1.56,3.6-2.92a.37.37,0,0,0,.06-.52.38.38,0,0,0-.53-.06l-2.8,2.28.42-1.58,3.59-2.9a.37.37,0,1,0-.46-.58l-2.8,2.26.61-2.31a.37.37,0,0,0-.26-.46.38.38,0,0,0-.46.27L123,255.7l-1.29-3.37a.37.37,0,0,0-.48-.22.38.38,0,0,0-.22.48l1.67,4.33-.42,1.56-1.3-3.37a.38.38,0,0,0-.48-.22.37.37,0,0,0-.21.48l1.66,4.34-.42,1.56-1.29-3.37a.38.38,0,0,0-.48-.22.37.37,0,0,0-.22.48l1.66,4.34-2.1,7.82a1.48,1.48,0,0,0-.74,2.77l-.38,1.43A2.13,2.13,0,0,0,115.73,276.09Z"/><path class="cls-3" d="M184.62,156.77a2.11,2.11,0,0,1,2.71-.24l1-1.05a1.48,1.48,0,0,1,2-2l8.59-8.59-4.74,1.8a.39.39,0,0,1-.49-.22A.38.38,0,0,1,194,146l6.36-2.41a.37.37,0,0,1,.48.22.39.39,0,0,1,0,.26h0l-2.41,6.36a.37.37,0,1,1-.7-.26l1.79-4.74L190.93,154a1.48,1.48,0,0,1-2,2l-1,1.05a2.12,2.12,0,0,1-3,2.95l-1,1.05a1.49,1.49,0,0,1-.24,1.8,1.47,1.47,0,0,1-1.79.23l-5.73,5.73-.73,4.58a.38.38,0,0,1-.43.31.38.38,0,0,1-.31-.43l.57-3.56-1.14,1.14-.73,4.58a.39.39,0,0,1-.43.31.38.38,0,0,1-.31-.43l.57-3.57L172,172.91l-.72,4.57a.36.36,0,0,1-.42.3.36.36,0,0,1-.31-.42l.56-3.56-1.7,1.7a.39.39,0,0,1-.53,0,.4.4,0,0,1,0-.54l1.7-1.69-3.56.56a.37.37,0,1,1-.12-.73l4.58-.73,1.14-1.14-3.57.56a.36.36,0,0,1-.42-.3.37.37,0,0,1,.31-.43l4.58-.73,1.15-1.14-3.57.56a.37.37,0,0,1-.43-.3A.38.38,0,0,1,171,169l4.58-.73,5.73-5.73a1.48,1.48,0,0,1,2-2l1-1A2.14,2.14,0,0,1,184.62,156.77Z"/><path class="cls-3" d="M84.56,256.83a2.11,2.11,0,0,0-.24,2.71l-1,1a1.48,1.48,0,0,0-2,2l-8.59,8.59,1.8-4.74a.38.38,0,0,0-.22-.48.37.37,0,0,0-.48.21l-2.41,6.37a.37.37,0,0,0,.22.48.46.46,0,0,0,.26,0h0l6.36-2.41a.38.38,0,0,0,.22-.48.37.37,0,0,0-.48-.22l-4.74,1.79,8.59-8.59a1.48,1.48,0,0,0,2-2l1-1.05a2.12,2.12,0,0,0,3-3l1-1a1.49,1.49,0,0,0,1.8-.24,1.46,1.46,0,0,0,.22-1.79l5.74-5.73,4.58-.73a.38.38,0,0,0,.31-.43.38.38,0,0,0-.43-.31l-3.56.57,1.14-1.14,4.58-.73a.39.39,0,0,0,.31-.43.38.38,0,0,0-.43-.31l-3.57.57,1.16-1.15,4.56-.72a.36.36,0,0,0,.31-.42.37.37,0,0,0-.42-.31l-3.56.56,1.69-1.7a.36.36,0,0,0,0-.52.37.37,0,0,0-.53,0l-1.69,1.69.56-3.56a.37.37,0,1,0-.73-.12l-.73,4.58L99,244.84l.56-3.57a.36.36,0,0,0-.31-.42.36.36,0,0,0-.42.31l-.73,4.58L97,246.89l.56-3.57a.37.37,0,0,0-.3-.43.38.38,0,0,0-.43.31l-.73,4.58-5.73,5.73a1.48,1.48,0,0,0-2,2l-1,1A2.13,2.13,0,0,0,84.56,256.83Z"/><path class="cls-3" d="M203.88,187.94a2.11,2.11,0,0,1,2.47,1.15l1.43-.39a1.5,1.5,0,0,1,1.1-1.44,1.48,1.48,0,0,1,1.67.7l11.74-3.14-5-.82a.36.36,0,0,1-.3-.43.36.36,0,0,1,.42-.3l6.72,1.09a.38.38,0,0,1,.31.43.37.37,0,0,1-.14.22h0L219,189.32a.38.38,0,0,1-.53,0,.37.37,0,0,1,.05-.52l3.93-3.21-11.74,3.14a1.47,1.47,0,0,1-1.09,1.44,1.49,1.49,0,0,1-1.68-.69l-1.42.38A2.14,2.14,0,0,1,205,192a2.11,2.11,0,0,1-2.47-1.15l-1.43.38a1.48,1.48,0,0,1-1.11,1.44,1.44,1.44,0,0,1-1.66-.7l-7.84,2.1-2.91,3.6a.38.38,0,0,1-.53.06.37.37,0,0,1-.05-.52l2.27-2.81-1.56.42-2.92,3.6a.36.36,0,0,1-.52,0,.37.37,0,0,1-.06-.52l2.28-2.8-1.58.42L182,199.2a.37.37,0,1,1-.58-.46l2.27-2.8-2.32.62a.38.38,0,1,1-.19-.73l2.32-.62-3.37-1.29a.37.37,0,1,1,.26-.69l4.33,1.66,1.56-.42-3.37-1.3a.37.37,0,1,1,.26-.69l4.34,1.66,1.56-.42-3.38-1.29a.38.38,0,0,1-.21-.48.38.38,0,0,1,.48-.22l4.34,1.66,7.82-2.1a1.49,1.49,0,0,1,1.1-1.44,1.48,1.48,0,0,1,1.67.7l1.43-.38A2.13,2.13,0,0,1,203.88,187.94Z"/><path class="cls-3" d="M67.2,224.56a2.12,2.12,0,0,0-1.57,2.23l-1.43.39a1.48,1.48,0,0,0-2.77.74l-11.74,3.14,3.93-3.21a.36.36,0,0,0,.05-.52.37.37,0,0,0-.52-.05l-5.27,4.3a.38.38,0,0,0-.05.53.35.35,0,0,0,.23.12h0l6.72,1.09a.36.36,0,0,0,.42-.31.36.36,0,0,0-.31-.42l-5-.82,11.73-3.14a1.49,1.49,0,0,0,2.78-.74l1.43-.39a2.12,2.12,0,0,0,4-1.08l1.43-.38a1.51,1.51,0,0,0,1.68.7,1.49,1.49,0,0,0,1.1-1.44l7.82-2.1,4.33,1.66a.38.38,0,1,0,.27-.7l-3.37-1.29,1.56-.42L89,224.12a.38.38,0,0,0,.48-.22.37.37,0,0,0-.21-.48l-3.37-1.29,1.56-.42,4.32,1.66a.37.37,0,0,0,.27-.69l-3.36-1.3,2.31-.62a.37.37,0,0,0,.27-.45.38.38,0,0,0-.46-.27l-2.32.63,2.27-2.81a.37.37,0,0,0,0-.52.38.38,0,0,0-.53,0L87.28,221l-1.57.42L88,218.6a.37.37,0,0,0-.06-.52.38.38,0,0,0-.52,0l-2.92,3.61-1.57.42,2.28-2.81a.37.37,0,0,0-.06-.52.38.38,0,0,0-.52,0l-2.92,3.61-7.83,2.09a1.48,1.48,0,0,0-2.77.75l-1.43.38A2.12,2.12,0,0,0,67.2,224.56Z"/><path class="cls-3" d="M205,224.56a2.13,2.13,0,0,1,1.57,2.23l1.42.39a1.48,1.48,0,0,1,2.77.74l11.74,3.14-3.93-3.21a.37.37,0,0,1-.05-.52.38.38,0,0,1,.53-.05l5.27,4.3a.39.39,0,0,1,0,.53.41.41,0,0,1-.23.13h0l-6.72,1.09A.38.38,0,0,1,217,233a.37.37,0,0,1,.31-.42l5-.81-11.74-3.15a1.48,1.48,0,0,1-2.77-.74l-1.43-.39a2.12,2.12,0,0,1-4-1.08l-1.43-.38a1.48,1.48,0,0,1-2.77-.74l-7.83-2.1L186,224.87a.37.37,0,0,1-.48-.21.39.39,0,0,1,.21-.49l3.38-1.29-1.56-.42-4.34,1.66a.37.37,0,0,1-.26-.7l3.37-1.29-1.57-.42-4.32,1.66a.37.37,0,1,1-.26-.69l3.36-1.29-2.31-.62a.38.38,0,0,1-.27-.46.38.38,0,0,1,.46-.27l2.32.63-2.27-2.81a.37.37,0,0,1,.05-.52.37.37,0,0,1,.52,0l2.92,3.6,1.56.42-2.27-2.8a.38.38,0,0,1,.05-.53.39.39,0,0,1,.53,0l2.92,3.61,1.56.42L187,219.35a.36.36,0,0,1,.05-.52.39.39,0,0,1,.53,0l2.92,3.61,7.83,2.09a1.46,1.46,0,0,1,1.66-.69,1.49,1.49,0,0,1,1.11,1.44l1.43.38A2.12,2.12,0,0,1,205,224.56Z"/><path class="cls-3" d="M68.3,187.94a2.13,2.13,0,0,0-2.48,1.15l-1.43-.39a1.48,1.48,0,0,0-1.1-1.44,1.5,1.5,0,0,0-1.67.7l-11.74-3.14,5-.82a.37.37,0,1,0-.12-.73l-6.71,1.09a.37.37,0,0,0-.31.43.32.32,0,0,0,.13.22h0l5.27,4.3a.37.37,0,0,0,.52,0,.36.36,0,0,0-.05-.52l-3.92-3.21,11.73,3.14a1.48,1.48,0,0,0,2.77.75l1.43.38a2.12,2.12,0,0,0,4,1.08l1.43.38a1.51,1.51,0,0,0,1.1,1.45,1.47,1.47,0,0,0,1.67-.71l7.83,2.1,2.92,3.61a.37.37,0,0,0,.58-.47l-2.28-2.81,1.56.42,2.93,3.6a.36.36,0,0,0,.52,0A.37.37,0,0,0,88,198l-2.28-2.8,1.57.42,2.91,3.59a.37.37,0,0,0,.58-.46l-2.27-2.8,2.32.62a.38.38,0,0,0,.19-.73l-2.32-.61,3.37-1.3a.37.37,0,0,0-.27-.69l-4.32,1.66-1.56-.42,3.37-1.3a.37.37,0,0,0,.21-.48.37.37,0,0,0-.48-.21l-4.33,1.66-1.57-.42,3.38-1.29a.38.38,0,0,0,.22-.48.39.39,0,0,0-.49-.22l-4.33,1.66-7.83-2.09a1.47,1.47,0,0,0-1.1-1.45,1.5,1.5,0,0,0-1.67.7l-1.43-.38A2.11,2.11,0,0,0,68.3,187.94Z"/><path class="cls-3" d="M136.08,173h0A35.36,35.36,0,0,1,170,218.16a34.84,34.84,0,0,1-2.26,5.78l-.44-.7a34.21,34.21,0,0,0,2-5.28,34.61,34.61,0,1,0-67.85-9.66,34.65,34.65,0,0,0,3.38,14.94l-.45.7a35.58,35.58,0,0,1-3.65-15.64A35.32,35.32,0,0,1,136.08,173Z"/><path class="cls-3" d="M137.65,176.62a31.75,31.75,0,0,1,28.55,41.66c-.23.69-.48,1.36-.75,2l-.47-.74c.2-.5.38-1,.55-1.51a31,31,0,0,0-27.41-40.7h0l-.47-.74Zm-3.59.74h0a31,31,0,0,0-27.41,40.7c.17.51.35,1,.55,1.51l-.47.74c-.27-.67-.52-1.34-.75-2a31.73,31.73,0,0,1,28.55-41.66Z"/><path class="cls-3" d="M140.43,181a27.65,27.65,0,0,1,22.24,35l-.33-.52a27.42,27.42,0,0,0,.94-7.12,27.18,27.18,0,0,0-22.52-26.79l-.33-.53Zm-9,.53a27.23,27.23,0,0,0-21.58,33.91l-.33.52a27.69,27.69,0,0,1,22.24-35Z"/><path class="cls-3" d="M144.67,187.65a22.37,22.37,0,0,1,13.78,20.65c0,.32,0,.65,0,1l-.44-.69v-.28a21.9,21.9,0,0,0-12.89-20l-.43-.69Zm-17.6.69a21.92,21.92,0,0,0-12.88,20v.28l-.44.69c0-.32,0-.65,0-1a22.37,22.37,0,0,1,13.78-20.65Z"/><path class="cls-3" d="M97.87,232.68l37.52-59a.83.83,0,0,1,1.15-.25.75.75,0,0,1,.25.25l37.56,59a.83.83,0,0,1-.7,1.28H98.53a.85.85,0,0,1-.84-.84.83.83,0,0,1,.18-.51ZM117,218.88h-8.38l-1.84,2.89v.16H117v-3.05Zm19.09-43.16-1.32,2.08h2.64l-1.32-2.08Zm-1.72,2.71-.86,1.35v1.7h6.24l-1.94-3Zm-1.49,2.34-.45.71h.45v-.71ZM132,182.1l-1.94,3.05h8.58V182.1H132Zm-2.34,3.68-1.94,3.05h5.13v-3.05Zm-2.34,3.68-1.94,3h2.42v-3ZM125,193.14l-1.94,3.05h9.81v-3.05H125Zm-2.34,3.68-1.94,3h7.1v-3Zm-2.34,3.67-2,3H122v-3ZM118,204.17l-.37.57v2.48h7.61c-.49.2-1,.4-1.45.63h-1.11v.56l-.63.35v-.91h-6.39l-1.94,3.05H119q-.37.3-.72.63h-.62v.59l-.62.67v-1.26h-3.69l-1.94,3H117v-.41a13.91,13.91,0,0,0,1,1h-6.17v3.05H122v-.05c.41.24.84.46,1.27.68h-5.69v3.05h10.21v-1.31l.63.17v1.14h10.21v-.29l.63-.06v.35h10.21v-3.05h-.64c.4-.2.79-.41,1.18-.63h4.5V215.2h-.37c.22-.2.42-.41.62-.63h5.55v-.73l-1.48-2.31h-4.93q-.34-.33-.72-.63h1.33v-3.05h-6.16c-.47-.23-.95-.43-1.45-.63h2.57v-3.05H139.3v1.2l-.63-.05v-1.15H128.46v2l-.63.17v-2.17H118Zm-1,1.56-1,1.49h1v-1.49Zm-6,9.47L109,218.25h2.17V215.2Zm-4.69,7.36-1.94,3.05h6.86v-3.05h-4.92Zm-2.34,3.67L102,229.29h4.16v-3.06Zm-2.34,3.68-.61,1v1.48H111.2v-2.44h-9.6Zm-1.24,2-.31.49h.31v-.49Zm11.47.49H122v-2.44H111.83v2.44Zm10.84,0h10.21v-2.44H122.67v2.44Zm10.84,0h10.2v-2.44h-10.2v2.44Zm10.83,0h10.21v-2.44H144.34v2.44Zm10.84,0h10.21v-2.44H155.18v2.44Zm10.84,0h6.11l-1.56-2.44H166v2.44Zm4.15-3.06-1.94-3.06H161v3.06h9.19Zm-2.33-3.68L166,222.76v2.85Zm-2.34-3.68-1.95-3.05H161v3.05Zm-2.34-3.68-1.95-3.05h-6v3.05h8Zm-4.69-7.35-1.94-3.05h-1.35v3.05Zm-2.34-3.68-1.94-3.05h-4.05v3.05h6Zm-2.34-3.68-1.94-3h-7.51v3h9.45Zm-2.34-3.68-1.31-2.06v2.06Zm-2.34-3.67-1.94-3.05h-2.83v3.05Zm-2.34-3.68-1.94-3H139.3v3h7.47Zm-2.34-3.68-.09-.14v.14Zm-.72-1.12-1.22-1.93h-9v3.05h10.2v-1.12Zm-1.62-2.56-1.94-3.05h-.85v3.05Zm12.77,41.08h-4.72v3.06h10.21v-3.06h-5.49Zm-5-.62h4.72v-3.05H144.34v3.05h5.49Zm5-6.73h-4.72v3.05h10.21v-3.05h-5.49Zm-37.54,6.73H122v-3.05H111.83v3.05h5.49Zm5,.62h-4.73v3.06h10.21v-3.06h-5.48Zm32.83-.62h10.21v-3.05H155.18v3.05Zm-38.18.62H106.78v3.06H117v-3.06Zm26.71-22.69v-3h-10.2v3h10.2Zm0-7.35v-3.05h-10.2v3.05h10.2Zm0,29.42v-3.05h-10.2v3.05h10.2Zm5.8-28.79H139.3v3h10.21v-3Zm0,29.41H139.3v3.06h10.21v-3.06Zm-26.84-22.69h10.21v-3H122.67v3Zm0,22.07h10.21v-3.05H122.67v3.05Zm16-28.79H128.46v3h10.21v-3Zm0,29.41H128.46v3.06h10.21v-3.06Zm0-36.77H128.46v3h10.21Z"/><path class="cls-2" d="M122.36,196.82h-.48a.32.32,0,0,1-.27-.49l.48-.75a.32.32,0,0,1,.35-.13.31.31,0,0,1,.23.3v.75A.32.32,0,0,1,122.36,196.82Z"/><path class="cls-2" d="M136.09,222.48c-8.3,0-16-3.28-20.24-8.54a.75.75,0,0,1,0-.92c4.19-5.27,11.94-8.54,20.24-8.54s16,3.27,20.24,8.54a.74.74,0,0,1,0,.91C152.14,219.2,144.39,222.48,136.09,222.48Zm-18.72-9c4,4.66,11.11,7.54,18.72,7.54s14.72-2.88,18.72-7.54c-4-4.67-11.1-7.54-18.72-7.54S121.37,208.82,117.37,213.48Z"/><path class="cls-2" d="M136.09,218.61a8.79,8.79,0,0,1-7.88-12.73.53.53,0,0,1,.34-.28,31.52,31.52,0,0,1,15.08,0,.53.53,0,0,1,.34.28,8.79,8.79,0,0,1-7.88,12.73ZM129,206.56a7.76,7.76,0,1,0,14.1,0A30.54,30.54,0,0,0,129,206.56Z"/><path class="cls-3" d="M136.09,213.58a3.77,3.77,0,1,0-3.77-3.77A3.78,3.78,0,0,0,136.09,213.58Z"/><path class="cls-3" d="M123.84,181a1.67,1.67,0,0,0,0-3.33,1.67,1.67,0,1,0,0,3.33Z"/><path class="cls-3" d="M163.19,207.36a1.67,1.67,0,1,0-1.66-1.66A1.67,1.67,0,0,0,163.19,207.36Z"/><path class="cls-3" d="M108.7,207.06a2.73,2.73,0,1,0-2.72-2.73A2.74,2.74,0,0,0,108.7,207.06Z"/><path class="cls-3" d="M152.14,184.2a2.73,2.73,0,1,0-2.72-2.72A2.73,2.73,0,0,0,152.14,184.2Z"/><path class="cls-3" d="M114,236.56a.25.25,0,0,1,0-.5h44.27a.25.25,0,0,1,0,.5Zm3.08,2a.26.26,0,0,1,0-.51h38.15a.26.26,0,0,1,0,.51Zm4,2a.25.25,0,1,1,0-.5h30.18a.25.25,0,0,1,0,.5Zm6,2a.25.25,0,0,1-.25-.24.25.25,0,0,1,.25-.26h18.11a.25.25,0,0,1,.25.26.25.25,0,0,1-.25.24Z"/></g></g></svg>