<svg width="107" height="107" viewBox="0 0 107 107" fill="none" xmlns="http://www.w3.org/2000/svg">
<path d="M48.1077 27.363C46.376 26.5808 44.3569 26.1396 42.1396 26.1396C31.9836 26.1396 28.4188 36.788 33.0919 44.1038L48.1077 27.363Z" fill="#F99675"/>
<path d="M54.4061 36.6024C54.4061 32.5566 51.9737 29.1091 48.1081 27.3629C41.5004 32.0479 35.7336 39.2993 33.0923 44.1037C33.6028 44.9028 34.21 45.6629 34.9193 46.3642L54.4061 36.6024Z" fill="#FE7C66"/>
<path d="M50.4503 36.6986L40.0339 39.464C33.4009 46.2667 29.1924 58.2007 29.1924 62.4282C29.1924 63.8474 29.5222 65.144 30.0516 66.2417L31.2007 67.993C32.1978 69.1316 33.4277 69.8038 34.5581 69.8038C35.5185 69.8038 36.3644 69.4416 37.0454 68.8781L48.1432 58.1278L60.8422 39.4641L50.4503 36.6986Z" fill="#A582C6"/>
<path d="M32.4299 62.2365C31.9924 62.0783 31.5079 62.3009 31.348 62.7336L30.0518 66.2417C30.3712 66.9041 30.7634 67.4935 31.2009 67.993L32.9326 63.3063C33.0926 62.8736 32.8674 62.3945 32.4299 62.2365Z" fill="#824C8D"/>
<path d="M48.1432 58.1277L39.0573 62.959C38.6636 63.1683 38.4932 63.6329 38.6505 64.0466C39.2124 65.5228 38.51 67.6661 37.0454 68.878C39.258 71.066 42.9627 69.4476 42.9627 66.4132L46.5679 64.4962L48.1432 58.1277Z" fill="#824C8D"/>
<path d="M79.8082 34.494C79.8082 32.1325 77.8722 30.218 75.4842 30.218C74.5097 30.218 73.6106 30.5371 72.8875 31.0749C72.3647 29.295 70.7044 27.9935 68.7358 27.9935C66.3478 27.9935 64.4118 29.908 64.4118 32.2695L55.0301 41.7915C52.2259 41.7915 49.9527 44.0395 49.9527 46.8125C49.9527 48.2384 50.5547 49.5244 51.5198 50.4384C50.2784 50.6382 49.0645 51.1836 48.0282 52.1681C45.208 54.8474 45.6396 57.7255 47.2389 59.481L46.1938 60.7967C45.8602 61.4276 45.6714 62.145 45.6714 62.9064C45.6714 65.4265 47.7372 67.4694 50.2857 67.4694C50.4632 67.4694 50.6381 67.4585 50.8105 67.4391C50.6812 67.8597 50.611 68.3058 50.611 68.7681C50.611 71.2882 52.6769 73.3311 55.2253 73.3311C55.4028 73.3311 55.5777 73.3202 55.7501 73.3009C55.6209 73.7214 55.5507 74.1675 55.5507 74.6298C55.5507 75.1007 55.6229 75.5549 55.7569 75.9824C56.1198 76.8261 57.775 77.302 58.2529 77.302C60.8013 77.302 62.8672 75.2591 62.8672 72.739C62.8672 72.2767 62.7971 71.8306 62.6677 71.4101C62.8401 71.4294 63.015 71.4403 63.1925 71.4403C65.741 71.4403 67.8068 69.3974 67.8068 66.8773C67.8068 66.415 67.7367 65.9689 67.6074 65.5484C67.7797 65.5677 67.9547 65.5786 68.1322 65.5786C70.6806 65.5786 72.7465 63.5357 72.7465 61.0156C74.9256 61.593 77.1938 60.1556 77.1938 57.7889C76.3303 56.8888 75.7996 55.6736 75.7996 54.3349C75.7996 54.3349 82.901 53.2512 79.7104 44.9702C79.7104 44.9702 80.8771 40.0351 78.9414 37.0618C79.4857 36.3467 79.8082 35.4577 79.8082 34.494Z" fill="#D9B6E8"/>
<path d="M54.758 57.0002C54.0246 55.7438 52.6144 55.1428 51.2492 55.5044C50.7991 55.6237 50.5321 56.0811 50.6526 56.5261C50.7732 56.9711 51.2362 57.2349 51.6858 57.116C52.4477 56.9138 53.0298 57.3769 53.297 57.8344C53.615 58.3792 53.6881 59.2252 52.9392 59.9659C51.5276 61.3618 48.5241 60.7522 47.2387 59.4812C46.8139 59.8511 46.4588 60.2967 46.1943 60.7971C47.311 61.7641 49.5977 62.448 51.0072 62.4479C52.1055 62.4477 53.2053 62.0622 54.1321 61.1456C55.3053 59.9854 55.551 58.3583 54.758 57.0002Z" fill="#A582C6"/>
<path d="M77.1939 57.7888C76.0282 59.5639 73.801 60.4807 71.6218 59.9033C71.6218 62.4234 69.5559 64.4663 67.0075 64.4663C66.83 64.4663 66.6551 64.4554 66.4827 64.4361C66.6119 64.8566 66.6821 65.3027 66.6821 65.765C66.6821 68.2851 64.6163 70.328 62.0678 70.328C61.8903 70.328 61.7154 70.3171 61.543 70.2978C61.7171 70.8637 61.7839 71.4757 61.7168 72.1115C61.4971 74.1975 59.8257 75.8818 57.7225 76.1516C57.0306 76.2404 56.3675 76.1702 55.7568 75.9824C56.3718 77.9447 58.2899 79.3404 60.511 79.1803C62.7411 79.0195 64.5538 77.2608 64.7592 75.0588C64.8166 74.443 64.7487 73.8501 64.5798 73.3007C64.7522 73.3201 64.9271 73.331 65.1046 73.331C67.6531 73.331 69.7189 71.2881 69.7189 68.768C69.7189 68.3056 69.6488 67.8595 69.5194 67.439C69.6918 67.4583 69.8667 67.4692 70.0443 67.4692C72.5927 67.4692 74.6585 65.4263 74.6585 62.9062C77.1119 63.5563 79.6271 62.3136 80.6188 60.0833C80.7704 59.7423 80.5448 59.3589 80.1717 59.3077C79.0055 59.1471 77.9664 58.5941 77.1939 57.7888Z" fill="#A582C6"/>
<path d="M67.9327 41.5458C70.6177 41.5458 72.1996 39.464 71.9017 37.7097H62.2909L56.5039 40.2426C56.576 40.5207 56.7074 40.812 56.8864 41.1073C58.291 42.0529 61.2111 43.858 63.0063 43.858C66.5567 43.858 67.9327 41.5458 67.9327 41.5458Z" fill="#A582C6"/>
<path d="M73.5055 37.7096H71.9015C71.041 39.0241 69.4929 40.4334 66.8079 40.4334C66.8079 40.4334 65.4317 42.7456 61.8814 42.7456C60.0862 42.7456 58.2909 42.0528 56.8862 41.1071C58.0076 42.9567 61.0695 44.9701 64.1309 44.9701C67.6812 44.9701 69.0574 42.6579 69.0574 42.6579C72.157 42.6579 73.7423 40.7796 74.5026 39.3374C74.8934 38.5962 74.3508 37.7096 73.5055 37.7096Z" fill="#824C8D"/>
<path d="M48.1436 39.2091L61.8241 27.6582C59.6399 25.3591 56.2756 23.915 52.2624 23.915C42.1551 23.915 37.5192 32.4222 40.3506 40.4711C43.8372 40.4711 48.1436 39.2091 48.1436 39.2091Z" fill="#FDDB7E"/>
<path d="M61.8274 27.661C61.8263 27.6601 61.8251 27.6592 61.824 27.6582C56.0047 23.9468 45.1696 27.4001 46.6024 37.4507C46.6274 37.6263 46.5686 37.802 46.4428 37.9284C45.3267 39.0489 42.8644 40.0441 40.3506 40.4711C40.6398 41.2934 41.0057 42.1109 41.4526 42.9139C41.5547 43.0974 41.7554 43.208 41.9669 43.1968C44.8983 43.0418 49.5046 41.0059 50.8183 38.7556L52.0283 41.0059C53.2607 42.4876 55.045 43.2063 56.7946 43.2063C60.5833 43.2063 64.5284 40.2364 64.5284 34.3779C64.5284 31.8015 63.5421 29.4675 61.8274 27.661Z" fill="#F99675"/>
<path d="M60.4489 27.5709C54.0188 27.5709 50.4702 31.7699 50.4321 35.974C50.4123 38.1544 51.0448 39.823 52.0285 41.0057C53.833 41.5744 56.379 41.3928 58.2103 40.2516C58.9342 39.8005 59.0908 38.7958 58.5092 38.1752C58.0103 37.6428 57.7509 36.8459 57.9762 35.9251C58.866 32.2876 64.1945 31.371 68.4362 33.8086C68.9209 34.087 69.4752 33.5623 69.2151 33.0713C68.0653 30.8989 65.482 27.5709 60.4489 27.5709Z" fill="#FDDB7E"/>
<path d="M36.0736 43.9421C35.8894 43.8098 35.2534 42.0084 34.7948 42.0084C34.3363 42.0084 33.7002 43.8098 33.516 43.9421C33.3318 44.0743 31.4029 44.1159 31.2612 44.5472C31.1195 44.9784 32.6554 46.1333 32.7257 46.3474C32.796 46.5615 32.2399 48.3885 32.6108 48.655C32.9818 48.9216 34.5671 47.834 34.7947 47.834C35.0224 47.834 36.6076 48.9216 36.9786 48.655C37.3496 48.3885 36.7934 46.5615 36.8637 46.3474C36.9341 46.1333 38.47 44.9785 38.3283 44.5472C38.1868 44.1159 36.2578 44.0744 36.0736 43.9421Z" fill="#EACB40"/>
<path d="M41.4372 49.2426C41.4372 50.1446 40.6951 50.8786 39.783 50.8786C39.3171 50.8786 38.9395 51.252 38.9395 51.7127C38.9395 52.1734 39.3171 52.5468 39.783 52.5468C41.6254 52.5468 43.1243 51.0646 43.1243 49.2425C43.1243 48.7818 42.7467 48.4083 42.2808 48.4083C41.815 48.4083 41.4372 48.7819 41.4372 49.2426Z" fill="#824C8D"/>
<path d="M62.6104 67.6094C61.7283 67.6094 60.8203 67.4471 59.9185 67.1163C59.4818 66.9561 59.259 66.476 59.4211 66.044C59.5831 65.612 60.0684 65.392 60.5054 65.5521C62.6078 66.3235 64.7389 65.9175 66.2064 64.4663C68.6547 62.0452 67.9526 59.6328 66.6075 58.3026C65.437 57.1451 63.582 56.636 62.3013 57.9025C61.6314 58.565 61.6957 59.3202 61.9793 59.8059C62.2163 60.2116 62.7317 60.6223 63.4046 60.4439C63.8548 60.3249 64.3172 60.5888 64.4377 61.0337C64.5582 61.4787 64.2912 61.9362 63.8412 62.0553C62.5479 62.398 61.2125 61.8292 60.5182 60.64C59.7686 59.3561 60.0003 57.8185 61.1083 56.7228C63.1503 54.7034 66.0804 55.4218 67.8004 57.1229C69.7793 59.0798 70.4979 62.5817 67.3993 65.6459C66.0938 66.937 64.406 67.6094 62.6104 67.6094Z" fill="#A582C6"/>
<path d="M65.5419 52.2837C65.3577 52.1515 64.7216 50.3501 64.2631 50.3501C63.8045 50.3501 63.1685 52.1515 62.9843 52.2837C62.8001 52.416 60.8712 52.4576 60.7294 52.8889C60.5877 53.3201 62.1236 54.475 62.194 54.6891C62.2643 54.9032 61.7081 56.7302 62.0791 56.9967C62.4501 57.2633 64.0353 56.1756 64.263 56.1756C64.4906 56.1756 66.0759 57.2633 66.4469 56.9967C66.8178 56.7302 66.2617 54.9032 66.332 54.6891C66.4023 54.475 67.9382 53.3202 67.7965 52.8889C67.655 52.4576 65.726 52.416 65.5419 52.2837Z" fill="#EACB40"/>
<path d="M79.5553 45.0425C81.032 44.3623 82.0573 42.8845 82.0573 41.1673C82.0573 39.2206 80.7413 37.5788 78.9413 37.0618C79.6917 39.7533 78.0278 42.2229 76.0819 43.0983C75.8583 43.1989 75.9034 43.5287 76.1455 43.5702C78.944 44.05 79.8079 45.6954 79.8079 47.8339C79.8079 52.2025 75.0583 54.5786 73.7361 53.1173C73.3686 52.7111 73.0432 52.1163 73.0432 51.284C73.0432 50.2367 73.6999 49.6895 74.3143 49.5267C74.8245 49.3918 75.555 49.4681 75.9528 50.1211C76.1795 50.4932 76.646 50.6689 77.0456 50.4885C77.5055 50.2808 77.6749 49.7338 77.4283 49.3113C76.7216 48.1008 75.2946 47.5398 73.8776 47.9153C72.3458 48.3213 71.356 49.6435 71.356 51.2842C71.356 54.2386 74.2073 55.9597 76.701 55.9597C76.7021 55.9597 76.7029 55.9596 76.704 55.9596C79.3014 55.9588 82.0573 54.1785 82.0573 50.0585C82.0573 47.9008 81.0233 46.1876 79.5553 45.0425Z" fill="#A582C6"/>
</svg>
