<svg width="107" height="107" viewBox="0 0 107 107" fill="none" xmlns="http://www.w3.org/2000/svg">
<path d="M60.9672 27.7466C50.5227 27.038 39.8939 30.3125 32.9008 37.3056C25.9077 44.2987 22.6333 54.9275 23.3418 65.372C24.0913 53.5969 27.3607 47.2125 35.0842 39.4891C42.8077 31.7656 49.1921 28.4961 60.9672 27.7466Z" fill="#FDDB7E"/>
<path d="M70.4587 27.2447C70.1434 26.9295 69.6323 26.9295 69.3169 27.2447L67.7715 28.7901C65.5391 28.249 63.2577 27.9022 60.9673 27.7468C49.1922 28.4963 42.162 31.1198 34.4385 38.8433C26.715 46.5668 24.0914 53.5971 23.342 65.3722C23.4973 67.6626 23.8441 69.9441 24.3853 72.1764L22.8585 73.7032C22.5433 74.0184 22.5433 74.5296 22.8585 74.8449C23.0162 75.0026 23.2228 75.0814 23.4294 75.0814C23.636 75.0814 23.8427 75.0025 24.0003 74.8449L26.6434 72.2016C23.5235 58.2016 28.3336 47.9621 35.9454 40.3502C43.6186 32.677 53.8973 27.6852 67.931 30.914L70.4587 28.3864C70.7739 28.0712 70.7739 27.56 70.4587 27.2447Z" fill="#F99675"/>
<path d="M26.2637 70.2979C26.3739 70.9248 26.5002 71.5592 26.6434 72.2017L67.931 30.9142C67.2925 30.7673 66.6615 30.6368 66.0383 30.5233L26.2637 70.2979Z" fill="#FDDB7E"/>
<path d="M43.4334 48.6459C43.2268 48.6459 43.0201 48.567 42.8624 48.4094L24.4991 30.0461C24.1839 29.7309 24.1839 29.2197 24.4991 28.9044C24.8145 28.5892 25.3255 28.5892 25.641 28.9044L44.0043 47.2678C44.3195 47.5831 44.3195 48.0942 44.0043 48.4096C43.8466 48.5671 43.6399 48.6459 43.4334 48.6459Z" fill="#F99675"/>
<path d="M25.0702 29.4754C24.829 29.7166 23.6207 33.1251 23.2795 33.1251C22.9384 33.1251 21.1793 26.0669 21.4206 25.8257C21.6618 25.5846 28.7201 27.3435 28.7201 27.6848C28.7201 28.026 25.3115 29.2342 25.0702 29.4754Z" fill="#FDDB7E"/>
<path d="M70.0977 72.7933C70.0977 69.8867 72.7426 69.2009 72.7426 66.2944C72.7426 63.3878 70.0977 62.702 70.0977 59.7955C70.0977 56.8889 72.7426 56.2031 72.7426 53.2966C72.7426 50.39 67.4066 49.7043 67.4066 46.7977H58.7954C58.7954 49.7044 61.9785 50.3901 61.9785 53.2966C61.9785 56.2033 59.3336 56.889 59.3336 59.7955C59.3336 62.7022 61.9785 63.3879 61.9785 66.2944C61.9785 69.201 59.3336 69.8868 59.3336 72.7933C59.3336 74.2575 60.0049 75.1582 60.671 76.063L72.5114 77.1395C71.8452 76.2345 70.0977 74.2575 70.0977 72.7933Z" fill="#A582C6"/>
<path d="M72.2504 59.7954C72.2504 56.8888 74.8953 56.203 74.8953 53.2965C74.8953 52.3963 74.59 51.7091 74.1685 51.1031L67.4066 46.7976C67.4066 49.7042 70.5897 50.39 70.5897 53.2965C70.5897 56.2031 67.9448 56.8889 67.9448 59.7954C67.9448 62.702 70.5897 63.3878 70.5897 66.2943C70.5897 69.2009 67.9448 69.8867 67.9448 72.7932C67.9448 73.4775 68.0914 74.0388 68.3156 74.5348C68.6393 75.251 68.1249 76.0629 67.339 76.0629H60.6709C61.1865 76.7633 61.6992 77.4662 61.8951 78.4349C61.9967 78.9373 62.4485 79.2921 62.961 79.2921H65.4767L66.0149 78.2157L67.0913 79.2921H73.6345C74.3724 79.2921 74.9031 78.5625 74.6534 77.8681C74.0003 76.0523 72.2504 75.1574 72.2504 72.7932C72.2504 69.8866 74.8953 69.2008 74.8953 66.2943C74.8953 63.3878 72.2504 62.702 72.2504 59.7954Z" fill="#824C8D"/>
<path d="M65.6114 75.5639C64.9862 74.7147 64.4462 73.9813 64.4462 72.7931C64.4462 71.605 64.9862 70.8715 65.6114 70.0223C66.3051 69.0803 67.0912 68.0126 67.0912 66.2941C67.0912 64.5757 66.3051 63.5081 65.6115 62.566C64.9862 61.7167 64.4462 60.9833 64.4462 59.7951C64.4462 58.607 64.9862 57.8735 65.6115 57.0242C65.9785 56.5258 66.8975 54.9984 66.8975 53.2961C66.8975 52.8503 65.3589 54.3059 65.1746 54.7117C64.9579 55.1889 64.6438 55.6153 64.3113 56.0668C63.6177 57.0089 62.8315 58.0765 62.8315 59.795C62.8315 61.5135 63.6177 62.5812 64.3113 63.5232C64.9365 64.3724 65.4765 65.1058 65.4765 66.294C65.4765 67.4822 64.9365 68.2156 64.3113 69.0648C63.6176 70.0069 62.8315 71.0745 62.8315 72.793C62.8315 74.2401 63.3891 75.2251 63.9792 76.0627L65.6071 77.1392L65.9719 76.0627C65.852 75.8913 65.7303 75.7256 65.6114 75.5639Z" fill="#824C8D"/>
<path d="M63.979 76.0631C64.0897 76.2203 64.2015 76.3727 64.311 76.5215C64.9363 77.3708 65.4763 78.1042 65.4763 79.2924H67.0909C67.0909 77.8687 66.5513 76.8921 65.9717 76.0632H63.979V76.0631Z" fill="#4F66D0"/>
<path d="M58.5654 59.1296L57.489 50.3064L48.7554 46.9044L40.9814 75.9169C55.1951 75.9169 58.5654 65.8346 58.5654 59.1296Z" fill="#A582C6"/>
<path d="M57.4887 50.3066V59.1299C57.4887 65.8348 53.1501 74.6858 40.9812 75.9172L40.4509 77.8963C40.2617 78.6026 40.8171 79.2928 41.5472 79.25C42.4447 79.1976 43.3031 79.0973 44.1234 78.9536L45.9005 78.5604C47.2099 78.2074 48.4103 77.7373 49.5077 77.1727L51.5021 75.9705C57.2901 71.923 59.5338 65.0289 59.5338 60.2063V51.1034L57.4887 50.3066Z" fill="#824C8D"/>
<path d="M67.3079 51.1032C67.3079 55.2172 62.6211 58.7804 59.5339 58.7804L58.4575 50.0267L67.3079 51.1032Z" fill="#D9B6E8"/>
<path d="M55.7439 50.4403C55.7439 56.001 53.7787 59.7167 48.0303 61.257L43.0842 59.7454C43.0842 59.7454 41.8697 59.7454 41.383 59.7454C40.0885 59.7454 39.3178 58.7848 39.6433 57.568C40.1174 55.7988 42.0344 48.6445 43.028 44.9362C44.483 39.5062 48.1923 35.387 58.0085 35.387L55.7439 50.4403Z" fill="#D9B6E8"/>
<path d="M70.2933 50.0266L67.4109 46.26L51.6167 44.2864C51.6167 45.8648 51.9371 47.2496 52.6737 48.3527C54.1475 49.5281 56.8556 50.0267 58.4575 50.0267L70.2933 50.0266Z" fill="#FDDB7E"/>
<path d="M71.7121 46.7976L67.411 46.2601C67.4216 46.8117 67.4542 47.2446 67.5391 47.629C67.6885 48.3055 67.1898 48.9503 66.4971 48.9503L57.3812 48.9504C55.7793 48.9504 54.1684 48.7403 52.6738 48.3528C53.821 50.0708 55.9806 51.1031 59.534 51.1031L74.1685 51.103C73.2289 49.7522 71.7121 48.8041 71.7121 46.7976Z" fill="#F99675"/>
<path d="M68.4825 44.6448C68.4825 42.0741 67.9628 38.2952 65.2963 36.2279C63.8781 35.6925 62.1811 35.387 60.1611 35.387H48.0527C46.3345 35.387 45.0498 36.9773 45.4234 38.6544C45.7343 40.0509 46.2635 41.2506 46.9999 42.268C49.3825 43.9443 53.0269 44.6448 56.3043 44.6448H68.4825Z" fill="#A582C6"/>
<path d="M65.2963 36.2278C66.4717 37.8466 67.0865 39.7942 67.3081 41.7761C67.415 42.7321 66.6645 43.5683 65.7025 43.5683H55.228C51.9506 43.5683 49.1964 43.1531 47 42.2679C49.2705 45.4043 53.5241 46.7975 59.5337 46.7975H71.7119C71.7118 42.5506 70.1274 38.0515 65.2963 36.2278Z" fill="#824C8D"/>
<path d="M43.0841 59.7454C47.0963 59.7454 48.9261 61.336 49.3062 63.9158C49.3848 64.4489 48.8846 64.8861 48.3642 64.7466L43.2273 63.3702C42.653 63.2163 42.3123 62.6262 42.4662 62.0519L43.0841 59.7454Z" fill="#824C8D"/>
<path d="M47.8394 71.3189C47.9548 70.8882 47.6992 70.4455 47.2686 70.3301C46.8378 70.215 46.3951 70.4703 46.2798 70.9009L45.1475 75.1271C46.129 75.1271 46.9874 74.4987 46.9874 74.4987L47.8394 71.3189Z" fill="#824C8D"/>
<path d="M45.1482 75.1273L44.1235 78.9517C44.737 78.8442 45.329 78.7124 45.9004 78.5583L46.9882 74.4988C46.4031 74.7318 45.7901 74.942 45.1482 75.1273Z" fill="#4F66D0"/>
<path d="M52.9598 70.5257L53.4125 68.8357C53.528 68.405 53.2723 67.9623 52.8416 67.8469C52.4115 67.7319 51.9683 67.9871 51.8529 68.4178L50.7788 72.4272C52.1095 72.4273 52.9598 70.5257 52.9598 70.5257Z" fill="#824C8D"/>
<path d="M50.7789 72.4274L49.5078 77.1724C50.2149 76.8087 50.8784 76.4053 51.5015 75.9693L52.9599 70.5258C52.3117 71.2041 51.5862 71.8422 50.7789 72.4274Z" fill="#4F66D0"/>
<path d="M62.8887 46.0049C62.956 46.2121 62.4237 47.9802 62.7787 48.2382C63.1338 48.4962 64.6509 47.4436 64.8688 47.4436C65.0867 47.4436 66.6038 48.4962 66.9589 48.2382C67.3139 47.9802 66.7816 46.2121 66.8489 46.0049C66.9162 45.7977 68.3862 44.6801 68.2505 44.2627C68.1149 43.8453 66.2688 43.8051 66.0926 43.677C65.9163 43.5489 65.3075 41.8057 64.8687 41.8057C64.4298 41.8057 63.8211 43.549 63.6448 43.677C63.4686 43.805 61.6225 43.8453 61.4869 44.2627C61.3512 44.6801 62.8214 45.7977 62.8887 46.0049Z" fill="#EACB40"/>
<path d="M29.7526 35.8886C29.7185 36.1037 28.4416 37.4376 28.6407 37.8286C28.84 38.2196 30.6696 37.9705 30.8637 38.0694C31.0577 38.1684 31.9317 39.7949 32.3652 39.7263C32.7986 39.6576 33.1271 37.8405 33.2812 37.6865C33.4353 37.5325 35.2523 37.204 35.321 36.7704C35.3896 36.3369 33.763 35.4631 33.6641 35.269C33.5653 35.0748 33.8143 33.2452 33.4233 33.046C33.0323 32.8467 31.6984 34.1237 31.4833 34.1578C31.2681 34.1919 29.6049 33.3897 29.2947 33.7C28.9844 34.0103 29.7866 35.6734 29.7526 35.8886Z" fill="#EACB40"/>
<path d="M49.2258 51.2184C48.6084 51.8357 47.6038 51.8356 46.9867 51.2184C46.6713 50.9031 46.1603 50.9031 45.8448 51.2184C45.5296 51.5336 45.5296 52.0448 45.8448 52.3601C46.4684 52.9836 47.2871 53.2953 48.1061 53.2953C48.9249 53.2953 49.744 52.9835 50.3673 52.3602C50.6827 52.045 50.6827 51.5338 50.3675 51.2185C50.0522 50.9032 49.5411 50.9031 49.2258 51.2184Z" fill="#824C8D"/>
<path d="M49.0562 48.1919C49.4699 48.0257 49.6706 47.5556 49.5045 47.1419C49.3383 46.7281 48.868 46.5276 48.4545 46.6935L45.0321 48.0677C44.6183 48.2339 44.4177 48.704 44.5837 49.1177C44.7102 49.4329 45.0131 49.6244 45.3331 49.6244C45.4333 49.6244 45.5352 49.6056 45.6337 49.5661L49.0562 48.1919Z" fill="#824C8D"/>
</svg>
