<svg width="107" height="107" viewBox="0 0 107 107" fill="none" xmlns="http://www.w3.org/2000/svg">
<g clip-path="url(#clip0_200_273)">
<path d="M38.0506 48.7535C38.0506 48.7535 36.6341 47.9356 35.872 47.4957C34.7691 46.8589 34.5851 45.6613 35.4608 44.7848C40.6697 39.5759 36.958 36.0136 40.8044 32.1672H56.8891V54.6712L52.555 53.6801C49.1879 57.0472 44.3893 58.0895 42.2054 58.0895C40.2099 58.0895 39.0861 56.4564 40.2617 54.5898C40.2617 54.5898 38.5019 53.6869 39.6921 51.464C38.1356 51.464 37.6669 49.871 37.6669 49.871L38.0506 48.7535Z" fill="#D9B6E8"/>
<path d="M41.9177 38.2733C41.5979 38.2733 41.2924 38.0895 41.1525 37.779C40.962 37.3567 41.15 36.8599 41.5724 36.6694C43.3756 35.8562 45.2049 35.6853 45.2819 35.6785C45.744 35.6372 46.8986 35.4875 46.9398 35.949C46.9811 36.4105 47.7058 36.6739 47.2444 36.7151C47.2293 36.7165 43.799 37.5059 42.2622 38.1989C42.1501 38.2494 42.033 38.2733 41.9177 38.2733Z" fill="#824C8D"/>
<path d="M43.5999 44.5051C42.749 44.5051 41.898 44.1811 41.2501 43.5333C40.9225 43.2056 40.9225 42.6744 41.2501 42.3469C41.5777 42.0193 42.1089 42.0193 42.4365 42.3469C43.078 42.9883 44.1217 42.9884 44.7632 42.3469C45.0908 42.0193 45.622 42.0193 45.9495 42.3469C46.2772 42.6745 46.2772 43.2057 45.9495 43.5333C45.3019 44.1812 44.4509 44.5051 43.5999 44.5051Z" fill="#824C8D"/>
<path d="M43.0789 50.4088C42.8384 50.0331 42.3318 49.921 41.9437 50.141C41.5277 50.3767 40.6029 50.6251 39.6923 50.6251C38.5946 50.6251 37.6916 49.8995 37.667 49.8712L37.3876 50.685C37.219 51.176 37.4451 51.7199 37.9173 51.9354C38.3681 52.1412 38.9564 52.303 39.6921 52.303C40.8061 52.303 42.052 52.0158 42.7922 51.5885C43.2049 51.3503 43.3387 50.8146 43.0789 50.4088Z" fill="#A582C6"/>
<path d="M54.2895 36.9979L51.2694 26.666H48.751L49.0191 36.7686L54.2895 36.9979Z" fill="#E9D3AF"/>
<path d="M51.269 26.666H56.8888V36.9979H54.2892C51.6547 32.1672 51.269 26.666 51.269 26.666Z" fill="#FF6600"/>
<path d="M70.6944 29.5269C68.6133 26.4662 64.9095 24.429 60.6862 24.429C57.9837 24.429 55.4943 25.2635 53.5061 26.6661C53.9046 30.5891 55.114 34.1467 56.8888 36.998C52.6087 35.4548 49.405 31.5329 48.7505 26.6661H42.31C39.2589 26.6661 37.3011 29.9238 38.7477 32.6101C41.0184 35.0265 49.0186 36.7686 49.0186 36.7686C49.8304 42.0111 54.7444 46.0428 60.6861 46.0428C63.3256 46.0428 65.7624 45.2471 67.7271 43.9031C67.7272 43.9031 73.784 36.1034 70.6944 29.5269Z" fill="#A582C6"/>
<path d="M48.7186 34.1569C48.2281 33.7721 43.022 34.7588 38.748 32.6102C40.0305 34.9918 42.8481 36.7687 49.0189 36.7687C48.7413 34.9758 49.1203 34.4721 48.7186 34.1569Z" fill="#824C8D"/>
<path d="M70.6948 29.5269C72.4727 37.7096 65.2811 43.7869 56.8892 36.9979C59.5225 41.2283 63.4013 43.903 67.7276 43.903C70.6076 41.9327 72.4726 38.7841 72.4726 35.2359C72.4727 33.1398 71.8212 31.1836 70.6948 29.5269Z" fill="#824C8D"/>
<path d="M74.7551 69.3004C74.7551 59.617 63.2533 61.2263 63.2533 49.3513C63.2533 48.0875 62.1347 45.5998 62.1347 43.5763L53.8105 43.0901C53.8105 47.3959 51.9453 49.7098 48.9005 51.4639C46.164 53.0401 44.6256 54.6937 44.6256 57.8517C44.6256 58.7027 44.8129 59.5096 45.1463 60.2354C42.553 61.3214 40.731 63.8827 40.731 66.8701C40.731 68.2294 41.1085 69.5003 41.7638 70.5844C45.0404 73.5986 48.9244 72.0831 49.0586 73.9702C49.1279 74.9433 49.4115 75.857 49.8611 76.6655C54.3582 76.6655 62.0777 77.784 65.3737 77.784C68.4577 77.784 72.1134 75.9645 74.1426 74.8314C73.804 74.5071 73.4344 74.2149 73.0377 73.9611C74.1078 72.7059 74.7551 71.0793 74.7551 69.3004Z" fill="#A582C6"/>
<path d="M73.0238 74.8315C70.9946 75.9645 68.4575 76.6656 65.3735 76.6656C62.0773 76.6656 54.3579 76.6656 49.8608 76.6656C50.9735 78.6666 53.1075 80.0213 55.5596 80.0213H67.6908C67.6908 79.558 68.0664 79.1824 68.5297 79.1824C68.993 79.1824 69.3687 79.558 69.3687 80.0213H75.2411C76.9288 77.4264 75.4532 74.8315 73.0238 74.8315Z" fill="#824C8D"/>
<path d="M66.9926 75.409C65.3318 73.9345 63.109 73.1224 60.7337 73.1224C55.0417 73.1224 51.5056 69.5864 51.5056 63.8943C51.5056 58.513 53.0767 56.6014 54.7401 54.5776C56.3645 52.6012 58.0441 50.5576 58.0441 45.5634C58.0441 45.1001 57.6685 44.7245 57.2052 44.7245C56.7419 44.7245 56.3663 45.1001 56.3663 45.5634C56.3663 49.9566 55.0121 51.6043 53.4438 53.5121C51.7488 55.5744 49.8276 57.9119 49.8276 63.8942C49.8276 70.5193 54.1085 74.8001 60.7335 74.8001C62.3679 74.8001 64.4272 75.4764 65.8804 76.6583C66.6206 76.6395 67.3277 76.5792 68.0032 76.4821C67.7081 76.1047 67.3698 75.7437 66.9926 75.409Z" fill="#824C8D"/>
<path d="M65.8804 76.6583C66.9494 77.5278 67.691 78.6704 67.691 80.0212H69.3688C69.3688 78.8514 68.8733 77.594 68.0032 76.4822C67.3277 76.5793 66.6205 76.6396 65.8804 76.6583Z" fill="#4F66D0"/>
<path d="M48.8146 71.5072C48.3061 71.1656 45.4111 72.2699 41.7637 70.5845C43.0231 72.6678 45.3094 74.0606 47.9213 74.0606C48.3084 74.0606 48.688 74.0291 49.0586 73.9702C48.9242 72.0831 49.1576 71.7376 48.8146 71.5072Z" fill="#824C8D"/>
<path d="M73.6366 69.3006C73.6366 70.7477 73.2083 72.0941 72.4724 73.2217C72.1983 73.6416 72.2904 74.1942 72.6741 74.5171C72.7942 74.6182 72.9109 74.7231 73.0242 74.8316C76.2702 73.0191 79.0184 71.1927 79.0184 67.1763C77.4574 59.7894 67.7276 60.2739 67.7276 49.3515V43.9031L62.1348 41.3392V49.3514C62.1348 61.2265 73.6366 59.6172 73.6366 69.3006Z" fill="#824C8D"/>
<path d="M77.5118 73.9613C78.5818 72.706 79.2291 71.0794 79.2291 69.3005C79.2291 68.5238 79.1543 67.8204 79.0182 67.1763C78.2153 70.1006 76.27 73.019 73.0239 74.8316C74.3898 76.14 75.2412 77.9806 75.2412 80.0213H80.2506C80.5773 80.0213 80.8361 79.742 80.809 79.4163C80.6177 77.1231 79.3492 75.1366 77.5118 73.9613Z" fill="#4F66D0"/>
<path d="M25.2427 80.8602C24.953 80.8602 24.6711 80.7099 24.5156 80.441C24.2837 80.0399 24.4209 79.5267 24.822 79.2948L50.4556 64.4818C50.8567 64.2499 51.3698 64.3871 51.6018 64.7882C51.8337 65.1893 51.6965 65.7025 51.2954 65.9344L25.6618 80.7475C25.5296 80.8239 25.3852 80.8602 25.2427 80.8602Z" fill="#EACB40"/>
<path d="M67.2847 55.7541L68.6578 51.8289C70.2811 50.8938 71.6327 50.7319 72.805 50.7897C73.5477 52.985 72.5149 54.4899 70.9814 55.3733C69.8257 56.0391 67.2848 55.7541 67.2847 55.7541Z" fill="#FF6600"/>
<path d="M81.561 47.5303C81.3297 47.1288 80.8169 46.9908 80.4152 47.2221L75.3728 50.1268C74.4907 50.635 73.9414 50.8458 72.805 50.7898C72.805 52.4643 71.7966 53.7323 70.2631 54.6157C69.1072 55.2815 67.2847 55.7542 67.2847 55.7542L71.369 56.5355C74.5657 54.694 74.4183 52.613 76.2103 51.5807L81.2528 48.676C81.6543 48.4447 81.7922 47.9317 81.561 47.5303Z" fill="#EACB40"/>
<path d="M49.2852 58.8867L54.5128 55.8753L56.2534 56.8871C57.3728 55.1958 58.977 53.3037 59.7404 52.8639L64.968 49.8525C64.968 49.8525 71.0984 60.6359 71.2128 60.7276L50.872 68.9201C50.7371 68.8172 50.5997 68.7051 50.4586 68.5809C48.7048 67.0375 48.3063 66.6868 48.3063 66.6868L48.443 65.273L47.8505 64.3926C47.8183 64.2305 47.7841 64.0589 47.7476 63.8746C47.2922 61.5832 47.5515 59.8855 49.2852 58.8867Z" fill="#FF6600"/>
<path d="M71.2128 60.7278L65.9852 63.7391C65.2218 64.1789 62.795 64.6087 60.7704 64.7285L60.7576 66.7505L55.53 69.7619C53.9356 70.6804 52.4138 70.0968 50.8721 68.9202L69.0996 58.4202L71.2128 60.7278Z" fill="#EACB40"/>
<path d="M47.8506 64.3925C48.2187 66.2452 48.3065 66.6867 48.3065 66.6867L67.4982 55.6313L66.398 53.7083L47.8506 64.3925Z" fill="#EACB40"/>
<path d="M76.1986 44.5031C75.9748 44.0974 75.4646 43.9498 75.0589 44.1735L69.6261 47.1693L64.9681 49.8525C63.2343 50.8512 62.975 52.549 63.4304 54.8403C63.467 55.0247 63.4949 55.1998 63.5163 55.3681C64.1372 56.4459 64.4143 57.4077 62.0571 58.7655C63.126 58.1498 64.3876 58.0034 66.1414 59.5468C66.2825 59.671 66.4201 59.7829 66.5549 59.8859L71.8023 56.868C71.6559 56.7832 71.5102 56.6596 71.3691 56.5354C69.6154 54.992 68.3536 55.1384 67.2848 55.7541L68.744 52.3567C68.7226 52.1885 68.6947 52.0132 68.6581 51.829C68.3091 50.0728 69.2611 49.3154 70.4364 48.6385L75.8692 45.6428C76.2748 45.4192 76.4224 44.9089 76.1986 44.5031Z" fill="#E9D3AF"/>
<path d="M55.6864 65.5696C55.8274 65.6938 55.965 65.8058 56.0998 65.9088L61.3274 62.8974C61.1925 62.7945 61.055 62.6824 60.914 62.5582C59.1602 61.0148 57.8984 61.1613 56.8296 61.7769L58.2888 58.3795C58.2674 58.2113 58.2395 58.036 58.2029 57.8518C57.7476 55.5603 58.0068 53.8627 59.7406 52.8639L54.513 55.8753C52.7792 56.874 52.5199 58.5718 52.9753 60.8632C53.0119 61.0475 53.0398 61.2227 53.0612 61.3909C53.6821 62.4688 53.9592 63.4305 51.6021 64.7883C52.6708 64.1727 53.9326 64.0262 55.6864 65.5696Z" fill="#E9D3AF"/>
<path d="M63.5163 55.3681L68.7439 52.3567C68.9883 54.2806 68.2677 55.1879 67.2847 55.7541L62.0571 58.7655C63.04 58.1993 63.7606 57.2921 63.5163 55.3681Z" fill="#FF6600"/>
<path d="M51.6021 64.7883L56.8296 61.7769C57.8125 61.2107 58.5331 60.3036 58.2888 58.3795L53.0612 61.3909C53.3055 63.3149 52.5849 64.2222 51.6021 64.7883Z" fill="#FF6600"/>
<path d="M61.3272 62.8973L56.0996 65.9087C57.6413 67.0853 59.1632 67.6689 60.7576 66.7504L65.9852 63.7391C64.3908 64.6575 62.8689 64.0738 61.3272 62.8973Z" fill="#FF6600"/>
<path d="M81.5617 53.8131C81.3312 53.4112 80.8185 53.2724 80.4167 53.5028L75.036 56.589C73.4259 57.5165 72.5373 57.294 71.8021 56.868L66.5547 59.886C68.0964 61.0626 69.6183 61.6461 71.2127 60.7277L75.8707 58.0445L81.2515 54.9583C81.6534 54.7277 81.7923 54.215 81.5617 53.8131Z" fill="#FF6600"/>
<path d="M35.1296 72.8344C34.9228 72.7423 33.9274 71.1018 33.4813 71.1966C33.0352 71.2914 32.7931 73.1949 32.6417 73.3631C32.4902 73.5313 30.6225 73.9711 30.5747 74.4246C30.5269 74.8782 32.2626 75.6967 32.3758 75.8926C32.489 76.0886 32.3301 78.0009 32.7466 78.1865C33.1633 78.3719 34.4779 76.9743 34.6994 76.9272C34.9209 76.8801 36.6903 77.6223 36.9955 77.2833C37.3006 76.9444 36.3776 75.2622 36.4013 75.037C36.425 74.8119 37.6776 73.3583 37.4495 72.9633C37.2214 72.5684 35.3364 72.9265 35.1296 72.8344Z" fill="#EACB40"/>
<path d="M56.4069 36.9305C56.3148 37.1373 54.6743 38.1328 54.7691 38.5788C54.8638 39.0249 56.7674 39.267 56.9356 39.4184C57.1039 39.5699 57.5436 41.4376 57.9971 41.4854C58.4507 41.5331 59.2692 39.7975 59.4651 39.6843C59.6612 39.5711 61.5734 39.7301 61.759 39.3135C61.9445 38.897 60.5468 37.5822 60.4997 37.3607C60.4526 37.1392 61.1948 35.3698 60.8558 35.0646C60.5169 34.7595 58.8347 35.6825 58.6096 35.6588C58.3844 35.6351 56.9308 34.3826 56.5359 34.6106C56.1409 34.8386 56.4989 36.7237 56.4069 36.9305Z" fill="#EACB40"/>
</g>
<defs>
<clipPath id="clip0_200_273">
<rect width="57.2703" height="57.2703" fill="white" transform="translate(24.4028 24.0095)"/>
</clipPath>
</defs>
</svg>
