<svg width="108" height="107" viewBox="0 0 108 107" fill="none" xmlns="http://www.w3.org/2000/svg">
<g clip-path="url(#clip0_200_309)">
<path d="M26.7325 38.7668L26.4401 39.7908C25.8254 42.7791 26.1869 45.7876 27.6909 48.3926C28.1969 49.2689 28.8069 50.056 29.504 50.7515L31.3297 49.8315C34.0222 44.7591 31.1739 39.5936 26.7325 38.7668Z" fill="#D9B6E8"/>
<path d="M27.0618 37.6133L26.7324 38.7667C30.799 40.7607 32.7996 45.493 31.3298 49.8315L33.4883 48.7439C34.7872 43.8958 31.91 38.9124 27.0618 37.6133Z" fill="#A582C6"/>
<path d="M29.5039 50.7514C33.8178 53.5246 40.5931 53.6225 44.6778 50.972L43.177 50.7506C39.4016 46.9751 33.2793 46.976 29.5039 50.7514Z" fill="#A582C6"/>
<path d="M29.5039 50.7515C34.1261 55.3626 42.5744 55.9418 49.8582 51.7365L44.6778 50.972C39.4764 52.5303 34.0134 52.5804 29.5039 50.7515Z" fill="#824C8D"/>
<path d="M35.3466 38.7669C42.6276 37.0222 48.6385 32.5052 51.222 25.483L35.8789 27.5232C31.5344 30.0315 28.4579 33.7497 27.0386 37.6808C29.5042 38.9356 32.5195 39.4443 35.3466 38.7669Z" fill="#B997DA"/>
<path d="M40.9252 31.4278L51.2219 25.4829C46.6862 23.9763 40.9953 24.5692 35.8789 27.5231L37.5535 30.5033C38.224 31.6965 39.7399 32.1122 40.9252 31.4278Z" fill="#D9B6E8"/>
<path d="M35.3324 36.9851C32.5054 37.6625 29.7017 37.8755 27.0383 37.6806C26.7862 38.3791 26.5853 39.0843 26.4399 39.7907C30.9758 41.2974 36.6669 40.7043 41.7834 37.7503C46.8998 34.7964 50.2587 30.1644 51.2218 25.4829C48.3641 30.8237 42.6134 35.2405 35.3324 36.9851Z" fill="#A475B6"/>
<path d="M79.334 47.547C80.7858 45.0322 81.8811 39.7908 79.4563 38.3091C75.728 40.2211 73.7045 44.5328 74.8328 48.7441L76.0264 49.3454C77.7022 49.4585 78.7763 48.513 79.334 47.547Z" fill="#D9B6E8"/>
<path d="M81.881 39.7907L81.2591 37.6134C80.6221 37.7841 80.0201 38.0199 79.4562 38.3092C79.9243 41.314 79.4899 44.3002 78.038 46.815C77.4803 47.781 76.8023 48.6238 76.0264 49.3457L78.817 50.7516C79.5141 50.0562 80.1242 49.2691 80.63 48.3928C82.1341 45.7875 82.4957 42.7791 81.881 39.7907Z" fill="#A582C6"/>
<path d="M80.7186 38.844C80.1408 35.9678 77.9489 32.0576 75.2411 29.441C74.3784 28.7457 73.4446 28.1019 72.4423 27.5232L57.0991 25.483C57.6506 28.1636 58.9889 30.8273 60.9915 33.1698C62.1806 34.4448 64.2142 35.9328 65.4105 36.6234C70.4176 39.5143 76.2321 40.2307 80.7186 38.844Z" fill="#B997DA"/>
<path d="M75.2414 29.441C77.0853 31.5748 78.3831 34.0201 79.0692 36.5154C79.2412 37.1408 78.8613 37.7806 78.2288 37.9248C73.9551 38.8995 68.8873 38.1541 64.2838 35.4963C63.0875 34.8056 61.9878 34.0229 60.9917 33.1696C62.4865 34.9181 64.351 36.4878 66.5377 37.7503C71.6541 40.7043 77.3452 41.2975 81.8812 39.7907C81.1069 36.0263 78.7822 32.2948 75.2414 29.441Z" fill="#A475B6"/>
<path d="M76.3954 48.9852C72.7598 47.118 68.1892 47.7052 65.144 50.7505L60.4922 51.437C67.0245 54.6439 73.1566 53.8512 76.3954 48.9852Z" fill="#A582C6"/>
<path d="M76.3956 48.9852C72.7355 52.7331 66.6034 53.5257 60.4923 51.4369L58.4629 51.7365C65.7467 55.9418 74.195 55.3625 78.8172 50.7515L78.8163 50.7506C78.086 50.0203 77.2674 49.4331 76.3956 48.9852Z" fill="#824C8D"/>
<path d="M57.0991 25.483L67.3959 31.4278C68.5812 32.1122 70.0971 31.6965 70.7676 30.5033L72.4421 27.5232C67.3258 24.5692 61.635 23.9762 57.0991 25.483Z" fill="#D9B6E8"/>
<path d="M38.2415 64.7857C36.4529 61.6879 32.4919 60.6265 29.394 62.4151V64.7857H38.2415Z" fill="#A582C6"/>
<path d="M27.5631 70.3279L30.7629 64.7858L29.3942 62.4152C26.6307 64.0107 25.4879 67.3352 26.5431 70.2334C26.7079 70.6857 27.3225 70.7449 27.5631 70.3279Z" fill="#D9B6E8"/>
<path d="M42.26 67.1857C39.1622 65.3972 35.2011 66.4586 33.4126 69.5564L34.5979 71.6094L42.26 67.1857Z" fill="#A582C6"/>
<path d="M35.7834 77.3246V70.9252L33.4127 69.5565C31.8173 72.32 32.4897 75.7706 34.8527 77.7528C35.2216 78.0622 35.7834 77.8061 35.7834 77.3246Z" fill="#D9B6E8"/>
<path d="M46.781 67.7417C43.204 67.7417 40.3042 70.6415 40.3042 74.2185L42.3573 75.4038L46.781 67.7417Z" fill="#A582C6"/>
<path d="M46.2413 79.7606L43.0415 74.2185H40.3042C40.3042 77.4095 42.6118 80.0615 45.6495 80.5967C46.1236 80.6803 46.4821 80.1775 46.2413 79.7606Z" fill="#D9B6E8"/>
<path d="M70.0796 64.7857C71.8681 61.6879 75.8292 60.6265 78.927 62.4151V64.7857H70.0796Z" fill="#A582C6"/>
<path d="M80.7579 70.3279L77.5581 64.7858L78.9268 62.4152C81.6903 64.0106 82.8332 67.3352 81.7779 70.2334C81.6131 70.6857 80.9986 70.7449 80.7579 70.3279Z" fill="#D9B6E8"/>
<path d="M66.061 67.1857C69.1588 65.3972 73.1199 66.4586 74.9085 69.5564L73.7231 71.6094L66.061 67.1857Z" fill="#A582C6"/>
<path d="M72.5381 77.3246V70.9252L74.9087 69.5565C76.5043 72.32 75.8317 75.7706 73.4687 77.7528C73.0998 78.0622 72.5381 77.8061 72.5381 77.3246Z" fill="#D9B6E8"/>
<path d="M61.54 67.7417C65.117 67.7417 68.0168 70.6415 68.0168 74.2185L65.9638 75.4038L61.54 67.7417Z" fill="#A582C6"/>
<path d="M62.08 79.7606L65.2798 74.2185H68.0171C68.0171 77.4095 65.7094 80.0615 62.6718 80.5967C62.1977 80.6803 61.8392 80.1775 62.08 79.7606Z" fill="#D9B6E8"/>
<path d="M71.7817 65.945C73.523 61.5463 72.9411 57.1484 72.9411 57.1484H70.9925C68.8102 51.5929 61.899 47.547 54.1604 47.547C46.4218 47.547 39.5106 51.5929 37.3282 57.1484H33.6712C33.0299 57.1484 32.5284 57.705 32.5983 58.3425C32.8753 60.8696 34.2136 63.5824 36.5393 65.9448C36.5395 65.9451 71.7817 65.945 71.7817 65.945Z" fill="#D9B6E8"/>
<path d="M74.6495 57.1484H72.9411C72.4481 59.4296 71.1253 61.8011 69.0225 63.888L71.7816 65.945C74.1077 63.5823 75.4454 60.8699 75.7224 58.3425C75.7923 57.7051 75.2908 57.1484 74.6495 57.1484Z" fill="#A582C6"/>
<path d="M55.0058 67.4392V52.5516C55.0058 52.0848 54.6274 51.7064 54.1606 51.7064C53.6938 51.7064 53.3154 52.0848 53.3154 52.5516V67.4386C53.6058 67.6773 53.8882 67.9302 54.1606 68.1991C54.433 67.9303 54.7156 67.6779 55.0058 67.4392Z" fill="#A582C6"/>
<path d="M54.1608 65.9451C49.2949 61.1438 41.4057 61.1438 36.5396 65.9449C40.103 68.7684 46.3248 71.3425 52.6717 71.3425C60.629 71.3425 66.0614 68.6134 69.023 63.8881C64.2824 61.287 58.1868 61.9726 54.1608 65.9451Z" fill="#B997DA"/>
<path d="M51.5443 70.2155C45.1975 70.2155 40.1537 68.4697 36.5392 65.9448L36.5391 65.9449C40.0093 69.4696 45.6799 72.2155 53.3151 72.4049C53.5943 72.4118 53.876 71.2883 54.1604 71.2883C54.4448 71.2883 54.7265 72.4118 55.0057 72.4049C62.6409 72.2156 68.3115 69.4696 71.7817 65.9449C70.9418 65.1161 70.0117 64.4306 69.0226 63.8879C65.4115 67.4718 59.5016 70.2155 51.5443 70.2155Z" fill="#A475B6"/>
<path d="M55.006 65.1852C54.5678 65.5455 53.7537 65.5448 53.3154 65.1846V70.1673C53.8723 70.4718 54.4376 70.4014 55.006 70.0335V65.1852Z" fill="#A475B6"/>
<path d="M55.006 72.4039V70.0334C54.4544 70.0925 53.8905 70.1368 53.3154 70.1672V72.4039C53.5948 72.4108 53.8761 72.4153 54.1606 72.4153C54.4454 72.4153 54.7267 72.4109 55.006 72.4039Z" fill="#01C0FA"/>
<path d="M44.1986 63.1927C44.2691 63.4097 43.7118 65.2609 44.0835 65.531C44.4553 65.8011 46.0437 64.699 46.2718 64.699C46.4999 64.699 48.0884 65.8011 48.4601 65.531C48.8318 65.2609 48.2745 63.4097 48.345 63.1927C48.4154 62.9758 49.9545 61.8057 49.8125 61.3686C49.6705 60.9317 47.7376 60.8896 47.5531 60.7555C47.3685 60.6214 46.7312 58.7961 46.2717 58.7961C45.8122 58.7961 45.1749 60.6214 44.9903 60.7555C44.8058 60.8895 42.8729 60.9316 42.7309 61.3686C42.5889 61.8057 44.1282 62.9758 44.1986 63.1927Z" fill="#EACB40"/>
<path d="M58.8495 56.4308C58.9199 56.6477 58.3626 58.4989 58.7344 58.769C59.1061 59.0391 60.6946 57.9371 60.9227 57.9371C61.1508 57.9371 62.7392 59.0391 63.1109 58.769C63.4827 58.4989 62.9254 56.6477 62.9959 56.4308C63.0663 56.2138 64.6053 55.0437 64.4633 54.6067C64.3213 54.1697 62.3885 54.1276 62.2039 53.9935C62.0194 53.8595 61.382 52.0342 60.9225 52.0342C60.4631 52.0342 59.8257 53.8595 59.6412 53.9935C59.4566 54.1275 57.5238 54.1696 57.3818 54.6067C57.24 55.0437 58.7789 56.2138 58.8495 56.4308Z" fill="#EACB40"/>
<path d="M58.0308 48.7331C57.8146 48.7331 57.5982 48.6505 57.4331 48.4855C57.103 48.1555 57.103 47.6203 57.4331 47.2901C57.7462 46.977 57.9187 46.5608 57.9187 46.1179C57.9187 45.6752 57.7463 45.259 57.4331 44.9459C57.103 44.6158 57.103 44.0806 57.4331 43.7505C57.7632 43.4204 58.2983 43.4204 58.6286 43.7505C59.2609 44.3828 59.6092 45.2236 59.6092 46.1179C59.6092 47.0123 59.2609 47.8531 58.6286 48.4854C58.4635 48.6505 58.2471 48.7331 58.0308 48.7331Z" fill="#824C8D"/>
<path d="M50.2908 48.7332C50.0745 48.7332 49.8581 48.6506 49.693 48.4857C49.0607 47.8533 48.7124 47.0125 48.7124 46.1182C48.7124 45.2239 49.0607 44.383 49.693 43.7507C50.0232 43.4207 50.5583 43.4207 50.8885 43.7507C51.2186 44.0808 51.2186 44.6159 50.8885 44.9461C50.5754 45.2592 50.4029 45.6755 50.4029 46.1182C50.4029 46.561 50.5753 46.9773 50.8885 47.2904C51.2186 47.6204 51.2186 48.1556 50.8885 48.4858C50.7234 48.6506 50.5071 48.7332 50.2908 48.7332Z" fill="#824C8D"/>
</g>
<defs>
<clipPath id="clip0_200_309">
<rect width="56.0116" height="56.0116" fill="white" transform="translate(26.1548 24.639)"/>
</clipPath>
</defs>
</svg>
