<svg width="107" height="107" viewBox="0 0 107 107" fill="none" xmlns="http://www.w3.org/2000/svg">
<path d="M60.6366 25.5566C59.1892 24.97 57.6102 24.6446 55.9568 24.6389C47.6532 24.6629 40.9292 31.4759 40.9292 39.8772C40.9292 41.4552 41.1664 42.9773 41.6068 44.4088L44.7961 44.69L60.6366 25.5566Z" fill="#FF6600"/>
<path d="M68.617 37.4834C68.617 32.0772 65.3136 27.4517 60.6367 25.5564C49.0769 25.5564 43.3504 34.8057 44.7961 44.6898L50.5383 45.1961C49.3277 43.7435 52.2848 31.4819 56.8361 31.4715C62.2285 31.4923 66.5936 35.8609 66.5936 41.3182C66.5936 43.0965 66.2061 44.4784 65.5194 45.832C67.4493 43.5792 68.617 40.6978 68.617 37.4834Z" fill="#EACB40"/>
<path d="M36.1329 65.51H32.2585C29.6983 69.9936 30.346 72.9188 33.6699 76.2796C34.1615 76.7767 34.5695 77.2282 34.902 77.6839C35.2276 77.1137 36.7192 76.4973 36.9412 76.1085C38.4744 73.4235 40.5895 70.2576 36.1329 65.51Z" fill="#D9B6E8"/>
<path d="M36.7446 65.51H34.9931C39.4497 70.2576 37.3347 73.4234 35.8014 76.1085C35.5793 76.4973 35.2273 77.1137 34.9019 77.6839C35.4364 78.4163 35.7748 79.1595 35.9468 80.1199C36.0413 80.6475 36.7352 80.7696 37.0002 80.3053C37.3896 79.6233 37.8144 78.8795 38.0807 78.4132C39.9323 75.1706 42.5046 71.334 36.7446 65.51Z" fill="#A582C6"/>
<path d="M47.5493 74.9567C47.5863 76.7323 47.8643 78.4282 48.7143 79.917C49.8022 81.8221 52.2116 82.4749 54.0958 81.3749C55.98 80.2749 56.6256 77.8388 55.5377 75.9337C56.6256 77.8388 59.0349 78.4916 60.9191 77.3917C62.8033 76.2917 63.4489 73.8556 62.361 71.9505C63.4489 73.8556 65.8583 74.5084 67.7425 73.4084C69.6267 72.3084 70.2723 69.8723 69.1845 67.9672C70.2723 69.8723 72.6818 70.5251 74.566 69.4251C76.4502 68.3251 77.0958 65.889 76.0079 63.9839L68.7091 59.0457L51.598 69.0345L47.5493 74.9567Z" fill="#EACB40"/>
<path d="M50.1562 74.4755C51.2442 76.3806 53.6535 77.0334 55.5377 75.9334C57.4219 74.8334 58.0675 72.3973 56.9796 70.4922C58.0675 72.3973 60.4769 73.0501 62.3611 71.9501C64.2452 70.8501 64.8909 68.414 63.803 66.5089C64.8909 68.414 67.3002 69.0668 69.1844 67.9668C71.0686 66.8668 71.7142 64.4307 70.6263 62.5256C71.7142 64.4307 74.1236 65.0835 76.0078 63.9835L72.0682 57.0842L51.5983 69.0343L50.1562 74.4755Z" fill="#FF6600"/>
<path d="M67.4658 56.9875L61.6712 48.8352L58.7876 42.5603H57.5205V37.9509L48.9373 38.0207C39.6314 40.7265 29.8243 49.2783 27.6584 53.0714C27.1737 53.9202 26.7716 54.8582 26.4665 55.8028L25.9175 58.1191C25.5666 60.4928 25.9831 62.4378 27.4487 62.4378H28.7491L35.6693 63.5901L39.8531 61.2854L46.8313 62.4378C48.7913 65.8705 47.4596 70.6486 47.5491 74.9566C48.4161 75.1008 49.3358 74.9544 50.1561 74.4755C52.0403 73.3755 52.686 70.9394 51.5981 69.0343C52.686 70.9394 55.0953 71.5922 56.9795 70.4923C58.8637 69.3923 59.5093 66.9562 58.4214 65.0511C59.5093 66.9562 61.9187 67.609 63.8029 66.509C65.6871 65.409 66.3327 62.9729 65.2448 61.0678C66.6579 60.243 68.2816 58.4161 67.4658 56.9875Z" fill="#D9B6E8"/>
<path d="M28.749 62.4377C31.3929 67.0678 36.0005 67.7867 39.8531 62.4377H49.3883C50.11 62.4377 50.729 61.8669 50.7422 61.1373C50.7557 60.3941 50.1638 59.7874 49.4318 59.7874H39.3331C38.5376 59.7874 37.7856 60.1476 37.275 60.7645C36.8936 61.2255 36.5495 61.5942 36.2786 61.8669C35.9145 62.2334 35.4215 62.4378 34.9076 62.4378L28.749 62.4377Z" fill="#A582C6"/>
<path d="M66.3371 47.0474L58.7876 42.5602L61.6712 48.8351L66.3262 56.9874C67.1419 58.416 66.6578 60.2428 65.2449 61.0677C66.3328 62.9728 68.7421 63.6256 70.6263 62.5256C72.5105 61.4256 73.1562 58.9895 72.0684 57.0844L66.3371 47.0474Z" fill="#A582C6"/>
<path d="M31.0619 54.1181C30.8257 53.7046 30.303 53.5631 29.8943 53.8018L26.4665 55.8028C26.2136 56.586 26.0277 57.3737 25.9175 58.1191L30.749 55.2986C31.1578 55.0601 31.2979 54.5314 31.0619 54.1181Z" fill="#A582C6"/>
<path d="M57.5205 48.3219C57.0379 47.7161 56.072 48.3366 56.6042 49.1886C57.6466 50.857 62.2683 55.0259 66.5131 55.0259C69.6339 55.0259 68.4335 50.7188 68.4335 50.7188L57.5205 48.3219Z" fill="#A582C6"/>
<path d="M57.5205 48.3218C57.5205 48.3218 60.5755 51.0994 65.486 51.0994C71.2193 51.0994 74.1314 47.6383 75.4906 45.1231C76.1146 43.9687 75.2944 42.5602 73.9932 42.5602H58.7876L57.5205 48.3218Z" fill="#D9B6E8"/>
<path d="M51.7518 56.2317C51.8684 56.4134 51.813 58.2478 52.2156 58.4042C52.6183 58.5606 53.7912 57.1597 53.9981 57.1036C54.2049 57.0476 55.9133 57.6678 56.1848 57.3289C56.4563 56.9899 55.501 55.4293 55.5123 55.213C55.5235 54.9968 56.6349 53.5456 56.3999 53.1798C56.1649 52.8141 54.4017 53.2503 54.2018 53.1727C54.0019 53.0951 52.9804 51.5779 52.5637 51.6908C52.1469 51.8037 52.0125 53.6341 51.8778 53.8023C51.743 53.9705 50.0003 54.4841 49.9778 54.9198C49.9552 55.3554 51.6352 56.0502 51.7518 56.2317Z" fill="#EACB40"/>
<path d="M64.2033 58.8842C64.0301 59.0115 62.2152 59.0515 62.0819 59.4663C61.9486 59.8812 63.3935 60.992 63.4598 61.198C63.5259 61.4039 63.0028 63.1614 63.3518 63.4178C63.7008 63.6741 65.1922 62.6279 65.4064 62.6279C65.6205 62.6279 67.1119 63.6741 67.4609 63.4178C67.81 63.1614 67.2867 61.4039 67.353 61.198C67.4191 60.992 68.8641 59.8812 68.7308 59.4663C68.5975 59.0515 66.7827 59.0115 66.6094 58.8842C66.4362 58.7569 65.8378 57.0242 65.4064 57.0242C64.9749 57.0242 64.3765 58.7569 64.2033 58.8842Z" fill="#EACB40"/>
<path d="M46.055 50.1792C45.4015 50.84 44.338 50.8401 43.6842 50.1791C43.3506 49.8416 42.8094 49.8416 42.4754 50.1792C42.1416 50.5168 42.1416 51.064 42.4755 51.4015C43.1356 52.0688 44.0026 52.4025 44.8696 52.4025C45.7367 52.4025 46.6037 52.0688 47.2638 51.4014C47.5975 51.0639 47.5975 50.5167 47.2638 50.1791C46.93 49.8418 46.3888 49.8418 46.055 50.1792Z" fill="#824C8D"/>
<path d="M43.4017 45.7648C43.1657 45.3514 42.6427 45.2098 42.2341 45.4485L40.0662 46.714C39.6574 46.9526 39.5173 47.4812 39.7533 47.8946C39.9116 48.1718 40.1989 48.3269 40.4943 48.3269C40.6394 48.3269 40.7864 48.2895 40.9209 48.2109L43.0889 46.9453C43.4976 46.7068 43.6378 46.1782 43.4017 45.7648Z" fill="#A582C6"/>
<path d="M67.2457 30.9766C70.8149 30.9766 73.1414 31.3502 76.0489 33.4183C76.0489 33.4183 77.9562 32.3171 76.9989 29.327C74.2792 26.4501 70.4511 24.6535 66.2076 24.6389C56.7915 24.6661 49.0959 32.0884 48.5037 41.4643C48.474 41.9343 48.9797 42.2447 49.374 41.9941C50.2461 41.4395 51.7143 40.6318 53.6343 40.0347C56.6321 34.5082 61.2096 30.9766 67.2457 30.9766Z" fill="#E9D3AF"/>
<path d="M53.6341 40.0345C53.4797 40.5962 53.3521 41.1708 53.2524 41.7563C53.0945 42.6838 54.0004 43.442 54.8691 43.104C55.6279 42.8087 56.5539 42.5601 57.5204 42.5601C57.5204 41.401 57.7199 40.2892 58.0834 39.2562C56.4241 39.3255 54.9271 39.6325 53.6341 40.0345Z" fill="#A582C6"/>
<path d="M67.2457 32.705C73.6116 32.7295 78.7647 37.9544 78.7647 44.3968C78.7647 44.9052 78.7326 45.4061 78.6704 45.8974C78.5882 46.546 79.4776 46.8051 79.7514 46.2126C80.6509 44.2655 81.1534 42.0932 81.1534 39.8022C81.1534 35.7388 79.5724 32.0493 76.9989 29.3269C76.8927 29.9603 76.7726 30.4683 76.6542 30.8717C76.4395 31.604 75.5955 31.9347 74.9569 31.5268C72.5254 29.973 70.358 29.2587 67.2456 29.248C60.2936 29.2682 55.3335 33.8552 53.6343 40.0346C54.9273 39.6324 56.4243 39.3255 58.0836 39.2564C59.4248 35.4454 63.0185 32.7147 67.2457 32.705Z" fill="#FF6600"/>
</svg>
