<svg width="108" height="107" viewBox="0 0 108 107" fill="none" xmlns="http://www.w3.org/2000/svg">
<g clip-path="url(#clip0_200_237)">
<path d="M48.9427 72.4837C50.0752 72.0543 51.4178 71.794 52.8933 71.7234C50.0293 67.051 42.242 62.802 42.242 62.802C42.242 62.802 42.4559 53.9334 39.8415 49.1169C39.0421 50.3603 38.1447 51.3934 37.2059 52.1596C35.4477 60.3425 41.8055 70.1372 48.9427 72.4837Z" fill="#824C8D"/>
<path d="M39.8413 49.117C39.058 47.674 38.0215 46.5939 36.6485 46.226C34.3633 45.6137 31.8564 46.8226 29.8003 49.2059L31.8729 52.427L39.8413 49.117Z" fill="#D9B6E8"/>
<path d="M39.8415 49.117C37.4676 48.2109 34.1587 48.7577 31.873 52.4269L32.5846 53.5329C35.0038 54.181 37.7556 52.3615 39.8415 49.117Z" fill="#A582C6"/>
<path d="M32.5165 51.5073C31.887 50.501 30.9526 49.6825 29.8002 49.2058C28.2697 50.98 26.9889 53.4046 26.236 56.2144C25.0722 60.5574 25.8031 64.8268 26.4357 67.2303C26.5922 67.8248 27.4338 67.8285 27.5929 67.2347L29.4955 60.1337L32.5165 51.5073Z" fill="#B997DA"/>
<path d="M33.2095 56.1267C33.6472 54.4931 33.3479 52.8363 32.5165 51.5073C31.1069 53.2978 29.9762 56.0673 29.4956 60.1339C31.2557 59.5139 32.69 58.0653 33.2095 56.1267Z" fill="#A475B6"/>
<path d="M52.8931 71.7234C49.0403 71.9076 46.0886 73.381 45.4404 75.8001L46.2686 77.4086C52.8931 77.4086 53.8684 74.1464 52.8931 71.7234Z" fill="#D9B6E8"/>
<path d="M52.8932 71.7234C53.0171 73.6482 51.545 76.3217 46.2686 77.4086L47.7957 80.3748C50.8877 79.7859 53.1882 78.2193 53.8005 75.9341C54.1684 74.5611 53.7512 73.1232 52.8932 71.7234Z" fill="#A582C6"/>
<path d="M43.5065 73.9619C41.5679 73.4425 39.5962 73.9604 38.1793 75.1746L31.0787 73.2721C30.4871 73.1135 30.0659 73.8423 30.501 74.2736C31.4197 75.1842 32.7633 76.3714 34.4535 77.4647C40.5108 79.5565 45.4403 78.8982 47.304 77.162C46.6003 75.6403 45.2526 74.4298 43.5065 73.9619Z" fill="#B997DA"/>
<path d="M34.4536 77.4645C36.0103 78.4716 37.8606 79.399 39.944 79.9572C42.7539 80.7101 45.4941 80.8132 47.7957 80.3748C47.9442 79.251 47.7574 78.142 47.3042 77.162C44.4697 77.9322 40.3406 78.1965 34.4536 77.4645Z" fill="#A475B6"/>
<path d="M76.7714 42.9808L74.3549 42.2766C72.2964 42.2766 70.1895 44.3835 70.1895 46.4421L70.913 48.8922C73.8932 48.3988 77.0792 45.2123 76.7714 42.9808Z" fill="#D9B6E8"/>
<path d="M79.1869 34.6717C79.1853 32.8498 78.1715 29.8907 77.0441 28.1471L74.3553 30.8962C73.326 32.679 74.0971 35.557 75.88 36.5864L79.069 37.7831C79.1478 37.1452 79.1875 35.3091 79.1869 34.6717Z" fill="#D9B6E8"/>
<path d="M59.6655 23.3098L61.7376 26.8988C63.2266 28.3204 68.7678 28.2198 70.1894 26.7309L72.2605 25.5372V23.1436C68.2128 20.8067 63.3897 21.0295 59.6655 23.3098Z" fill="#D9B6E8"/>
<path d="M77.9431 28.8248C77.9431 28.8248 76.249 26.4386 74.0837 24.3754C73.5134 23.9289 72.9058 23.5162 72.2605 23.1437L70.1894 26.7308C70.1894 28.7895 72.2963 30.8963 74.3549 30.8963L77.0437 29.3439C77.6645 31.0453 77.988 32.8498 77.9898 34.6716C77.9904 35.3091 77.9508 35.9485 77.8718 36.5865H75.8796C74.0968 37.6158 73.3255 40.4939 74.3549 42.2766L75.5745 42.9809C74.342 44.9285 72.7399 46.5126 70.913 47.6955L70.1894 46.4422C67.7156 45.0141 63.0493 45.4088 61.3291 48.3883L63.0603 51.387C66.5108 52.2164 72.2616 50.0316 72.2616 50.0316C74.5476 48.7147 76.528 46.7967 77.942 44.3478C78.0559 44.168 80.0243 36.5866 80.0243 36.5866C80.0219 33.8652 79.3016 31.1828 77.9431 28.8248Z" fill="#A582C6"/>
<path d="M77.9434 28.8248C76.9735 27.1412 75.678 25.6234 74.084 24.3754C75.3881 25.8467 76.3847 27.5366 77.0441 29.344L77.9434 28.8248Z" fill="#824C8D"/>
<path d="M80.0243 36.5865H77.8719C77.6239 38.5889 76.98 40.5757 75.9077 42.433C75.8003 42.619 75.6886 42.801 75.5747 42.9808L77.9422 44.3477C79.3561 41.8988 80.0268 39.2246 80.0243 36.5865Z" fill="#824C8D"/>
<path d="M70.2275 48.1168C67.1461 49.892 64.3649 50.9416 63.0605 51.3869L64.312 53.5544C64.312 53.5544 68.0009 52.4863 72.2619 50.0315L70.9131 47.6954C70.6877 47.8415 70.4596 47.9831 70.2275 48.1168Z" fill="#824C8D"/>
<path d="M62.1769 25.7402C61.5728 24.7663 60.7273 23.9228 59.6654 23.3098C56.3333 25.2336 55.4968 28.9902 57.141 31.8379C57.3926 32.2736 57.7111 32.6664 58.0729 33.0158C61.3109 33.0158 62.1769 29.8602 62.1769 25.7402Z" fill="#B997DA"/>
<path d="M62.1771 25.7401C61.8174 28.237 60.4766 31.0216 58.0731 33.0158C58.441 33.3712 58.8557 33.678 59.2916 33.9395C58.1812 34.8516 56.7709 35.3759 55.2937 35.3773C54.7979 35.3778 54.3965 35.78 54.397 36.2757C54.3974 36.7712 54.7992 37.1724 55.2945 37.1724H55.2953C58.1754 37.1697 60.8582 35.6202 62.2966 33.1285C63.6685 30.7525 63.5288 27.9191 62.1771 25.7401Z" fill="#A475B6"/>
<path d="M60.5991 72.5724C60.4498 71.7254 57.2514 66.4836 52.6975 64.826C52.2317 64.6565 51.7165 64.8965 51.5471 65.3624C51.3775 65.8283 51.6177 66.3432 52.0835 66.5128C55.8047 67.8672 58.441 72.1146 58.8154 72.8856C58.7245 73.6557 57.7351 77.5205 54.3939 80.3241C54.0141 80.6427 53.9646 81.2089 54.2833 81.5886C54.4608 81.8002 54.7151 81.9092 54.9712 81.9092C55.1748 81.9092 55.3795 81.8403 55.5478 81.6992C59.5511 78.3399 60.7532 73.4455 60.5991 72.5724Z" fill="#824C8D"/>
<path d="M62.3982 66.3142C60.9146 65.1589 58.6093 63.687 56.0532 63.2363C55.5644 63.1507 55.0995 63.4762 55.0133 63.9644C54.9272 64.4526 55.2531 64.9181 55.7413 65.0042C59.5278 65.6719 63.0745 69.1624 63.6871 69.9774C63.7289 70.7703 63.4181 74.733 60.6242 78.0629C60.3055 78.4427 60.355 79.0088 60.7348 79.3274C60.903 79.4685 61.1077 79.5374 61.3113 79.5374C61.5675 79.5374 61.8218 79.4283 61.9993 79.2168C65.3583 75.2134 65.6924 70.1847 65.3891 69.3513C65.1669 68.741 63.6636 67.2996 62.3982 66.3142Z" fill="#824C8D"/>
<path d="M69.8027 65.384C69.2881 64.493 63.926 61.1212 59.3135 61.1212C58.8178 61.1212 58.416 61.523 58.416 62.0187C58.416 62.5145 58.8178 62.9163 59.3135 62.9163C63.1805 62.9163 67.455 65.6364 68.238 66.3082C68.4179 67.1103 68.7849 71.0458 66.6228 74.7907C66.3749 75.22 66.522 75.7689 66.9513 76.0167C67.0927 76.0984 67.2471 76.1372 67.3993 76.1372C67.7095 76.1372 68.0112 75.9761 68.1774 75.6882C70.7901 71.1631 70.2462 66.1523 69.8027 65.384Z" fill="#824C8D"/>
<path d="M52.2255 48.8442C54.5318 44.8496 54.2989 38.5307 53.7862 37.6425C53.3428 36.8744 49.2757 33.8978 44.0499 33.8978C43.5541 33.8978 43.1523 34.2996 43.1523 34.7954C43.1523 35.2911 43.5541 35.6929 44.0499 35.6929C48.3741 35.6929 51.5983 37.9781 52.2032 38.5351C52.3919 39.5474 52.6043 44.5979 50.6708 47.9466C50.4229 48.3758 50.5701 48.9248 50.9994 49.1726C51.1407 49.2543 51.2951 49.2931 51.4473 49.2931C51.7575 49.2931 52.0593 49.1321 52.2255 48.8442Z" fill="#824C8D"/>
<path d="M42.9592 42.0189C42.2798 41.4488 37.44 40.0428 32.5293 41.8301C32.0634 41.9997 31.8233 42.5148 31.9929 42.9805C32.1624 43.4463 32.6772 43.6863 33.1433 43.5169C37.2415 42.0253 41.0834 43.1006 41.7959 43.4071C42.2754 44.1154 44.6285 48.5124 43.9413 52.4099C43.8553 52.8981 44.1812 53.3636 44.6694 53.4498C44.7221 53.4591 44.7745 53.4636 44.8263 53.4636C45.2536 53.4634 45.6324 53.1571 45.7092 52.7217C46.5498 47.9531 43.6165 42.5704 42.9592 42.0189Z" fill="#824C8D"/>
<path d="M48.1435 39.4811C47.5735 38.8017 43.0507 36.577 37.905 37.4841C37.4168 37.5701 37.0907 38.0358 37.1769 38.524C37.263 39.0121 37.7287 39.3381 38.2167 39.252C42.4974 38.4972 46.0843 40.2094 46.7504 40.6421C47.1485 41.5786 48.3913 46.3848 47.0768 49.9965C46.9072 50.4622 47.1475 50.9773 47.6132 51.1469C47.7146 51.1837 47.8182 51.2013 47.9201 51.2013C48.2868 51.2013 48.631 50.9749 48.7636 50.6104C49.6514 48.1715 49.5315 45.4431 49.2746 43.5839C49.0553 41.9977 48.5607 39.9782 48.1435 39.4811Z" fill="#824C8D"/>
<path d="M42.242 62.8021L48.8837 67.3542C58.3928 63.0411 63.49 59.539 63.49 51.24C62.4396 49.1516 60.6733 47.3644 58.7467 46.8481C52.3875 45.1442 45.7913 50.197 41.6206 54.7742L42.242 62.8021Z" fill="#D9B6E8"/>
<path d="M63.4898 51.2399C62.5924 59.4444 53.5895 63.4986 45.9043 65.0966L48.8835 67.354C54.9327 66.0306 62.6068 62.8447 64.3107 56.4854C64.7371 54.8944 64.3572 52.9646 63.4898 51.2399Z" fill="#A582C6"/>
<path d="M42.242 62.8021C42.242 62.8021 42.3377 58.84 41.6207 54.7742C39.1763 57.4568 37.5644 59.9762 37.3233 60.8756C36.9306 62.3414 37.6258 64.3972 38.7722 65.944C40.8826 66.615 44.5438 66.3442 45.9045 65.0969C43.8667 63.6889 42.242 62.8021 42.242 62.8021Z" fill="#B997DA"/>
<path d="M38.772 65.9439C39.5292 66.9656 40.4826 67.7656 41.4509 68.025C42.3503 68.266 45.3381 68.1297 48.8834 67.3541C47.8817 66.5134 46.8489 65.7493 45.9043 65.0967C43.2367 65.6515 40.728 65.9102 38.772 65.9439Z" fill="#A475B6"/>
<path d="M54.2368 57.5506C54.2639 57.2939 55.6917 55.637 55.4318 55.1867C55.1719 54.7365 53.0229 55.1445 52.7872 55.0396C52.5514 54.9347 51.4167 53.0646 50.9082 53.1727C50.3998 53.2808 50.1238 55.4508 49.9511 55.6425C49.7785 55.8343 47.6493 56.3355 47.5949 56.8526C47.5405 57.3696 49.519 58.3026 49.648 58.5261C49.7769 58.7496 49.5958 60.9295 50.0707 61.1409C50.5456 61.3524 52.0442 59.7591 52.2966 59.7054C52.549 59.6517 54.5663 60.4977 54.9142 60.1115C55.262 59.725 54.2099 57.8073 54.2368 57.5506Z" fill="#EACB40"/>
<path d="M31.3071 70.7901C31.3342 70.5334 32.7629 68.8753 32.5028 68.4248C32.2428 67.9742 30.0924 68.3827 29.8565 68.2776C29.6206 68.1726 28.4852 66.3014 27.9765 66.4095C27.4678 66.5176 27.1916 68.6889 27.0188 68.8809C26.8461 69.0728 24.7155 69.5744 24.6613 70.0917C24.6069 70.609 26.5865 71.5425 26.7157 71.7661C26.8449 71.9897 26.6634 74.1709 27.1386 74.3825C27.6138 74.594 29.1134 72.9998 29.366 72.9461C29.6186 72.8924 31.6369 73.7389 31.9851 73.3524C32.3329 72.9658 31.2801 71.0469 31.3071 70.7901Z" fill="#EACB40"/>
</g>
<defs>
<clipPath id="clip0_200_237">
<rect width="60.417" height="60.417" fill="white" transform="translate(22.1338 21.4922)"/>
</clipPath>
</defs>
</svg>
