<svg width="107" height="107" viewBox="0 0 107 107" fill="none" xmlns="http://www.w3.org/2000/svg">
<path d="M67.2135 61.9972V38.6992H50.6494V68.5842L56.2379 78.5498C56.2379 78.5498 59.2085 73.3432 63.4329 68.5842C65.4647 66.2954 65.9436 64.123 67.2135 61.9972Z" fill="#FDDB7E"/>
<path d="M62.2839 68.5842C58.0595 73.3433 56.6492 75.4724 56.2383 78.5498L57.7307 81.2112C57.9248 81.5572 58.4004 81.6047 58.6646 81.3088C61.1477 78.5298 61.1477 75.14 61.1477 75.14C61.1477 75.14 64.9974 76.7284 67.8108 76.2059C68.0499 76.1614 68.2352 75.9761 68.2796 75.737C68.8022 72.9236 67.2137 69.0739 67.2137 69.0739V61.9971C65.9439 64.123 64.3156 66.2953 62.2839 68.5842Z" fill="#F99675"/>
<path d="M73.7236 44.7795L76.423 42.1325C77.0643 41.348 77.6559 40.4538 77.9786 39.541C78.0595 39.3121 77.9911 39.0593 77.8066 38.9016C75.6315 37.0424 71.5032 36.4932 71.5032 36.4932C71.5032 36.4932 73.0187 33.1706 73.2298 28.5901C73.2508 28.1343 72.7538 27.8387 72.3615 28.0718L66.886 31.3251V25.7494C66.886 25.3073 66.4076 25.0307 66.0245 25.2514L61.0782 28.1007C60.7292 28.3017 60.3335 28.4075 59.9307 28.4075H49.396C43.4101 28.4075 39.7573 32.1216 39.7573 37.5297V63.9666L45.3098 66.8979C46.6005 69.1335 48.3074 72.09 49.3642 73.9205C49.644 74.4051 50.3757 74.244 50.4338 73.6874C50.7578 70.5827 51.9833 68.0848 54.9389 64.7551C58.7855 60.4216 62.6222 56.0707 58.1084 48.2525C57.5477 47.2812 56.3522 45.2106 56.3522 45.2106L60.6243 41.315L62.9707 45.379C65.8283 50.3286 66.5083 55.127 64.9918 59.6409C64.7002 60.5087 64.3436 61.3242 63.9407 62.0955C63.7604 62.4407 63.7614 62.8523 63.9503 63.1927L65.0604 65.1934C74.5658 57.1675 73.7236 44.7795 73.7236 44.7795Z" fill="#D9B6E8"/>
<path d="M79.1887 48.7373C77.5689 46.3785 73.7235 44.7796 73.7235 44.7796C73.7235 44.7796 75.1686 43.6668 76.4229 42.1326C74.1762 41.2561 72.5458 40.8062 71.4594 40.5752C70.6541 40.404 69.9345 41.1158 70.0969 41.923C71.8679 50.7281 70.8436 57.4535 65.0605 65.1935L67.2137 69.0741C67.2137 69.0741 71.3434 69.6121 73.9257 68.3792C74.1452 68.2744 74.2763 68.0474 74.2573 67.8048C74.0338 64.9521 71.5031 61.6447 71.5031 61.6447C71.5031 61.6447 75.6314 61.0954 77.8065 59.2362C77.9914 59.0782 78.0592 58.8251 77.9781 58.5958C77.0241 55.898 73.7235 53.3583 73.7235 53.3583C73.7235 53.3583 77.5689 51.7594 79.1887 49.4005C79.3264 49.1999 79.3264 48.9378 79.1887 48.7373Z" fill="#A582C6"/>
<path d="M24.4736 51.4658C24.4736 54.3227 25.9465 55.8854 26.9512 56.619C27.3315 56.8968 27.8658 56.6261 27.8658 56.1552V52.3465L24.4736 51.4658Z" fill="#FDDB7E"/>
<path d="M32.4208 68.125C30.6227 67.0869 30.2615 65.1383 30.2206 63.9541C30.205 63.5023 30.691 63.2094 31.0826 63.4355L35.6441 66.0691L32.4208 68.125Z" fill="#FDDB7E"/>
<path d="M39.9431 59.8786C39.7225 59.8786 39.5019 59.7944 39.3336 59.6261C37.7063 57.999 35.1951 57.863 33.7353 59.3226C33.3986 59.6594 32.8528 59.6593 32.5162 59.3226C32.1795 58.986 32.1795 58.4401 32.5162 58.1035C34.6481 55.9715 38.2533 56.1076 40.5527 58.407C40.8893 58.7436 40.8893 59.2894 40.5527 59.6261C40.3844 59.7944 40.1638 59.8786 39.9431 59.8786Z" fill="#F99675"/>
<path d="M44.9639 36.6416C38.1731 36.8357 33.9609 39.8529 33.9609 39.8529C26.769 39.8529 23.001 42.7394 23.001 42.7394L31.2812 50.6932C35.4617 50.6932 38.8508 54.398 38.8508 58.9679C40.7005 53.3184 50.8353 49.1737 48.1597 40.9794C47.4991 39.8353 46.503 38.1101 45.9867 37.2158C45.7765 36.8515 45.3841 36.6296 44.9639 36.6416Z" fill="#A582C6"/>
<path d="M48.1597 40.9792C48.1597 49.5076 38.8508 51.2286 38.8508 58.9677C38.8508 63.5377 35.4619 67.2424 31.2812 67.2424V68.4227C31.2812 71.1298 33.4635 73.3471 36.1707 73.3557C38.9081 73.3644 40.5316 71.784 41.0016 71.2505C41.0945 71.1452 41.1445 71.0096 41.1438 70.8692L41.1387 69.7829C41.1387 68.1895 42.4304 66.8977 44.0239 66.8977H45.3101L43.632 63.9912C37.3178 53.0548 54.4178 51.8185 48.1597 40.9792Z" fill="#824C8D"/>
<path d="M27.8655 44.568C27.8655 42.5134 25.6413 41.6848 23.0008 42.7391C22.5621 42.9144 22.272 43.3374 22.272 43.8098V48.4573L27.8655 44.568Z" fill="#F99675"/>
<path d="M32.3097 47.6527C32.3097 47.1774 31.7173 45.6386 30.813 45.152C29.957 44.7823 28.9474 44.5681 27.8656 44.5681C24.7763 44.568 22.272 46.3092 22.272 48.4572C22.272 48.9324 22.3949 49.3874 22.6193 49.8084C23.6807 51.0369 25.6343 51.5417 26.7162 51.5417C29.8053 51.5417 32.3097 49.8005 32.3097 47.6527Z" fill="#A582C6"/>
<path d="M31.269 44.9217C31.0152 44.7537 30.6992 45.0334 30.8432 45.3015C31.0191 45.6291 31.16 46.0238 31.16 46.5033C31.16 48.6513 28.6557 50.3925 25.5665 50.3925C24.4845 50.3925 23.4751 50.1783 22.6191 49.8086C23.4088 51.2903 25.4596 52.3465 27.8654 52.3465C30.9546 52.3465 33.459 50.6053 33.459 48.4574C33.459 46.9306 32.461 45.7106 31.269 44.9217Z" fill="#824C8D"/>
<path d="M63.4753 37.9462C63.4753 36.2054 62.9461 33.8843 60.7388 32.1814L52.8025 36.7634C52.2528 37.0808 52.0643 37.7835 52.3817 38.3332C53.2918 39.9095 54.5791 42.1393 55.7929 44.2415C60.2705 44.2416 63.4753 41.7625 63.4753 37.9462Z" fill="#A582C6"/>
<path d="M61.4094 31.7942L60.7389 32.1813C61.7332 33.4544 62.326 35.0559 62.326 36.7967C62.326 40.6131 59.4787 43.7623 55.793 44.2415C55.9816 44.5683 56.1686 44.8921 56.352 45.2098C57.1244 45.4126 57.9447 45.4967 58.7933 45.4379C62.5647 45.1768 65.5829 42.0944 65.7652 38.3183C65.8935 35.6613 64.6395 33.2909 62.661 31.8596C62.2928 31.5933 61.8028 31.567 61.4094 31.7942Z" fill="#824C8D"/>
<path d="M50.4269 57.6574C50.5636 57.8456 50.6065 59.817 51.0522 59.9618C51.4979 60.1066 52.6912 58.5369 52.9125 58.465C53.1338 58.3931 55.0217 58.9615 55.2971 58.5824C55.5725 58.2033 54.4486 56.5831 54.4486 56.3505C54.4486 56.1178 55.5725 54.4977 55.2971 54.1186C55.0217 53.7395 53.1336 54.3078 52.9125 54.2359C52.6913 54.1641 51.4979 52.5944 51.0522 52.7392C50.6065 52.8839 50.5636 54.8554 50.4269 55.0436C50.2901 55.2318 48.4287 55.8818 48.4287 56.3505C48.4287 56.8191 50.2901 57.4692 50.4269 57.6574Z" fill="#EACB40"/>
<path d="M73.6856 44.4685C73.5489 44.2803 73.506 42.3089 73.0603 42.1641C72.6146 42.0193 71.4213 43.5889 71.2 43.6609C70.9788 43.7328 69.0908 43.1644 68.8154 43.5435C68.54 43.9226 69.6639 45.5427 69.6639 45.7754C69.6639 46.008 68.54 47.6282 68.8154 48.0073C69.0908 48.3864 70.9788 47.8181 71.2 47.8899C71.4212 47.9618 72.6146 49.5315 73.0603 49.3867C73.506 49.2419 73.5489 47.2705 73.6856 47.0823C73.8224 46.8941 75.6838 46.244 75.6838 45.7754C75.6838 45.3068 73.8224 44.6567 73.6856 44.4685Z" fill="#EACB40"/>
<path d="M38.2826 42.1796C37.2852 42.7555 36.5717 43.6854 36.2738 44.798C36.1505 45.2579 36.4233 45.7306 36.8833 45.8539C36.958 45.8739 37.0331 45.8835 37.107 45.8835C37.4877 45.8835 37.8359 45.6295 37.939 45.2442C38.1179 44.5766 38.5461 44.0185 39.1447 43.6728C39.7433 43.3271 40.4411 43.2354 41.1081 43.4144C41.568 43.5375 42.0407 43.2647 42.1639 42.8047C42.2871 42.3448 42.0143 41.8722 41.5543 41.7489C40.4417 41.4508 39.28 41.6036 38.2826 42.1796Z" fill="#824C8D"/>
</svg>
