<svg width="107" height="107" viewBox="0 0 107 107" fill="none" xmlns="http://www.w3.org/2000/svg">
<path d="M31.9593 46.5396C25.6747 50.1679 23.147 54.066 23.147 57.1459C23.147 58.2546 23.5969 59.3633 24.4968 60.4765C26.0757 62.4298 26.1179 65.2093 24.5281 67.1538C22.6934 69.3979 22.6866 71.6234 24.5078 73.8673C26.003 75.7096 26.2661 77.5393 25.2971 79.3773C25.0149 79.9126 25.4067 80.5559 26.0118 80.5559H28.914L31.705 78.6406L30.807 57.1457L33.1117 51.1487L31.9593 46.5396Z" fill="#D9B6E8"/>
<path d="M33.5707 80.2321C35.1305 78.1061 35.0473 75.9953 33.3208 73.8678C31.7379 71.9172 31.7379 69.1288 33.3208 67.1782C35.1348 64.9427 35.1347 62.7256 33.3204 60.4901C32.4132 59.3723 31.9596 58.259 31.9596 57.1459L33.1119 51.1488H31.9595C29.3623 52.6483 27.5532 54.9568 27.5532 57.1459C27.5532 58.2546 28.0031 59.3633 28.903 60.4765C30.482 62.4298 30.5241 65.2093 28.9343 67.1538C27.0997 69.3979 27.0928 71.6234 28.9141 73.8673C30.7285 76.103 30.7285 78.3203 28.9141 80.5559H32.9237C33.1783 80.5559 33.4201 80.4372 33.5707 80.2321Z" fill="#A582C6"/>
<path d="M35.2575 38.1614L33.41 37.6664C32.6781 37.4703 31.9595 38.0217 31.9595 38.7794V51.1489L38.5724 50.5329V44.5359L35.2575 38.1614Z" fill="#FFE177"/>
<path d="M31.9595 51.1488V57.1459L38.5725 50.5328V44.5358L31.9595 51.1488Z" fill="#FFD15B"/>
<path d="M79.1822 38.6501L74.2527 26.5495C55.3571 21.6785 40.1306 19.9738 35.2573 38.1612L37.305 45.8031C48.0408 58.8017 64.7723 52.2872 79.1822 38.6501Z" fill="#EACB40"/>
<path d="M76.6973 27.1905C75.8762 26.9719 75.0612 26.7578 74.2529 26.5494L76.2242 33.9062C76.6338 35.4351 76.1362 37.0622 74.9466 38.1061C61.1592 50.2045 47.246 52.3767 37.3052 45.8031L38.5725 50.5328C52.4562 64.4165 65.2742 53.9391 79.9457 39.314C80.2375 39.0231 80.3516 38.5978 80.245 38.1997L77.5136 28.0058C77.4068 27.6077 77.0955 27.2965 76.6973 27.1905Z" fill="#FFE177"/>
<path d="M49.3122 33.8383C44.4639 33.8383 40.5337 37.4332 40.5337 41.8676C40.5337 46.302 44.464 49.8969 49.3123 49.8969H74.7401C75.46 48.0302 76.2158 44.6759 76.2158 42.5838C76.2158 39.0168 74.4706 34.6458 70.8092 31.7477C68.12 30.161 64.9171 29.2397 61.4789 29.2397C56.7299 29.2397 52.4295 30.9966 49.3122 33.8383Z" fill="#A582C6"/>
<path d="M77.7362 50.249C78.369 48.6081 78.714 46.8428 78.714 45.0037C78.714 39.4423 75.565 34.5538 70.809 31.7477C72.7721 34.5407 73.911 37.8644 73.911 41.4315C73.911 43.5236 73.5186 45.5316 72.7987 47.3984C72.7987 47.3984 66.3608 47.3984 63.9321 47.3984C59.9035 47.3984 56.5134 46.0056 55.9663 42.7723C55.8752 42.2344 55.4288 41.8259 54.8837 41.8021C51.1155 41.638 48.9933 40.5427 47.8462 39.1293L49.3122 49.8968L62.0724 64.5459H72.4432C72.6294 64.5651 72.8185 64.575 73.0099 64.575C74.1721 64.575 75.2457 64.2117 76.1161 63.5971C76.4545 63.3583 76.5499 62.8974 76.3429 62.5388L74.7092 59.7091C76.7075 59.959 78.722 59.0635 79.7596 57.2662C81.1584 54.8436 80.2526 51.7019 77.7362 50.249Z" fill="#824C8D"/>
<path d="M78.6004 48.752L73.3457 45.7183C73.1924 46.2894 73.0101 46.8501 72.7987 47.3982L72.7983 47.3981L77.7362 50.249C77.8724 50.3276 78.0209 50.365 78.1675 50.365C78.4662 50.365 78.7567 50.21 78.9168 49.9327C79.1555 49.5191 79.0138 48.9906 78.6004 48.752Z" fill="#4F66D0"/>
<path d="M73.3459 45.7182L50.1764 32.3414C49.763 32.1025 49.2343 32.2443 48.9958 32.6577C48.7571 33.0711 48.8988 33.5996 49.3122 33.8382L72.7985 47.3981L72.7988 47.3982C73.0102 46.8501 73.1926 46.2894 73.3459 45.7182Z" fill="#824C8D"/>
<path d="M62.4493 78.8279C62.7754 78.2632 63.2455 77.4489 63.4007 77.1803C64.9128 74.5612 67.7777 71.6517 71.1033 70.7659C71.7387 70.5967 72.0995 69.9246 71.8953 69.2995C71.3346 67.5823 67.3569 61.7925 67.3569 61.7925L57.8199 70.8363C58.4002 73.2929 59.137 75.0504 59.137 75.0504L57.2891 78.2513L61.4517 79.4037C61.8634 79.4036 62.2435 79.1845 62.4493 78.8279Z" fill="#D9B6E8"/>
<path d="M72.4433 64.546C69.804 64.2738 67.7486 62.1228 67.7486 59.5095H63.1393L57.1325 65.4558C57.1325 67.3511 57.4434 69.241 57.8201 70.8363C59.7482 70.0939 61.8422 68.8256 63.7847 66.8831C64.2838 66.384 64.8081 65.7661 65.3214 65.1071C66.4639 63.6406 68.7961 64.1749 69.1744 65.9951C69.4252 67.2011 69.7196 68.2156 69.956 68.9398C70.1602 69.5649 69.7994 70.237 69.164 70.4062C65.8383 71.292 63.7606 73.4089 62.2484 76.0281C62.0932 76.2967 61.6231 77.111 61.297 77.6757C61.0912 78.0322 60.7111 78.2513 60.2994 78.2513H57.2891L56.6571 79.3461C56.3466 79.8839 56.7348 80.556 57.3557 80.556H62.8037C63.0919 80.556 63.3578 80.4031 63.5018 80.1536C63.8226 79.5979 64.3812 78.6304 64.5531 78.3328C66.4033 75.1281 69.1002 72.6753 73.8938 72.3095C74.4661 72.2659 74.8102 71.6553 74.5518 71.1428C73.8749 69.8004 72.8314 67.3745 72.4433 64.546Z" fill="#A582C6"/>
<path d="M70.3048 50.2763H66.2225C66.2225 52.813 65.4354 55.9504 62.9209 58.0622C62.3965 58.5026 61.5956 58.1281 61.5956 57.4433V50.1056C58.3125 49.5895 55.8893 47.8952 55.8893 44.7041C51.4865 44.7041 47.8463 43.0406 47.8463 39.1292C47.3362 41.0328 43.6413 54.8227 43.005 57.1968C42.6566 58.4994 43.4816 59.5278 44.8674 59.5278H46.6885L46.3078 60.6367C46.3078 60.6367 46.7762 62.32 48.3796 62.32C47.1534 64.6101 49.5424 65.5403 49.5424 65.5403C47.9015 67.1812 48.9257 69.8362 51.5486 69.8362C54.1715 69.8362 58.1265 68.508 61.5953 65.0393C63.836 62.7986 65.4504 60.021 65.4504 60.021C67.2738 61.6146 71.528 58.8789 71.528 53.6567C71.5282 51.6083 70.3048 50.2763 70.3048 50.2763Z" fill="#D9B6E8"/>
<path d="M50.6994 60.9571C50.2709 61.1999 49.3181 61.4558 48.38 61.4558C46.6347 61.4558 46.3296 60.6616 46.3082 60.6367L46.0302 61.4112C45.8255 61.9818 46.0984 62.6165 46.657 62.8519C47.1065 63.0414 47.6782 63.1842 48.38 63.1842C49.5276 63.1842 50.811 62.8885 51.5736 62.4482C51.9985 62.2029 52.1363 61.651 51.8688 61.233C51.6211 60.8459 51.0993 60.7305 50.6994 60.9571Z" fill="#A582C6"/>
<path d="M64.2104 42.5932C64.1739 42.8235 62.8069 44.2515 63.0201 44.67C63.2333 45.0886 65.1921 44.8219 65.3999 44.9279C65.6077 45.0338 66.5433 46.775 67.0072 46.7016C67.4712 46.6281 67.8229 44.6828 67.9879 44.5179C68.1527 44.353 70.098 44.0014 70.1715 43.5373C70.245 43.0733 68.5036 42.1377 68.3978 41.9299C68.292 41.7221 68.5586 39.7633 68.14 39.5502C67.7214 39.337 66.2935 40.7038 66.0632 40.7404C65.8329 40.7769 64.0524 39.918 63.7202 40.2503C63.388 40.5824 64.247 42.3629 64.2104 42.5932Z" fill="#EACB40"/>
<path d="M46.8621 40.326C46.6734 40.463 44.6971 40.5061 44.5519 40.9529C44.4067 41.3998 45.9803 42.5962 46.0524 42.818C46.1244 43.0398 45.5546 44.9327 45.9347 45.2088C46.3148 45.485 47.9389 44.3582 48.1722 44.3582C48.4054 44.3582 50.0295 45.485 50.4096 45.2088C50.7897 44.9327 50.2199 43.0398 50.2919 42.818C50.364 42.5962 51.9376 41.3998 51.7924 40.9529C51.6472 40.5062 49.6709 40.4631 49.4822 40.326C49.2935 40.189 48.6418 38.3226 48.172 38.3226C47.7025 38.3226 47.0508 40.189 46.8621 40.326Z" fill="#EACB40"/>
<path d="M52.0846 53.3014C52.9613 53.3014 53.838 52.9678 54.5053 52.3003C54.8429 51.9628 54.8429 51.4156 54.5053 51.0781C54.1678 50.7406 53.6206 50.7406 53.283 51.0781C52.6222 51.7389 51.5469 51.7388 50.8861 51.0781C50.5486 50.7406 50.0014 50.7406 49.6638 51.0781C49.3262 51.4155 49.3262 51.9627 49.6638 52.3003C50.3314 52.9678 51.208 53.3014 52.0846 53.3014Z" fill="#824C8D"/>
<path d="M52.5713 48.8267C53.0209 48.6663 53.2553 48.1719 53.0949 47.7223C52.9345 47.2728 52.4399 47.0383 51.9906 47.1987C51.1814 47.4873 49.7614 47.4873 48.9522 47.1987C48.5029 47.0382 48.0083 47.2728 47.8479 47.7223C47.6875 48.1719 47.9219 48.6664 48.3715 48.8267C48.9603 49.0367 49.7159 49.1417 50.4714 49.1417C51.2269 49.1417 51.9825 49.0366 52.5713 48.8267Z" fill="#824C8D"/>
</svg>
