<svg width="108" height="107" viewBox="0 0 108 107" fill="none" xmlns="http://www.w3.org/2000/svg">
<g clip-path="url(#clip0_200_353)">
<path d="M46.784 39.8412C36.8657 39.8412 32.3461 37.8425 26.8633 32.6172C26.4843 32.256 25.8642 32.5594 25.909 33.081C26.6866 42.1315 34.6337 50.8506 46.784 50.8506V39.8412Z" fill="#E9D3AF"/>
<path d="M80.282 47.7722L79.1491 29.1933C69.5485 28.6638 60.3673 31.0728 55.4589 39.5704L44.7975 40.7214C44.7975 40.7214 42.7031 42.563 40.4789 46.1611L37.0801 71.5584L58.7541 75.4321L62.3937 79.0718H67.7526L71.1514 73.9152C75.031 66.8437 80.282 59.3648 80.282 47.7722Z" fill="#D9B6E8"/>
<path d="M65.059 66.6215C66.5037 64.5381 67.2329 61.9269 67.2329 59.0818V53.4171C67.2329 52.9478 66.8525 52.5674 66.3832 52.5674C65.9139 52.5674 65.5335 52.9478 65.5335 53.4171V59.0818C65.5335 63.0632 63.9779 66.4602 60.7775 68.3017C58.1077 69.8381 54.3773 70.9004 49.6902 70.9004C46.5672 70.9004 44.7971 70.9004 44.7971 70.9004L37.0796 71.5584L40.4784 79.2729C44.7937 81.7676 48.6769 79.7303 49.6901 75.4321C52.0009 77.743 56.5204 77.6653 58.7536 75.4321C60.1242 74.0615 60.9249 72.0785 60.8061 70.2167C61.0877 70.0741 61.361 69.9267 61.625 69.7747C62.514 69.2632 63.2971 68.646 63.976 67.942L67.3424 71.3085L68.1913 70.8871V69.7542L65.059 66.6215Z" fill="#A582C6"/>
<path d="M80.4718 29.284C80.0301 29.2476 79.5891 29.2175 79.1489 29.1932V47.7722C79.1489 59.3648 71.632 63.4449 67.7524 70.5165C66.9758 71.9321 66.3442 73.467 65.9486 75.2067C65.5743 76.8526 64.1875 78.6114 62.3936 79.0719L63.81 80.4884C64.4136 81.092 65.2494 81.4184 66.1965 81.4184C67.7658 81.4184 68.9122 80.5194 69.3475 78.6055C69.6705 77.1846 70.151 75.9005 70.7395 74.7064C70.8716 74.4383 69.876 73.0419 70.0184 72.7824C70.16 72.5245 71.4393 73.4034 71.59 73.1528C75.5693 66.5359 82.5477 62.3406 82.5477 51.171V31.5423C82.5477 30.3643 81.6457 29.3805 80.4718 29.284Z" fill="#A582C6"/>
<path d="M67.7525 70.5165C67.6103 70.7758 67.4748 71.0406 67.3428 71.3085L70.7416 74.7074C70.8735 74.4395 71.0091 74.1746 71.1513 73.9153C71.2929 73.6572 71.4398 73.4036 71.5905 73.1531L68.1917 69.7542C68.0411 70.0047 67.8941 70.2584 67.7525 70.5165Z" fill="#824C8D"/>
<path d="M69.1457 37.1932C63.7939 38.6272 64.5245 43.655 64.7413 44.4644C64.8899 45.019 63.392 46.4198 62.4341 47.247C62.0963 47.5386 62.2119 48.0879 62.6391 48.2172C64.3843 48.7458 68.2387 49.6184 72.1913 48.5592C77.487 47.1402 81.5864 42.1975 81.0247 40.1013C80.4629 38.0051 74.4414 35.7742 69.1457 37.1932Z" fill="#A582C6"/>
<path d="M73.7314 35.9562C71.5329 35.485 68.1609 35.7711 65.4261 37.3501C62.4859 39.0477 60.6991 41.787 59.9201 43.209C59.7054 43.601 60.009 44.075 60.455 44.0449C61.5413 43.9717 63.1587 43.9355 63.3939 44.3431C63.5106 44.5452 63.362 44.9878 63.1093 45.4925C65.0657 45.902 68.7492 45.9378 70.4661 44.9465C73.447 43.2254 74.2206 38.2162 73.7314 35.9562Z" fill="#E9D3AF"/>
<path d="M75.8999 37.1226C75.5953 36.5952 74.8027 36.1857 73.7316 35.9562C73.2201 38.4263 71.1813 42.0924 68.2002 43.8135C66.4834 44.8047 64.6558 45.2775 63.1094 45.4923C62.8525 46.0052 62.4876 46.5824 62.182 47.038C61.9335 47.4084 62.1927 47.9082 62.6387 47.9183C64.2595 47.9547 67.5256 47.7771 70.4662 46.0793C74.5333 43.7311 76.8293 38.7326 75.8999 37.1226Z" fill="#FF6600"/>
<path d="M67.6069 53.5661C67.4213 53.4313 66.7802 51.5952 66.318 51.5952C65.8558 51.5952 65.2147 53.4313 65.0291 53.5661C64.8435 53.701 62.8992 53.7434 62.7564 54.1829C62.6136 54.6224 64.1617 55.7996 64.2325 56.0177C64.3034 56.2359 63.7428 58.0982 64.1167 58.3698C64.4907 58.6415 66.0886 57.5329 66.318 57.5329C66.5474 57.5329 68.1453 58.6415 68.5193 58.3698C68.8932 58.0981 68.3326 56.2359 68.4035 56.0177C68.4745 55.7996 70.0225 54.6224 69.8796 54.1829C69.7368 53.7434 67.7926 53.701 67.6069 53.5661Z" fill="#EACB40"/>
<path d="M56.2705 60.368C56.0849 60.2332 55.4438 58.3971 54.9816 58.3971C54.5194 58.3971 53.8783 60.2332 53.6927 60.368C53.507 60.5029 51.5628 60.5453 51.4199 60.9848C51.2771 61.4243 52.8252 62.6015 52.896 62.8196C52.967 63.0378 52.4064 64.9001 52.7803 65.1717C53.1542 65.4434 54.7521 64.3348 54.9816 64.3348C55.211 64.3348 56.8089 65.4434 57.1828 65.1717C57.5568 64.9 56.9962 63.0378 57.0671 62.8196C57.138 62.6015 58.686 61.4243 58.5432 60.9848C58.4004 60.5453 56.4561 60.5029 56.2705 60.368Z" fill="#EACB40"/>
<path d="M49.1903 52.7759C48.7207 52.7759 48.34 53.1565 48.34 53.6262C48.34 55.0233 47.2033 56.1598 45.8063 56.1598C45.3367 56.1598 44.9561 56.5405 44.9561 57.0101C44.9561 57.4797 45.3367 57.8604 45.8063 57.8604C48.141 57.8604 50.0406 55.9609 50.0406 53.6262C50.0406 53.1565 49.6599 52.7759 49.1903 52.7759Z" fill="#824C8D"/>
<path d="M38.533 78.5975L41.4136 76.9344C44.2908 75.2733 43.3592 72.1642 43.3592 69.3499L41.3753 68.2044C40.8204 67.8841 40.4787 67.2921 40.4787 66.6513V46.1613C37.9604 50.2351 35.2757 56.5606 35.2757 65.015L32.3815 70.0279C30.8172 72.7373 31.7455 76.2018 34.4548 77.766C34.4547 77.766 37.4768 79.2073 38.533 78.5975Z" fill="#A582C6"/>
<path d="M43.3594 69.3499C43.3594 72.1641 43.1581 74.1403 40.2809 75.8015L37.4003 77.4646C36.3441 78.0743 34.4551 77.766 34.4551 77.766L37.0654 79.2731C38.1216 79.8829 39.4228 79.8829 40.4788 79.2731L43.3594 77.61C46.5389 75.7744 46.5389 71.1855 43.3594 69.3499Z" fill="#824C8D"/>
<path d="M55.1451 36.5682C55.1451 35.9368 53.9044 34.1978 53.7087 33.6328C53.1439 33.4371 52.5378 33.3294 51.9063 33.3294C41.9881 33.3294 37.4685 31.3308 31.9858 26.1056C31.6103 25.7477 30.9864 26.0428 31.0305 26.5597C31.3308 30.075 32.7132 33.5404 35.0028 36.4651C38.6815 40.079 44.2113 42.0728 49.6404 42.0728C52.6806 42.0729 55.1451 39.6084 55.1451 36.5682Z" fill="#E9D3AF"/>
<path d="M53.7087 33.6329C53.9044 34.1978 54.0122 34.8038 54.0122 35.4353C54.0122 38.4754 51.5476 40.94 48.5075 40.94C43.0784 40.94 38.489 39.1986 35.0029 36.4652C38.6105 41.0733 44.471 44.3387 51.9064 44.3387C54.9465 44.3387 57.4111 41.8742 57.4111 38.8341C57.411 36.4254 55.8633 34.3794 53.7087 33.6329Z" fill="#FF6600"/>
<path d="M36.0392 75.2623C35.8217 75.2623 35.6043 75.1793 35.4384 75.0134C35.1065 74.6816 35.1065 74.1435 35.4384 73.8118C35.8415 73.4086 35.8415 72.7525 35.4384 72.3494C35.1065 72.0176 35.1065 71.4795 35.4384 71.1478C35.7701 70.816 36.3082 70.816 36.64 71.1478C37.7058 72.2135 37.7058 73.9476 36.64 75.0134C36.4741 75.1793 36.2567 75.2623 36.0392 75.2623Z" fill="#824C8D"/>
</g>
<defs>
<clipPath id="clip0_200_353">
<rect width="56.641" height="56.641" fill="white" transform="translate(25.9067 25.3628)"/>
</clipPath>
</defs>
</svg>
