<svg width="108" height="107" viewBox="0 0 108 107" fill="none" xmlns="http://www.w3.org/2000/svg">
<g clip-path="url(#clip0_200_392)">
<path d="M75.4636 67.4664C75.0617 67.4664 74.6518 67.4461 74.235 67.4055C71.9734 67.1851 69.5542 66.362 67.2387 65.0252C66.8358 64.7926 66.6977 64.2775 66.9304 63.8746C67.163 63.4717 67.678 63.3335 68.081 63.5662C72.2405 65.9677 76.5658 66.454 79.3691 64.8356C81.3303 63.7033 82.3669 61.6584 82.3669 58.9218C82.3669 56.3309 81.1546 54.2081 78.7636 52.6123C76.9244 51.3848 75.0832 50.9528 75.0648 50.9486C74.8121 50.8906 74.6002 50.7194 74.4903 50.4846C74.3805 50.2498 74.3848 49.9774 74.5021 49.7463C75.7164 47.3546 76.1808 45.0172 75.8452 42.9867C75.5102 40.9597 74.3657 39.3298 72.5354 38.2731C72.1325 38.0405 71.9945 37.5253 72.2271 37.1224C72.4596 36.7195 72.9749 36.5814 73.3777 36.8141C77.6394 39.2746 78.7897 44.2261 76.4328 49.603C77.251 49.8859 78.4719 50.3921 79.6988 51.211C82.5464 53.1116 84.0516 55.7779 84.0516 58.9218C84.0516 62.2465 82.6878 64.8648 80.2114 66.2945C78.8714 67.0681 77.2482 67.4663 75.4636 67.4664Z" fill="#D9B6E8"/>
<path d="M61.9345 71.6653L56.5615 75.5559L58.0679 76.4256C59.2325 77.0979 60.6908 77.0207 61.7643 76.2108C62.6066 75.5755 63.4207 74.8884 64.2061 74.1506C64.5913 73.7888 64.5206 73.1583 64.0629 72.894L61.9345 71.6653Z" fill="#A475B6"/>
<path d="M68.2489 59.9062C67.6873 57.5344 65.7375 55.6996 63.3044 55.3095C62.7889 55.2269 62.3339 55.6647 62.4015 56.1825C62.6791 58.3077 63.7753 60.9368 64.7419 62.6109L66.5367 64.2955H67.6598L68.2489 59.9062Z" fill="#B997DA"/>
<path d="M68.2489 59.9062C67.6374 61.1538 66.9452 62.3333 66.1821 63.4425L66.5367 64.2957H67.6598C69.5929 64.2957 72.4178 63.9305 74.3972 63.1083C74.8794 62.9081 75.0312 62.2951 74.7017 61.8899C73.1473 59.9778 70.5836 59.2068 68.2489 59.9062Z" fill="#A475B6"/>
<path d="M55.8593 61.144L56.2746 60.4247C56.5123 60.013 56.3331 59.4867 55.8938 59.3049C53.5431 58.3319 50.8269 57.2801 47.6848 56.7373C46.2971 56.4976 44.9075 57.1556 44.2033 58.3752L43.4182 59.735L45.9861 60.3671L55.8593 61.144Z" fill="#B997DA"/>
<path d="M55.8592 61.1441C53.9397 60.2738 51.2603 59.1326 48.8125 58.6682C47.7542 58.4674 46.6945 59.0187 46.1575 60.0404L45.9858 60.3672L55.0233 62.5918L55.8592 61.1441Z" fill="#A475B6"/>
<path d="M40.8265 78.5243C52.7353 78.5243 63.2184 70.3745 66.1823 63.4426L64.742 62.6111C64.1246 63.6804 62.9875 64.5151 61.2408 64.5151C57.3136 64.5151 51.5059 59.7352 43.4182 59.7352C41.0801 59.7352 38.9224 60.1624 36.9944 60.8079L40.8265 78.5243Z" fill="#A582C6"/>
<path d="M43.4467 75.2608C43.4458 75.2608 43.445 75.2608 43.444 75.2608L40.8264 78.5243C41.6967 78.5922 42.6125 78.6301 43.5773 78.6301C53.9544 78.6301 62.1096 73.909 67.66 64.2957L66.1823 63.4425C60.9913 70.9875 52.4931 75.2608 43.4467 75.2608Z" fill="#824C8D"/>
<path d="M44.1001 69.6568C43.4568 65.3109 40.4859 61.7788 36.9944 60.8079C32.1762 62.4214 28.7968 65.4034 27.648 66.5203C27.3901 66.7711 27.3364 67.1646 27.5163 67.4761L30.1706 72.0737C30.1706 72.0737 32.6771 78.0071 43.444 75.2608C44.1401 73.651 44.4049 71.716 44.1001 69.6568Z" fill="#D9B6E8"/>
<path d="M43.444 75.2608C33.5917 75.2602 30.1707 72.0736 30.1707 72.0736L28.53 73.0331C28.0495 73.314 28.0034 73.9934 28.4446 74.3326C30.0623 75.5764 34.016 77.9926 40.8265 78.5243C41.9559 77.7537 42.8545 76.6241 43.444 75.2608Z" fill="#A582C6"/>
<path d="M67.2311 44.9132L61.8582 48.8038L63.3645 49.6735C64.529 50.3459 65.9873 50.2687 67.0608 49.4588C67.9031 48.8234 68.7172 48.1363 69.5026 47.3986C69.8878 47.0367 69.8171 46.4062 69.3594 46.1419L67.2311 44.9132Z" fill="#A475B6"/>
<path d="M73.5457 33.1541C72.9841 30.7824 71.0343 28.9475 68.6012 28.5574C68.0857 28.4748 67.6307 28.9127 67.6984 29.4304C67.976 31.5556 69.0722 34.1847 70.0388 35.8588L71.8336 37.5434H72.9567L73.5457 33.1541Z" fill="#B997DA"/>
<path d="M73.5457 33.1541C72.9343 34.4017 72.2421 35.5812 71.479 36.6904L71.8336 37.5436H72.9566C74.8897 37.5436 77.7147 37.1784 79.694 36.3562C80.1763 36.156 80.328 35.543 79.9986 35.1378C78.4442 33.2257 75.8805 32.4548 73.5457 33.1541Z" fill="#A475B6"/>
<path d="M61.1559 34.392L61.5712 33.6727C61.809 33.2609 61.6298 32.7347 61.1905 32.5528C58.8397 31.5798 56.1235 30.528 52.9814 29.9852C51.5937 29.7455 50.2041 30.4035 49.5 31.6231L48.7148 32.9829L51.2827 33.615L61.1559 34.392Z" fill="#B997DA"/>
<path d="M61.1558 34.3919C59.2363 33.5216 56.5569 32.3804 54.1091 31.916C53.0508 31.7152 51.9911 32.2665 51.4542 33.2882L51.2825 33.615L60.3199 35.8396L61.1558 34.3919Z" fill="#A475B6"/>
<path d="M46.1231 51.7721C58.0319 51.7721 68.515 43.6224 71.4789 36.6904L70.0387 35.8589C69.4213 36.9282 68.2841 37.7629 66.5374 37.7629C62.6102 37.7629 56.8025 32.983 48.7148 32.983C46.3767 32.983 44.219 33.4102 42.291 34.0557L46.1231 51.7721Z" fill="#D9B6E8"/>
<path d="M48.7434 48.5087C48.7425 48.5087 48.7416 48.5087 48.7406 48.5087L46.123 51.7722C46.9933 51.8401 47.9091 51.8781 48.8739 51.8781C59.251 51.8781 67.4062 47.157 72.9566 37.5436L71.479 36.6904C66.2879 44.2354 57.7898 48.5087 48.7434 48.5087Z" fill="#A582C6"/>
<path d="M49.3967 42.9046C48.7535 38.5587 45.7826 35.0266 42.2911 34.0557C37.4728 35.6692 34.0934 38.6512 32.9446 39.7681C32.6868 40.0189 32.633 40.4124 32.8129 40.7239L35.4673 45.3215C35.4673 45.3215 37.9737 51.2549 48.7406 48.5086C49.4367 46.8989 49.7015 44.9638 49.3967 42.9046Z" fill="#A582C6"/>
<path d="M48.7406 48.5087C38.8883 48.5081 35.4673 45.3215 35.4673 45.3215L33.8266 46.281C33.3461 46.5619 33.3 47.2414 33.7412 47.5805C35.3589 48.8243 39.3126 51.2405 46.1231 51.7722C47.2525 51.0017 48.1511 49.8721 48.7406 48.5087Z" fill="#824C8D"/>
<path d="M71.9459 35.9873L70.4599 35.1294C70.0569 34.8967 69.542 35.0348 69.3093 35.4377C69.0767 35.8406 69.2147 36.3558 69.6176 36.5883L70.9886 37.3799L72.2272 37.1223L71.9459 35.9873Z" fill="#A582C6"/>
<path d="M73.3777 36.814L71.9458 35.9873C71.793 36.2245 71.6379 36.4593 71.4789 36.6903C71.3186 36.9233 71.155 37.1531 70.9885 37.3799L72.5354 38.273C72.6681 38.3496 72.8129 38.386 72.9558 38.386C73.2469 38.386 73.5301 38.2349 73.6861 37.9646C73.9187 37.5617 73.7806 37.0466 73.3777 36.814Z" fill="#824C8D"/>
<path d="M66.649 62.7394L65.1631 61.8814C64.76 61.6488 64.2451 61.7869 64.0124 62.1898C63.7798 62.5927 63.9178 63.1079 64.3207 63.3404L65.6917 64.1319L66.9303 63.8744L66.649 62.7394Z" fill="#D9B6E8"/>
<path d="M68.0811 63.5662L66.6491 62.7395C66.4964 62.9767 66.3413 63.2115 66.1823 63.4425C66.022 63.6755 65.8584 63.9053 65.6919 64.1321L67.2388 65.0252C67.3714 65.1018 67.5162 65.1382 67.6592 65.1382C67.9502 65.1382 68.2334 64.9871 68.3894 64.7168C68.6221 64.3139 68.484 63.7988 68.0811 63.5662Z" fill="#A582C6"/>
<path d="M49.2007 66.5004C49.0169 66.6341 47.0906 66.676 46.9492 67.1114C46.8077 67.5468 48.3413 68.7131 48.4115 68.9292C48.4818 69.1454 47.9264 70.9903 48.2969 71.2595C48.6674 71.5286 50.2504 70.4303 50.4776 70.4303C50.7048 70.4303 52.2879 71.5285 52.6583 71.2595C53.0288 70.9903 52.4734 69.1455 52.5437 68.9292C52.6139 68.7131 54.1475 67.5469 54.006 67.1114C53.8646 66.676 51.9383 66.6339 51.7545 66.5004C51.5706 66.3669 50.9355 64.5479 50.4776 64.5479C50.0198 64.548 49.3846 66.3669 49.2007 66.5004Z" fill="#EACB40"/>
<path d="M54.3409 39.7482C54.157 39.8819 52.2308 39.9238 52.0893 40.3592C51.9478 40.7946 53.4814 41.9609 53.5517 42.177C53.6219 42.3932 53.0666 44.2381 53.4371 44.5073C53.8076 44.7764 55.3905 43.6781 55.6177 43.6781C55.8451 43.6781 57.428 44.7763 57.7984 44.5073C58.1689 44.2381 57.6136 42.3933 57.6838 42.177C57.7541 41.9609 59.2877 40.7947 59.1462 40.3592C59.0047 39.9237 57.0785 39.8817 56.8946 39.7482C56.7107 39.6146 56.0756 37.7957 55.6177 37.7957C55.16 37.7958 54.5247 39.6147 54.3409 39.7482Z" fill="#EACB40"/>
<path d="M41.717 42.9926C40.8258 42.9926 39.9879 42.6456 39.3578 42.0153C39.0288 41.6863 39.0289 41.153 39.3578 40.8241C39.6867 40.4952 40.2201 40.4951 40.549 40.8241C40.8611 41.1362 41.2758 41.308 41.7171 41.308C42.1584 41.308 42.5733 41.1362 42.8852 40.8241C43.2141 40.4952 43.7476 40.4951 44.0765 40.8241C44.4054 41.153 44.4055 41.6863 44.0765 42.0153C43.4461 42.6456 42.6082 42.9926 41.717 42.9926Z" fill="#824C8D"/>
<path d="M36.5768 69.7432C35.7223 69.7432 34.8679 69.418 34.2175 68.7675C33.8885 68.4386 33.8885 67.9052 34.2175 67.5763C34.5464 67.2474 35.0798 67.2474 35.4087 67.5763C36.0529 68.2203 37.1007 68.2202 37.7449 67.5763C38.0738 67.2474 38.6072 67.2474 38.9361 67.5763C39.2651 67.9052 39.2651 68.4386 38.9361 68.7675C38.2856 69.418 37.4312 69.7432 36.5768 69.7432Z" fill="#824C8D"/>
</g>
<defs>
<clipPath id="clip0_200_392">
<rect width="56.641" height="56.641" fill="white" transform="translate(27.4106 25.2683)"/>
</clipPath>
</defs>
</svg>
