<svg width="107" height="107" viewBox="0 0 107 107" fill="none" xmlns="http://www.w3.org/2000/svg">
<g clip-path="url(#clip0_200_374)">
<path d="M50.7605 50.3871C50.3111 50.3871 49.9467 50.0229 49.9466 49.5734L49.9404 31.5956C49.9403 31.146 50.3046 30.7816 50.7541 30.7814H50.7543C51.2038 30.7814 51.5682 31.1456 51.5683 31.5951L51.5745 49.5729C51.5746 50.0224 51.2103 50.3869 50.7608 50.3871H50.7605Z" fill="#824C8D"/>
<path d="M53.4788 75.604C53.0293 75.604 52.6649 75.2395 52.6649 74.7901C52.6649 68.5851 48.9722 65.7135 45.0626 62.6733C41.7593 60.1046 38.3571 57.459 37.5958 52.7414C35.2223 56.0841 35.765 59.6237 36.3354 63.3433C36.9648 67.4475 37.6157 71.6915 33.9415 75.3656C33.6237 75.6834 33.1083 75.6834 32.7904 75.3656C32.4725 75.0478 32.4725 74.5323 32.7904 74.2145C35.8815 71.1233 35.3462 67.6323 34.7263 63.5901C34.072 59.3238 33.3304 54.4883 37.677 50.1416C37.9098 49.9089 38.2601 49.8392 38.5641 49.9652C38.8682 50.0911 39.0666 50.3879 39.0666 50.7172C39.0666 55.9484 42.4645 58.5907 46.0619 61.3881C48.037 62.924 50.0794 64.5122 51.6357 66.584C53.4238 68.9641 54.2928 71.6483 54.2928 74.7899C54.2928 75.2395 53.9284 75.604 53.4788 75.604Z" fill="#FFE177"/>
<path d="M78.4807 61.1493C78.0312 61.1493 77.6667 60.7849 77.6667 60.3353C77.6667 54.1304 73.974 51.2587 70.0644 48.2186C66.7612 45.6499 63.3589 43.0042 62.5976 38.2867C60.2241 41.6294 60.7667 45.1691 61.3372 48.8886C61.9666 52.9929 62.6175 57.2367 58.9433 60.9109C58.6254 61.2287 58.11 61.2287 57.7922 60.9109C57.4742 60.593 57.4742 60.0776 57.7922 59.7598C60.8832 56.6686 60.3479 53.1775 59.7281 49.1353C59.0738 44.8691 58.3322 40.0335 62.6789 35.6869C62.9117 35.4541 63.2619 35.3846 63.5659 35.5104C63.8701 35.6364 64.0684 35.9331 64.0684 36.2624C64.0684 41.4937 67.4663 44.1359 71.0638 46.9334C73.0388 48.4692 75.0812 50.0575 76.6375 52.1292C78.4256 54.5094 79.2947 57.1935 79.2947 60.3352C79.2947 60.7849 78.9302 61.1493 78.4807 61.1493Z" fill="#FFE177"/>
<path d="M75.9213 59.6842H56.1405C55.1403 59.6842 54.671 60.9244 55.4226 61.5844C61.2154 65.636 73.4079 67.0099 75.9213 59.6842Z" fill="#D9B6E8"/>
<path d="M80.7082 59.6842H75.9213C70.4053 64.7197 61.7584 65.3157 55.4226 61.5844C62.4252 67.7332 74.4235 67.7332 81.4261 61.5844C82.1777 60.9244 81.7084 59.6842 80.7082 59.6842Z" fill="#A582C6"/>
<path d="M69.6583 51.7884C69.4806 51.6594 68.8668 49.9016 68.4244 49.9016C67.9819 49.9016 67.3682 51.6594 67.1906 51.7884C67.0129 51.9175 65.1515 51.9581 65.0148 52.3789C64.878 52.7997 66.3601 53.9266 66.428 54.1354C66.4959 54.3443 65.9593 56.1271 66.3172 56.3872C66.6751 56.6472 68.2049 55.586 68.4245 55.586C68.6442 55.586 70.1738 56.6472 70.5319 56.3872C70.8899 56.1271 70.3532 54.3443 70.4211 54.1354C70.489 53.9266 71.971 52.7997 71.8343 52.3789C71.6973 51.9582 69.836 51.9175 69.6583 51.7884Z" fill="#EACB40"/>
<path d="M50.9193 74.1388H31.1385C30.1383 74.1388 29.6691 75.3791 30.4206 76.039C36.2134 80.0906 48.4059 81.4646 50.9193 74.1388Z" fill="#D9B6E8"/>
<path d="M55.7062 74.1388H50.9193C45.4034 79.1742 36.7565 79.7703 30.4207 76.039C37.4233 82.1878 49.4215 82.1878 56.4241 76.039C57.1757 75.3791 56.7064 74.1388 55.7062 74.1388Z" fill="#A582C6"/>
<path d="M44.6563 66.2432C44.4786 66.1141 43.8649 64.3563 43.4225 64.3563C42.9801 64.3563 42.3662 66.1141 42.1886 66.2432C42.011 66.3722 40.1496 66.4128 40.0128 66.8336C39.876 67.2544 41.3581 68.3813 41.426 68.5902C41.4939 68.799 40.9573 70.5818 41.3152 70.8419C41.6732 71.102 43.2029 70.0407 43.4226 70.0407C43.6422 70.0407 45.1719 71.102 45.5299 70.8419C45.888 70.5818 45.3512 68.799 45.4191 68.5902C45.487 68.3813 46.969 67.2544 46.8323 66.8336C46.6953 66.4128 44.8341 66.3722 44.6563 66.2432Z" fill="#EACB40"/>
<path d="M51.5828 44.5765C54.1347 43.1012 55.6076 38.4338 56.584 36.7368C51.9863 39.395 46.7206 42.4392 43.5491 44.2728C45.5069 44.2735 49.0309 46.0519 51.5828 44.5765Z" fill="#D9B6E8"/>
<path d="M50.7476 32.4093C48.9523 32.4093 47.4917 30.9488 47.4917 29.1535C47.4917 27.3582 48.9523 25.8976 50.7476 25.8976C52.5429 25.8976 54.0034 27.3582 54.0034 29.1535C54.0034 30.9488 52.5429 32.4093 50.7476 32.4093ZM50.7476 27.5255C49.8499 27.5255 49.1196 28.2558 49.1196 29.1535C49.1196 30.0511 49.8499 30.7814 50.7476 30.7814C51.6452 30.7814 52.3755 30.0511 52.3755 29.1535C52.3755 28.2558 51.6452 27.5255 50.7476 27.5255Z" fill="#A582C6"/>
<path d="M39.9589 46.3484C39.57 46.5733 39.4367 47.0709 39.6615 47.46C39.879 47.8369 39.937 48.2759 39.8245 48.6962C39.7121 49.1165 39.4429 49.4676 39.0666 49.6849C38.2891 50.1337 37.2916 49.8665 36.8428 49.089C36.6254 48.7125 36.5676 48.2737 36.6801 47.8537C36.7926 47.4336 37.062 47.0826 37.4387 46.8652C37.8279 46.6404 37.9614 46.1426 37.7366 45.7534C37.5118 45.364 37.014 45.2307 36.6247 45.4554C35.8716 45.8903 35.3328 46.5923 35.1077 47.4324C34.8826 48.2724 34.9982 49.1499 35.433 49.9031C35.8678 50.6562 36.5699 51.195 37.41 51.4201C37.6905 51.4953 37.9752 51.5325 38.258 51.5325C38.8222 51.5325 39.379 51.3845 39.8806 51.0949C41.1922 50.3377 41.7775 48.7988 41.3891 47.4021C45.7204 44.898 48.1405 46.9772 52.6682 44.3595C57.1959 41.7419 56.6003 38.6064 60.9314 36.1023C61.9466 37.1356 63.5713 37.3974 64.8825 36.6403C66.4373 35.7427 66.9719 33.7474 66.0742 32.1927C65.6394 31.4395 64.9372 30.9008 64.0972 30.6758C63.2573 30.4508 62.3799 30.5662 61.6266 31.0011C61.2373 31.2259 61.1039 31.7237 61.3287 32.1129C61.5535 32.5023 62.0515 32.6356 62.4405 32.4109C63.218 31.9622 64.2155 32.2294 64.6643 33.0067C65.1132 33.7842 64.8458 34.7817 64.0685 35.2305C63.2911 35.6793 62.2934 35.412 61.8447 34.6347C61.7367 34.4476 61.5588 34.3112 61.3502 34.2554C61.1414 34.1994 60.9193 34.229 60.7323 34.3371L60.7332 34.3381C60.7332 34.3381 59.1087 35.2773 56.584 36.737C55.6075 38.4341 53.1293 41.6438 50.5774 43.1191C48.0255 44.5945 45.5069 44.2737 43.549 44.273C42.5225 44.8662 39.9589 46.3484 39.9589 46.3484Z" fill="#A582C6"/>
<path d="M50.7607 55.5848C52.0612 55.5848 53.1154 54.0447 53.1154 52.1449C53.1154 50.2451 52.0612 48.705 50.7607 48.705C49.4602 48.705 48.406 50.2451 48.406 52.1449C48.406 54.0447 49.4602 55.5848 50.7607 55.5848Z" fill="#FFE177"/>
</g>
<defs>
<clipPath id="clip0_200_374">
<rect width="54.7529" height="54.7529" fill="white" transform="translate(28.5469 25.8976)"/>
</clipPath>
</defs>
</svg>
