<svg width="208" height="50" viewBox="0 0 208 50" fill="none" xmlns="http://www.w3.org/2000/svg">
<path d="M79.665 26.645L77.64 20.66C77.49 20.28 77.33 19.835 77.16 19.325C76.99 18.805 76.82 18.245 76.65 17.645C76.5 18.255 76.34 18.82 76.17 19.34C76 19.86 75.84 20.31 75.69 20.69L73.68 26.645H79.665ZM87.72 35H83.79C83.35 35 82.995 34.9 82.725 34.7C82.455 34.49 82.25 34.225 82.11 33.905L80.82 30.095H72.51L71.22 33.905C71.11 34.185 70.91 34.44 70.62 34.67C70.34 34.89 69.99 35 69.57 35H65.61L74.07 13.145H79.26L87.72 35ZM98.4881 22.85C98.3681 23.04 98.2381 23.175 98.0981 23.255C97.9681 23.335 97.7981 23.375 97.5881 23.375C97.3681 23.375 97.1481 23.33 96.9281 23.24C96.7081 23.14 96.4681 23.035 96.2081 22.925C95.9581 22.815 95.6731 22.715 95.3531 22.625C95.0331 22.525 94.6681 22.475 94.2581 22.475C93.6681 22.475 93.2131 22.59 92.8931 22.82C92.5831 23.04 92.4281 23.35 92.4281 23.75C92.4281 24.04 92.5281 24.28 92.7281 24.47C92.9381 24.66 93.2131 24.83 93.5531 24.98C93.8931 25.12 94.2781 25.255 94.7081 25.385C95.1381 25.515 95.5781 25.66 96.0281 25.82C96.4781 25.98 96.9181 26.17 97.3481 26.39C97.7781 26.6 98.1631 26.865 98.5031 27.185C98.8431 27.495 99.1131 27.875 99.3131 28.325C99.5231 28.775 99.6281 29.315 99.6281 29.945C99.6281 30.715 99.4881 31.425 99.2081 32.075C98.9281 32.725 98.5081 33.285 97.9481 33.755C97.3981 34.225 96.7131 34.59 95.8931 34.85C95.0831 35.11 94.1481 35.24 93.0881 35.24C92.5581 35.24 92.0281 35.19 91.4981 35.09C90.9681 34.99 90.4531 34.855 89.9531 34.685C89.4631 34.515 89.0081 34.315 88.5881 34.085C88.1681 33.845 87.8081 33.59 87.5081 33.32L88.5881 31.61C88.7081 31.41 88.8581 31.255 89.0381 31.145C89.2281 31.025 89.4681 30.965 89.7581 30.965C90.0281 30.965 90.2681 31.025 90.4781 31.145C90.6981 31.265 90.9331 31.395 91.1831 31.535C91.4331 31.675 91.7231 31.805 92.0531 31.925C92.3931 32.045 92.8181 32.105 93.3281 32.105C93.6881 32.105 93.9931 32.07 94.2431 32C94.4931 31.92 94.6931 31.815 94.8431 31.685C94.9931 31.555 95.1031 31.41 95.1731 31.25C95.2431 31.09 95.2781 30.925 95.2781 30.755C95.2781 30.445 95.1731 30.19 94.9631 29.99C94.7531 29.79 94.4781 29.62 94.1381 29.48C93.7981 29.33 93.4081 29.195 92.9681 29.075C92.5381 28.945 92.0981 28.8 91.6481 28.64C91.1981 28.48 90.7531 28.29 90.3131 28.07C89.8831 27.84 89.4981 27.555 89.1581 27.215C88.8181 26.865 88.5431 26.44 88.3331 25.94C88.1231 25.44 88.0181 24.835 88.0181 24.125C88.0181 23.465 88.1431 22.84 88.3931 22.25C88.6531 21.65 89.0381 21.125 89.5481 20.675C90.0581 20.225 90.6981 19.87 91.4681 19.61C92.2381 19.34 93.1381 19.205 94.1681 19.205C94.7281 19.205 95.2681 19.255 95.7881 19.355C96.3181 19.455 96.8131 19.595 97.2731 19.775C97.7331 19.955 98.1531 20.17 98.5331 20.42C98.9131 20.66 99.2481 20.925 99.5381 21.215L98.4881 22.85ZM106.313 12.545V25.13H107.003C107.293 25.13 107.513 25.09 107.663 25.01C107.813 24.92 107.963 24.775 108.113 24.575L111.053 20.195C111.233 19.945 111.438 19.76 111.668 19.64C111.898 19.51 112.193 19.445 112.553 19.445H116.813L112.793 24.98C112.413 25.48 111.963 25.89 111.443 26.21C111.673 26.38 111.883 26.58 112.073 26.81C112.263 27.03 112.443 27.28 112.613 27.56L116.993 35H112.793C112.443 35 112.143 34.945 111.893 34.835C111.643 34.715 111.433 34.51 111.263 34.22L108.323 28.715C108.183 28.465 108.038 28.305 107.888 28.235C107.738 28.155 107.513 28.115 107.213 28.115H106.313V35H101.663V12.545H106.313ZM133.705 15.86H127.375L125.005 35H122.215L124.555 15.86H118.195L118.465 13.505H133.99L133.705 15.86ZM140.607 21.665C140.387 21.615 140.167 21.585 139.947 21.575C139.737 21.555 139.527 21.545 139.317 21.545C138.717 21.545 138.137 21.645 137.577 21.845C137.017 22.035 136.492 22.305 136.002 22.655C135.512 23.005 135.067 23.425 134.667 23.915C134.267 24.395 133.922 24.925 133.632 25.505C133.352 26.085 133.132 26.705 132.972 27.365C132.812 28.015 132.732 28.685 132.732 29.375C132.732 31.785 133.502 32.99 135.042 32.99C135.532 32.99 136.012 32.84 136.482 32.54C136.952 32.23 137.397 31.805 137.817 31.265C138.247 30.715 138.642 30.07 139.002 29.33C139.362 28.58 139.682 27.76 139.962 26.87L140.607 21.665ZM139.587 30.995C139.227 31.635 138.837 32.215 138.417 32.735C138.007 33.255 137.567 33.7 137.097 34.07C136.637 34.43 136.147 34.71 135.627 34.91C135.117 35.11 134.587 35.21 134.037 35.21C133.437 35.21 132.892 35.095 132.402 34.865C131.912 34.625 131.492 34.28 131.142 33.83C130.802 33.37 130.537 32.81 130.347 32.15C130.157 31.48 130.062 30.715 130.062 29.855C130.062 28.955 130.172 28.08 130.392 27.23C130.622 26.37 130.942 25.56 131.352 24.8C131.772 24.04 132.272 23.345 132.852 22.715C133.432 22.075 134.077 21.525 134.787 21.065C135.507 20.595 136.277 20.235 137.097 19.985C137.917 19.725 138.777 19.595 139.677 19.595C140.327 19.595 140.957 19.65 141.567 19.76C142.187 19.86 142.797 20.04 143.397 20.3L141.582 35H140.202C139.852 35 139.612 34.91 139.482 34.73C139.362 34.55 139.302 34.33 139.302 34.07L139.587 30.995ZM149.029 24.035C149.429 23.185 149.859 22.45 150.319 21.83C150.789 21.2 151.279 20.71 151.789 20.36C152.299 20 152.824 19.785 153.364 19.715C153.904 19.635 154.454 19.715 155.014 19.955L154.534 22.52C153.234 22 152.084 22.19 151.084 23.09C150.094 23.99 149.289 25.615 148.669 27.965L147.829 35H145.219L147.049 19.79H148.369C148.979 19.79 149.284 20.09 149.284 20.69L149.029 24.035ZM160.526 33.125C161.256 33.125 161.916 32.925 162.506 32.525C163.106 32.125 163.616 31.595 164.036 30.935C164.466 30.265 164.796 29.495 165.026 28.625C165.256 27.755 165.371 26.845 165.371 25.895C165.371 24.495 165.091 23.445 164.531 22.745C163.981 22.035 163.186 21.68 162.146 21.68C161.406 21.68 160.736 21.88 160.136 22.28C159.546 22.67 159.041 23.195 158.621 23.855C158.201 24.515 157.876 25.28 157.646 26.15C157.416 27.02 157.301 27.93 157.301 28.88C157.301 30.28 157.576 31.34 158.126 32.06C158.676 32.77 159.476 33.125 160.526 33.125ZM160.271 35.21C159.441 35.21 158.681 35.07 157.991 34.79C157.301 34.5 156.706 34.085 156.206 33.545C155.706 33.005 155.316 32.345 155.036 31.565C154.756 30.785 154.616 29.895 154.616 28.895C154.616 27.615 154.816 26.41 155.216 25.28C155.616 24.15 156.166 23.165 156.866 22.325C157.566 21.475 158.386 20.805 159.326 20.315C160.276 19.825 161.296 19.58 162.386 19.58C163.216 19.58 163.976 19.725 164.666 20.015C165.356 20.295 165.951 20.705 166.451 21.245C166.951 21.785 167.341 22.445 167.621 23.225C167.901 24.005 168.041 24.89 168.041 25.88C168.041 27.15 167.841 28.35 167.441 29.48C167.041 30.61 166.491 31.6 165.791 32.45C165.101 33.3 164.281 33.975 163.331 34.475C162.381 34.965 161.361 35.21 160.271 35.21ZM170.809 32.135C170.809 32.075 170.809 32 170.809 31.91C170.809 31.81 170.814 31.67 170.824 31.49C170.844 31.31 170.869 31.075 170.899 30.785C170.939 30.495 170.989 30.115 171.049 29.645L171.979 22.04H170.284C170.144 22.04 170.029 21.995 169.939 21.905C169.859 21.805 169.829 21.655 169.849 21.455L169.969 20.39L172.309 20.075L173.449 15.38C173.499 15.23 173.574 15.11 173.674 15.02C173.784 14.92 173.919 14.87 174.079 14.87H175.474L174.829 20.105H178.819L178.594 22.04H174.589L173.674 29.51C173.624 29.92 173.584 30.25 173.554 30.5C173.524 30.75 173.499 30.95 173.479 31.1C173.469 31.25 173.459 31.355 173.449 31.415C173.449 31.475 173.449 31.52 173.449 31.55C173.449 32.06 173.569 32.44 173.809 32.69C174.049 32.93 174.369 33.05 174.769 33.05C175.039 33.05 175.269 33.015 175.459 32.945C175.659 32.865 175.834 32.78 175.984 32.69C176.134 32.6 176.259 32.52 176.359 32.45C176.459 32.37 176.544 32.33 176.614 32.33C176.704 32.33 176.769 32.35 176.809 32.39C176.859 32.43 176.904 32.495 176.944 32.585L177.514 33.86C177.024 34.29 176.464 34.63 175.834 34.88C175.214 35.12 174.589 35.24 173.959 35.24C172.989 35.24 172.224 34.975 171.664 34.445C171.114 33.915 170.829 33.145 170.809 32.135Z" fill="#9747B0"/>
<g clip-path="url(#clip0_200_11)">
<path d="M3.96799 17.501C3.13522 17.9839 2.44941 18.7565 1.56765 19.1429C1.46968 19.1912 1.37171 19.1912 1.22475 19.2394C0.342992 19.2877 -0.293833 18.3702 0.0980591 17.5976C0.147046 17.501 0.196032 17.4044 0.294005 17.3561C1.81259 16.1489 3.42914 15.0382 4.99671 13.9276C8.76867 11.2716 12.4427 8.56741 16.2636 5.95977C23.9055 0.647895 33.6538 0.696185 41.1977 6.05635C44.9207 8.71228 48.5947 11.5131 52.2197 14.3139C54.767 16.3421 54.718 18.998 52.0727 20.9296C46.2433 25.2274 40.365 29.5252 34.4376 33.7747C31.3514 35.996 28.0204 36.5272 24.4933 34.6439C20.8683 32.7123 18.9579 29.7183 18.9579 25.6137C18.9579 25.0825 19.0068 24.5513 19.0558 23.6821C17.3903 24.8411 15.9697 25.9034 14.5001 26.9175C11.9038 28.8008 9.0136 30.3461 6.66225 32.5191C5.43759 33.6781 5.04569 34.7405 6.61326 35.7545C10.4342 38.2173 13.5204 41.1147 16.9494 43.6258C20.3785 45.7988 24.0524 47.8753 28.4612 47.7304C32.6741 47.6338 36.642 46.668 40.071 44.157C45.1656 40.4869 50.2602 36.7686 55.3548 33.0503C55.6977 32.8089 55.9916 32.4225 56.3835 32.326C56.4815 32.326 56.5305 32.2777 56.6285 32.2777C57.5592 32.1811 58.294 33.0986 57.8531 33.8712C57.8041 33.9678 57.7552 34.0161 57.7062 34.0644C55.5508 35.8028 53.2484 37.3964 50.995 39.0382C47.8109 41.3561 44.6758 43.7223 41.4426 45.992C33.3599 51.5936 22.8278 51.2555 15.1369 45.2193C12.0508 42.8048 9.0136 40.2455 5.78049 38.0242C2.35144 35.658 2.54738 32.6157 7.10313 29.4769C12.1487 26 16.8514 23.006 21.5541 19.2394C25.3751 16.1489 29.0491 14.9417 33.066 17.2113C36.7889 19.336 38.6994 22.5231 38.4545 26.8692C38.4545 27.159 38.4055 27.4487 38.3565 28.2213C42.7653 24.9859 46.8801 22.0402 50.946 18.998C51.9258 18.2736 51.9747 17.163 50.946 16.3904C46.4393 12.9618 42.1285 9.24347 37.2788 6.49095C30.9106 2.91751 24.1994 3.54528 18.0761 7.50504M36.2501 26C36.2501 21.8954 32.919 18.5634 28.8041 18.5634C24.7383 18.5634 21.4072 21.8471 21.3582 25.8551C21.3092 29.9115 24.7383 33.3401 28.8531 33.2918C32.919 33.2435 36.2011 30.0081 36.2501 26Z" fill="#9747B0"/>
<path d="M27.1387 44.0121C24.6894 43.4809 23.3178 43.2394 21.3583 42.0805C18.3702 40.342 15.6759 38.169 12.9327 36.0925C12.8347 36.0443 12.7857 35.9477 12.7367 35.8511C12.1979 35.0302 12.9817 33.9195 13.9614 34.161C14.0594 34.2092 14.1573 34.2092 14.2553 34.3058C16.8516 35.996 19.3009 37.8793 21.8482 39.6177C25.6202 42.2736 30.7148 42.2253 34.4867 39.5211C40.61 35.0785 46.7333 30.6358 52.8566 26.1931C53.2975 25.8551 53.7384 25.4688 54.2283 25.3239C54.6202 25.2274 55.208 25.4205 55.4529 25.7585C55.6489 26.0483 55.5999 26.6278 55.4529 27.0141C55.306 27.3521 54.8651 27.5936 54.5222 27.835C48.2519 32.3742 41.9816 36.9618 35.7604 41.501C33.507 43.1428 30.9597 44.0604 28.1185 44.0604C27.9715 44.2052 27.1877 43.8672 27.1387 44.0121Z" fill="#9747B0"/>
<path d="M42.3241 15.4728C43.9407 17.6942 41.5893 17.7907 41.2464 17.501C39.042 16.004 36.9356 14.4105 34.7802 12.8169C30.1755 9.43662 26.0606 9.38833 21.4069 12.7203C18.6147 14.7485 15.8224 16.7284 12.9812 18.7565C9.79708 21.0262 6.61296 23.2958 3.37986 25.5654C2.69404 26.0483 1.91026 26.9175 1.07749 25.7585C0.293707 24.6962 1.27344 24.2616 1.95925 23.7787C8.32749 19.2394 14.6467 14.6519 21.015 10.2093C25.4728 7.11871 30.8613 7.21529 35.319 10.3541C37.6704 12.0443 39.9728 13.7827 42.3241 15.4728Z" fill="#9747B0"/>
<path d="M28.8039 31.0704C31.6717 31.0704 33.9965 28.7787 33.9965 25.9517C33.9965 23.1247 31.6717 20.833 28.8039 20.833C25.9361 20.833 23.6113 23.1247 23.6113 25.9517C23.6113 28.7787 25.9361 31.0704 28.8039 31.0704Z" fill="#FF6600"/>
</g>
<defs>
<clipPath id="clip0_200_11">
<rect width="58" height="48" fill="white" transform="translate(0 2)"/>
</clipPath>
</defs>
</svg>
