<svg width="218" height="52" viewBox="0 0 218 52" fill="none" xmlns="http://www.w3.org/2000/svg">
<path d="M89.665 28.645L87.64 22.66C87.49 22.28 87.33 21.835 87.16 21.325C86.99 20.805 86.82 20.245 86.65 19.645C86.5 20.255 86.34 20.82 86.17 21.34C86 21.86 85.84 22.31 85.69 22.69L83.68 28.645H89.665ZM97.72 37H93.79C93.35 37 92.995 36.9 92.725 36.7C92.455 36.49 92.25 36.225 92.11 35.905L90.82 32.095H82.51L81.22 35.905C81.11 36.185 80.91 36.44 80.62 36.67C80.34 36.89 79.99 37 79.57 37H75.61L84.07 15.145H89.26L97.72 37ZM108.488 24.85C108.368 25.04 108.238 25.175 108.098 25.255C107.968 25.335 107.798 25.375 107.588 25.375C107.368 25.375 107.148 25.33 106.928 25.24C106.708 25.14 106.468 25.035 106.208 24.925C105.958 24.815 105.673 24.715 105.353 24.625C105.033 24.525 104.668 24.475 104.258 24.475C103.668 24.475 103.213 24.59 102.893 24.82C102.583 25.04 102.428 25.35 102.428 25.75C102.428 26.04 102.528 26.28 102.728 26.47C102.938 26.66 103.213 26.83 103.553 26.98C103.893 27.12 104.278 27.255 104.708 27.385C105.138 27.515 105.578 27.66 106.028 27.82C106.478 27.98 106.918 28.17 107.348 28.39C107.778 28.6 108.163 28.865 108.503 29.185C108.843 29.495 109.113 29.875 109.313 30.325C109.523 30.775 109.628 31.315 109.628 31.945C109.628 32.715 109.488 33.425 109.208 34.075C108.928 34.725 108.508 35.285 107.948 35.755C107.398 36.225 106.713 36.59 105.893 36.85C105.083 37.11 104.148 37.24 103.088 37.24C102.558 37.24 102.028 37.19 101.498 37.09C100.968 36.99 100.453 36.855 99.9531 36.685C99.4631 36.515 99.0081 36.315 98.5881 36.085C98.1681 35.845 97.8081 35.59 97.5081 35.32L98.5881 33.61C98.7081 33.41 98.8581 33.255 99.0381 33.145C99.2281 33.025 99.4681 32.965 99.7581 32.965C100.028 32.965 100.268 33.025 100.478 33.145C100.698 33.265 100.933 33.395 101.183 33.535C101.433 33.675 101.723 33.805 102.053 33.925C102.393 34.045 102.818 34.105 103.328 34.105C103.688 34.105 103.993 34.07 104.243 34C104.493 33.92 104.693 33.815 104.843 33.685C104.993 33.555 105.103 33.41 105.173 33.25C105.243 33.09 105.278 32.925 105.278 32.755C105.278 32.445 105.173 32.19 104.963 31.99C104.753 31.79 104.478 31.62 104.138 31.48C103.798 31.33 103.408 31.195 102.968 31.075C102.538 30.945 102.098 30.8 101.648 30.64C101.198 30.48 100.753 30.29 100.313 30.07C99.8831 29.84 99.4981 29.555 99.1581 29.215C98.8181 28.865 98.5431 28.44 98.3331 27.94C98.1231 27.44 98.0181 26.835 98.0181 26.125C98.0181 25.465 98.1431 24.84 98.3931 24.25C98.6531 23.65 99.0381 23.125 99.5481 22.675C100.058 22.225 100.698 21.87 101.468 21.61C102.238 21.34 103.138 21.205 104.168 21.205C104.728 21.205 105.268 21.255 105.788 21.355C106.318 21.455 106.813 21.595 107.273 21.775C107.733 21.955 108.153 22.17 108.533 22.42C108.913 22.66 109.248 22.925 109.538 23.215L108.488 24.85ZM116.313 14.545V27.13H117.003C117.293 27.13 117.513 27.09 117.663 27.01C117.813 26.92 117.963 26.775 118.113 26.575L121.053 22.195C121.233 21.945 121.438 21.76 121.668 21.64C121.898 21.51 122.193 21.445 122.553 21.445H126.813L122.793 26.98C122.413 27.48 121.963 27.89 121.443 28.21C121.673 28.38 121.883 28.58 122.073 28.81C122.263 29.03 122.443 29.28 122.613 29.56L126.993 37H122.793C122.443 37 122.143 36.945 121.893 36.835C121.643 36.715 121.433 36.51 121.263 36.22L118.323 30.715C118.183 30.465 118.038 30.305 117.888 30.235C117.738 30.155 117.513 30.115 117.213 30.115H116.313V37H111.663V14.545H116.313ZM143.705 17.86H137.375L135.005 37H132.215L134.555 17.86H128.195L128.465 15.505H143.99L143.705 17.86ZM150.607 23.665C150.387 23.615 150.167 23.585 149.947 23.575C149.737 23.555 149.527 23.545 149.317 23.545C148.717 23.545 148.137 23.645 147.577 23.845C147.017 24.035 146.492 24.305 146.002 24.655C145.512 25.005 145.067 25.425 144.667 25.915C144.267 26.395 143.922 26.925 143.632 27.505C143.352 28.085 143.132 28.705 142.972 29.365C142.812 30.015 142.732 30.685 142.732 31.375C142.732 33.785 143.502 34.99 145.042 34.99C145.532 34.99 146.012 34.84 146.482 34.54C146.952 34.23 147.397 33.805 147.817 33.265C148.247 32.715 148.642 32.07 149.002 31.33C149.362 30.58 149.682 29.76 149.962 28.87L150.607 23.665ZM149.587 32.995C149.227 33.635 148.837 34.215 148.417 34.735C148.007 35.255 147.567 35.7 147.097 36.07C146.637 36.43 146.147 36.71 145.627 36.91C145.117 37.11 144.587 37.21 144.037 37.21C143.437 37.21 142.892 37.095 142.402 36.865C141.912 36.625 141.492 36.28 141.142 35.83C140.802 35.37 140.537 34.81 140.347 34.15C140.157 33.48 140.062 32.715 140.062 31.855C140.062 30.955 140.172 30.08 140.392 29.23C140.622 28.37 140.942 27.56 141.352 26.8C141.772 26.04 142.272 25.345 142.852 24.715C143.432 24.075 144.077 23.525 144.787 23.065C145.507 22.595 146.277 22.235 147.097 21.985C147.917 21.725 148.777 21.595 149.677 21.595C150.327 21.595 150.957 21.65 151.567 21.76C152.187 21.86 152.797 22.04 153.397 22.3L151.582 37H150.202C149.852 37 149.612 36.91 149.482 36.73C149.362 36.55 149.302 36.33 149.302 36.07L149.587 32.995ZM159.029 26.035C159.429 25.185 159.859 24.45 160.319 23.83C160.789 23.2 161.279 22.71 161.789 22.36C162.299 22 162.824 21.785 163.364 21.715C163.904 21.635 164.454 21.715 165.014 21.955L164.534 24.52C163.234 24 162.084 24.19 161.084 25.09C160.094 25.99 159.289 27.615 158.669 29.965L157.829 37H155.219L157.049 21.79H158.369C158.979 21.79 159.284 22.09 159.284 22.69L159.029 26.035ZM170.526 35.125C171.256 35.125 171.916 34.925 172.506 34.525C173.106 34.125 173.616 33.595 174.036 32.935C174.466 32.265 174.796 31.495 175.026 30.625C175.256 29.755 175.371 28.845 175.371 27.895C175.371 26.495 175.091 25.445 174.531 24.745C173.981 24.035 173.186 23.68 172.146 23.68C171.406 23.68 170.736 23.88 170.136 24.28C169.546 24.67 169.041 25.195 168.621 25.855C168.201 26.515 167.876 27.28 167.646 28.15C167.416 29.02 167.301 29.93 167.301 30.88C167.301 32.28 167.576 33.34 168.126 34.06C168.676 34.77 169.476 35.125 170.526 35.125ZM170.271 37.21C169.441 37.21 168.681 37.07 167.991 36.79C167.301 36.5 166.706 36.085 166.206 35.545C165.706 35.005 165.316 34.345 165.036 33.565C164.756 32.785 164.616 31.895 164.616 30.895C164.616 29.615 164.816 28.41 165.216 27.28C165.616 26.15 166.166 25.165 166.866 24.325C167.566 23.475 168.386 22.805 169.326 22.315C170.276 21.825 171.296 21.58 172.386 21.58C173.216 21.58 173.976 21.725 174.666 22.015C175.356 22.295 175.951 22.705 176.451 23.245C176.951 23.785 177.341 24.445 177.621 25.225C177.901 26.005 178.041 26.89 178.041 27.88C178.041 29.15 177.841 30.35 177.441 31.48C177.041 32.61 176.491 33.6 175.791 34.45C175.101 35.3 174.281 35.975 173.331 36.475C172.381 36.965 171.361 37.21 170.271 37.21ZM180.809 34.135C180.809 34.075 180.809 34 180.809 33.91C180.809 33.81 180.814 33.67 180.824 33.49C180.844 33.31 180.869 33.075 180.899 32.785C180.939 32.495 180.989 32.115 181.049 31.645L181.979 24.04H180.284C180.144 24.04 180.029 23.995 179.939 23.905C179.859 23.805 179.829 23.655 179.849 23.455L179.969 22.39L182.309 22.075L183.449 17.38C183.499 17.23 183.574 17.11 183.674 17.02C183.784 16.92 183.919 16.87 184.079 16.87H185.474L184.829 22.105H188.819L188.594 24.04H184.589L183.674 31.51C183.624 31.92 183.584 32.25 183.554 32.5C183.524 32.75 183.499 32.95 183.479 33.1C183.469 33.25 183.459 33.355 183.449 33.415C183.449 33.475 183.449 33.52 183.449 33.55C183.449 34.06 183.569 34.44 183.809 34.69C184.049 34.93 184.369 35.05 184.769 35.05C185.039 35.05 185.269 35.015 185.459 34.945C185.659 34.865 185.834 34.78 185.984 34.69C186.134 34.6 186.259 34.52 186.359 34.45C186.459 34.37 186.544 34.33 186.614 34.33C186.704 34.33 186.769 34.35 186.809 34.39C186.859 34.43 186.904 34.495 186.944 34.585L187.514 35.86C187.024 36.29 186.464 36.63 185.834 36.88C185.214 37.12 184.589 37.24 183.959 37.24C182.989 37.24 182.224 36.975 181.664 36.445C181.114 35.915 180.829 35.145 180.809 34.135Z" fill="white"/>
<g clip-path="url(#clip0_391_11)">
<path d="M4.24156 16.7928C3.35136 17.3159 2.61825 18.1529 1.67568 18.5714C1.57095 18.6237 1.46622 18.6238 1.30913 18.6761C0.366562 18.7284 -0.314181 17.7344 0.104738 16.8974C0.157102 16.7928 0.209467 16.6881 0.314197 16.6358C1.93751 15.328 3.66555 14.1248 5.34122 12.9215C9.37332 10.0443 13.3007 7.1147 17.3851 4.28975C25.5541 -1.46478 35.9747 -1.41247 44.0389 4.39437C48.0186 7.27164 51.946 10.3058 55.8209 13.34C58.5439 15.5372 58.4916 18.4145 55.6639 20.507C49.4324 25.163 43.1487 29.8189 36.8125 34.4225C33.5135 36.829 29.9527 37.4044 26.1824 35.3642C22.3074 33.2716 20.2652 30.0282 20.2652 25.5815C20.2652 25.006 20.3176 24.4306 20.3699 23.4889C18.5895 24.7445 17.071 25.8954 15.5 26.994C12.7247 29.0342 9.63514 30.7083 7.12163 33.0624C5.81251 34.3179 5.39359 35.4688 7.06926 36.5674C11.1537 39.2354 14.4527 42.3743 18.1182 45.0946C21.7838 47.4487 25.7112 49.6982 30.424 49.5413C34.9274 49.4366 39.1689 48.3904 42.8345 45.67C48.2804 41.6942 53.7264 37.666 59.1723 33.6378C59.5389 33.3763 59.853 32.9578 60.272 32.8531C60.3767 32.8531 60.4291 32.8008 60.5338 32.8008C61.5287 32.6962 62.3142 33.6902 61.8429 34.5272C61.7905 34.6318 61.7382 34.6841 61.6858 34.7364C59.3818 36.6197 56.9206 38.3461 54.5118 40.1248C51.1081 42.6358 47.7568 45.1992 44.3007 47.658C35.6605 53.7264 24.402 53.3602 16.1807 46.8209C12.8818 44.2052 9.63514 41.4326 6.17906 39.0262C2.51352 36.4628 2.72298 33.167 7.59291 29.7666C12.9865 26 18.0135 22.7565 23.0405 18.6761C27.125 15.328 31.0524 14.0201 35.3463 16.4789C39.326 18.7807 41.3683 22.2334 41.1064 26.9417C41.1064 27.2555 41.0541 27.5694 41.0017 28.4064C45.7145 24.9014 50.1132 21.7103 54.4595 18.4145C55.5068 17.6298 55.5591 16.4266 54.4595 15.5895C49.6419 11.8753 45.0338 7.84709 39.8497 4.8652C33.0422 0.993972 25.8682 1.67405 19.3226 5.96379M38.75 26C38.75 21.5533 35.1892 17.9437 30.7905 17.9437C26.4443 17.9437 22.8835 21.501 22.8311 25.8431C22.7787 30.2374 26.4443 33.9517 30.8429 33.8994C35.1892 33.8471 38.6976 30.3421 38.75 26Z" fill="white"/>
<path d="M29.0103 45.5131C26.3921 44.9377 24.9259 44.6761 22.8313 43.4206C19.637 41.5373 16.7569 39.1831 13.8245 36.9337C13.7198 36.8813 13.6674 36.7767 13.615 36.6721C13.039 35.7827 13.8769 34.5795 14.9242 34.8411C15.0289 34.8934 15.1336 34.8934 15.2384 34.998C18.0137 36.829 20.6319 38.8693 23.3549 40.7526C27.387 43.6298 32.833 43.5775 36.865 40.6479C43.4107 35.8351 49.9563 31.0222 56.5019 26.2093C56.9732 25.8431 57.4444 25.4246 57.9681 25.2677C58.387 25.163 59.0154 25.3723 59.2772 25.7385C59.4867 26.0524 59.4343 26.6801 59.2772 27.0986C59.1201 27.4648 58.6488 27.7264 58.2823 27.988C51.5796 32.9055 44.8769 37.8753 38.2265 42.7928C35.8177 44.5715 33.0948 45.5654 30.0576 45.5654C29.9005 45.7224 29.0627 45.3562 29.0103 45.5131Z" fill="white"/>
<path d="M45.2434 14.5958C46.9714 17.0022 44.4579 17.1069 44.0914 16.793C41.7349 15.1713 39.4832 13.4449 37.1792 11.7185C32.2569 8.05657 27.8582 8.00426 22.8836 11.6139C19.8988 13.8111 16.914 15.956 13.8768 18.1532C10.4731 20.6119 7.0694 23.0707 3.61332 25.5294C2.88021 26.0525 2.04237 26.9942 1.15217 25.7387C0.314333 24.5878 1.36163 24.1169 2.09474 23.5938C8.90217 18.6763 15.6572 13.7065 22.4647 8.89359C27.2299 5.54551 32.99 5.65013 37.7552 9.05053C40.2687 10.8815 42.7299 12.7648 45.2434 14.5958Z" fill="white"/>
<path d="M30.7904 31.4929C33.856 31.4929 36.3411 29.0102 36.3411 25.9476C36.3411 22.885 33.856 20.4023 30.7904 20.4023C27.7249 20.4023 25.2397 22.885 25.2397 25.9476C25.2397 29.0102 27.7249 31.4929 30.7904 31.4929Z" fill="#FF6600"/>
</g>
<defs>
<clipPath id="clip0_391_11">
<rect width="62" height="52" fill="white"/>
</clipPath>
</defs>
</svg>
