<svg width="218" height="52" viewBox="0 0 218 52" fill="none" xmlns="http://www.w3.org/2000/svg">
<path d="M102.685 15.145V37H98.215V24.43C98.215 24.14 98.22 23.825 98.23 23.485C98.25 23.145 98.28 22.8 98.32 22.45L92.515 33.685C92.335 34.035 92.09 34.3 91.78 34.48C91.48 34.66 91.135 34.75 90.745 34.75H90.055C89.665 34.75 89.315 34.66 89.005 34.48C88.705 34.3 88.465 34.035 88.285 33.685L82.48 22.42C82.51 22.78 82.535 23.135 82.555 23.485C82.575 23.825 82.585 24.14 82.585 24.43V37H78.115V15.145H81.985C82.205 15.145 82.395 15.15 82.555 15.16C82.725 15.17 82.875 15.2 83.005 15.25C83.135 15.3 83.25 15.38 83.35 15.49C83.46 15.59 83.565 15.735 83.665 15.925L89.29 27.01C89.49 27.39 89.68 27.785 89.86 28.195C90.05 28.605 90.23 29.025 90.4 29.455C90.57 29.015 90.745 28.585 90.925 28.165C91.115 27.745 91.315 27.345 91.525 26.965L97.135 15.925C97.235 15.735 97.335 15.59 97.435 15.49C97.545 15.38 97.665 15.3 97.795 15.25C97.925 15.2 98.07 15.17 98.23 15.16C98.4 15.15 98.595 15.145 98.815 15.145H102.685ZM113.777 30.67C112.847 30.71 112.082 30.79 111.482 30.91C110.882 31.03 110.407 31.18 110.057 31.36C109.707 31.54 109.462 31.745 109.322 31.975C109.192 32.205 109.127 32.455 109.127 32.725C109.127 33.255 109.272 33.63 109.562 33.85C109.852 34.06 110.277 34.165 110.837 34.165C111.437 34.165 111.962 34.06 112.412 33.85C112.862 33.64 113.317 33.3 113.777 32.83V30.67ZM105.407 23.605C106.347 22.775 107.387 22.16 108.527 21.76C109.677 21.35 110.907 21.145 112.217 21.145C113.157 21.145 114.002 21.3 114.752 21.61C115.512 21.91 116.152 22.335 116.672 22.885C117.202 23.425 117.607 24.07 117.887 24.82C118.167 25.57 118.307 26.39 118.307 27.28V37H116.177C115.737 37 115.402 36.94 115.172 36.82C114.952 36.7 114.767 36.45 114.617 36.07L114.287 35.215C113.897 35.545 113.522 35.835 113.162 36.085C112.802 36.335 112.427 36.55 112.037 36.73C111.657 36.9 111.247 37.025 110.807 37.105C110.377 37.195 109.897 37.24 109.367 37.24C108.657 37.24 108.012 37.15 107.432 36.97C106.852 36.78 106.357 36.505 105.947 36.145C105.547 35.785 105.237 35.34 105.017 34.81C104.797 34.27 104.687 33.65 104.687 32.95C104.687 32.39 104.827 31.825 105.107 31.255C105.387 30.675 105.872 30.15 106.562 29.68C107.252 29.2 108.182 28.8 109.352 28.48C110.522 28.16 111.997 27.98 113.777 27.94V27.28C113.777 26.37 113.587 25.715 113.207 25.315C112.837 24.905 112.307 24.7 111.617 24.7C111.067 24.7 110.617 24.76 110.267 24.88C109.917 25 109.602 25.135 109.322 25.285C109.052 25.435 108.787 25.57 108.527 25.69C108.267 25.81 107.957 25.87 107.597 25.87C107.277 25.87 107.007 25.79 106.787 25.63C106.567 25.47 106.387 25.28 106.247 25.06L105.407 23.605ZM135.859 37H131.389C131.059 37 130.789 36.92 130.579 36.76C130.379 36.6 130.219 36.41 130.099 36.19L127.324 31.42C127.274 31.59 127.214 31.75 127.144 31.9C127.074 32.05 126.999 32.19 126.919 32.32L124.639 36.19C124.499 36.39 124.334 36.575 124.144 36.745C123.954 36.915 123.709 37 123.409 37H119.269L124.489 28.96L119.479 21.445H123.949C124.279 21.445 124.519 21.49 124.669 21.58C124.829 21.66 124.969 21.8 125.089 22L127.864 26.605C127.924 26.425 127.999 26.25 128.089 26.08C128.179 25.9 128.279 25.72 128.389 25.54L130.369 22.075C130.509 21.855 130.654 21.695 130.804 21.595C130.964 21.495 131.159 21.445 131.389 21.445H135.649L130.639 28.75L135.859 37ZM152.582 17.86H146.252L143.882 37H141.092L143.432 17.86H137.072L137.342 15.505H152.867L152.582 17.86ZM159.484 23.665C159.264 23.615 159.044 23.585 158.824 23.575C158.614 23.555 158.404 23.545 158.194 23.545C157.594 23.545 157.014 23.645 156.454 23.845C155.894 24.035 155.369 24.305 154.879 24.655C154.389 25.005 153.944 25.425 153.544 25.915C153.144 26.395 152.799 26.925 152.509 27.505C152.229 28.085 152.009 28.705 151.849 29.365C151.689 30.015 151.609 30.685 151.609 31.375C151.609 33.785 152.379 34.99 153.919 34.99C154.409 34.99 154.889 34.84 155.359 34.54C155.829 34.23 156.274 33.805 156.694 33.265C157.124 32.715 157.519 32.07 157.879 31.33C158.239 30.58 158.559 29.76 158.839 28.87L159.484 23.665ZM158.464 32.995C158.104 33.635 157.714 34.215 157.294 34.735C156.884 35.255 156.444 35.7 155.974 36.07C155.514 36.43 155.024 36.71 154.504 36.91C153.994 37.11 153.464 37.21 152.914 37.21C152.314 37.21 151.769 37.095 151.279 36.865C150.789 36.625 150.369 36.28 150.019 35.83C149.679 35.37 149.414 34.81 149.224 34.15C149.034 33.48 148.939 32.715 148.939 31.855C148.939 30.955 149.049 30.08 149.269 29.23C149.499 28.37 149.819 27.56 150.229 26.8C150.649 26.04 151.149 25.345 151.729 24.715C152.309 24.075 152.954 23.525 153.664 23.065C154.384 22.595 155.154 22.235 155.974 21.985C156.794 21.725 157.654 21.595 158.554 21.595C159.204 21.595 159.834 21.65 160.444 21.76C161.064 21.86 161.674 22.04 162.274 22.3L160.459 37H159.079C158.729 37 158.489 36.91 158.359 36.73C158.239 36.55 158.179 36.33 158.179 36.07L158.464 32.995ZM167.906 26.035C168.306 25.185 168.736 24.45 169.196 23.83C169.666 23.2 170.156 22.71 170.666 22.36C171.176 22 171.701 21.785 172.241 21.715C172.781 21.635 173.331 21.715 173.891 21.955L173.411 24.52C172.111 24 170.961 24.19 169.961 25.09C168.971 25.99 168.166 27.615 167.546 29.965L166.706 37H164.096L165.926 21.79H167.246C167.856 21.79 168.161 22.09 168.161 22.69L167.906 26.035ZM179.403 35.125C180.133 35.125 180.793 34.925 181.383 34.525C181.983 34.125 182.493 33.595 182.913 32.935C183.343 32.265 183.673 31.495 183.903 30.625C184.133 29.755 184.248 28.845 184.248 27.895C184.248 26.495 183.968 25.445 183.408 24.745C182.858 24.035 182.063 23.68 181.023 23.68C180.283 23.68 179.613 23.88 179.013 24.28C178.423 24.67 177.918 25.195 177.498 25.855C177.078 26.515 176.753 27.28 176.523 28.15C176.293 29.02 176.178 29.93 176.178 30.88C176.178 32.28 176.453 33.34 177.003 34.06C177.553 34.77 178.353 35.125 179.403 35.125ZM179.148 37.21C178.318 37.21 177.558 37.07 176.868 36.79C176.178 36.5 175.583 36.085 175.083 35.545C174.583 35.005 174.193 34.345 173.913 33.565C173.633 32.785 173.493 31.895 173.493 30.895C173.493 29.615 173.693 28.41 174.093 27.28C174.493 26.15 175.043 25.165 175.743 24.325C176.443 23.475 177.263 22.805 178.203 22.315C179.153 21.825 180.173 21.58 181.263 21.58C182.093 21.58 182.853 21.725 183.543 22.015C184.233 22.295 184.828 22.705 185.328 23.245C185.828 23.785 186.218 24.445 186.498 25.225C186.778 26.005 186.918 26.89 186.918 27.88C186.918 29.15 186.718 30.35 186.318 31.48C185.918 32.61 185.368 33.6 184.668 34.45C183.978 35.3 183.158 35.975 182.208 36.475C181.258 36.965 180.238 37.21 179.148 37.21ZM189.686 34.135C189.686 34.075 189.686 34 189.686 33.91C189.686 33.81 189.691 33.67 189.701 33.49C189.721 33.31 189.746 33.075 189.776 32.785C189.816 32.495 189.866 32.115 189.926 31.645L190.856 24.04H189.161C189.021 24.04 188.906 23.995 188.816 23.905C188.736 23.805 188.706 23.655 188.726 23.455L188.846 22.39L191.186 22.075L192.326 17.38C192.376 17.23 192.451 17.11 192.551 17.02C192.661 16.92 192.796 16.87 192.956 16.87H194.351L193.706 22.105H197.696L197.471 24.04H193.466L192.551 31.51C192.501 31.92 192.461 32.25 192.431 32.5C192.401 32.75 192.376 32.95 192.356 33.1C192.346 33.25 192.336 33.355 192.326 33.415C192.326 33.475 192.326 33.52 192.326 33.55C192.326 34.06 192.446 34.44 192.686 34.69C192.926 34.93 193.246 35.05 193.646 35.05C193.916 35.05 194.146 35.015 194.336 34.945C194.536 34.865 194.711 34.78 194.861 34.69C195.011 34.6 195.136 34.52 195.236 34.45C195.336 34.37 195.421 34.33 195.491 34.33C195.581 34.33 195.646 34.35 195.686 34.39C195.736 34.43 195.781 34.495 195.821 34.585L196.391 35.86C195.901 36.29 195.341 36.63 194.711 36.88C194.091 37.12 193.466 37.24 192.836 37.24C191.866 37.24 191.101 36.975 190.541 36.445C189.991 35.915 189.706 35.145 189.686 34.135Z" fill="white"/>
<g clip-path="url(#clip0_391_11)">
<path d="M4.24156 16.7928C3.35136 17.3159 2.61825 18.1529 1.67568 18.5714C1.57095 18.6237 1.46622 18.6238 1.30913 18.6761C0.366562 18.7284 -0.314181 17.7344 0.104738 16.8974C0.157102 16.7928 0.209467 16.6881 0.314197 16.6358C1.93751 15.328 3.66555 14.1248 5.34122 12.9215C9.37332 10.0443 13.3007 7.1147 17.3851 4.28975C25.5541 -1.46478 35.9747 -1.41247 44.0389 4.39437C48.0186 7.27164 51.946 10.3058 55.8209 13.34C58.5439 15.5372 58.4916 18.4145 55.6639 20.507C49.4324 25.163 43.1487 29.8189 36.8125 34.4225C33.5135 36.829 29.9527 37.4044 26.1824 35.3642C22.3074 33.2716 20.2652 30.0282 20.2652 25.5815C20.2652 25.006 20.3176 24.4306 20.3699 23.4889C18.5895 24.7445 17.071 25.8954 15.5 26.994C12.7247 29.0342 9.63514 30.7083 7.12163 33.0624C5.81251 34.3179 5.39359 35.4688 7.06926 36.5674C11.1537 39.2354 14.4527 42.3743 18.1182 45.0946C21.7838 47.4487 25.7112 49.6982 30.424 49.5413C34.9274 49.4366 39.1689 48.3904 42.8345 45.67C48.2804 41.6942 53.7264 37.666 59.1723 33.6378C59.5389 33.3763 59.853 32.9578 60.272 32.8531C60.3767 32.8531 60.4291 32.8008 60.5338 32.8008C61.5287 32.6962 62.3142 33.6902 61.8429 34.5272C61.7905 34.6318 61.7382 34.6841 61.6858 34.7364C59.3818 36.6197 56.9206 38.3461 54.5118 40.1248C51.1081 42.6358 47.7568 45.1992 44.3007 47.658C35.6605 53.7264 24.402 53.3602 16.1807 46.8209C12.8818 44.2052 9.63514 41.4326 6.17906 39.0262C2.51352 36.4628 2.72298 33.167 7.59291 29.7666C12.9865 26 18.0135 22.7565 23.0405 18.6761C27.125 15.328 31.0524 14.0201 35.3463 16.4789C39.326 18.7807 41.3683 22.2334 41.1064 26.9417C41.1064 27.2555 41.0541 27.5694 41.0017 28.4064C45.7145 24.9014 50.1132 21.7103 54.4595 18.4145C55.5068 17.6298 55.5591 16.4266 54.4595 15.5895C49.6419 11.8753 45.0338 7.84709 39.8497 4.8652C33.0422 0.993972 25.8682 1.67405 19.3226 5.96379M38.75 26C38.75 21.5533 35.1892 17.9437 30.7905 17.9437C26.4443 17.9437 22.8835 21.501 22.8311 25.8431C22.7787 30.2374 26.4443 33.9517 30.8429 33.8994C35.1892 33.8471 38.6976 30.3421 38.75 26Z" fill="white"/>
<path d="M29.0103 45.5131C26.3921 44.9377 24.9259 44.6761 22.8313 43.4206C19.637 41.5373 16.7569 39.1831 13.8245 36.9337C13.7198 36.8813 13.6674 36.7767 13.615 36.6721C13.039 35.7827 13.8769 34.5795 14.9242 34.8411C15.0289 34.8934 15.1336 34.8934 15.2384 34.998C18.0137 36.829 20.6319 38.8693 23.3549 40.7526C27.387 43.6298 32.833 43.5775 36.865 40.6479C43.4107 35.8351 49.9563 31.0222 56.5019 26.2093C56.9732 25.8431 57.4444 25.4246 57.9681 25.2677C58.387 25.163 59.0154 25.3723 59.2772 25.7385C59.4867 26.0524 59.4343 26.6801 59.2772 27.0986C59.1201 27.4648 58.6488 27.7264 58.2823 27.988C51.5796 32.9055 44.8769 37.8753 38.2265 42.7928C35.8177 44.5715 33.0948 45.5654 30.0576 45.5654C29.9005 45.7224 29.0627 45.3562 29.0103 45.5131Z" fill="white"/>
<path d="M45.2434 14.5958C46.9714 17.0022 44.4579 17.1069 44.0914 16.793C41.7349 15.1713 39.4832 13.4449 37.1792 11.7185C32.2569 8.05657 27.8582 8.00426 22.8836 11.6139C19.8988 13.8111 16.914 15.956 13.8768 18.1532C10.4731 20.6119 7.0694 23.0707 3.61332 25.5294C2.88021 26.0525 2.04237 26.9942 1.15217 25.7387C0.314333 24.5878 1.36163 24.1169 2.09474 23.5938C8.90217 18.6763 15.6572 13.7065 22.4647 8.89359C27.2299 5.54551 32.99 5.65013 37.7552 9.05053C40.2687 10.8815 42.7299 12.7648 45.2434 14.5958Z" fill="white"/>
<path d="M30.7904 31.4929C33.856 31.4929 36.3411 29.0102 36.3411 25.9476C36.3411 22.885 33.856 20.4023 30.7904 20.4023C27.7249 20.4023 25.2397 22.885 25.2397 25.9476C25.2397 29.0102 27.7249 31.4929 30.7904 31.4929Z" fill="#FF6600"/>
</g>
<defs>
<clipPath id="clip0_391_11">
<rect width="62" height="52" fill="white"/>
</clipPath>
</defs>
</svg>
