<svg width="208" height="50" viewBox="0 0 208 50" fill="none" xmlns="http://www.w3.org/2000/svg">
<path d="M92.685 13.145V35H88.215V22.43C88.215 22.14 88.22 21.825 88.23 21.485C88.25 21.145 88.28 20.8 88.32 20.45L82.515 31.685C82.335 32.035 82.09 32.3 81.78 32.48C81.48 32.66 81.135 32.75 80.745 32.75H80.055C79.665 32.75 79.315 32.66 79.005 32.48C78.705 32.3 78.465 32.035 78.285 31.685L72.48 20.42C72.51 20.78 72.535 21.135 72.555 21.485C72.575 21.825 72.585 22.14 72.585 22.43V35H68.115V13.145H71.985C72.205 13.145 72.395 13.15 72.555 13.16C72.725 13.17 72.875 13.2 73.005 13.25C73.135 13.3 73.25 13.38 73.35 13.49C73.46 13.59 73.565 13.735 73.665 13.925L79.29 25.01C79.49 25.39 79.68 25.785 79.86 26.195C80.05 26.605 80.23 27.025 80.4 27.455C80.57 27.015 80.745 26.585 80.925 26.165C81.115 25.745 81.315 25.345 81.525 24.965L87.135 13.925C87.235 13.735 87.335 13.59 87.435 13.49C87.545 13.38 87.665 13.3 87.795 13.25C87.925 13.2 88.07 13.17 88.23 13.16C88.4 13.15 88.595 13.145 88.815 13.145H92.685ZM103.777 28.67C102.847 28.71 102.082 28.79 101.482 28.91C100.882 29.03 100.407 29.18 100.057 29.36C99.7066 29.54 99.4616 29.745 99.3216 29.975C99.1916 30.205 99.1266 30.455 99.1266 30.725C99.1266 31.255 99.2716 31.63 99.5616 31.85C99.8516 32.06 100.277 32.165 100.837 32.165C101.437 32.165 101.962 32.06 102.412 31.85C102.862 31.64 103.317 31.3 103.777 30.83V28.67ZM95.4066 21.605C96.3466 20.775 97.3866 20.16 98.5266 19.76C99.6766 19.35 100.907 19.145 102.217 19.145C103.157 19.145 104.002 19.3 104.752 19.61C105.512 19.91 106.152 20.335 106.672 20.885C107.202 21.425 107.607 22.07 107.887 22.82C108.167 23.57 108.307 24.39 108.307 25.28V35H106.177C105.737 35 105.402 34.94 105.172 34.82C104.952 34.7 104.767 34.45 104.617 34.07L104.287 33.215C103.897 33.545 103.522 33.835 103.162 34.085C102.802 34.335 102.427 34.55 102.037 34.73C101.657 34.9 101.247 35.025 100.807 35.105C100.377 35.195 99.8966 35.24 99.3666 35.24C98.6566 35.24 98.0116 35.15 97.4316 34.97C96.8516 34.78 96.3566 34.505 95.9466 34.145C95.5466 33.785 95.2366 33.34 95.0166 32.81C94.7966 32.27 94.6866 31.65 94.6866 30.95C94.6866 30.39 94.8266 29.825 95.1066 29.255C95.3866 28.675 95.8716 28.15 96.5616 27.68C97.2516 27.2 98.1816 26.8 99.3516 26.48C100.522 26.16 101.997 25.98 103.777 25.94V25.28C103.777 24.37 103.587 23.715 103.207 23.315C102.837 22.905 102.307 22.7 101.617 22.7C101.067 22.7 100.617 22.76 100.267 22.88C99.9166 23 99.6016 23.135 99.3216 23.285C99.0516 23.435 98.7866 23.57 98.5266 23.69C98.2666 23.81 97.9566 23.87 97.5966 23.87C97.2766 23.87 97.0066 23.79 96.7866 23.63C96.5666 23.47 96.3866 23.28 96.2466 23.06L95.4066 21.605ZM125.859 35H121.389C121.059 35 120.789 34.92 120.579 34.76C120.379 34.6 120.219 34.41 120.099 34.19L117.324 29.42C117.274 29.59 117.214 29.75 117.144 29.9C117.074 30.05 116.999 30.19 116.919 30.32L114.639 34.19C114.499 34.39 114.334 34.575 114.144 34.745C113.954 34.915 113.709 35 113.409 35H109.269L114.489 26.96L109.479 19.445H113.949C114.279 19.445 114.519 19.49 114.669 19.58C114.829 19.66 114.969 19.8 115.089 20L117.864 24.605C117.924 24.425 117.999 24.25 118.089 24.08C118.179 23.9 118.279 23.72 118.389 23.54L120.369 20.075C120.509 19.855 120.654 19.695 120.804 19.595C120.964 19.495 121.159 19.445 121.389 19.445H125.649L120.639 26.75L125.859 35ZM142.582 15.86H136.252L133.882 35H131.092L133.432 15.86H127.072L127.342 13.505H142.867L142.582 15.86ZM149.484 21.665C149.264 21.615 149.044 21.585 148.824 21.575C148.614 21.555 148.404 21.545 148.194 21.545C147.594 21.545 147.014 21.645 146.454 21.845C145.894 22.035 145.369 22.305 144.879 22.655C144.389 23.005 143.944 23.425 143.544 23.915C143.144 24.395 142.799 24.925 142.509 25.505C142.229 26.085 142.009 26.705 141.849 27.365C141.689 28.015 141.609 28.685 141.609 29.375C141.609 31.785 142.379 32.99 143.919 32.99C144.409 32.99 144.889 32.84 145.359 32.54C145.829 32.23 146.274 31.805 146.694 31.265C147.124 30.715 147.519 30.07 147.879 29.33C148.239 28.58 148.559 27.76 148.839 26.87L149.484 21.665ZM148.464 30.995C148.104 31.635 147.714 32.215 147.294 32.735C146.884 33.255 146.444 33.7 145.974 34.07C145.514 34.43 145.024 34.71 144.504 34.91C143.994 35.11 143.464 35.21 142.914 35.21C142.314 35.21 141.769 35.095 141.279 34.865C140.789 34.625 140.369 34.28 140.019 33.83C139.679 33.37 139.414 32.81 139.224 32.15C139.034 31.48 138.939 30.715 138.939 29.855C138.939 28.955 139.049 28.08 139.269 27.23C139.499 26.37 139.819 25.56 140.229 24.8C140.649 24.04 141.149 23.345 141.729 22.715C142.309 22.075 142.954 21.525 143.664 21.065C144.384 20.595 145.154 20.235 145.974 19.985C146.794 19.725 147.654 19.595 148.554 19.595C149.204 19.595 149.834 19.65 150.444 19.76C151.064 19.86 151.674 20.04 152.274 20.3L150.459 35H149.079C148.729 35 148.489 34.91 148.359 34.73C148.239 34.55 148.179 34.33 148.179 34.07L148.464 30.995ZM157.906 24.035C158.306 23.185 158.736 22.45 159.196 21.83C159.666 21.2 160.156 20.71 160.666 20.36C161.176 20 161.701 19.785 162.241 19.715C162.781 19.635 163.331 19.715 163.891 19.955L163.411 22.52C162.111 22 160.961 22.19 159.961 23.09C158.971 23.99 158.166 25.615 157.546 27.965L156.706 35H154.096L155.926 19.79H157.246C157.856 19.79 158.161 20.09 158.161 20.69L157.906 24.035ZM169.403 33.125C170.133 33.125 170.793 32.925 171.383 32.525C171.983 32.125 172.493 31.595 172.913 30.935C173.343 30.265 173.673 29.495 173.903 28.625C174.133 27.755 174.248 26.845 174.248 25.895C174.248 24.495 173.968 23.445 173.408 22.745C172.858 22.035 172.063 21.68 171.023 21.68C170.283 21.68 169.613 21.88 169.013 22.28C168.423 22.67 167.918 23.195 167.498 23.855C167.078 24.515 166.753 25.28 166.523 26.15C166.293 27.02 166.178 27.93 166.178 28.88C166.178 30.28 166.453 31.34 167.003 32.06C167.553 32.77 168.353 33.125 169.403 33.125ZM169.148 35.21C168.318 35.21 167.558 35.07 166.868 34.79C166.178 34.5 165.583 34.085 165.083 33.545C164.583 33.005 164.193 32.345 163.913 31.565C163.633 30.785 163.493 29.895 163.493 28.895C163.493 27.615 163.693 26.41 164.093 25.28C164.493 24.15 165.043 23.165 165.743 22.325C166.443 21.475 167.263 20.805 168.203 20.315C169.153 19.825 170.173 19.58 171.263 19.58C172.093 19.58 172.853 19.725 173.543 20.015C174.233 20.295 174.828 20.705 175.328 21.245C175.828 21.785 176.218 22.445 176.498 23.225C176.778 24.005 176.918 24.89 176.918 25.88C176.918 27.15 176.718 28.35 176.318 29.48C175.918 30.61 175.368 31.6 174.668 32.45C173.978 33.3 173.158 33.975 172.208 34.475C171.258 34.965 170.238 35.21 169.148 35.21ZM179.686 32.135C179.686 32.075 179.686 32 179.686 31.91C179.686 31.81 179.691 31.67 179.701 31.49C179.721 31.31 179.746 31.075 179.776 30.785C179.816 30.495 179.866 30.115 179.926 29.645L180.856 22.04H179.161C179.021 22.04 178.906 21.995 178.816 21.905C178.736 21.805 178.706 21.655 178.726 21.455L178.846 20.39L181.186 20.075L182.326 15.38C182.376 15.23 182.451 15.11 182.551 15.02C182.661 14.92 182.796 14.87 182.956 14.87H184.351L183.706 20.105H187.696L187.471 22.04H183.466L182.551 29.51C182.501 29.92 182.461 30.25 182.431 30.5C182.401 30.75 182.376 30.95 182.356 31.1C182.346 31.25 182.336 31.355 182.326 31.415C182.326 31.475 182.326 31.52 182.326 31.55C182.326 32.06 182.446 32.44 182.686 32.69C182.926 32.93 183.246 33.05 183.646 33.05C183.916 33.05 184.146 33.015 184.336 32.945C184.536 32.865 184.711 32.78 184.861 32.69C185.011 32.6 185.136 32.52 185.236 32.45C185.336 32.37 185.421 32.33 185.491 32.33C185.581 32.33 185.646 32.35 185.686 32.39C185.736 32.43 185.781 32.495 185.821 32.585L186.391 33.86C185.901 34.29 185.341 34.63 184.711 34.88C184.091 35.12 183.466 35.24 182.836 35.24C181.866 35.24 181.101 34.975 180.541 34.445C179.991 33.915 179.706 33.145 179.686 32.135Z" fill="#9747B0"/>
<g clip-path="url(#clip0_36_37)">
<path d="M3.96793 17.501C3.13516 17.9839 2.44935 18.7565 1.56759 19.1429C1.46962 19.1912 1.37165 19.1912 1.22469 19.2394C0.34293 19.2877 -0.293894 18.3702 0.097998 17.5976C0.146985 17.501 0.195971 17.4044 0.293944 17.3561C1.81252 16.1489 3.42908 15.0382 4.99665 13.9276C8.76861 11.2716 12.4426 8.56741 16.2635 5.95977C23.9054 0.647895 33.6537 0.696185 41.1977 6.05635C44.9206 8.71228 48.5946 11.5131 52.2196 14.3139C54.7669 16.3421 54.7179 18.998 52.0727 20.9296C46.2433 25.2274 40.3649 29.5252 34.4375 33.7747C31.3514 35.996 28.0203 36.5272 24.4933 34.6439C20.8683 32.7123 18.9578 29.7183 18.9578 25.6137C18.9578 25.0825 19.0068 24.5513 19.0558 23.6821C17.3902 24.8411 15.9696 25.9034 14.5 26.9175C11.9037 28.8008 9.01354 30.3461 6.66219 32.5191C5.43752 33.6781 5.04563 34.7405 6.6132 35.7545C10.4341 38.2173 13.5203 41.1147 16.9493 43.6258C20.3784 45.7988 24.0524 47.8753 28.4612 47.7304C32.674 47.6338 36.6419 46.668 40.071 44.157C45.1656 40.4869 50.2602 36.7686 55.3548 33.0503C55.6977 32.8089 55.9916 32.4225 56.3835 32.326C56.4814 32.326 56.5304 32.2777 56.6284 32.2777C57.5591 32.1811 58.2939 33.0986 57.8531 33.8712C57.8041 33.9678 57.7551 34.0161 57.7061 34.0644C55.5507 35.8028 53.2483 37.3964 50.995 39.0382C47.8108 41.3561 44.6757 43.7223 41.4426 45.992C33.3598 51.5936 22.8277 51.2555 15.1368 45.2193C12.0507 42.8048 9.01354 40.2455 5.78043 38.0242C2.35138 35.658 2.54732 32.6157 7.10307 29.4769C12.1487 26 16.8514 23.006 21.5541 19.2394C25.375 16.1489 29.049 14.9417 33.0659 17.2113C36.7889 19.336 38.6993 22.5231 38.4544 26.8692C38.4544 27.159 38.4054 27.4487 38.3564 28.2213C42.7652 24.9859 46.8801 22.0402 50.946 18.998C51.9257 18.2736 51.9747 17.163 50.946 16.3904C46.4392 12.9618 42.1284 9.24347 37.2787 6.49095C30.9105 2.91751 24.1993 3.54528 18.076 7.50504M36.25 26C36.25 21.8954 32.9189 18.5634 28.8041 18.5634C24.7382 18.5634 21.4071 21.8471 21.3581 25.8551C21.3091 29.9115 24.7382 33.3401 28.8531 33.2918C32.9189 33.2435 36.201 30.0081 36.25 26Z" fill="#9747B0"/>
<path d="M27.1385 44.0121C24.6892 43.4809 23.3176 43.2394 21.3581 42.0805C18.3699 40.342 15.6757 38.169 12.9324 36.0925C12.8344 36.0443 12.7855 35.9477 12.7365 35.8511C12.1976 35.0302 12.9814 33.9195 13.9611 34.161C14.0591 34.2092 14.1571 34.2092 14.2551 34.3058C16.8513 35.996 19.3007 37.8793 21.848 39.6177C25.6199 42.2736 30.7145 42.2253 34.4865 39.5211C40.6098 35.0785 46.7331 30.6358 52.8564 26.1931C53.2973 25.8551 53.7382 25.4688 54.228 25.3239C54.6199 25.2274 55.2078 25.4205 55.4527 25.7585C55.6486 26.0483 55.5996 26.6278 55.4527 27.0141C55.3057 27.3521 54.8648 27.5936 54.5219 27.835C48.2517 32.3742 41.9814 36.9618 35.7601 41.501C33.5067 43.1428 30.9594 44.0604 28.1182 44.0604C27.9713 44.2052 27.1875 43.8672 27.1385 44.0121Z" fill="#9747B0"/>
<path d="M42.3243 15.4729C43.9408 17.6942 41.5895 17.7908 41.2466 17.501C39.0422 16.0041 36.9358 14.4105 34.7804 12.8169C30.1756 9.43665 26.0608 9.38836 21.4071 12.7203C18.6148 14.7485 15.8226 16.7284 12.9814 18.7566C9.79727 21.0262 6.61315 23.2958 3.38004 25.5654C2.69423 26.0483 1.91044 26.9175 1.07767 25.7586C0.29389 24.6962 1.27362 24.2616 1.95943 23.7787C8.32767 19.2395 14.6469 14.6519 21.0152 10.2093C25.4729 7.11874 30.8615 7.21532 35.3192 10.3542C37.6706 12.0443 39.9729 13.7827 42.3243 15.4729Z" fill="#9747B0"/>
<path d="M28.8041 31.0704C31.6719 31.0704 33.9966 28.7787 33.9966 25.9517C33.9966 23.1247 31.6719 20.833 28.8041 20.833C25.9363 20.833 23.6115 23.1247 23.6115 25.9517C23.6115 28.7787 25.9363 31.0704 28.8041 31.0704Z" fill="#FF6600"/>
</g>
<defs>
<clipPath id="clip0_36_37">
<rect width="58" height="48" fill="white" transform="translate(0 2)"/>
</clipPath>
</defs>
</svg>
