<svg width="55" height="55" viewBox="0 0 55 55" fill="none" xmlns="http://www.w3.org/2000/svg">
<path d="M9.30273 21.334C9.94727 20.6895 10.3125 19.8193 10.3125 18.9062V12.0312C10.3125 11.0859 11.0859 10.3125 12.0312 10.3125H18.9062C19.8193 10.3125 20.6895 9.94727 21.334 9.30273L26.9951 3.6416C27.124 3.5127 27.3066 3.4375 27.5 3.4375C27.6934 3.4375 27.8652 3.5127 28.0049 3.6416L33.666 9.30273C34.3105 9.94727 35.1807 10.3125 36.0938 10.3125H42.9688C43.9141 10.3125 44.6875 11.0859 44.6875 12.0312V18.9062C44.6875 19.8193 45.0527 20.6895 45.6973 21.334L51.3584 26.9951C51.4873 27.124 51.5625 27.3066 51.5625 27.5C51.5625 27.6934 51.4873 27.8652 51.3584 28.0049L45.6973 33.666C45.0527 34.3105 44.6875 35.1807 44.6875 36.0938V42.9688C44.6875 43.9141 43.9141 44.6875 42.9688 44.6875H36.0938C35.1807 44.6875 34.3105 45.0527 33.666 45.6973L28.0049 51.3584C27.876 51.4873 27.6934 51.5625 27.5 51.5625C27.3066 51.5625 27.1348 51.4873 26.9951 51.3584L21.334 45.6973C20.6895 45.0527 19.8193 44.6875 18.9062 44.6875H12.0312C11.0859 44.6875 10.3125 43.9141 10.3125 42.9688V36.0938C10.3125 35.1807 9.94727 34.3105 9.30273 33.666L3.6416 28.0049C3.5127 27.876 3.4375 27.6934 3.4375 27.5C3.4375 27.3066 3.5127 27.1348 3.6416 26.9951L9.30273 21.334ZM6.875 12.0312V18.9062L1.21387 24.5674C0.44043 25.3408 0 26.4043 0 27.5C0 28.5957 0.44043 29.6592 1.21387 30.4326L6.875 36.0938V42.9688C6.875 45.8154 9.18457 48.125 12.0312 48.125H18.9062L24.5674 53.7861C25.3408 54.5596 26.4043 55 27.5 55C28.5957 55 29.6592 54.5596 30.4326 53.7861L36.0938 48.125H42.9688C45.8154 48.125 48.125 45.8154 48.125 42.9688V36.0938L53.7861 30.4326C54.5596 29.6592 55 28.5957 55 27.5C55 26.4043 54.5596 25.3408 53.7861 24.5674L48.125 18.9062V12.0312C48.125 9.18457 45.8154 6.875 42.9688 6.875H36.0938L30.4326 1.21387C29.6592 0.44043 28.5957 0 27.5 0C26.4043 0 25.3408 0.44043 24.5674 1.21387L18.9062 6.875H12.0312C9.18457 6.875 6.875 9.18457 6.875 12.0312ZM18.1221 18.2402L18.1006 18.3154C17.8643 19.2285 18.4121 20.1738 19.3252 20.4102C20.2383 20.6465 21.1836 20.0986 21.4199 19.1855L21.4414 19.1104C21.7422 17.9717 22.7627 17.1875 23.9336 17.1875H30.0674C31.958 17.1875 33.5049 18.7451 33.5049 20.6572C33.5049 21.957 32.7744 23.1494 31.625 23.7402L26.7051 26.2539C26.125 26.5439 25.7705 27.1348 25.7705 27.79V30.959C25.7705 31.9043 26.5439 32.6777 27.4893 32.6777C28.4346 32.6777 29.208 31.9043 29.208 30.959V28.8428L33.1934 26.8125C35.5029 25.6309 36.9424 23.2461 36.9424 20.668C36.9424 16.8867 33.8809 13.7607 30.0674 13.7607H23.9336C21.1943 13.7607 18.8096 15.6084 18.1113 18.251L18.1221 18.2402ZM30.0781 37.8125C30.0781 37.1287 29.8065 36.473 29.323 35.9895C28.8395 35.506 28.1838 35.2344 27.5 35.2344C26.8162 35.2344 26.1605 35.506 25.677 35.9895C25.1935 36.473 24.9219 37.1287 24.9219 37.8125C24.9219 38.4963 25.1935 39.152 25.677 39.6355C26.1605 40.119 26.8162 40.3906 27.5 40.3906C28.1838 40.3906 28.8395 40.119 29.323 39.6355C29.8065 39.152 30.0781 38.4963 30.0781 37.8125Z" fill="#FF6600"/>
</svg>
