<svg width="38" height="38" viewBox="0 0 38 38" fill="none" xmlns="http://www.w3.org/2000/svg">
<path d="M4.38462 0C3.22174 0 2.1065 0.461949 1.28422 1.28422C0.461949 2.1065 0 3.22174 0 4.38462V26.3077C0 29.4087 1.23186 32.3827 3.4246 34.5754C5.61733 36.7681 8.59131 38 11.6923 38V35.0769C9.36656 35.0769 7.13608 34.153 5.49153 32.5085C3.84698 30.8639 2.92308 28.6334 2.92308 26.3077V17.5385H13.1538C14.3167 17.5385 15.432 17.0765 16.2542 16.2542C17.0765 15.432 17.5385 14.3167 17.5385 13.1538V4.38462C17.5385 3.22174 17.0765 2.1065 16.2542 1.28422C15.432 0.461949 14.3167 0 13.1538 0H4.38462ZM24.8462 0C23.6833 0 22.568 0.461949 21.7458 1.28422C20.9235 2.1065 20.4615 3.22174 20.4615 4.38462V26.3077C20.4615 29.4087 21.6934 32.3827 23.8861 34.5754C26.0789 36.7681 29.0529 38 32.1538 38V35.0769C29.8281 35.0769 27.5976 34.153 25.9531 32.5085C24.3085 30.8639 23.3846 28.6334 23.3846 26.3077V17.5385H33.6154C34.7783 17.5385 35.8935 17.0765 36.7158 16.2542C37.5381 15.432 38 14.3167 38 13.1538V4.38462C38 3.22174 37.5381 2.1065 36.7158 1.28422C35.8935 0.461949 34.7783 0 33.6154 0H24.8462Z" fill="#9747B0"/>
</svg>
