<svg width="38" height="38" viewBox="0 0 38 38" fill="none" xmlns="http://www.w3.org/2000/svg">
<path d="M33.6154 38C34.7783 38 35.8935 37.5381 36.7158 36.7158C37.5381 35.8935 38 34.7783 38 33.6154L38 11.6923C38 8.59132 36.7681 5.61733 34.5754 3.4246C32.3827 1.23187 29.4087 7.51077e-07 26.3077 1.02217e-06L26.3077 2.92308C28.6334 2.92308 30.8639 3.84697 32.5085 5.49152C34.153 7.13607 35.0769 9.36656 35.0769 11.6923L35.0769 20.4615L24.8462 20.4615C23.6833 20.4615 22.568 20.9235 21.7458 21.7458C20.9235 22.568 20.4615 23.6833 20.4615 24.8462L20.4615 33.6154C20.4615 34.7783 20.9235 35.8935 21.7458 36.7158C22.568 37.5381 23.6833 38 24.8462 38L33.6154 38ZM13.1538 38C14.3167 38 15.432 37.5381 16.2542 36.7158C17.0765 35.8935 17.5385 34.7783 17.5385 33.6154L17.5385 11.6923C17.5385 8.59132 16.3066 5.61733 14.1139 3.4246C11.9211 1.23187 8.94714 2.53988e-06 5.84615 2.81098e-06L5.84615 2.92308C8.1719 2.92308 10.4024 3.84698 12.0469 5.49153C13.6915 7.13608 14.6154 9.36657 14.6154 11.6923L14.6154 20.4615L4.38462 20.4615C3.22174 20.4615 2.1065 20.9235 1.28422 21.7458C0.461947 22.568 -1.25161e-06 23.6833 -1.14995e-06 24.8462L-3.83315e-07 33.6154C-2.81654e-07 34.7783 0.461948 35.8935 1.28423 36.7158C2.1065 37.5381 3.22174 38 4.38462 38L13.1538 38Z" fill="#9747B0"/>
</svg>
